<svg width="486" height="323" viewBox="0 0 486 323" fill="none" xmlns="http://www.w3.org/2000/svg">
<g clip-path="url(#clip0_245_1907)">
<path d="M365.54 12.4791C361.868 14.5385 355.942 6.39294 354.599 10.3773C353.256 14.3616 356.509 30.4381 358.187 34.2938C359.021 36.2103 360.2 37.9631 361.018 39.8863C361.837 41.8095 362.276 44.0208 361.552 45.9816C360.293 49.3939 356.138 50.7819 354.078 53.7811C351.679 57.2742 352.648 61.979 353.77 66.0635C354.736 69.5841 355.767 73.1365 357.628 76.279C359.489 79.4215 362.294 82.1578 365.8 83.1975C370.264 84.5213 375.035 82.9481 379.338 81.1719C383.476 79.4643 387.568 77.5285 391.087 74.7658C394.606 72.0031 397.542 68.3361 398.772 64.0396C400.315 58.6502 399.026 52.7522 396.355 47.8219C393.683 42.8916 389.731 38.7842 385.676 34.9063C378.847 28.3752 371.579 22.3008 363.938 16.7374L365.54 12.4791Z" fill="#2F2E41"/>
<path d="M420.145 289.015L416.678 321.307L416.52 322.783L377.302 322.631L377.095 321.149L372.943 291.56L420.145 289.015Z" fill="#FFB6B6"/>
<path d="M360.181 321.085C360.181 321.573 360.176 322.065 360.172 322.562L319.459 322.404L319.326 320.923L316.816 292.835L358.914 287.741C358.914 287.741 360.27 302.639 360.181 321.085Z" fill="#FFB6B6"/>
<path d="M355.65 69.6818C362.117 77.8126 373.519 80.1688 382.72 75.3291C395.855 68.4208 413.788 60.5033 416.957 66.8299C422.06 77.016 422.06 86.9013 422.06 86.9013L427.163 205.616C427.163 205.616 429.714 253.549 397.822 249.318C365.929 245.087 316.176 262.913 316.176 262.913L321.258 210.321L334.828 190.493L340.326 133.605L330.847 87.8387L342.328 82.7457C342.328 82.7457 343.604 73.8328 347.431 73.8328C351.258 73.8328 352.182 65.2709 355.547 69.5518C355.581 69.5947 355.615 69.638 355.65 69.6818Z" fill="#333232"/>
<path d="M424.839 322.818L416.52 322.783L377.303 322.631L372.199 322.611L371.903 321.13L364.013 281.377L362.78 321.095L362.736 322.572L360.172 322.562L319.459 322.404L316.54 322.39L316.53 320.913L316.358 292.84L316.2 266.843L316.175 262.91L316.18 262.905L328.37 238.242L331.926 231.047L332.655 229.57L339.776 215.164L404.207 206.261L405.193 206.123L422.699 203.707L422.827 210.868L422.901 214.933L423.163 229.57L423.192 231.047L423.222 232.735L424.81 321.336L424.839 322.818Z" fill="#2F2E41"/>
<path d="M374.711 65.9056C389.425 65.9056 401.353 54.0004 401.353 39.3146C401.353 24.6288 389.425 12.7235 374.711 12.7235C359.997 12.7235 348.069 24.6288 348.069 39.3146C348.069 54.0004 359.997 65.9056 374.711 65.9056Z" fill="#FFB6B6"/>
<path d="M404.744 80.9598C398.526 89.8131 395.346 100.752 395.851 111.552C388.8 108.144 384.042 100.942 382.422 93.2915C380.803 85.6414 382.038 77.6089 384.641 70.2339C384.667 70.1602 384.693 70.0865 384.719 70.0128C388.671 58.9432 384.999 46.5712 375.455 39.6899C369.017 35.0484 363.434 29.2252 359.149 22.5503C356.729 18.7821 354.673 14.055 356.48 9.95908C358.146 6.18487 362.448 4.42085 366.407 3.24053C375.447 0.545349 385.053 -0.988245 394.332 0.717187C403.611 2.42262 412.543 7.7485 416.929 16.0864C421.314 24.4243 420.165 35.8034 413.047 41.9845C415.292 42.709 416.881 45.084 416.69 47.4312C416.499 49.7784 414.548 51.867 412.216 52.221C413.738 52.1672 414.636 54.1677 414.093 55.5879C413.551 57.008 412.151 57.8901 410.816 58.6211C408.914 59.6623 406.806 60.751 406.798 63.4776C406.794 64.5709 407.185 65.632 407.823 66.5205C409.37 68.6738 411.867 69.6435 414.27 70.5539C409.186 72.0484 405.133 76.5835 404.222 81.7945L404.744 80.9598Z" fill="#2F2E41"/>
<path d="M291.138 70.6729C290.411 63.0597 293.757 56.5141 298.612 56.0531C303.466 55.5921 307.989 61.3897 308.716 69.0057C309.048 72.044 308.646 75.1175 307.544 77.9689L310.216 110.265L295.004 111.194L293.985 79.2568C292.363 76.6635 291.386 73.7201 291.138 70.6729Z" fill="#FFB6B6"/>
<path d="M374.013 85.9939C374.013 85.9939 349.161 71.4033 344.045 73.5918C338.928 75.7804 314.077 112.986 314.077 112.986L311.792 106.197L294.342 107.88C294.342 107.88 284.109 155.299 306.767 150.922C329.426 146.545 366.704 105.691 366.704 105.691L374.013 85.9939Z" fill="#333232"/>
<path d="M143.446 164.39C143.446 164.39 157.478 156.179 161.257 163.793C165.036 171.406 199.946 262.23 199.946 262.23L177.45 266.601L143.446 164.39Z" fill="#333232"/>
<path d="M112.842 110.134L113.503 111.074C111.037 112.495 110.674 116.079 111.83 118.681C112.986 121.282 115.225 123.21 117.161 125.299C119.097 127.389 120.862 129.977 120.682 132.818C120.481 136.014 117.87 138.646 117.507 141.828C116.981 146.462 121.304 150.528 121.089 155.188C120.927 158.746 118.186 161.605 115.466 163.913C113.337 165.723 111.02 167.542 109.583 169.876C109.189 170.519 108.861 171.205 108.62 171.94C107.547 175.253 108.558 178.864 109.92 182.069C111.278 185.273 113.008 188.403 113.433 191.857C113.854 195.31 112.548 199.297 109.364 200.713C115.706 200.171 121.895 197.964 127.147 194.375C127.62 194.051 128.08 193.719 128.535 193.378C135.981 187.782 141.211 179.699 146.244 171.822C146.66 171.175 147.072 170.523 147.488 169.876C148.605 168.123 149.726 166.375 150.847 164.622C154.044 159.612 157.281 154.528 159.024 148.853C160.628 143.62 160.899 138.09 161.556 132.657C161.876 129.994 162.296 127.341 162.375 124.661C162.502 120.538 161.797 116.399 160.36 112.53C158.954 108.726 156.843 105.181 154.123 102.165C151.338 99.074 147.93 96.5603 144.181 94.7505C140.55 92.9975 136.599 91.9089 132.574 91.6073C131.225 91.5068 129.88 91.4893 128.535 91.5505C123.231 91.7691 117.988 93.1068 112.89 94.7505C109.141 96.5603 105.733 99.074 102.948 102.165C100.228 105.181 98.1164 108.726 96.7104 112.53C101.599 109.924 107.406 109.028 112.842 110.134Z" fill="#2F2E41"/>
<path d="M150.855 157.959L125.706 148.115L125.069 157.959L103.022 161.404L92.6665 208.161L102.036 237.199L172.059 239.168L169.593 229.324C169.593 229.324 180.935 216.528 174.031 195.856L173.265 190.595C171.26 176.84 162.984 164.788 150.855 157.959Z" fill="#333232"/>
<path d="M136.857 147.673C149.194 147.673 159.195 137.691 159.195 125.378C159.195 113.065 149.194 103.083 136.857 103.083C124.52 103.083 114.519 113.065 114.519 125.378C114.519 137.691 124.52 147.673 136.857 147.673Z" fill="#A0616A"/>
<path d="M94.6955 124.661C94.7743 127.341 95.1948 129.994 95.5146 132.657C96.1716 138.09 96.4431 143.62 98.0462 148.853C99.7894 154.528 103.026 159.612 106.224 164.622C107.345 166.375 108.466 168.123 109.583 169.876C109.999 170.523 110.411 171.175 110.827 171.822C115.86 179.699 121.089 187.782 128.535 193.378C128.991 193.719 129.451 194.051 129.924 194.375C135.175 197.964 141.364 200.171 147.706 200.713C144.522 199.297 143.217 195.31 143.637 191.857C144.062 188.403 145.792 185.273 147.15 182.069C148.512 178.864 149.524 175.253 148.451 171.94C148.21 171.205 147.882 170.519 147.487 169.876C146.051 167.542 143.734 165.723 141.605 163.913C138.885 161.605 136.143 158.746 135.981 155.188C135.767 150.528 132.784 152.088 132.258 147.454C131.895 144.272 127.642 138.847 127.44 135.651C127.261 132.81 129.008 125.937 130.944 123.848C132.88 121.758 131.102 115.52 132.258 112.919C133.415 110.318 146.033 112.495 143.567 111.074L144.229 110.134C149.664 109.028 155.472 109.924 160.36 112.53C161.425 113.094 162.441 113.736 163.404 114.462C165.73 110.222 162.971 104.84 159.217 101.784C155.542 98.7854 151.013 97.0543 146.519 95.5286C145.744 95.2663 144.965 95.0041 144.181 94.7505C139.082 93.1067 133.839 91.7691 128.535 91.5505C127.191 91.4893 125.846 91.5068 124.497 91.6073C120.472 91.9089 116.521 92.9975 112.89 94.7505C109.141 96.5603 105.733 99.074 102.947 102.165C100.227 105.181 98.1163 108.726 96.7103 112.53C95.2737 116.399 94.5685 120.538 94.6955 124.661Z" fill="#2F2E41"/>
<path d="M484.62 302.89L453.485 237.593C451.162 232.72 446.167 229.57 440.757 229.57H47.4838C45.9895 229.57 44.535 229.802 43.164 230.245C39.6974 231.352 36.7486 233.774 35.0029 237.101L1.62841 300.601C-0.679364 304.986 -0.526467 310.144 2.03774 314.387C4.597 318.634 9.08939 321.184 14.0551 321.204L316.54 322.39L319.46 322.404L360.172 322.562L362.736 322.572L372.199 322.611L377.303 322.631L416.52 322.783L424.839 322.818L471.839 323H471.898C476.75 323 481.193 320.559 483.797 316.469C486.41 312.359 486.716 307.28 484.62 302.89Z" fill="white"/>
<path d="M484.62 302.89L453.485 237.593C451.162 232.72 446.167 229.57 440.757 229.57H47.4838C45.9895 229.57 44.535 229.802 43.164 230.245C39.6974 231.352 36.7486 233.774 35.0029 237.101L1.62841 300.601C-0.679364 304.986 -0.526467 310.144 2.03774 314.387C4.597 318.634 9.08939 321.184 14.0551 321.204L316.54 322.39L319.46 322.404L360.172 322.562L362.736 322.572L372.199 322.611L377.303 322.631L416.52 322.783L424.839 322.818L471.839 323H471.898C476.75 323 481.193 320.559 483.797 316.469C486.41 312.359 486.716 307.28 484.62 302.89ZM482.549 315.676C480.217 319.343 476.242 321.523 471.898 321.523H471.844L424.81 321.336L416.678 321.307L377.096 321.149L371.903 321.13L362.78 321.095L360.181 321.085L319.326 320.923L316.53 320.913L14.06 319.727C9.61705 319.707 5.59311 317.429 3.30509 313.629C1.012 309.829 0.874036 305.213 2.94018 301.285L36.3146 237.79C37.5177 235.501 39.3521 233.69 41.5466 232.523C43.3366 231.569 45.3683 231.047 47.4838 231.047H440.757C445.6 231.047 450.068 233.867 452.148 238.228L483.284 303.52C485.163 307.457 484.887 312 482.549 315.676Z" fill="#3F3D56"/>
<path d="M139.759 276.819L214.221 249.749L176.99 234.804L102.775 254.179L139.759 276.819Z" fill="#F2F2F2"/>
<path d="M253.177 235.969L244.794 262.546L342.925 268.452L334.542 238.429L253.177 235.969Z" fill="#F2F2F2"/>
<path d="M137.505 240.515C144.404 241.198 149.644 245.304 149.208 249.687C148.771 254.069 142.825 257.067 135.923 256.383C133.163 256.147 130.499 255.256 128.154 253.782L98.957 250.52L100.783 236.877L129.372 241.541C131.962 240.556 134.75 240.204 137.505 240.515Z" fill="#A0616A"/>
<path d="M108.2 164.111L103.022 161.404C103.022 161.404 94.8854 161.65 89.4611 167.064C84.0368 172.478 40.149 234.492 40.149 234.492C40.149 234.492 29.3004 251.226 56.422 253.687C83.5437 256.148 113.624 256.148 113.624 256.148L116.09 235.969L75.1606 231.539L103.822 193.641L108.2 164.111Z" fill="#333232"/>
<path d="M262.068 157.555C257.093 159.027 251.836 159.858 246.407 159.937C246.086 159.947 245.766 159.952 245.445 159.952C240.534 159.952 235.765 159.347 231.204 158.205L231.322 157.038L233.975 131.499L234.143 129.865L231.682 122.497H261.871L261.388 129.698L261.21 132.321L261.472 133.153L268.129 154.327L268.425 155.271C266.363 156.152 264.243 156.915 262.068 157.555Z" fill="#333232"/>
<path d="M231.204 158.205C224.039 156.418 217.391 153.308 211.538 149.159C209.127 147.854 206.784 146.442 204.541 144.946L205.65 144.389L233.526 130.476L233.975 131.499L245.978 158.963L246.407 159.937C246.086 159.947 245.766 159.952 245.445 159.952C240.534 159.952 235.765 159.347 231.204 158.205Z" fill="#2F2E41"/>
<path d="M291.936 137.081C291.813 137.248 291.685 137.41 291.557 137.573C289.476 140.211 287.168 142.662 284.673 144.901L284.653 143.587L284.584 138.749C284.584 138.749 286.576 137.297 289.037 136.918C289.624 136.825 290.24 136.795 290.861 136.864C291.221 136.899 291.576 136.967 291.936 137.081Z" fill="#2F2E41"/>
<path d="M284.673 144.901C279.899 149.198 274.416 152.722 268.425 155.271C266.363 156.152 264.243 156.915 262.068 157.555L262.044 156.536L261.472 133.153L261.388 129.698L289.037 136.918L290.506 137.302L291.557 137.573C289.476 140.211 287.168 142.662 284.673 144.901Z" fill="#2F2E41"/>
<path d="M247.061 114.513C259.292 114.513 269.207 104.617 269.207 92.4097C269.207 80.2022 259.292 70.306 247.061 70.306C234.83 70.306 224.915 80.2022 224.915 92.4097C224.915 104.617 234.83 114.513 247.061 114.513Z" fill="#A0616A"/>
<path d="M262.046 156.536C256.947 158.072 251.557 158.914 245.98 158.963L246.409 159.937C251.838 159.859 257.095 159.027 262.07 157.555L262.046 156.536ZM205.652 144.39C194.286 133.906 187.071 119.003 186.781 102.446C175.177 115.853 186.707 133.06 204.543 144.946C206.786 146.442 209.129 147.854 211.54 149.159C209.474 147.697 207.506 146.102 205.652 144.39ZM291.366 64.9573C280.607 51.4717 264.023 42.8143 245.447 42.8143C213.093 42.8143 186.766 69.0867 186.766 101.383C186.766 101.738 186.771 102.092 186.781 102.446C187.086 102.087 187.412 101.733 187.752 101.383C204.025 84.6493 213.636 43.7987 245.447 43.7987C264.043 43.7987 280.611 52.6234 291.169 66.301C298.675 76.0165 303.142 88.188 303.142 101.383C303.142 103.298 303.048 105.193 302.861 107.058C302.743 108.298 302.58 109.529 302.378 110.744C300.908 119.677 297.373 127.931 292.279 134.984C291.82 135.624 291.347 136.249 290.863 136.864C290.745 137.012 290.632 137.159 290.508 137.302C288.714 139.542 286.756 141.643 284.655 143.587C279.837 148.056 274.255 151.708 268.131 154.327C266.158 155.178 264.126 155.916 262.046 156.536C256.947 158.072 251.557 158.914 245.98 158.963C245.802 158.968 245.625 158.968 245.447 158.968C240.979 158.968 236.191 158.284 231.324 157.038C224.677 155.34 217.877 152.604 211.54 149.159C217.393 153.308 224.041 156.418 231.206 158.205C235.767 159.347 240.536 159.952 245.447 159.952C245.768 159.952 246.088 159.947 246.409 159.937C251.838 159.859 257.095 159.027 262.07 157.555C264.245 156.915 266.365 156.153 268.426 155.272C274.418 152.722 279.901 149.198 284.675 144.901C287.17 142.662 289.478 140.211 291.559 137.573C291.687 137.41 291.815 137.248 291.939 137.081C292.106 136.864 292.274 136.643 292.436 136.421C298.014 129.004 301.86 120.224 303.389 110.68C303.586 109.455 303.744 108.215 303.862 106.96C304.04 105.124 304.128 103.263 304.128 101.383C304.128 87.6269 299.355 74.9633 291.366 64.9573Z" fill="#E6E6E6"/>
<path d="M227.226 104.168C223.241 100.416 220.462 95.4426 223.243 84.8402C223.45 84.0509 222.895 83.2035 222.359 82.5873C221.824 81.9711 220.813 81.6847 220.177 82.1975C220.63 80.8664 226.835 76.1121 227.288 74.7811C226.759 75.4814 222.724 76.9827 222.401 76.1673C222.078 75.3519 222.361 74.4357 222.645 73.6059L224.339 68.6591C224.765 67.4148 226.446 68.9014 227.288 67.8906C228.798 66.0797 227.075 64.1709 229.38 63.6632C236.923 62.0015 244.919 60.517 252.247 62.9559C255.448 64.0212 258.359 65.7911 261.238 67.5463L266.508 70.7579C269.53 72.6003 272.814 74.786 273.642 78.223L268.109 76.2495C269.341 78.8686 270.585 81.5202 271.148 84.3585C271.712 87.1969 270.187 97.8842 268.71 100.374C267.413 102.562 266.494 96.6868 266.068 99.193C266.556 94.27 264.336 89.1633 260.4 86.1567C259.592 85.5401 258.672 84.947 258.313 83.9978C257.912 82.9391 258.314 81.666 257.767 80.6747C257.087 79.4422 255.312 79.3247 253.988 79.8085C252.665 80.2923 251.507 81.2015 250.136 81.5274C246.5 82.3913 243.193 78.9605 239.465 78.7025C235.914 78.4567 232.737 81.2316 231.26 84.4647C229.783 87.6978 225.698 86.9979 225.316 90.5307C224.934 94.0635 230.511 101.055 228.275 103.819L227.226 104.168Z" fill="#2F2E41"/>
<path d="M224.43 137.125L222.778 135.84L222.394 135.545C222.024 135.255 221.536 135.156 221.077 135.27L219.144 135.752C218.942 135.801 218.725 135.742 218.577 135.594L216.407 133.429C216.259 133.281 216.2 133.065 216.249 132.863L216.732 130.933C216.851 130.476 216.747 129.993 216.456 129.619L214.874 127.587C214.834 127.537 214.79 127.488 214.745 127.444C214.144 126.843 213.172 126.843 212.571 127.444L211.658 128.354C211.002 129.004 210.717 129.984 211.037 130.889C211.856 133.212 213.187 135.324 214.938 137.061C215.559 137.681 216.225 138.252 216.93 138.764C218.212 139.689 219.622 140.428 221.121 140.954C222.034 141.274 223.01 140.989 223.661 140.339L224.573 139.423C225.229 138.774 225.16 137.696 224.43 137.125ZM223.908 138.764L222.995 139.674C222.566 140.098 221.965 140.255 221.432 140.068C220.175 139.63 218.986 139.03 217.886 138.282C217.068 137.735 216.304 137.1 215.603 136.397C213.956 134.758 212.699 132.769 211.925 130.579C211.737 130.048 211.895 129.447 212.319 129.019L213.236 128.108C213.251 128.089 213.271 128.074 213.291 128.059C213.552 127.857 213.927 127.902 214.129 128.162L215.712 130.195C215.825 130.338 215.865 130.53 215.82 130.707L215.337 132.636C215.204 133.158 215.362 133.714 215.741 134.093L217.911 136.259C218.291 136.643 218.848 136.795 219.371 136.662L221.304 136.18C221.481 136.136 221.674 136.175 221.817 136.288L221.841 136.308L223.853 137.868C223.873 137.883 223.893 137.903 223.908 137.917C224.144 138.154 224.144 138.528 223.908 138.764Z" fill="#CCCCCC"/>
<path d="M243.68 132.677C243.924 132.677 244.122 132.874 244.122 133.117V133.998C244.122 135.944 245.702 137.521 247.652 137.521C249.601 137.521 251.181 135.944 251.181 133.998V133.117C251.181 132.874 251.379 132.677 251.623 132.677C251.866 132.677 252.064 132.874 252.064 133.117V133.998C252.064 136.26 250.347 138.154 248.093 138.38V140.163H250.74C250.984 140.163 251.181 140.36 251.181 140.604C251.181 140.847 250.984 141.044 250.74 141.044H244.563C244.319 141.044 244.122 140.847 244.122 140.604C244.122 140.36 244.319 140.163 244.563 140.163H247.21V138.38C244.956 138.154 243.239 136.26 243.239 133.998V133.117C243.239 132.874 243.437 132.677 243.68 132.677Z" fill="#CCCCCC"/>
<path d="M247.651 126.952C246.192 126.952 245.003 128.133 245.003 129.595V134C245.003 135.457 246.192 136.638 247.651 136.638C249.116 136.638 250.299 135.457 250.299 134V129.595C250.299 128.133 249.116 126.952 247.651 126.952ZM249.417 134C249.417 134.969 248.628 135.762 247.651 135.762C246.675 135.762 245.886 134.969 245.886 134V129.595C245.886 128.62 246.675 127.833 247.651 127.833C248.628 127.833 249.417 128.62 249.417 129.595V134Z" fill="#CCCCCC"/>
<path d="M278.19 127.124C276.805 126.656 275.301 127.395 274.832 128.778L275.577 129.521C275.626 128.586 276.405 127.852 277.347 127.857C278.319 127.862 279.108 128.655 279.103 129.624V133.04L279.985 133.921V129.624C279.985 128.497 279.26 127.488 278.19 127.124ZM280.429 140.196H277.781V138.41C278.555 138.336 279.295 138.055 279.926 137.598L279.29 136.963C278.733 137.337 278.062 137.553 277.337 137.553C275.389 137.553 273.807 135.973 273.807 134.029V133.148C273.807 133.069 273.787 132.991 273.742 132.927C273.668 132.799 273.53 132.71 273.368 132.71C273.289 132.71 273.215 132.73 273.151 132.769C273.017 132.843 272.924 132.986 272.924 133.148V134.029C272.924 136.288 274.645 138.183 276.898 138.41V140.196H274.25C274.004 140.196 273.807 140.393 273.807 140.634C273.807 140.88 274.004 141.077 274.25 141.077H280.429C280.671 141.077 280.868 140.88 280.868 140.634C280.868 140.393 280.671 140.196 280.429 140.196ZM281.312 132.71C281.065 132.71 280.868 132.907 280.868 133.148V134.029C280.868 134.265 280.843 134.502 280.799 134.733L280.843 134.777L281.514 135.452C281.563 135.299 281.608 135.146 281.642 134.989C281.716 134.679 281.751 134.359 281.751 134.029V133.148C281.751 132.907 281.553 132.71 281.312 132.71Z" fill="#CCCCCC"/>
<path d="M279.157 134.339L272.357 127.552L271.73 128.177L277.46 133.896L282.323 138.744L282.944 138.119L279.157 134.339ZM277.988 135.668C277.086 136.027 276.06 135.585 275.7 134.679C275.616 134.472 275.572 134.251 275.572 134.029V133.257L274.689 132.376V134.029C274.689 135.486 275.878 136.672 277.337 136.672C277.796 136.672 278.249 136.554 278.649 136.328L277.988 135.668Z" fill="#CCCCCC"/>
<path d="M396.936 230.544C391.082 234.883 384.094 235.385 381.328 231.666C378.563 227.947 381.066 221.417 386.923 217.078C389.238 215.312 391.944 214.126 394.813 213.618L419.848 195.548L428.094 207.455L402.538 224.005C401.221 226.6 399.3 228.842 396.936 230.544Z" fill="#FFB6B6"/>
<path d="M412.708 83.3823C412.708 83.3823 432.904 84.0189 436.731 98.0249C440.558 112.031 448.212 141.884 446.936 183.334C446.936 183.334 453.315 210.072 436.731 208.799L413.768 218.985L398.459 198.613L411.217 183.334L412.708 83.3823Z" fill="#333232"/>
</g>
<defs>
<clipPath id="clip0_245_1907">
<rect width="486" height="323" fill="white"/>
</clipPath>
</defs>
</svg>
