<svg width="84" height="84" viewBox="0 0 84 84" fill="none" xmlns="http://www.w3.org/2000/svg">
<path d="M50.4937 34.7181H33.9505M12.538 36.3876L36.348 52.4703C38.4704 53.8984 39.5319 54.6123 40.679 54.8898C41.6924 55.1348 42.7492 55.1348 43.763 54.8898C44.9101 54.6123 45.9715 53.8984 48.094 52.4703L71.9039 36.3876M36.5911 16.5833L17.4011 28.7455C15.5915 29.8924 14.6868 30.4658 14.0305 31.241C13.4497 31.9271 13.0126 32.7249 12.7458 33.5862C12.4443 34.5593 12.4443 35.6376 12.4443 37.794V59.0929C12.4443 62.833 12.4443 64.7031 13.1656 66.1316C13.8 67.3881 14.8123 68.4098 16.0574 69.0499C17.4729 69.7778 19.326 69.7778 23.032 69.7778H61.4122C65.1182 69.7778 66.9714 69.7778 68.3869 69.0499C69.6319 68.4098 70.6443 67.3881 71.2786 66.1316C71.9999 64.7031 71.9999 62.833 71.9999 59.0929V37.794C71.9999 35.6376 71.9999 34.5593 71.6985 33.5862C71.4315 32.7249 70.9947 31.9271 70.4137 31.241C69.7576 30.4658 68.8527 29.8924 67.0432 28.7455L47.8531 16.5832C45.8107 15.2889 44.7896 14.6418 43.6941 14.3895C42.725 14.1665 41.7192 14.1665 40.7501 14.3895C39.6546 14.6418 38.6336 15.2889 36.5911 16.5833Z" stroke="black" stroke-width="5" stroke-linecap="round" stroke-linejoin="round"/>
<rect x="3" y="3" width="78" height="78" rx="4" stroke="black" stroke-width="2"/>
</svg>
