<svg width="84" height="84" viewBox="0 0 84 84" fill="none" xmlns="http://www.w3.org/2000/svg">
<rect x="3" y="3" width="78" height="78" rx="4" stroke="black" stroke-width="2"/>
<path d="M27.7917 31.6667C29.9319 31.6667 31.6667 29.9318 31.6667 27.7917C31.6667 25.6516 29.9319 23.9167 27.7917 23.9167C25.6516 23.9167 23.9167 25.6516 23.9167 27.7917C23.9167 29.9318 25.6516 31.6667 27.7917 31.6667Z" fill="#0F0F0F"/>
<path d="M23.9167 36.8333C23.9167 35.4066 25.0734 34.25 26.5001 34.25H29.0834C30.5101 34.25 31.6667 35.4066 31.6667 36.8333V57.5C31.6667 58.9268 30.5101 60.0833 29.0834 60.0833H26.5001C25.0734 60.0833 23.9167 58.9268 23.9167 57.5V36.8333Z" fill="#0F0F0F"/>
<path d="M39.4166 60.0833H41.9999C43.4267 60.0833 44.5833 58.9268 44.5833 57.5V45.875C44.5833 42 52.3333 39.4167 52.3333 44.5833V57.501C52.3333 58.9278 53.4898 60.0833 54.9166 60.0833H57.4999C58.9267 60.0833 60.0833 58.9268 60.0833 57.5V42C60.0833 36.8333 56.2083 34.25 51.0416 34.25C45.8749 34.25 44.5833 38.125 44.5833 38.125V36.8333C44.5833 35.4066 43.4267 34.25 41.9999 34.25H39.4166C37.9898 34.25 36.8333 35.4066 36.8333 36.8333V57.5C36.8333 58.9268 37.9898 60.0833 39.4166 60.0833Z" fill="#0F0F0F"/>
<path fill-rule="evenodd" clip-rule="evenodd" d="M62.6666 13.5833C66.9469 13.5833 70.4166 17.0531 70.4166 21.3333V62.6666C70.4166 66.947 66.9469 70.4166 62.6666 70.4166H21.3333C17.0531 70.4166 13.5833 66.947 13.5833 62.6666V21.3333C13.5833 17.0531 17.0531 13.5833 21.3333 13.5833H62.6666ZM62.6666 18.75C64.0934 18.75 65.2499 19.9066 65.2499 21.3333V62.6666C65.2499 64.0934 64.0934 65.25 62.6666 65.25H21.3333C19.9065 65.25 18.7499 64.0934 18.7499 62.6666V21.3333C18.7499 19.9066 19.9065 18.75 21.3333 18.75H62.6666Z" fill="#0F0F0F"/>
</svg>
