<svg width="84" height="84" viewBox="0 0 84 84" fill="none" xmlns="http://www.w3.org/2000/svg">
<path d="M73.5 19.25C73.5 49.2114 49.2114 73.5 19.25 73.5C17.8982 73.5 16.558 73.4506 15.231 73.3533C13.7082 73.2417 12.9467 73.1861 12.2536 72.7871C11.6795 72.4567 11.1351 71.8708 10.8474 71.274C10.5 70.5537 10.5 69.7133 10.5 68.033V58.1725C10.5 56.7592 10.5 56.0525 10.7326 55.447C10.938 54.9119 11.2717 54.4355 11.7043 54.0596C12.1941 53.634 12.8582 53.3925 14.1862 52.9095L25.4102 48.8282C26.9554 48.2664 27.7279 47.9853 28.4609 48.0329C29.1073 48.0749 29.7293 48.2958 30.2577 48.6703C30.857 49.0948 31.28 49.7998 32.1259 51.2099L35 56C44.2746 51.7997 51.7933 44.2712 56 35L51.2099 32.1259C49.7998 31.28 49.0948 30.857 48.6703 30.2577C48.2958 29.7293 48.0749 29.1073 48.0329 28.4609C47.9853 27.7279 48.2664 26.9554 48.8282 25.4102L52.9095 14.1862C53.3925 12.8582 53.634 12.1941 54.0596 11.7043C54.4355 11.2717 54.9119 10.938 55.447 10.7326C56.0525 10.5 56.7592 10.5 58.1725 10.5H68.033C69.7133 10.5 70.5537 10.5 71.274 10.8474C71.8708 11.1351 72.4567 11.6795 72.7871 12.2536C73.1861 12.9467 73.2417 13.7082 73.3533 15.2311C73.4506 16.558 73.5 17.8982 73.5 19.25Z" stroke="black" stroke-width="5" stroke-linecap="round" stroke-linejoin="round"/>
<rect x="3" y="3" width="78" height="78" rx="4" stroke="black" stroke-width="2"/>
</svg>
