<svg width="1280" height="182" viewBox="0 0 1280 182" fill="none" xmlns="http://www.w3.org/2000/svg">
<g clip-path="url(#clip0_416_167)">
<rect width="1280" height="182" fill="#F2F2F2"/>
<path d="M188 91C188 161.14 131.14 218 61 218C-9.14016 218 -66 161.14 -66 91C-66 20.8598 -9.14016 -36 61 -36C131.14 -36 188 20.8598 188 91Z" fill="url(#paint0_linear_416_167)"/>
<path d="M107 91C107 161.14 50.1402 218 -20 218C-90.1402 218 -147 161.14 -147 91C-147 20.8598 -90.1402 -36 -20 -36C50.1402 -36 107 20.8598 107 91Z" fill="url(#paint1_linear_416_167)"/>
<path d="M185.5 91C185.5 159.759 129.759 215.5 61 215.5C49.7008 215.5 38.7531 213.995 28.3466 211.174C75.9199 192.017 109.5 145.43 109.5 91C109.5 36.5701 75.9199 -10.0168 28.3466 -29.1739C38.7531 -31.9948 49.7008 -33.5 61 -33.5C129.759 -33.5 185.5 22.2406 185.5 91ZM-20 -33.5C-8.70076 -33.5 2.2469 -31.9948 12.6534 -29.1739C-34.9199 -10.0168 -68.5 36.5701 -68.5 91C-68.5 145.43 -34.9199 192.017 12.6534 211.174C2.2469 213.995 -8.70076 215.5 -20 215.5C-88.7594 215.5 -144.5 159.759 -144.5 91C-144.5 22.2406 -88.7594 -33.5 -20 -33.5ZM-63.5 91C-63.5 36.419 -28.3771 -9.95868 20.5 -26.7643C69.3771 -9.95868 104.5 36.419 104.5 91C104.5 145.581 69.3771 191.959 20.5 208.764C-28.3771 191.959 -63.5 145.581 -63.5 91Z" stroke="#6215C6" stroke-width="5"/>
<path d="M1093 108C1093 37.8598 1149.86 -19 1220 -19C1290.14 -19 1347 37.8598 1347 108C1347 178.14 1290.14 235 1220 235C1149.86 235 1093 178.14 1093 108Z" fill="url(#paint2_linear_416_167)"/>
<path d="M1174 108C1174 37.8598 1230.86 -19 1301 -19C1371.14 -19 1428 37.8598 1428 108C1428 178.14 1371.14 235 1301 235C1230.86 235 1174 178.14 1174 108Z" fill="url(#paint3_linear_416_167)"/>
<path d="M1095.5 108C1095.5 39.2406 1151.24 -16.5 1220 -16.5C1231.3 -16.5 1242.25 -14.9948 1252.65 -12.1739C1205.08 6.98317 1171.5 53.5701 1171.5 108C1171.5 162.43 1205.08 209.017 1252.65 228.174C1242.25 230.995 1231.3 232.5 1220 232.5C1151.24 232.5 1095.5 176.759 1095.5 108ZM1301 232.5C1289.7 232.5 1278.75 230.995 1268.35 228.174C1315.92 209.017 1349.5 162.43 1349.5 108C1349.5 53.5701 1315.92 6.98317 1268.35 -12.1739C1278.75 -14.9948 1289.7 -16.5 1301 -16.5C1369.76 -16.5 1425.5 39.2406 1425.5 108C1425.5 176.759 1369.76 232.5 1301 232.5ZM1344.5 108C1344.5 162.581 1309.38 208.959 1260.5 225.764C1211.62 208.959 1176.5 162.581 1176.5 108C1176.5 53.419 1211.62 7.04132 1260.5 -9.76434C1309.38 7.04132 1344.5 53.419 1344.5 108Z" stroke="#6215C6" stroke-width="5"/>
</g>
<defs>
<linearGradient id="paint0_linear_416_167" x1="188" y1="91" x2="-0.602362" y2="91" gradientUnits="userSpaceOnUse">
<stop stop-color="#D1712A"/>
<stop offset="1"/>
</linearGradient>
<linearGradient id="paint1_linear_416_167" x1="107" y1="91" x2="-36" y2="91" gradientUnits="userSpaceOnUse">
<stop stop-color="#6215C6"/>
<stop offset="1"/>
</linearGradient>
<linearGradient id="paint2_linear_416_167" x1="1093" y1="108" x2="1281.6" y2="108" gradientUnits="userSpaceOnUse">
<stop stop-color="#D1712A"/>
<stop offset="1"/>
</linearGradient>
<linearGradient id="paint3_linear_416_167" x1="1174" y1="108" x2="1317" y2="108" gradientUnits="userSpaceOnUse">
<stop stop-color="#6215C6"/>
<stop offset="1"/>
</linearGradient>
<clipPath id="clip0_416_167">
<rect width="1280" height="182" fill="white"/>
</clipPath>
</defs>
</svg>
