<svg width="636" height="180" viewBox="0 0 636 180" fill="none" xmlns="http://www.w3.org/2000/svg">
<path d="M73.4233 12.4641C73.4233 12.6184 75.1972 14.0066 77.2796 15.6263C79.4391 17.2459 81.0587 18.7113 80.9045 18.9426C80.7502 19.0969 77.5881 19.5597 73.9632 19.9453C50.2086 22.6447 30.156 38.4554 22.9062 60.2047C21.8265 63.5211 20.7467 67.8401 20.5153 69.8454L20.1297 73.5474L22.4435 68.7656C34.6293 43.16 56.1472 28.4291 83.064 27.1179C94.0158 26.5781 101.651 27.8892 111.986 31.8997C119.004 34.6762 118.927 34.7533 111.215 36.1416C105.353 37.1442 92.1648 41.309 91.5478 42.3888C91.2393 42.7744 96.638 43.0829 104.813 43.0829C112.372 43.0829 119.853 43.3143 121.472 43.6228L124.403 44.0855L121.087 47.479C110.443 58.4308 97.872 63.7525 81.1358 64.3695L71.4952 64.7551L78.8221 62.1328C88.5399 58.6622 101.188 52.2608 97.3322 52.8007C95.8668 52.9549 88.0771 53.4177 79.979 53.8804C52.9851 55.2687 42.2647 58.6622 32.7011 68.8427C29.0762 72.7761 23.2918 81.7227 23.2918 83.4966C23.2918 83.7279 24.0631 83.9593 25.0657 83.9593C26.1455 83.9593 28.8449 81.954 32.5469 78.3292C38.8712 72.3134 47.2007 67.5316 54.5276 65.8349C58.1525 64.9865 58.9237 65.0636 63.0114 66.6832C74.1946 71.2336 78.3593 72.0049 92.319 71.9277C104.505 71.9277 105.893 71.7735 111.986 69.7682C115.611 68.6114 120.547 66.529 123.092 65.2178L127.565 62.7498L130.496 66.2205C132.116 68.1486 135.895 72.7761 138.748 76.6324L144.07 83.5737L153.634 84.0364V80.2573C153.634 72.2363 149.006 59.6648 142.296 49.6385C139.751 45.7051 139.674 45.4738 140.831 43.2371C142.528 39.9207 144.996 32.4396 145.535 28.5062L146.075 25.1898L141.216 30.1258C138.517 32.9023 134.815 35.9102 133.118 36.7586L129.879 38.3782L129.339 34.8305C128.568 29.6631 126.254 24.1872 122.321 18.2485C120.393 15.3949 118.542 12.8497 118.233 12.6955C117.925 12.4641 117.77 16.0119 118.002 20.4852L118.387 28.7376L114.531 25.9611C109.441 22.3362 101.266 18.0943 95.2498 16.1661C88.6941 13.9295 73.4233 11.3844 73.4233 12.4641Z" fill="#B8975A"/>
<path d="M47.5092 77.7122C42.8046 79.9488 38.0999 84.0364 35.7862 87.9698C34.5521 90.0522 34.2436 90.1293 28.4592 90.1293C23.1376 90.1293 22.2121 90.3607 20.5925 91.9803C16.9676 95.6052 20.4382 99.3844 27.3795 99.3844H31.0044V102.392C31.0044 104.089 31.2358 105.94 31.4671 106.557C31.7756 107.483 30.3103 107.714 22.752 108.022C13.0342 108.408 10.3348 109.179 6.0929 113.19C1.15688 117.74 0.539877 119.977 0.308501 135.71L0 150.056L2.08238 152.447C3.62489 154.298 4.78177 154.915 6.7099 154.915C13.1113 154.915 14.0368 152.832 14.0368 138.718C14.0368 123.139 14.4224 122.599 26.5311 122.522H34.8606L35.7862 126.147C36.2489 128.229 36.7117 130.003 36.7117 130.08C36.7888 130.234 35.4005 130.851 33.7809 131.391C29.6932 132.857 27.2252 134.708 24.4487 138.641L22.135 141.958L21.9036 158.077C21.6722 172.036 21.8265 174.582 22.9062 176.201C24.6801 178.901 27.5337 179.826 30.773 178.746C34.9378 177.435 35.6319 174.736 35.6319 161.085C35.6319 149.747 35.709 149.362 37.56 147.588C38.9483 146.122 40.2594 145.66 42.7274 145.66C45.8124 145.66 46.4294 146.045 51.2112 150.904C57.4584 157.228 65.6337 161.779 74.9658 164.247C80.5188 165.635 82.8326 165.866 90.7765 165.481C97.3322 165.249 101.343 164.632 104.505 163.553C112.603 160.622 119.853 156.226 125.483 150.904C130.419 146.122 131.113 145.66 134.198 145.66C136.666 145.66 137.977 146.122 139.365 147.588C141.294 149.439 141.294 149.67 141.294 162.164C141.294 174.504 141.371 174.967 143.145 177.05C145.535 179.826 150.472 180.057 153.017 177.435C154.713 175.738 154.791 175.276 154.791 158.848V141.958L152.477 138.564C150.163 135.248 143.762 131.083 141.139 131.006C139.443 131.006 139.443 130.697 140.985 126.147L142.219 122.522H150.163C157.49 122.522 158.338 122.676 160.344 124.373L162.503 126.224L162.889 139.104C163.274 151.444 163.351 152.061 165.125 153.449C167.67 155.532 171.758 155.377 174.072 152.986C176 151.135 176 151.058 176 135.788V120.362L173.532 116.66C172.067 114.578 169.367 111.879 167.285 110.645C163.814 108.485 162.889 108.331 154.328 108.022L145.073 107.714L145.535 99.2301L150.394 99.153C154.559 98.9987 155.562 98.6902 156.796 97.1477C158.724 94.834 158.647 94.2941 156.333 92.0575C154.713 90.3607 153.788 90.1293 148.466 90.0522H142.45L139.365 86.0417C135.741 81.4142 130.188 77.4037 125.637 76.1696C120.855 74.8585 111.523 75.7069 107.204 77.7122C105.276 78.6377 102.114 81.0285 100.263 82.8796C96.8694 86.2731 96.7923 86.3502 94.5556 85.1162C91.5478 83.5737 84.298 83.5737 81.9842 85.1933C80.2875 86.4273 80.1332 86.3502 76.9711 83.1881C75.2743 81.337 71.7266 78.869 69.1814 77.635C65.3252 75.8612 63.5513 75.4755 58.3839 75.4755C53.2165 75.4755 51.4426 75.8612 47.5092 77.7122ZM66.0964 84.2678C74.1946 88.0469 77.9737 93.9856 78.0508 103.086C78.0508 109.796 76.9711 112.804 72.6521 117.432C68.7958 121.596 63.8598 123.679 57.9982 123.602C50.5171 123.447 44.1157 119.36 40.5679 112.341C37.9457 107.251 37.4829 102.855 39.0254 97.6876C40.8764 91.2862 44.1157 87.3528 49.7458 84.6534C55.7616 81.7998 60.6976 81.7227 66.0964 84.2678ZM127.18 84.5763C131.267 86.7358 135.046 90.515 136.743 94.3712C138.903 99.153 138.748 107.637 136.358 112.419C132.81 119.36 126.408 123.447 118.927 123.602C113.066 123.679 108.13 121.596 104.273 117.432C100.032 112.804 98.6433 109.334 98.6433 103.241C98.6433 94.5255 102.268 88.5868 109.826 84.7306C114.068 82.5711 115.225 82.3397 119.313 82.6482C121.858 82.8024 125.406 83.7279 127.18 84.5763ZM91.085 91.749C93.8615 92.7516 93.7844 92.5202 92.3961 96.9935C91.7791 99.2301 91.2393 100.079 90.7765 99.4615C90.3909 98.7674 89.3111 98.6131 87.6144 98.8445C85.1464 99.2301 84.9921 99.153 84.2209 96.4536C83.2182 92.5973 83.2182 92.5202 85.2235 91.6718C87.5372 90.7463 88.2314 90.7463 91.085 91.749ZM92.319 132.548C92.936 134.476 96.3295 137.176 98.2577 137.176C99.8773 137.176 103.734 133.705 104.428 131.777C104.736 130.774 105.045 130.774 106.741 131.7C108.515 132.625 108.67 133.011 108.053 134.862C105.276 142.575 94.4785 144.117 89.7739 137.407C87.3059 133.782 87.1516 132.548 89.0798 131.777C91.5478 130.774 91.7791 130.852 92.319 132.548Z" fill="#B8975A"/>
<path d="M54.5276 92.5973C51.5969 94.2941 50.3628 96.6079 50.2857 100.156C50.2857 105.169 52.6766 107.868 57.4584 108.408C61.7774 108.948 64.3997 107.483 66.2507 103.626C69.5671 96.685 61.0833 88.8182 54.5276 92.5973ZM59.078 94.9111C60.2349 96.7621 58.8466 98.9216 56.2244 99.2301C53.7564 99.5386 52.4452 97.4562 53.4479 94.9111C53.9877 93.5228 54.6047 93.1372 56.1473 93.3686C57.3041 93.5228 58.6153 94.217 59.078 94.9111Z" fill="#B8975A"/>
<path d="M112.68 93.9085C110.752 95.8366 110.443 96.7621 110.443 100.156C110.443 103.549 110.752 104.475 112.68 106.403C114.531 108.254 115.611 108.639 118.542 108.639C121.472 108.639 122.552 108.254 124.403 106.403C126.254 104.552 126.64 103.472 126.64 100.541C126.64 97.4562 126.254 96.5307 124.018 94.2941C120.47 90.7463 115.997 90.5921 112.68 93.9085ZM118.002 93.9085C118.619 94.2941 118.927 95.5281 118.773 96.7621C118.619 98.3817 118.079 99.0759 116.768 99.2301C113.374 99.77 111.6 96.7621 113.991 94.4483C115.302 93.0601 116.459 92.9058 118.002 93.9085Z" fill="#B8975A"/>
<path d="M180.168 94.208L166.088 18.944L159.048 17.28V5.76H190.28L192.456 15.872L183.496 17.152L193.992 76.288L213.704 7.424H231.88L250.952 77.696L260.936 17.152L250.184 15.488L251.592 5.76H283.464V17.024L273.48 19.584L259.4 94.208H237.896L219.848 29.312L202.568 94.208H180.168Z" fill="#B8975A"/>
<path d="M310.896 94.72C306.032 94.72 301.381 93.6107 296.944 91.392C292.507 89.088 288.88 85.632 286.064 81.024C283.248 76.416 281.84 70.6133 281.84 63.616C281.84 56.1067 283.248 50.0053 286.064 45.312C288.965 40.5333 292.592 37.0347 296.944 34.816C301.381 32.512 305.861 31.36 310.384 31.36C313.968 31.36 317.424 32 320.752 33.28C324.08 34.4747 326.811 36.3947 328.944 39.04C331.163 41.6 332.272 44.8853 332.272 48.896C332.272 52.48 331.504 55.552 329.968 58.112C328.517 60.672 326.469 62.7627 323.824 64.384C321.264 66.0053 318.32 67.2 314.992 67.968C311.664 68.736 308.165 69.0773 304.496 68.992L297.968 68.864C298.48 72.704 299.888 75.9467 302.192 78.592C304.496 81.2373 308.251 82.56 313.456 82.56C317.381 82.56 320.539 81.8347 322.928 80.384C325.317 78.848 327.28 77.3547 328.816 75.904L331.76 87.04C330.992 88.064 329.627 89.1733 327.664 90.368C325.701 91.5627 323.269 92.5867 320.368 93.44C317.552 94.2933 314.395 94.72 310.896 94.72ZM298.096 58.112L302.32 58.24C303.941 58.3253 305.563 58.24 307.184 57.984C308.891 57.6427 310.427 57.1307 311.792 56.448C313.243 55.7653 314.395 54.8693 315.248 53.76C316.101 52.5653 316.528 51.1147 316.528 49.408C316.528 47.4453 315.973 45.9947 314.864 45.056C313.755 44.032 312.347 43.52 310.64 43.52C308.592 43.52 306.629 44.2027 304.752 45.568C302.96 46.848 301.467 48.5973 300.272 50.816C299.077 53.0347 298.352 55.4667 298.096 58.112Z" fill="#B8975A"/>
<path d="M348.413 94.72L344.317 91.264V10.88L337.661 11.264L336.253 2.56001L355.325 0L359.677 4.48V33.792C361.042 33.1093 362.621 32.5547 364.413 32.128C366.29 31.616 368.424 31.36 370.813 31.36C375.933 31.36 380.37 32.5973 384.125 35.072C387.88 37.5467 390.781 41.088 392.829 45.696C394.962 50.2187 396.029 55.68 396.029 62.08C396.029 68.3093 395.218 73.5573 393.597 77.824C391.976 82.0053 389.8 85.3333 387.069 87.808C384.338 90.2827 381.266 92.0747 377.853 93.184C374.44 94.208 370.984 94.72 367.485 94.72C365.096 94.72 362.877 94.5067 360.829 94.08C358.781 93.568 356.904 92.8853 355.197 92.032L348.413 94.72ZM367.485 82.688C369.789 82.688 371.88 82.0053 373.757 80.64C375.72 79.1893 377.256 77.0133 378.365 74.112C379.56 71.1253 380.157 67.328 380.157 62.72C380.157 58.2827 379.602 54.656 378.493 51.84C377.469 48.9387 376.018 46.8053 374.141 45.44C372.264 44.0747 370.13 43.392 367.741 43.392C366.12 43.392 364.584 43.6053 363.133 44.032C361.768 44.4587 360.616 45.0133 359.677 45.696V81.024C360.445 81.536 361.597 81.9627 363.133 82.304C364.669 82.56 366.12 82.688 367.485 82.688Z" fill="#B8975A"/>
<path d="M412.288 94.72L408.192 91.264V10.88L401.536 11.264L400.128 2.56001L419.2 0L423.552 4.48V33.792C424.917 33.1093 426.496 32.5547 428.288 32.128C430.165 31.616 432.299 31.36 434.688 31.36C439.808 31.36 444.245 32.5973 448 35.072C451.755 37.5467 454.656 41.088 456.704 45.696C458.837 50.2187 459.904 55.68 459.904 62.08C459.904 68.3093 459.093 73.5573 457.472 77.824C455.851 82.0053 453.675 85.3333 450.944 87.808C448.213 90.2827 445.141 92.0747 441.728 93.184C438.315 94.208 434.859 94.72 431.36 94.72C428.971 94.72 426.752 94.5067 424.704 94.08C422.656 93.568 420.779 92.8853 419.072 92.032L412.288 94.72ZM431.36 82.688C433.664 82.688 435.755 82.0053 437.632 80.64C439.595 79.1893 441.131 77.0133 442.24 74.112C443.435 71.1253 444.032 67.328 444.032 62.72C444.032 58.2827 443.477 54.656 442.368 51.84C441.344 48.9387 439.893 46.8053 438.016 45.44C436.139 44.0747 434.005 43.392 431.616 43.392C429.995 43.392 428.459 43.6053 427.008 44.032C425.643 44.4587 424.491 45.0133 423.552 45.696V81.024C424.32 81.536 425.472 81.9627 427.008 82.304C428.544 82.56 429.995 82.688 431.36 82.688Z" fill="#B8975A"/>
<path d="M468.879 94.208L467.471 86.016L474.639 84.352V43.264H468.111L466.703 34.56L485.775 31.232L490.127 35.84V84.608L497.167 86.016V94.208H468.879ZM482.063 26.112C479.844 26.112 477.967 25.344 476.431 23.808C474.895 22.1867 474.127 20.3093 474.127 18.176C474.127 15.9573 474.895 14.08 476.431 12.544C477.967 11.008 479.844 10.24 482.063 10.24C484.282 10.24 486.159 11.008 487.695 12.544C489.231 14.08 489.999 15.9573 489.999 18.176C489.999 20.3093 489.231 22.1867 487.695 23.808C486.159 25.344 484.282 26.112 482.063 26.112Z" fill="#B8975A"/>
<path d="M505.754 94.208L504.346 86.016L511.514 84.352V43.264H504.986L503.578 34.56L522.522 31.232L527.002 35.968C528.623 34.7733 530.799 33.7067 533.53 32.768C536.261 31.8293 539.034 31.36 541.85 31.36C545.434 31.36 548.719 31.9573 551.706 33.152C554.693 34.3467 557.082 36.1813 558.874 38.656C560.666 41.1307 561.562 44.3307 561.562 48.256V84.864L568.602 86.016L568.474 94.208H539.674V86.016L546.074 84.608V51.84C546.074 49.1093 545.349 47.104 543.898 45.824C542.533 44.544 540.613 43.904 538.138 43.904C535.663 43.904 533.317 44.544 531.098 45.824C528.965 47.0187 527.599 47.9573 527.002 48.64V84.608L534.298 86.144L534.17 94.208H505.754Z" fill="#B8975A"/>
<path d="M598.02 129.024C592.985 129.024 588.591 128.171 584.836 126.464C581.167 124.843 578.308 122.581 576.26 119.68C574.297 116.779 573.316 113.536 573.316 109.952C573.316 105.941 574.255 102.571 576.132 99.84C578.095 97.1947 580.441 95.0613 583.172 93.44C582.233 92.416 581.465 91.2213 580.868 89.856C580.356 88.4053 580.1 86.7413 580.1 84.864C580.1 82.6453 580.527 80.6827 581.38 78.976C582.319 77.184 583.471 75.648 584.836 74.368C581.935 72.4907 579.503 70.016 577.54 66.944C575.663 63.7867 574.724 59.9893 574.724 55.552C574.724 50.3467 575.961 45.952 578.436 42.368C580.996 38.784 584.196 36.0533 588.036 34.176C591.961 32.2987 596.015 31.36 600.196 31.36C603.183 31.36 606.084 31.8293 608.9 32.768C611.801 33.7067 614.404 35.072 616.708 36.864L630.66 29.824L633.604 30.208L635.012 42.88L623.108 44.288C623.961 45.9093 624.601 47.6587 625.028 49.536C625.54 51.4133 625.796 53.4187 625.796 55.552C625.796 60.672 624.516 64.9387 621.956 68.352C619.481 71.7653 616.281 74.3253 612.356 76.032C608.516 77.7387 604.463 78.592 600.196 78.592C599.599 78.592 599.001 78.592 598.404 78.592C597.892 78.592 597.38 78.5493 596.868 78.464L594.564 81.92L594.82 83.712L607.876 86.4C612.399 87.3387 616.153 88.6613 619.14 90.368C622.127 91.9893 624.345 93.952 625.796 96.256C627.247 98.6453 627.972 101.419 627.972 104.576C627.972 109.696 626.607 114.091 623.876 117.76C621.231 121.429 617.647 124.203 613.124 126.08C608.601 128.043 603.567 129.024 598.02 129.024ZM601.476 113.664C603.865 113.664 606.127 113.365 608.26 112.768C610.393 112.256 612.143 111.445 613.508 110.336C614.959 109.312 615.684 108.117 615.684 106.752C615.684 105.472 614.959 104.448 613.508 103.68C612.057 102.997 610.137 102.4 607.748 101.888C605.444 101.461 602.927 100.992 600.196 100.48C597.465 100.053 594.82 99.4133 592.26 98.56C590.383 99.6693 589.06 100.864 588.292 102.144C587.609 103.509 587.268 104.832 587.268 106.112C587.268 107.221 587.695 108.331 588.548 109.44C589.401 110.635 590.852 111.616 592.9 112.384C594.948 113.237 597.807 113.664 601.476 113.664ZM600.196 66.56C603.609 66.56 606.084 65.408 607.62 63.104C609.156 60.7147 609.924 57.984 609.924 54.912C609.924 51.9253 609.156 49.28 607.62 46.976C606.084 44.5867 603.609 43.392 600.196 43.392C596.868 43.392 594.436 44.5867 592.9 46.976C591.364 49.28 590.596 51.9253 590.596 54.912C590.596 57.984 591.364 60.7147 592.9 63.104C594.436 65.408 596.868 66.56 600.196 66.56Z" fill="#B8975A"/>
<path d="M222.125 172.271V112.208H237.125V172.271H222.125ZM184.875 172.271V112.208H199.875V172.271H184.875ZM192.125 146.021V138.021H229.438V146.021H192.125ZM179 173.208L179.438 167.708C181.438 166.833 184.042 166.021 187.25 165.271L184.875 171.646V161.833H199.875V171.646L197.688 165.771L206 167.583L205.562 173.208H179ZM216.25 173.208L216.688 167.708C218.688 166.833 221.292 166.021 224.5 165.271L222.125 171.646V161.833H237.125V171.646L234.938 165.771L243.25 167.583L242.812 173.208H216.25ZM243 111.333L242.562 116.833C240.562 117.708 237.958 118.521 234.75 119.271L237.125 112.896V122.708H222.125V112.896L224.312 118.771L216 116.958L216.438 111.333H243ZM205.75 111.333L205.312 116.833C203.312 117.708 200.708 118.521 197.5 119.271L199.875 112.896V122.708H184.875V112.896L187.062 118.771L178.75 116.958L179.188 111.333H205.75Z" fill="#B8975A"/>
<path d="M278.875 174.271C271.083 174.271 264.875 172.541 260.25 169.083C255.667 165.625 253.375 160.979 253.375 155.146L268.625 153.208C268.625 156.791 269.688 159.562 271.812 161.521C273.938 163.437 276.979 164.396 280.938 164.396C284.896 164.396 287.958 163.437 290.125 161.521C292.292 159.562 293.375 156.791 293.375 153.208L304.375 155.146C304.375 160.979 302.062 165.625 297.438 169.083C292.854 172.541 286.667 174.271 278.875 174.271ZM253.375 155.146V112.208H268.625V153.208L253.375 155.146ZM253.375 122.708V112.896L255.562 118.833L247.875 116.958L248.312 111.333H275.375L274.938 116.833C274.146 117.125 273 117.479 271.5 117.896C270 118.271 268.25 118.687 266.25 119.146L268.625 112.896V122.708H253.375ZM304.375 155.146L293.375 153.208V112.208H304.375V155.146ZM293.375 122.708V112.896L295.562 118.708L286.375 116.958L286.812 111.333H309.625L309.188 116.833C307.646 117.625 305.25 118.458 302 119.333L304.375 112.896V122.708H293.375Z" fill="#B8975A"/>
<path d="M327.438 173.208L328.062 165.333H342.25C349.833 165.333 353.625 162.125 353.625 155.708C353.625 148.75 349.167 145.271 340.25 145.271H328.062V138.771H341.125C360.375 138.771 370 143.979 370 154.396C370 160.146 367.354 164.729 362.062 168.146C356.812 171.521 349.708 173.208 340.75 173.208H327.438ZM320.375 172.271V112.208H335.375V172.271H320.375ZM326.25 142.583L327.438 138.146H341.75C347.5 138.146 350.375 134.958 350.375 128.583C350.375 122.333 347.604 119.208 342.062 119.208H327.125V111.333H342.812C350.438 111.333 356.292 112.646 360.375 115.271C364.458 117.896 366.5 121.666 366.5 126.583C366.5 131.75 364.25 135.708 359.75 138.458C355.25 141.208 348.812 142.583 340.438 142.583H326.25ZM314.5 173.208L314.938 167.708C316.938 166.833 319.542 166.021 322.75 165.271L320.375 171.646V161.833H335.375V171.646L333.188 165.771L341.5 167.583L341.062 173.208H314.5ZM341.25 111.333L340.812 116.833C338.812 117.708 336.208 118.521 333 119.271L335.375 112.896V122.708H320.375V112.896L322.562 118.771L314.25 116.958L314.688 111.333H341.25Z" fill="#B8975A"/>
</svg>
