<svg width="476" height="175" viewBox="0 0 476 175" fill="none" xmlns="http://www.w3.org/2000/svg">
<path d="M21.12 94.208L7.04 18.944L0 17.28V5.76H31.232L33.408 15.872L24.448 17.152L34.944 76.288L54.656 7.424H72.832L91.904 77.696L101.888 17.152L91.136 15.488L92.544 5.76H124.416V17.024L114.432 19.584L100.352 94.208H78.848L60.8 29.312L43.52 94.208H21.12Z" fill="#3E3C3A"/>
<path d="M151.848 94.72C146.984 94.72 142.333 93.6107 137.896 91.392C133.459 89.088 129.832 85.632 127.016 81.024C124.2 76.416 122.792 70.6133 122.792 63.616C122.792 56.1067 124.2 50.0053 127.016 45.312C129.917 40.5333 133.544 37.0347 137.896 34.816C142.333 32.512 146.813 31.36 151.336 31.36C154.92 31.36 158.376 32 161.704 33.28C165.032 34.4747 167.763 36.3947 169.896 39.04C172.115 41.6 173.224 44.8853 173.224 48.896C173.224 52.48 172.456 55.552 170.92 58.112C169.469 60.672 167.421 62.7627 164.776 64.384C162.216 66.0053 159.272 67.2 155.944 67.968C152.616 68.736 149.117 69.0773 145.448 68.992L138.92 68.864C139.432 72.704 140.84 75.9467 143.144 78.592C145.448 81.2373 149.203 82.56 154.408 82.56C158.333 82.56 161.491 81.8347 163.88 80.384C166.269 78.848 168.232 77.3547 169.768 75.904L172.712 87.04C171.944 88.064 170.579 89.1733 168.616 90.368C166.653 91.5627 164.221 92.5867 161.32 93.44C158.504 94.2933 155.347 94.72 151.848 94.72ZM139.048 58.112L143.272 58.24C144.893 58.3253 146.515 58.24 148.136 57.984C149.843 57.6427 151.379 57.1307 152.744 56.448C154.195 55.7653 155.347 54.8693 156.2 53.76C157.053 52.5653 157.48 51.1147 157.48 49.408C157.48 47.4453 156.925 45.9947 155.816 45.056C154.707 44.032 153.299 43.52 151.592 43.52C149.544 43.52 147.581 44.2027 145.704 45.568C143.912 46.848 142.419 48.5973 141.224 50.816C140.029 53.0347 139.304 55.4667 139.048 58.112Z" fill="#3E3C3A"/>
<path d="M189.365 94.72L185.269 91.264V10.88L178.613 11.264L177.205 2.56001L196.277 0L200.629 4.48V33.792C201.994 33.1093 203.573 32.5547 205.365 32.128C207.242 31.616 209.376 31.36 211.765 31.36C216.885 31.36 221.322 32.5973 225.077 35.072C228.832 37.5467 231.733 41.088 233.781 45.696C235.914 50.2187 236.981 55.68 236.981 62.08C236.981 68.3093 236.17 73.5573 234.549 77.824C232.928 82.0053 230.752 85.3333 228.021 87.808C225.29 90.2827 222.218 92.0747 218.805 93.184C215.392 94.208 211.936 94.72 208.437 94.72C206.048 94.72 203.829 94.5067 201.781 94.08C199.733 93.568 197.856 92.8853 196.149 92.032L189.365 94.72ZM208.437 82.688C210.741 82.688 212.832 82.0053 214.709 80.64C216.672 79.1893 218.208 77.0133 219.317 74.112C220.512 71.1253 221.109 67.328 221.109 62.72C221.109 58.2827 220.554 54.656 219.445 51.84C218.421 48.9387 216.97 46.8053 215.093 45.44C213.216 44.0747 211.082 43.392 208.693 43.392C207.072 43.392 205.536 43.6053 204.085 44.032C202.72 44.4587 201.568 45.0133 200.629 45.696V81.024C201.397 81.536 202.549 81.9627 204.085 82.304C205.621 82.56 207.072 82.688 208.437 82.688Z" fill="#3E3C3A"/>
<path d="M253.24 94.72L249.144 91.264V10.88L242.488 11.264L241.08 2.56001L260.152 0L264.504 4.48V33.792C265.869 33.1093 267.448 32.5547 269.24 32.128C271.117 31.616 273.251 31.36 275.64 31.36C280.76 31.36 285.197 32.5973 288.952 35.072C292.707 37.5467 295.608 41.088 297.656 45.696C299.789 50.2187 300.856 55.68 300.856 62.08C300.856 68.3093 300.045 73.5573 298.424 77.824C296.803 82.0053 294.627 85.3333 291.896 87.808C289.165 90.2827 286.093 92.0747 282.68 93.184C279.267 94.208 275.811 94.72 272.312 94.72C269.923 94.72 267.704 94.5067 265.656 94.08C263.608 93.568 261.731 92.8853 260.024 92.032L253.24 94.72ZM272.312 82.688C274.616 82.688 276.707 82.0053 278.584 80.64C280.547 79.1893 282.083 77.0133 283.192 74.112C284.387 71.1253 284.984 67.328 284.984 62.72C284.984 58.2827 284.429 54.656 283.32 51.84C282.296 48.9387 280.845 46.8053 278.968 45.44C277.091 44.0747 274.957 43.392 272.568 43.392C270.947 43.392 269.411 43.6053 267.96 44.032C266.595 44.4587 265.443 45.0133 264.504 45.696V81.024C265.272 81.536 266.424 81.9627 267.96 82.304C269.496 82.56 270.947 82.688 272.312 82.688Z" fill="#3E3C3A"/>
<path d="M309.831 94.208L308.423 86.016L315.591 84.352V43.264H309.063L307.655 34.56L326.727 31.232L331.079 35.84V84.608L338.119 86.016V94.208H309.831ZM323.015 26.112C320.796 26.112 318.919 25.344 317.383 23.808C315.847 22.1867 315.079 20.3093 315.079 18.176C315.079 15.9573 315.847 14.08 317.383 12.544C318.919 11.008 320.796 10.24 323.015 10.24C325.234 10.24 327.111 11.008 328.647 12.544C330.183 14.08 330.951 15.9573 330.951 18.176C330.951 20.3093 330.183 22.1867 328.647 23.808C327.111 25.344 325.234 26.112 323.015 26.112Z" fill="#3E3C3A"/>
<path d="M346.706 94.208L345.298 86.016L352.466 84.352V43.264H345.938L344.53 34.56L363.474 31.232L367.954 35.968C369.575 34.7733 371.751 33.7067 374.482 32.768C377.213 31.8293 379.986 31.36 382.802 31.36C386.386 31.36 389.671 31.9573 392.658 33.152C395.645 34.3467 398.034 36.1813 399.826 38.656C401.618 41.1307 402.514 44.3307 402.514 48.256V84.864L409.554 86.016L409.426 94.208H380.626V86.016L387.026 84.608V51.84C387.026 49.1093 386.301 47.104 384.85 45.824C383.485 44.544 381.565 43.904 379.09 43.904C376.615 43.904 374.269 44.544 372.05 45.824C369.917 47.0187 368.551 47.9573 367.954 48.64V84.608L375.25 86.144L375.122 94.208H346.706Z" fill="#3E3C3A"/>
<path d="M438.972 129.024C433.937 129.024 429.543 128.171 425.788 126.464C422.119 124.843 419.26 122.581 417.212 119.68C415.249 116.779 414.268 113.536 414.268 109.952C414.268 105.941 415.207 102.571 417.084 99.84C419.047 97.1947 421.393 95.0613 424.124 93.44C423.185 92.416 422.417 91.2213 421.82 89.856C421.308 88.4053 421.052 86.7413 421.052 84.864C421.052 82.6453 421.479 80.6827 422.332 78.976C423.271 77.184 424.423 75.648 425.788 74.368C422.887 72.4907 420.455 70.016 418.492 66.944C416.615 63.7867 415.676 59.9893 415.676 55.552C415.676 50.3467 416.913 45.952 419.388 42.368C421.948 38.784 425.148 36.0533 428.988 34.176C432.913 32.2987 436.967 31.36 441.148 31.36C444.135 31.36 447.036 31.8293 449.852 32.768C452.753 33.7067 455.356 35.072 457.66 36.864L471.612 29.824L474.556 30.208L475.964 42.88L464.06 44.288C464.913 45.9093 465.553 47.6587 465.98 49.536C466.492 51.4133 466.748 53.4187 466.748 55.552C466.748 60.672 465.468 64.9387 462.908 68.352C460.433 71.7653 457.233 74.3253 453.308 76.032C449.468 77.7387 445.415 78.592 441.148 78.592C440.551 78.592 439.953 78.592 439.356 78.592C438.844 78.592 438.332 78.5493 437.82 78.464L435.516 81.92L435.772 83.712L448.828 86.4C453.351 87.3387 457.105 88.6613 460.092 90.368C463.079 91.9893 465.297 93.952 466.748 96.256C468.199 98.6453 468.924 101.419 468.924 104.576C468.924 109.696 467.559 114.091 464.828 117.76C462.183 121.429 458.599 124.203 454.076 126.08C449.553 128.043 444.519 129.024 438.972 129.024ZM442.428 113.664C444.817 113.664 447.079 113.365 449.212 112.768C451.345 112.256 453.095 111.445 454.46 110.336C455.911 109.312 456.636 108.117 456.636 106.752C456.636 105.472 455.911 104.448 454.46 103.68C453.009 102.997 451.089 102.4 448.7 101.888C446.396 101.461 443.879 100.992 441.148 100.48C438.417 100.053 435.772 99.4133 433.212 98.56C431.335 99.6693 430.012 100.864 429.244 102.144C428.561 103.509 428.22 104.832 428.22 106.112C428.22 107.221 428.647 108.331 429.5 109.44C430.353 110.635 431.804 111.616 433.852 112.384C435.9 113.237 438.759 113.664 442.428 113.664ZM441.148 66.56C444.561 66.56 447.036 65.408 448.572 63.104C450.108 60.7147 450.876 57.984 450.876 54.912C450.876 51.9253 450.108 49.28 448.572 46.976C447.036 44.5867 444.561 43.392 441.148 43.392C437.82 43.392 435.388 44.5867 433.852 46.976C432.316 49.28 431.548 51.9253 431.548 54.912C431.548 57.984 432.316 60.7147 433.852 63.104C435.388 65.408 437.82 66.56 441.148 66.56Z" fill="#3E3C3A"/>
<path d="M63.077 172.271V112.208H78.077V172.271H63.077ZM25.827 172.271V112.208H40.827V172.271H25.827ZM33.077 146.021V138.021H70.3895V146.021H33.077ZM19.952 173.208L20.3895 167.708C22.3895 166.833 24.9937 166.021 28.202 165.271L25.827 171.646V161.833H40.827V171.646L38.6395 165.771L46.952 167.583L46.5145 173.208H19.952ZM57.202 173.208L57.6395 167.708C59.6395 166.833 62.2437 166.021 65.452 165.271L63.077 171.646V161.833H78.077V171.646L75.8895 165.771L84.202 167.583L83.7645 173.208H57.202ZM83.952 111.333L83.5145 116.833C81.5145 117.708 78.9103 118.521 75.702 119.271L78.077 112.896V122.708H63.077V112.896L65.2645 118.771L56.952 116.958L57.3895 111.333H83.952ZM46.702 111.333L46.2645 116.833C44.2645 117.708 41.6603 118.521 38.452 119.271L40.827 112.896V122.708H25.827V112.896L28.0145 118.771L19.702 116.958L20.1395 111.333H46.702Z" fill="#3E3C3A"/>
<path d="M119.827 174.271C112.035 174.271 105.827 172.541 101.202 169.083C96.6187 165.625 94.327 160.979 94.327 155.146L109.577 153.208C109.577 156.791 110.64 159.562 112.765 161.521C114.89 163.437 117.931 164.396 121.89 164.396C125.848 164.396 128.91 163.437 131.077 161.521C133.244 159.562 134.327 156.791 134.327 153.208L145.327 155.146C145.327 160.979 143.014 165.625 138.389 169.083C133.806 172.541 127.619 174.271 119.827 174.271ZM94.327 155.146V112.208H109.577V153.208L94.327 155.146ZM94.327 122.708V112.896L96.5145 118.833L88.827 116.958L89.2645 111.333H116.327L115.89 116.833C115.098 117.125 113.952 117.479 112.452 117.896C110.952 118.271 109.202 118.687 107.202 119.146L109.577 112.896V122.708H94.327ZM145.327 155.146L134.327 153.208V112.208H145.327V155.146ZM134.327 122.708V112.896L136.514 118.708L127.327 116.958L127.765 111.333H150.577L150.139 116.833C148.598 117.625 146.202 118.458 142.952 119.333L145.327 112.896V122.708H134.327Z" fill="#3E3C3A"/>
<path d="M168.389 173.208L169.014 165.333H183.202C190.785 165.333 194.577 162.125 194.577 155.708C194.577 148.75 190.119 145.271 181.202 145.271H169.014V138.771H182.077C201.327 138.771 210.952 143.979 210.952 154.396C210.952 160.146 208.306 164.729 203.014 168.146C197.764 171.521 190.66 173.208 181.702 173.208H168.389ZM161.327 172.271V112.208H176.327V172.271H161.327ZM167.202 142.583L168.389 138.146H182.702C188.452 138.146 191.327 134.958 191.327 128.583C191.327 122.333 188.556 119.208 183.014 119.208H168.077V111.333H183.764C191.389 111.333 197.244 112.646 201.327 115.271C205.41 117.896 207.452 121.666 207.452 126.583C207.452 131.75 205.202 135.708 200.702 138.458C196.202 141.208 189.764 142.583 181.389 142.583H167.202ZM155.452 173.208L155.889 167.708C157.889 166.833 160.494 166.021 163.702 165.271L161.327 171.646V161.833H176.327V171.646L174.139 165.771L182.452 167.583L182.014 173.208H155.452ZM182.202 111.333L181.764 116.833C179.764 117.708 177.16 118.521 173.952 119.271L176.327 112.896V122.708H161.327V112.896L163.514 118.771L155.202 116.958L155.639 111.333H182.202Z" fill="#3E3C3A"/>
</svg>
