<svg width="139" height="77" viewBox="0 0 139 77" fill="none" xmlns="http://www.w3.org/2000/svg">
<path d="M32.11 12.43V10.975H33.49V12.43H32.11ZM32.2 22V13.9H33.4V22H32.2ZM39.6735 12.16C39.3535 11.95 39.0185 11.845 38.6685 11.845C38.2985 11.845 38.0385 11.95 37.8885 12.16C37.7485 12.36 37.6785 12.635 37.6785 12.985V13.9H39.5535V14.875H37.6785V22H36.4785V14.875H35.2035L35.3535 13.9H36.4785V12.955C36.4785 12.345 36.6535 11.845 37.0035 11.455C37.3635 11.055 37.9185 10.855 38.6685 10.855C38.9585 10.855 39.2385 10.905 39.5085 11.005C39.7885 11.095 40.0335 11.21 40.2435 11.35L39.6735 12.16ZM41.3014 17.05C41.3014 16.14 41.3614 15.33 41.4814 14.62C41.6114 13.9 41.7764 13.255 41.9764 12.685C42.1864 12.105 42.4214 11.585 42.6814 11.125C42.9414 10.655 43.2114 10.205 43.4914 9.775L44.3014 10.15C44.0514 10.61 43.8114 11.075 43.5814 11.545C43.3614 12.015 43.1664 12.52 42.9964 13.06C42.8264 13.6 42.6914 14.195 42.5914 14.845C42.4914 15.495 42.4414 16.23 42.4414 17.05C42.4414 17.88 42.4914 18.62 42.5914 19.27C42.6914 19.91 42.8264 20.5 42.9964 21.04C43.1664 21.58 43.3614 22.085 43.5814 22.555C43.8114 23.025 44.0514 23.49 44.3014 23.95L43.4914 24.325C43.2114 23.895 42.9414 23.445 42.6814 22.975C42.4214 22.515 42.1864 22 41.9764 21.43C41.7764 20.85 41.6114 20.205 41.4814 19.495C41.3614 18.785 41.3014 17.97 41.3014 17.05ZM47.929 17.935C47.929 19.075 48.114 19.905 48.484 20.425C48.854 20.945 49.349 21.205 49.969 21.205C50.399 21.205 50.754 21.105 51.034 20.905C51.314 20.695 51.584 20.375 51.844 19.945L52.819 20.575C52.529 21.035 52.144 21.42 51.664 21.73C51.194 22.04 50.624 22.195 49.954 22.195C49.504 22.195 49.079 22.12 48.679 21.97C48.289 21.81 47.944 21.56 47.644 21.22C47.344 20.88 47.104 20.445 46.924 19.915C46.754 19.375 46.669 18.725 46.669 17.965C46.669 17.225 46.754 16.585 46.924 16.045C47.094 15.505 47.329 15.06 47.629 14.71C47.929 14.36 48.279 14.1 48.679 13.93C49.089 13.76 49.529 13.675 49.999 13.675C50.569 13.675 51.064 13.775 51.484 13.975C51.904 14.165 52.294 14.5 52.654 14.98L51.724 15.655C51.464 15.275 51.199 15.01 50.929 14.86C50.669 14.71 50.359 14.635 49.999 14.635C49.379 14.635 48.879 14.9 48.499 15.43C48.119 15.96 47.929 16.795 47.929 17.935ZM60.6459 13.9V22H59.5959L59.5359 21.04C59.3059 21.39 59.0159 21.665 58.6659 21.865C58.3159 22.055 57.9359 22.15 57.5259 22.15C57.1659 22.15 56.8309 22.1 56.5209 22C56.2109 21.91 55.9409 21.755 55.7109 21.535C55.4909 21.305 55.3159 21.005 55.1859 20.635C55.0659 20.265 55.0059 19.81 55.0059 19.27V13.9H56.2059V19.18C56.2059 19.58 56.2409 19.91 56.3109 20.17C56.3909 20.42 56.4959 20.62 56.6259 20.77C56.7559 20.92 56.9109 21.025 57.0909 21.085C57.2809 21.145 57.4909 21.175 57.7209 21.175C58.0909 21.175 58.4109 21.07 58.6809 20.86C58.9609 20.65 59.2159 20.34 59.4459 19.93V13.9H60.6459ZM63.4979 22V13.9H64.5929L64.6379 15.04C64.8379 14.59 65.0929 14.255 65.4029 14.035C65.7129 13.815 66.0579 13.705 66.4379 13.705C66.5779 13.705 66.6979 13.71 66.7979 13.72C66.8979 13.73 67.0179 13.76 67.1579 13.81L66.8579 14.935C66.7679 14.915 66.6729 14.9 66.5729 14.89C66.4829 14.87 66.3779 14.86 66.2579 14.86C66.0579 14.86 65.8779 14.905 65.7179 14.995C65.5679 15.075 65.4279 15.19 65.2979 15.34C65.1779 15.49 65.0679 15.665 64.9679 15.865C64.8679 16.055 64.7779 16.255 64.6979 16.465V22H63.4979ZM68.8383 12.43V10.975H70.2183V12.43H68.8383ZM68.9283 22V13.9H70.1283V22H68.9283ZM72.7268 17.95C72.7268 17.12 72.8218 16.43 73.0118 15.88C73.2118 15.33 73.4668 14.895 73.7768 14.575C74.0968 14.245 74.4518 14.015 74.8418 13.885C75.2418 13.745 75.6368 13.675 76.0268 13.675C76.4068 13.675 76.7918 13.74 77.1818 13.87C77.5718 14 77.9218 14.23 78.2318 14.56C78.5518 14.88 78.8118 15.315 79.0118 15.865C79.2118 16.415 79.3118 17.11 79.3118 17.95C79.3118 18.79 79.2118 19.48 79.0118 20.02C78.8218 20.56 78.5718 20.99 78.2618 21.31C77.9518 21.62 77.5968 21.84 77.1968 21.97C76.8068 22.09 76.4168 22.15 76.0268 22.15C75.6468 22.15 75.2568 22.09 74.8568 21.97C74.4668 21.84 74.1118 21.615 73.7918 21.295C73.4818 20.975 73.2268 20.545 73.0268 20.005C72.8268 19.465 72.7268 18.78 72.7268 17.95ZM73.9868 17.95C73.9868 19.09 74.1718 19.92 74.5418 20.44C74.9218 20.96 75.4218 21.22 76.0418 21.22C76.6618 21.22 77.1518 20.965 77.5118 20.455C77.8818 19.945 78.0668 19.11 78.0668 17.95C78.0668 17.37 78.0168 16.87 77.9168 16.45C77.8168 16.03 77.6768 15.685 77.4968 15.415C77.3168 15.135 77.1018 14.93 76.8518 14.8C76.6018 14.67 76.3268 14.605 76.0268 14.605C75.4368 14.605 74.9468 14.88 74.5568 15.43C74.1768 15.97 73.9868 16.81 73.9868 17.95ZM87.5533 13.9V22H86.5033L86.4433 21.04C86.2133 21.39 85.9233 21.665 85.5733 21.865C85.2233 22.055 84.8433 22.15 84.4333 22.15C84.0733 22.15 83.7383 22.1 83.4283 22C83.1183 21.91 82.8483 21.755 82.6183 21.535C82.3983 21.305 82.2233 21.005 82.0933 20.635C81.9733 20.265 81.9133 19.81 81.9133 19.27V13.9H83.1133V19.18C83.1133 19.58 83.1483 19.91 83.2183 20.17C83.2983 20.42 83.4033 20.62 83.5333 20.77C83.6633 20.92 83.8183 21.025 83.9983 21.085C84.1883 21.145 84.3983 21.175 84.6283 21.175C84.9983 21.175 85.3183 21.07 85.5883 20.86C85.8683 20.65 86.1233 20.34 86.3533 19.93V13.9H87.5533ZM92.4603 22.15C91.7903 22.15 91.2253 22.02 90.7653 21.76C90.3153 21.5 89.9553 21.115 89.6853 20.605L90.7353 20.065C90.8753 20.385 91.1003 20.65 91.4103 20.86C91.7303 21.06 92.0903 21.16 92.4903 21.16C92.6903 21.16 92.8853 21.135 93.0753 21.085C93.2653 21.025 93.4353 20.94 93.5853 20.83C93.7353 20.71 93.8553 20.57 93.9453 20.41C94.0353 20.24 94.0803 20.04 94.0803 19.81C94.0803 19.52 94.0203 19.29 93.9003 19.12C93.7903 18.94 93.6403 18.795 93.4503 18.685C93.2603 18.565 93.0403 18.47 92.7903 18.4C92.5503 18.33 92.3053 18.255 92.0553 18.175C91.3453 17.955 90.8253 17.665 90.4953 17.305C90.1653 16.935 90.0003 16.48 90.0003 15.94C90.0003 15.57 90.0703 15.245 90.2103 14.965C90.3503 14.685 90.5403 14.45 90.7803 14.26C91.0203 14.07 91.2953 13.925 91.6053 13.825C91.9153 13.725 92.2403 13.675 92.5803 13.675C93.2403 13.675 93.7953 13.81 94.2453 14.08C94.7053 14.35 95.0353 14.725 95.2353 15.205L94.1703 15.655C94.0303 15.325 93.8353 15.07 93.5853 14.89C93.3453 14.7 93.0053 14.605 92.5653 14.605C92.3853 14.605 92.2153 14.63 92.0553 14.68C91.8953 14.73 91.7503 14.805 91.6203 14.905C91.4903 14.995 91.3853 15.115 91.3053 15.265C91.2353 15.415 91.2003 15.595 91.2003 15.805C91.2003 16.015 91.2353 16.195 91.3053 16.345C91.3853 16.495 91.5003 16.625 91.6503 16.735C91.8103 16.845 92.0103 16.945 92.2503 17.035C92.5003 17.125 92.7903 17.22 93.1203 17.32C93.7803 17.52 94.3053 17.805 94.6953 18.175C95.0953 18.535 95.2953 19.04 95.2953 19.69C95.2953 20.06 95.2253 20.395 95.0853 20.695C94.9453 20.995 94.7503 21.255 94.5003 21.475C94.2503 21.685 93.9503 21.85 93.6003 21.97C93.2503 22.09 92.8703 22.15 92.4603 22.15ZM100.486 17.05C100.486 17.97 100.421 18.785 100.291 19.495C100.171 20.205 100.006 20.85 99.7957 21.43C99.5957 22 99.3657 22.515 99.1057 22.975C98.8457 23.445 98.5757 23.895 98.2957 24.325L97.4857 23.95C97.7357 23.49 97.9707 23.025 98.1907 22.555C98.4207 22.085 98.6207 21.58 98.7907 21.04C98.9607 20.5 99.0957 19.91 99.1957 19.27C99.2957 18.62 99.3457 17.88 99.3457 17.05C99.3457 16.23 99.2957 15.495 99.1957 14.845C99.0957 14.195 98.9607 13.6 98.7907 13.06C98.6207 12.52 98.4207 12.015 98.1907 11.545C97.9707 11.075 97.7357 10.61 97.4857 10.15L98.2957 9.775C98.5757 10.205 98.8457 10.655 99.1057 11.125C99.3657 11.585 99.5957 12.105 99.7957 12.685C100.006 13.255 100.171 13.9 100.291 14.62C100.421 15.33 100.486 16.14 100.486 17.05ZM102.568 16.63C102.928 16.63 103.213 16.53 103.423 16.33C103.643 16.13 103.753 15.79 103.753 15.31V12.355C103.753 11.935 103.798 11.57 103.888 11.26C103.978 10.94 104.123 10.675 104.323 10.465C104.523 10.255 104.788 10.1 105.118 10C105.458 9.9 105.873 9.85 106.363 9.85V10.75C105.773 10.75 105.378 10.85 105.178 11.05C104.978 11.25 104.878 11.61 104.878 12.13V14.98C104.878 15.64 104.773 16.14 104.563 16.48C104.363 16.81 104.073 17.045 103.693 17.185C104.073 17.325 104.363 17.565 104.563 17.905C104.773 18.245 104.878 18.745 104.878 19.405V22.27C104.878 22.53 104.898 22.75 104.938 22.93C104.988 23.11 105.068 23.25 105.178 23.35C105.288 23.46 105.438 23.535 105.628 23.575C105.818 23.625 106.063 23.65 106.363 23.65V24.55C105.873 24.55 105.458 24.5 105.118 24.4C104.788 24.3 104.523 24.145 104.323 23.935C104.123 23.725 103.978 23.46 103.888 23.14C103.798 22.83 103.753 22.465 103.753 22.045V19.075C103.753 18.595 103.643 18.255 103.423 18.055C103.213 17.855 102.928 17.755 102.568 17.755V16.63ZM56.9354 40V31.9H58.0304L58.0754 33.04C58.2754 32.59 58.5304 32.255 58.8404 32.035C59.1504 31.815 59.4954 31.705 59.8754 31.705C60.0154 31.705 60.1354 31.71 60.2354 31.72C60.3354 31.73 60.4554 31.76 60.5954 31.81L60.2954 32.935C60.2054 32.915 60.1104 32.9 60.0104 32.89C59.9204 32.87 59.8154 32.86 59.6954 32.86C59.4954 32.86 59.3154 32.905 59.1554 32.995C59.0054 33.075 58.8654 33.19 58.7354 33.34C58.6154 33.49 58.5054 33.665 58.4054 33.865C58.3054 34.055 58.2154 34.255 58.1354 34.465V40H56.9354ZM68.1433 38.635C67.8833 39.045 67.5183 39.4 67.0483 39.7C66.5783 40 65.9933 40.15 65.2933 40.15C64.8033 40.15 64.3583 40.07 63.9583 39.91C63.5583 39.74 63.2133 39.485 62.9233 39.145C62.6333 38.805 62.4083 38.38 62.2483 37.87C62.0883 37.35 62.0083 36.735 62.0083 36.025C62.0083 35.265 62.0883 34.61 62.2483 34.06C62.4183 33.51 62.6483 33.06 62.9383 32.71C63.2383 32.35 63.5833 32.09 63.9733 31.93C64.3733 31.76 64.7983 31.675 65.2483 31.675C65.7483 31.675 66.1833 31.76 66.5533 31.93C66.9333 32.09 67.2483 32.355 67.4983 32.725C67.7483 33.085 67.9333 33.55 68.0533 34.12C68.1833 34.69 68.2483 35.38 68.2483 36.19H63.2383C63.2483 36.76 63.3083 37.24 63.4183 37.63C63.5383 38.01 63.6933 38.315 63.8833 38.545C64.0733 38.775 64.2933 38.94 64.5433 39.04C64.8033 39.14 65.0783 39.19 65.3683 39.19C65.6083 39.19 65.8233 39.155 66.0133 39.085C66.2133 39.005 66.3883 38.91 66.5383 38.8C66.6883 38.69 66.8183 38.57 66.9283 38.44C67.0383 38.3 67.1283 38.17 67.1983 38.05L68.1433 38.635ZM65.2483 32.605C64.6883 32.605 64.2383 32.815 63.8983 33.235C63.5583 33.655 63.3483 34.32 63.2683 35.23H67.0033C66.9833 34.74 66.9283 34.33 66.8383 34C66.7583 33.66 66.6433 33.39 66.4933 33.19C66.3433 32.98 66.1633 32.83 65.9533 32.74C65.7533 32.65 65.5183 32.605 65.2483 32.605ZM74.881 40L74.821 39.1C74.601 39.4 74.311 39.65 73.951 39.85C73.601 40.05 73.151 40.15 72.601 40.15C72.311 40.15 72.016 40.105 71.716 40.015C71.426 39.935 71.161 39.805 70.921 39.625C70.691 39.435 70.501 39.195 70.351 38.905C70.201 38.615 70.126 38.26 70.126 37.84C70.126 36.96 70.486 36.265 71.206 35.755C71.936 35.245 73.106 34.975 74.716 34.945V34.27C74.716 33.79 74.596 33.395 74.356 33.085C74.126 32.765 73.731 32.605 73.171 32.605C72.741 32.605 72.381 32.715 72.091 32.935C71.811 33.145 71.596 33.455 71.446 33.865L70.351 33.445C70.591 32.905 70.951 32.475 71.431 32.155C71.911 31.835 72.501 31.675 73.201 31.675C73.661 31.675 74.061 31.74 74.401 31.87C74.741 31.99 75.021 32.16 75.241 32.38C75.471 32.59 75.641 32.845 75.751 33.145C75.861 33.435 75.916 33.75 75.916 34.09V40H74.881ZM72.931 39.19C73.311 39.19 73.646 39.105 73.936 38.935C74.226 38.765 74.486 38.55 74.716 38.29V35.89C73.566 35.91 72.721 36.075 72.181 36.385C71.641 36.685 71.371 37.14 71.371 37.75C71.371 38.26 71.521 38.63 71.821 38.86C72.131 39.08 72.501 39.19 72.931 39.19ZM78.5089 35.965C78.5089 34.545 78.7689 33.475 79.2889 32.755C79.8189 32.035 80.5539 31.675 81.4939 31.675C82.2039 31.675 82.7589 31.88 83.1589 32.29V28.975H84.3589V40H83.3089L83.2489 38.98C82.9889 39.35 82.6789 39.64 82.3189 39.85C81.9589 40.05 81.5539 40.15 81.1039 40.15C80.7439 40.15 80.4039 40.075 80.0839 39.925C79.7639 39.775 79.4889 39.535 79.2589 39.205C79.0289 38.865 78.8439 38.43 78.7039 37.9C78.5739 37.37 78.5089 36.725 78.5089 35.965ZM81.3889 39.16C81.7389 39.16 82.0539 39.07 82.3339 38.89C82.6239 38.71 82.8989 38.45 83.1589 38.11V33.25C82.9289 33.01 82.6889 32.84 82.4389 32.74C82.1989 32.63 81.9639 32.575 81.7339 32.575C81.4439 32.575 81.1789 32.635 80.9389 32.755C80.6989 32.875 80.4889 33.07 80.3089 33.34C80.1389 33.61 80.0039 33.965 79.9039 34.405C79.8139 34.845 79.7689 35.39 79.7689 36.04C79.7689 36.64 79.8089 37.14 79.8889 37.54C79.9689 37.94 80.0789 38.26 80.2189 38.5C80.3589 38.74 80.5289 38.91 80.7289 39.01C80.9289 39.11 81.1489 39.16 81.3889 39.16ZM91.1269 38.575L88.5769 31.42V40H87.3619V29.2H89.0269L91.7269 36.94L94.2169 29.2H95.8669V40H94.6069V31.42L92.2519 38.575H91.1269ZM98.613 35.95C98.613 35.12 98.708 34.43 98.898 33.88C99.098 33.33 99.353 32.895 99.663 32.575C99.983 32.245 100.338 32.015 100.728 31.885C101.128 31.745 101.523 31.675 101.913 31.675C102.293 31.675 102.678 31.74 103.068 31.87C103.458 32 103.808 32.23 104.118 32.56C104.438 32.88 104.698 33.315 104.898 33.865C105.098 34.415 105.198 35.11 105.198 35.95C105.198 36.79 105.098 37.48 104.898 38.02C104.708 38.56 104.458 38.99 104.148 39.31C103.838 39.62 103.483 39.84 103.083 39.97C102.693 40.09 102.303 40.15 101.913 40.15C101.533 40.15 101.143 40.09 100.743 39.97C100.353 39.84 99.998 39.615 99.678 39.295C99.368 38.975 99.113 38.545 98.913 38.005C98.713 37.465 98.613 36.78 98.613 35.95ZM99.873 35.95C99.873 37.09 100.058 37.92 100.428 38.44C100.808 38.96 101.308 39.22 101.928 39.22C102.548 39.22 103.038 38.965 103.398 38.455C103.768 37.945 103.953 37.11 103.953 35.95C103.953 35.37 103.903 34.87 103.803 34.45C103.703 34.03 103.563 33.685 103.383 33.415C103.203 33.135 102.988 32.93 102.738 32.8C102.488 32.67 102.213 32.605 101.913 32.605C101.323 32.605 100.833 32.88 100.443 33.43C100.063 33.97 99.873 34.81 99.873 35.95ZM107.799 40V31.9H108.894L108.939 33.04C109.139 32.59 109.394 32.255 109.704 32.035C110.014 31.815 110.359 31.705 110.739 31.705C110.879 31.705 110.999 31.71 111.099 31.72C111.199 31.73 111.319 31.76 111.459 31.81L111.159 32.935C111.069 32.915 110.974 32.9 110.874 32.89C110.784 32.87 110.679 32.86 110.559 32.86C110.359 32.86 110.179 32.905 110.019 32.995C109.869 33.075 109.729 33.19 109.599 33.34C109.479 33.49 109.369 33.665 109.269 33.865C109.169 34.055 109.079 34.255 108.999 34.465V40H107.799ZM119.007 38.635C118.747 39.045 118.382 39.4 117.912 39.7C117.442 40 116.857 40.15 116.157 40.15C115.667 40.15 115.222 40.07 114.822 39.91C114.422 39.74 114.077 39.485 113.787 39.145C113.497 38.805 113.272 38.38 113.112 37.87C112.952 37.35 112.872 36.735 112.872 36.025C112.872 35.265 112.952 34.61 113.112 34.06C113.282 33.51 113.512 33.06 113.802 32.71C114.102 32.35 114.447 32.09 114.837 31.93C115.237 31.76 115.662 31.675 116.112 31.675C116.612 31.675 117.047 31.76 117.417 31.93C117.797 32.09 118.112 32.355 118.362 32.725C118.612 33.085 118.797 33.55 118.917 34.12C119.047 34.69 119.112 35.38 119.112 36.19H114.102C114.112 36.76 114.172 37.24 114.282 37.63C114.402 38.01 114.557 38.315 114.747 38.545C114.937 38.775 115.157 38.94 115.407 39.04C115.667 39.14 115.942 39.19 116.232 39.19C116.472 39.19 116.687 39.155 116.877 39.085C117.077 39.005 117.252 38.91 117.402 38.8C117.552 38.69 117.682 38.57 117.792 38.44C117.902 38.3 117.992 38.17 118.062 38.05L119.007 38.635ZM116.112 32.605C115.552 32.605 115.102 32.815 114.762 33.235C114.422 33.655 114.212 34.32 114.132 35.23H117.867C117.847 34.74 117.792 34.33 117.702 34C117.622 33.66 117.507 33.39 117.357 33.19C117.207 32.98 117.027 32.83 116.817 32.74C116.617 32.65 116.382 32.605 116.112 32.605ZM121.515 35.05C121.515 34.14 121.575 33.33 121.695 32.62C121.825 31.9 121.99 31.255 122.19 30.685C122.4 30.105 122.635 29.585 122.895 29.125C123.155 28.655 123.425 28.205 123.705 27.775L124.515 28.15C124.265 28.61 124.025 29.075 123.795 29.545C123.575 30.015 123.38 30.52 123.21 31.06C123.04 31.6 122.905 32.195 122.805 32.845C122.705 33.495 122.655 34.23 122.655 35.05C122.655 35.88 122.705 36.62 122.805 37.27C122.905 37.91 123.04 38.5 123.21 39.04C123.38 39.58 123.575 40.085 123.795 40.555C124.025 41.025 124.265 41.49 124.515 41.95L123.705 42.325C123.425 41.895 123.155 41.445 122.895 40.975C122.635 40.515 122.4 40 122.19 39.43C121.99 38.85 121.825 38.205 121.695 37.495C121.575 36.785 121.515 35.97 121.515 35.05ZM129.913 35.05C129.913 35.97 129.848 36.785 129.718 37.495C129.598 38.205 129.433 38.85 129.223 39.43C129.023 40 128.793 40.515 128.533 40.975C128.273 41.445 128.003 41.895 127.723 42.325L126.913 41.95C127.163 41.49 127.398 41.025 127.618 40.555C127.848 40.085 128.048 39.58 128.218 39.04C128.388 38.5 128.523 37.91 128.623 37.27C128.723 36.62 128.773 35.88 128.773 35.05C128.773 34.23 128.723 33.495 128.623 32.845C128.523 32.195 128.388 31.6 128.218 31.06C128.048 30.52 127.848 30.015 127.618 29.545C127.398 29.075 127.163 28.61 126.913 28.15L127.723 27.775C128.003 28.205 128.273 28.655 128.533 29.125C128.793 29.585 129.023 30.105 129.223 30.685C129.433 31.255 129.598 31.9 129.718 32.62C129.848 33.33 129.913 34.14 129.913 35.05ZM35.59 53.755C35.23 53.755 34.94 53.855 34.72 54.055C34.51 54.255 34.405 54.595 34.405 55.075V58.045C34.405 58.465 34.36 58.83 34.27 59.14C34.18 59.46 34.035 59.725 33.835 59.935C33.635 60.145 33.365 60.3 33.025 60.4C32.695 60.5 32.285 60.55 31.795 60.55V59.65C32.095 59.65 32.34 59.625 32.53 59.575C32.72 59.535 32.87 59.46 32.98 59.35C33.09 59.25 33.165 59.11 33.205 58.93C33.255 58.75 33.28 58.53 33.28 58.27V55.405C33.28 54.745 33.38 54.245 33.58 53.905C33.79 53.565 34.085 53.325 34.465 53.185C34.085 53.045 33.79 52.81 33.58 52.48C33.38 52.14 33.28 51.64 33.28 50.98V48.13C33.28 47.61 33.18 47.25 32.98 47.05C32.78 46.85 32.385 46.75 31.795 46.75V45.85C32.285 45.85 32.695 45.9 33.025 46C33.365 46.1 33.635 46.255 33.835 46.465C34.035 46.675 34.18 46.94 34.27 47.26C34.36 47.57 34.405 47.935 34.405 48.355V51.31C34.405 51.79 34.51 52.13 34.72 52.33C34.94 52.53 35.23 52.63 35.59 52.63V53.755Z" fill="black"/>
<line x1="0.5" y1="-2.18557e-08" x2="0.500003" y2="77" stroke="black"/>
<path d="M7.025 23V21.965H9.02V13.64L6.965 14.9L6.41 14.045L8.93 12.5H10.205V21.965H11.84V23H7.025ZM6.11 32.675C6.36 31.945 6.745 31.375 7.265 30.965C7.785 30.555 8.44 30.35 9.23 30.35C9.62 30.35 9.985 30.405 10.325 30.515C10.675 30.615 10.98 30.775 11.24 30.995C11.5 31.215 11.705 31.5 11.855 31.85C12.005 32.19 12.08 32.6 12.08 33.08C12.08 33.39 12.045 33.69 11.975 33.98C11.905 34.27 11.79 34.57 11.63 34.88C11.48 35.18 11.275 35.505 11.015 35.855C10.765 36.195 10.46 36.575 10.1 36.995L7.58 39.935H11.945V41H6.245V39.815L9.335 36.14C9.605 35.81 9.835 35.515 10.025 35.255C10.225 34.995 10.385 34.75 10.505 34.52C10.625 34.28 10.71 34.05 10.76 33.83C10.82 33.6 10.85 33.35 10.85 33.08C10.85 32.54 10.72 32.11 10.46 31.79C10.2 31.47 9.77 31.31 9.17 31.31C8.69 31.31 8.285 31.455 7.955 31.745C7.625 32.035 7.39 32.45 7.25 32.99L6.11 32.675ZM6.11 50.105C6.36 49.515 6.745 49.075 7.265 48.785C7.795 48.495 8.355 48.35 8.945 48.35C9.315 48.35 9.67 48.405 10.01 48.515C10.35 48.625 10.645 48.79 10.895 49.01C11.145 49.23 11.345 49.505 11.495 49.835C11.645 50.165 11.72 50.545 11.72 50.975C11.72 51.305 11.665 51.605 11.555 51.875C11.455 52.145 11.315 52.385 11.135 52.595C10.955 52.805 10.745 52.98 10.505 53.12C10.275 53.25 10.03 53.34 9.77 53.39C10.07 53.43 10.36 53.51 10.64 53.63C10.92 53.75 11.165 53.92 11.375 54.14C11.585 54.35 11.75 54.61 11.87 54.92C11.99 55.22 12.05 55.565 12.05 55.955C12.05 56.485 11.955 56.95 11.765 57.35C11.575 57.75 11.33 58.085 11.03 58.355C10.73 58.615 10.39 58.815 10.01 58.955C9.64 59.085 9.265 59.15 8.885 59.15C8.245 59.15 7.685 59.02 7.205 58.76C6.725 58.49 6.34 58.11 6.05 57.62L6.995 57.08C7.155 57.36 7.38 57.62 7.67 57.86C7.96 58.09 8.36 58.205 8.87 58.205C9.1 58.205 9.33 58.165 9.56 58.085C9.79 58.005 10 57.88 10.19 57.71C10.38 57.53 10.53 57.3 10.64 57.02C10.76 56.74 10.82 56.4 10.82 56C10.82 55.59 10.765 55.255 10.655 54.995C10.545 54.735 10.395 54.53 10.205 54.38C10.025 54.23 9.81 54.13 9.56 54.08C9.32 54.02 9.07 53.99 8.81 53.99H8.15V52.985H8.855C9.315 52.985 9.7 52.81 10.01 52.46C10.33 52.11 10.49 51.64 10.49 51.05C10.49 50.4 10.34 49.94 10.04 49.67C9.75 49.39 9.365 49.25 8.885 49.25C8.425 49.25 8.04 49.38 7.73 49.64C7.43 49.9 7.225 50.185 7.115 50.495L6.11 50.105Z" fill="black" fill-opacity="0.4"/>
</svg>
