<svg width="348" height="668" viewBox="0 0 348 668" fill="none" xmlns="http://www.w3.org/2000/svg">
<g filter="url(#filter0_d_362_145)">
<rect width="132" height="132" rx="15" fill="#333232"/>
</g>
<path d="M62.2813 33.875C68.0625 33.875 72.75 38.5625 72.75 44.3438C72.75 50.125 68.0625 54.8125 62.2813 54.8125C56.5 54.8125 51.8125 50.125 51.8125 44.3438C51.8125 38.5625 56.5 33.875 62.2813 33.875ZM101.906 52C98.125 50.0312 93.0625 52.5937 90.3125 57.8437C89.0625 60.2187 88.5313 62.7812 88.75 65.0937C88.9375 66.9062 89.625 68.4687 90.6875 69.5625L88 74.0625H76V67.25C76 63.0937 73.0313 59.5312 68.9375 58.7812L47.9375 54.9688C42.3125 53.9375 36.6875 56.7187 34.0938 61.7812L27.2188 75.0937C25.5313 78.2812 27.8438 82.125 31.4375 82.125H49.25C51.5313 82.125 53.375 80.2812 53.375 78C53.375 75.7187 51.5313 73.875 49.25 73.875H41.4375C40.75 73.875 40.2188 73.3125 40.2188 72.6562C40.2188 72 40.7813 71.4375 41.4375 71.4375H49.25C52.875 71.4375 55.8125 74.375 55.8125 78C55.8125 79.5625 55.25 81 54.3438 82.125H59.875H64.3438L67.4063 74.25V78.625C67.4063 80.5625 68.9688 82.125 70.9063 82.125H88.0938C90.3125 82.125 92.125 80.3125 92.125 78.0938C92.125 77.2188 91.8438 76.375 91.3438 75.7187L94.0313 71.25C94.3125 71.2812 94.625 71.3125 94.9375 71.3125C98.1563 71.3125 101.688 68.875 103.781 64.8125C106.5 59.5937 105.688 53.9688 101.906 52ZM100.5 63.125C98.625 66.6875 95.5313 68.25 93.9063 67.4062C92.8438 66.8437 92.5625 65.5 92.4688 64.7187C92.3125 63.1562 92.7188 61.25 93.625 59.5312C95.5 55.9687 98.5938 54.4062 100.219 55.25C101.844 56.125 102.344 59.5625 100.5 63.125Z" fill="white"/>
<path d="M43.1433 117H46.3233C47.0833 117 47.7533 117.147 48.3333 117.44C48.9199 117.727 49.3733 118.133 49.6933 118.66C50.0199 119.187 50.1833 119.8 50.1833 120.5C50.1833 121.2 50.0199 121.813 49.6933 122.34C49.3733 122.867 48.9199 123.277 48.3333 123.57C47.7533 123.857 47.0833 124 46.3233 124H43.1433V117ZM46.2433 122.67C46.9433 122.67 47.4999 122.477 47.9133 122.09C48.3333 121.697 48.5433 121.167 48.5433 120.5C48.5433 119.833 48.3333 119.307 47.9133 118.92C47.4999 118.527 46.9433 118.33 46.2433 118.33H44.7633V122.67H46.2433ZM51.595 118.62H53.155V124H51.595V118.62ZM52.375 117.87C52.0883 117.87 51.855 117.787 51.675 117.62C51.495 117.453 51.405 117.247 51.405 117C51.405 116.753 51.495 116.547 51.675 116.38C51.855 116.213 52.0883 116.13 52.375 116.13C52.6617 116.13 52.895 116.21 53.075 116.37C53.255 116.53 53.345 116.73 53.345 116.97C53.345 117.23 53.255 117.447 53.075 117.62C52.895 117.787 52.6617 117.87 52.375 117.87ZM56.7128 124.08C56.2661 124.08 55.8295 124.027 55.4028 123.92C54.9761 123.807 54.6361 123.667 54.3828 123.5L54.9028 122.38C55.1428 122.533 55.4328 122.66 55.7728 122.76C56.1128 122.853 56.4461 122.9 56.7728 122.9C57.4328 122.9 57.7628 122.737 57.7628 122.41C57.7628 122.257 57.6728 122.147 57.4928 122.08C57.3128 122.013 57.0361 121.957 56.6628 121.91C56.2228 121.843 55.8595 121.767 55.5728 121.68C55.2861 121.593 55.0361 121.44 54.8228 121.22C54.6161 121 54.5128 120.687 54.5128 120.28C54.5128 119.94 54.6095 119.64 54.8028 119.38C55.0028 119.113 55.2895 118.907 55.6628 118.76C56.0428 118.613 56.4895 118.54 57.0028 118.54C57.3828 118.54 57.7595 118.583 58.1328 118.67C58.5128 118.75 58.8261 118.863 59.0728 119.01L58.5528 120.12C58.0795 119.853 57.5628 119.72 57.0028 119.72C56.6695 119.72 56.4195 119.767 56.2528 119.86C56.0861 119.953 56.0028 120.073 56.0028 120.22C56.0028 120.387 56.0928 120.503 56.2728 120.57C56.4528 120.637 56.7395 120.7 57.1328 120.76C57.5728 120.833 57.9328 120.913 58.2128 121C58.4928 121.08 58.7361 121.23 58.9428 121.45C59.1495 121.67 59.2528 121.977 59.2528 122.37C59.2528 122.703 59.1528 123 58.9528 123.26C58.7528 123.52 58.4595 123.723 58.0728 123.87C57.6928 124.01 57.2395 124.08 56.7128 124.08ZM63.1153 124.08C62.542 124.08 62.0253 123.963 61.5653 123.73C61.112 123.49 60.7553 123.16 60.4953 122.74C60.242 122.32 60.1153 121.843 60.1153 121.31C60.1153 120.777 60.242 120.3 60.4953 119.88C60.7553 119.46 61.112 119.133 61.5653 118.9C62.0253 118.66 62.542 118.54 63.1153 118.54C63.682 118.54 64.1753 118.66 64.5953 118.9C65.022 119.133 65.332 119.47 65.5253 119.91L64.3153 120.56C64.0353 120.067 63.632 119.82 63.1053 119.82C62.6986 119.82 62.362 119.953 62.0953 120.22C61.8286 120.487 61.6953 120.85 61.6953 121.31C61.6953 121.77 61.8286 122.133 62.0953 122.4C62.362 122.667 62.6986 122.8 63.1053 122.8C63.6386 122.8 64.042 122.553 64.3153 122.06L65.5253 122.72C65.332 123.147 65.022 123.48 64.5953 123.72C64.1753 123.96 63.682 124.08 63.1153 124.08ZM69.2152 124.08C68.6485 124.08 68.1385 123.963 67.6852 123.73C67.2385 123.49 66.8885 123.16 66.6352 122.74C66.3818 122.32 66.2552 121.843 66.2552 121.31C66.2552 120.777 66.3818 120.3 66.6352 119.88C66.8885 119.46 67.2385 119.133 67.6852 118.9C68.1385 118.66 68.6485 118.54 69.2152 118.54C69.7818 118.54 70.2885 118.66 70.7352 118.9C71.1818 119.133 71.5318 119.46 71.7852 119.88C72.0385 120.3 72.1652 120.777 72.1652 121.31C72.1652 121.843 72.0385 122.32 71.7852 122.74C71.5318 123.16 71.1818 123.49 70.7352 123.73C70.2885 123.963 69.7818 124.08 69.2152 124.08ZM69.2152 122.8C69.6152 122.8 69.9418 122.667 70.1952 122.4C70.4552 122.127 70.5852 121.763 70.5852 121.31C70.5852 120.857 70.4552 120.497 70.1952 120.23C69.9418 119.957 69.6152 119.82 69.2152 119.82C68.8152 119.82 68.4852 119.957 68.2252 120.23C67.9652 120.497 67.8352 120.857 67.8352 121.31C67.8352 121.763 67.9652 122.127 68.2252 122.4C68.4852 122.667 68.8152 122.8 69.2152 122.8ZM78.7014 118.62L76.4314 124H74.8214L72.5614 118.62H74.1714L75.6614 122.28L77.2014 118.62H78.7014ZM82.2015 122.83C82.4815 122.83 82.7282 122.79 82.9415 122.71C83.1615 122.623 83.3648 122.49 83.5515 122.31L84.3815 123.21C83.8748 123.79 83.1348 124.08 82.1615 124.08C81.5548 124.08 81.0182 123.963 80.5515 123.73C80.0848 123.49 79.7248 123.16 79.4715 122.74C79.2182 122.32 79.0915 121.843 79.0915 121.31C79.0915 120.783 79.2148 120.31 79.4615 119.89C79.7148 119.463 80.0582 119.133 80.4915 118.9C80.9315 118.66 81.4248 118.54 81.9715 118.54C82.4848 118.54 82.9515 118.65 83.3715 118.87C83.7915 119.083 84.1248 119.397 84.3715 119.81C84.6248 120.217 84.7515 120.7 84.7515 121.26L80.7715 122.03C80.8848 122.297 81.0615 122.497 81.3015 122.63C81.5482 122.763 81.8482 122.83 82.2015 122.83ZM81.9715 119.72C81.5782 119.72 81.2582 119.847 81.0115 120.1C80.7648 120.353 80.6348 120.703 80.6215 121.15L83.2415 120.64C83.1682 120.36 83.0182 120.137 82.7915 119.97C82.5648 119.803 82.2915 119.72 81.9715 119.72ZM87.5901 119.33C87.7767 119.07 88.0267 118.873 88.3401 118.74C88.6601 118.607 89.0267 118.54 89.4401 118.54V119.98C89.2667 119.967 89.1501 119.96 89.0901 119.96C88.6434 119.96 88.2934 120.087 88.0401 120.34C87.7867 120.587 87.6601 120.96 87.6601 121.46V124H86.1001V118.62H87.5901V119.33Z" fill="white"/>
<g filter="url(#filter1_d_362_145)">
<rect x="18.5" y="10.5" width="94" height="94" rx="14.5" stroke="#E6E6E6" shape-rendering="crispEdges"/>
</g>
<g filter="url(#filter2_d_362_145)">
<rect y="260" width="132" height="132" rx="15" fill="#333232"/>
</g>
<g filter="url(#filter3_d_362_145)">
<rect x="18.5" y="270.5" width="94" height="94" rx="14.5" stroke="#E6E6E6" shape-rendering="crispEdges"/>
</g>
<g clip-path="url(#clip0_362_145)">
<path d="M66.0503 282.293L56.0503 352.293L65.9498 353.707L75.9498 283.707L66.0503 282.293Z" fill="#E6E6E6"/>
<path d="M88.5 335.5L81.429 328.429L91.858 318L81.429 307.571L88.5 300.5L106 318L88.5 335.5Z" fill="#E6E6E6"/>
<path d="M40.1421 318L50.571 328.429L43.5 335.5L26 318L43.5 300.5L50.571 307.571L40.1421 318Z" fill="#E6E6E6"/>
</g>
<path d="M29.6464 377H32.8264C33.5864 377 34.2564 377.147 34.8364 377.44C35.4231 377.727 35.8764 378.133 36.1964 378.66C36.5231 379.187 36.6864 379.8 36.6864 380.5C36.6864 381.2 36.5231 381.813 36.1964 382.34C35.8764 382.867 35.4231 383.277 34.8364 383.57C34.2564 383.857 33.5864 384 32.8264 384H29.6464V377ZM32.7464 382.67C33.4464 382.67 34.0031 382.477 34.4164 382.09C34.8364 381.697 35.0464 381.167 35.0464 380.5C35.0464 379.833 34.8364 379.307 34.4164 378.92C34.0031 378.527 33.4464 378.33 32.7464 378.33H31.2664V382.67H32.7464ZM40.8081 382.83C41.0881 382.83 41.3348 382.79 41.5481 382.71C41.7681 382.623 41.9715 382.49 42.1581 382.31L42.9881 383.21C42.4815 383.79 41.7415 384.08 40.7681 384.08C40.1615 384.08 39.6248 383.963 39.1581 383.73C38.6915 383.49 38.3315 383.16 38.0781 382.74C37.8248 382.32 37.6981 381.843 37.6981 381.31C37.6981 380.783 37.8215 380.31 38.0681 379.89C38.3215 379.463 38.6648 379.133 39.0981 378.9C39.5381 378.66 40.0315 378.54 40.5781 378.54C41.0915 378.54 41.5581 378.65 41.9781 378.87C42.3981 379.083 42.7315 379.397 42.9781 379.81C43.2315 380.217 43.3581 380.7 43.3581 381.26L39.3781 382.03C39.4915 382.297 39.6681 382.497 39.9081 382.63C40.1548 382.763 40.4548 382.83 40.8081 382.83ZM40.5781 379.72C40.1848 379.72 39.8648 379.847 39.6181 380.1C39.3715 380.353 39.2415 380.703 39.2281 381.15L41.8481 380.64C41.7748 380.36 41.6248 380.137 41.3981 379.97C41.1715 379.803 40.8981 379.72 40.5781 379.72ZM49.9491 378.62L47.6791 384H46.0691L43.8091 378.62H45.4191L46.9091 382.28L48.4491 378.62H49.9491ZM53.4491 382.83C53.7291 382.83 53.9758 382.79 54.1891 382.71C54.4091 382.623 54.6125 382.49 54.7991 382.31L55.6291 383.21C55.1225 383.79 54.3825 384.08 53.4091 384.08C52.8025 384.08 52.2658 383.963 51.7991 383.73C51.3325 383.49 50.9725 383.16 50.7191 382.74C50.4658 382.32 50.3391 381.843 50.3391 381.31C50.3391 380.783 50.4625 380.31 50.7091 379.89C50.9625 379.463 51.3058 379.133 51.7391 378.9C52.1791 378.66 52.6725 378.54 53.2191 378.54C53.7325 378.54 54.1991 378.65 54.6191 378.87C55.0391 379.083 55.3725 379.397 55.6191 379.81C55.8725 380.217 55.9991 380.7 55.9991 381.26L52.0191 382.03C52.1325 382.297 52.3091 382.497 52.5491 382.63C52.7958 382.763 53.0958 382.83 53.4491 382.83ZM53.2191 379.72C52.8258 379.72 52.5058 379.847 52.2591 380.1C52.0125 380.353 51.8825 380.703 51.8691 381.15L54.4891 380.64C54.4158 380.36 54.2658 380.137 54.0391 379.97C53.8125 379.803 53.5391 379.72 53.2191 379.72ZM59.2777 384.08C58.6711 384.08 58.1977 383.92 57.8577 383.6C57.5177 383.273 57.3477 382.813 57.3477 382.22V376.58H58.9077V382.13C58.9077 382.357 58.9644 382.533 59.0777 382.66C59.1977 382.78 59.3644 382.84 59.5777 382.84C59.6577 382.84 59.7377 382.83 59.8177 382.81C59.9044 382.79 59.9711 382.767 60.0177 382.74L60.0877 383.95C59.8277 384.037 59.5577 384.08 59.2777 384.08ZM63.6159 384.08C63.0493 384.08 62.5393 383.963 62.0859 383.73C61.6393 383.49 61.2893 383.16 61.0359 382.74C60.7826 382.32 60.6559 381.843 60.6559 381.31C60.6559 380.777 60.7826 380.3 61.0359 379.88C61.2893 379.46 61.6393 379.133 62.0859 378.9C62.5393 378.66 63.0493 378.54 63.6159 378.54C64.1826 378.54 64.6893 378.66 65.1359 378.9C65.5826 379.133 65.9326 379.46 66.1859 379.88C66.4393 380.3 66.5659 380.777 66.5659 381.31C66.5659 381.843 66.4393 382.32 66.1859 382.74C65.9326 383.16 65.5826 383.49 65.1359 383.73C64.6893 383.963 64.1826 384.08 63.6159 384.08ZM63.6159 382.8C64.0159 382.8 64.3426 382.667 64.5959 382.4C64.8559 382.127 64.9859 381.763 64.9859 381.31C64.9859 380.857 64.8559 380.497 64.5959 380.23C64.3426 379.957 64.0159 379.82 63.6159 379.82C63.2159 379.82 62.8859 379.957 62.6259 380.23C62.3659 380.497 62.2359 380.857 62.2359 381.31C62.2359 381.763 62.3659 382.127 62.6259 382.4C62.8859 382.667 63.2159 382.8 63.6159 382.8ZM71.0887 378.54C71.5887 378.54 72.042 378.657 72.4487 378.89C72.862 379.117 73.1853 379.44 73.4187 379.86C73.652 380.273 73.7687 380.757 73.7687 381.31C73.7687 381.863 73.652 382.35 73.4187 382.77C73.1853 383.183 72.862 383.507 72.4487 383.74C72.042 383.967 71.5887 384.08 71.0887 384.08C70.402 384.08 69.862 383.863 69.4687 383.43V385.94H67.9087V378.62H69.3987V379.24C69.7853 378.773 70.3487 378.54 71.0887 378.54ZM70.8187 382.8C71.2187 382.8 71.5453 382.667 71.7987 382.4C72.0587 382.127 72.1887 381.763 72.1887 381.31C72.1887 380.857 72.0587 380.497 71.7987 380.23C71.5453 379.957 71.2187 379.82 70.8187 379.82C70.4187 379.82 70.0887 379.957 69.8287 380.23C69.5753 380.497 69.4487 380.857 69.4487 381.31C69.4487 381.763 69.5753 382.127 69.8287 382.4C70.0887 382.667 70.4187 382.8 70.8187 382.8ZM82.003 378.54C82.6763 378.54 83.2096 378.74 83.603 379.14C84.003 379.533 84.203 380.127 84.203 380.92V384H82.643V381.16C82.643 380.733 82.553 380.417 82.373 380.21C82.1996 379.997 81.9496 379.89 81.623 379.89C81.2563 379.89 80.9663 380.01 80.753 380.25C80.5396 380.483 80.433 380.833 80.433 381.3V384H78.873V381.16C78.873 380.313 78.533 379.89 77.853 379.89C77.493 379.89 77.2063 380.01 76.993 380.25C76.7796 380.483 76.673 380.833 76.673 381.3V384H75.113V378.62H76.603V379.24C76.803 379.013 77.0463 378.84 77.333 378.72C77.6263 378.6 77.9463 378.54 78.293 378.54C78.673 378.54 79.0163 378.617 79.323 378.77C79.6296 378.917 79.8763 379.133 80.063 379.42C80.283 379.14 80.5596 378.923 80.893 378.77C81.233 378.617 81.603 378.54 82.003 378.54ZM88.6698 382.83C88.9498 382.83 89.1965 382.79 89.4098 382.71C89.6298 382.623 89.8332 382.49 90.0198 382.31L90.8498 383.21C90.3432 383.79 89.6032 384.08 88.6298 384.08C88.0232 384.08 87.4865 383.963 87.0198 383.73C86.5532 383.49 86.1932 383.16 85.9398 382.74C85.6865 382.32 85.5598 381.843 85.5598 381.31C85.5598 380.783 85.6832 380.31 85.9298 379.89C86.1832 379.463 86.5265 379.133 86.9598 378.9C87.3998 378.66 87.8932 378.54 88.4398 378.54C88.9532 378.54 89.4198 378.65 89.8398 378.87C90.2598 379.083 90.5932 379.397 90.8398 379.81C91.0932 380.217 91.2198 380.7 91.2198 381.26L87.2398 382.03C87.3532 382.297 87.5298 382.497 87.7698 382.63C88.0165 382.763 88.3165 382.83 88.6698 382.83ZM88.4398 379.72C88.0465 379.72 87.7265 379.847 87.4798 380.1C87.2332 380.353 87.1032 380.703 87.0898 381.15L89.7098 380.64C89.6365 380.36 89.4865 380.137 89.2598 379.97C89.0332 379.803 88.7598 379.72 88.4398 379.72ZM95.8384 378.54C96.5051 378.54 97.0418 378.74 97.4484 379.14C97.8618 379.54 98.0684 380.133 98.0684 380.92V384H96.5084V381.16C96.5084 380.733 96.4151 380.417 96.2284 380.21C96.0418 379.997 95.7718 379.89 95.4184 379.89C95.0251 379.89 94.7118 380.013 94.4784 380.26C94.2451 380.5 94.1284 380.86 94.1284 381.34V384H92.5684V378.62H94.0584V379.25C94.2651 379.023 94.5218 378.85 94.8284 378.73C95.1351 378.603 95.4718 378.54 95.8384 378.54ZM103.023 383.74C102.869 383.853 102.679 383.94 102.453 384C102.233 384.053 102.003 384.08 101.763 384.08C101.116 384.08 100.619 383.917 100.273 383.59C99.9258 383.263 99.7525 382.783 99.7525 382.15V377.43H101.313V378.74H102.643V379.94H101.313V382.13C101.313 382.357 101.369 382.533 101.483 382.66C101.596 382.78 101.759 382.84 101.973 382.84C102.213 382.84 102.426 382.773 102.613 382.64L103.023 383.74Z" fill="white"/>
<g filter="url(#filter4_d_362_145)">
<rect x="208" y="392" width="132" height="132" rx="15" fill="#333232"/>
</g>
<g filter="url(#filter5_d_362_145)">
<rect x="226.5" y="402.5" width="94" height="94" rx="14.5" stroke="#E6E6E6" shape-rendering="crispEdges"/>
</g>
<path d="M304 450C304 466.569 290.569 480 274 480C257.431 480 244 466.569 244 450C244 433.431 257.431 420 274 420C290.569 420 304 433.431 304 450Z" stroke="#E6E6E6" stroke-width="5"/>
<path d="M257.333 450C257.333 440.795 264.795 433.333 274 433.333" stroke="#E6E6E6" stroke-width="5" stroke-linecap="round"/>
<path d="M277.333 450C277.333 451.841 275.841 453.333 274 453.333C272.159 453.333 270.667 451.841 270.667 450C270.667 448.159 272.159 446.667 274 446.667C275.841 446.667 277.333 448.159 277.333 450Z" stroke="#E6E6E6" stroke-width="5"/>
<path d="M274 450L287.333 436.667" stroke="#E6E6E6" stroke-width="5" stroke-linecap="round" stroke-linejoin="round"/>
<path d="M259.753 509.96C259.153 509.613 258.509 509.39 257.823 509.29V515H256.203V509.29C255.516 509.39 254.869 509.613 254.263 509.96L253.713 508.75C254.193 508.463 254.713 508.247 255.273 508.1C255.833 507.953 256.409 507.88 257.003 507.88C257.603 507.88 258.183 507.953 258.743 508.1C259.309 508.247 259.829 508.463 260.303 508.75L259.753 509.96ZM263.383 513.83C263.663 513.83 263.909 513.79 264.123 513.71C264.343 513.623 264.546 513.49 264.733 513.31L265.563 514.21C265.056 514.79 264.316 515.08 263.343 515.08C262.736 515.08 262.199 514.963 261.733 514.73C261.266 514.49 260.906 514.16 260.653 513.74C260.399 513.32 260.273 512.843 260.273 512.31C260.273 511.783 260.396 511.31 260.643 510.89C260.896 510.463 261.239 510.133 261.673 509.9C262.113 509.66 262.606 509.54 263.153 509.54C263.666 509.54 264.133 509.65 264.553 509.87C264.973 510.083 265.306 510.397 265.553 510.81C265.806 511.217 265.933 511.7 265.933 512.26L261.953 513.03C262.066 513.297 262.243 513.497 262.483 513.63C262.729 513.763 263.029 513.83 263.383 513.83ZM263.153 510.72C262.759 510.72 262.439 510.847 262.193 511.1C261.946 511.353 261.816 511.703 261.803 512.15L264.423 511.64C264.349 511.36 264.199 511.137 263.973 510.97C263.746 510.803 263.473 510.72 263.153 510.72ZM269.091 515.08C268.645 515.08 268.208 515.027 267.781 514.92C267.355 514.807 267.015 514.667 266.761 514.5L267.281 513.38C267.521 513.533 267.811 513.66 268.151 513.76C268.491 513.853 268.825 513.9 269.151 513.9C269.811 513.9 270.141 513.737 270.141 513.41C270.141 513.257 270.051 513.147 269.871 513.08C269.691 513.013 269.415 512.957 269.041 512.91C268.601 512.843 268.238 512.767 267.951 512.68C267.665 512.593 267.415 512.44 267.201 512.22C266.995 512 266.891 511.687 266.891 511.28C266.891 510.94 266.988 510.64 267.181 510.38C267.381 510.113 267.668 509.907 268.041 509.76C268.421 509.613 268.868 509.54 269.381 509.54C269.761 509.54 270.138 509.583 270.511 509.67C270.891 509.75 271.205 509.863 271.451 510.01L270.931 511.12C270.458 510.853 269.941 510.72 269.381 510.72C269.048 510.72 268.798 510.767 268.631 510.86C268.465 510.953 268.381 511.073 268.381 511.22C268.381 511.387 268.471 511.503 268.651 511.57C268.831 511.637 269.118 511.7 269.511 511.76C269.951 511.833 270.311 511.913 270.591 512C270.871 512.08 271.115 512.23 271.321 512.45C271.528 512.67 271.631 512.977 271.631 513.37C271.631 513.703 271.531 514 271.331 514.26C271.131 514.52 270.838 514.723 270.451 514.87C270.071 515.01 269.618 515.08 269.091 515.08ZM276.134 514.74C275.98 514.853 275.79 514.94 275.564 515C275.344 515.053 275.114 515.08 274.874 515.08C274.227 515.08 273.73 514.917 273.384 514.59C273.037 514.263 272.864 513.783 272.864 513.15V508.43H274.424V509.74H275.754V510.94H274.424V513.13C274.424 513.357 274.48 513.533 274.594 513.66C274.707 513.78 274.87 513.84 275.084 513.84C275.324 513.84 275.537 513.773 275.724 513.64L276.134 514.74ZM277.315 509.62H278.875V515H277.315V509.62ZM278.095 508.87C277.808 508.87 277.575 508.787 277.395 508.62C277.215 508.453 277.125 508.247 277.125 508C277.125 507.753 277.215 507.547 277.395 507.38C277.575 507.213 277.808 507.13 278.095 507.13C278.382 507.13 278.615 507.21 278.795 507.37C278.975 507.53 279.065 507.73 279.065 507.97C279.065 508.23 278.975 508.447 278.795 508.62C278.615 508.787 278.382 508.87 278.095 508.87ZM283.893 509.54C284.559 509.54 285.096 509.74 285.503 510.14C285.916 510.54 286.123 511.133 286.123 511.92V515H284.563V512.16C284.563 511.733 284.469 511.417 284.283 511.21C284.096 510.997 283.826 510.89 283.473 510.89C283.079 510.89 282.766 511.013 282.533 511.26C282.299 511.5 282.183 511.86 282.183 512.34V515H280.623V509.62H282.113V510.25C282.319 510.023 282.576 509.85 282.883 509.73C283.189 509.603 283.526 509.54 283.893 509.54ZM293.445 509.62V514.1C293.445 515.087 293.189 515.82 292.675 516.3C292.162 516.78 291.412 517.02 290.425 517.02C289.905 517.02 289.412 516.957 288.945 516.83C288.479 516.703 288.092 516.52 287.785 516.28L288.405 515.16C288.632 515.347 288.919 515.493 289.265 515.6C289.612 515.713 289.959 515.77 290.305 515.77C290.845 515.77 291.242 515.647 291.495 515.4C291.755 515.16 291.885 514.793 291.885 514.3V514.07C291.479 514.517 290.912 514.74 290.185 514.74C289.692 514.74 289.239 514.633 288.825 514.42C288.419 514.2 288.095 513.893 287.855 513.5C287.615 513.107 287.495 512.653 287.495 512.14C287.495 511.627 287.615 511.173 287.855 510.78C288.095 510.387 288.419 510.083 288.825 509.87C289.239 509.65 289.692 509.54 290.185 509.54C290.965 509.54 291.559 509.797 291.965 510.31V509.62H293.445ZM290.495 513.46C290.909 513.46 291.245 513.34 291.505 513.1C291.772 512.853 291.905 512.533 291.905 512.14C291.905 511.747 291.772 511.43 291.505 511.19C291.245 510.943 290.909 510.82 290.495 510.82C290.082 510.82 289.742 510.943 289.475 511.19C289.209 511.43 289.075 511.747 289.075 512.14C289.075 512.533 289.209 512.853 289.475 513.1C289.742 513.34 290.082 513.46 290.495 513.46Z" fill="white"/>
<g filter="url(#filter6_d_362_145)">
<rect y="524" width="132" height="132" rx="15" fill="#333232"/>
</g>
<g filter="url(#filter7_d_362_145)">
<rect x="18.5" y="534.5" width="94" height="94" rx="14.5" stroke="#E6E6E6" shape-rendering="crispEdges"/>
</g>
<g clip-path="url(#clip1_362_145)">
<path d="M105.462 545.361C104.95 544.805 104.171 544.579 103.442 544.773L39.4466 561.845C38.744 562.032 38.1952 562.58 38.0064 563.282C37.818 563.984 38.0184 564.734 38.5322 565.248L40.4662 567.182L32.5516 575.097C31.7574 575.892 31.7574 577.179 32.5516 577.973C32.9489 578.37 33.4695 578.569 33.9899 578.569C34.5103 578.569 35.0309 578.37 35.4282 577.973L43.3425 570.059L47.426 574.144L36.6124 584.957C35.8181 585.752 35.8181 587.039 36.6124 587.833C37.0096 588.23 37.5303 588.429 38.0506 588.429C38.571 588.429 39.0916 588.23 39.4889 587.833L50.302 577.02L50.7367 577.455V584.754L31.9819 603.508C31.1877 604.303 31.1877 605.59 31.9819 606.385C32.3792 606.782 32.8998 606.98 33.4202 606.98C33.9406 606.98 34.4612 606.782 34.8585 606.385L50.7369 590.506V598.683L39.3286 610.067C38.5336 610.86 38.5322 612.148 39.3257 612.943C39.7229 613.341 40.2441 613.54 40.7653 613.54C41.2851 613.54 41.8049 613.342 42.2019 612.946L51.4273 603.74C51.7999 604.069 52.2788 604.252 52.7723 604.252C53.0779 604.252 53.3884 604.183 53.6804 604.037L64.9119 598.42L53.6053 609.726C52.8111 610.521 52.8111 611.808 53.6053 612.603C54.0026 613 54.5232 613.198 55.0436 613.198C55.564 613.198 56.0846 612.999 56.4819 612.603L71.1805 597.904L75.264 601.989L66.8958 610.357C66.1015 611.151 66.1015 612.439 66.8958 613.233C67.293 613.63 67.8137 613.829 68.334 613.829C68.8544 613.829 69.3751 613.63 69.7723 613.233L78.14 604.865L81.1971 607.923C81.5827 608.309 82.1017 608.519 82.6354 608.519C82.784 608.519 82.9337 608.503 83.0817 608.47C83.7621 608.317 84.3164 607.826 84.5509 607.169L105.883 547.422C106.135 546.711 105.974 545.917 105.462 545.361ZM89.8872 552.599L53.0993 574.066L43.9022 564.866L89.8872 552.599ZM61.8594 588.582L66.4025 593.126L57.3168 597.67L61.8594 588.582ZM59.9414 583.636C59.7524 583.807 59.5968 584.011 59.4831 584.239L54.8036 593.601V577.78L87.8933 558.472L59.9414 583.636ZM81.7994 602.775L64.2557 585.225L99.3439 553.637L81.7994 602.775Z" fill="#E6E6E6"/>
<path d="M33.4164 591.796C33.4164 591.262 33.1995 590.736 32.8198 590.359C32.4429 589.979 31.9198 589.762 31.3826 589.762C30.8484 589.762 30.3224 589.979 29.9454 590.359C29.5658 590.736 29.3489 591.262 29.3489 591.796C29.3489 592.333 29.5658 592.856 29.9454 593.233C30.3224 593.613 30.8484 593.83 31.3826 593.83C31.9198 593.83 32.4429 593.613 32.8198 593.233C33.1995 592.856 33.4164 592.333 33.4164 591.796Z" fill="#E6E6E6"/>
<path d="M50.4946 614.945C49.9574 614.945 49.4343 615.163 49.0574 615.539C48.6777 615.919 48.4608 616.445 48.4608 616.979C48.4608 617.514 48.6777 618.037 49.0574 618.417C49.4343 618.796 49.9574 619.013 50.4946 619.013C51.0288 619.013 51.5548 618.796 51.9318 618.417C52.3114 618.037 52.5283 617.514 52.5283 616.979C52.5283 616.445 52.3114 615.919 51.9318 615.539C51.5548 615.163 51.0315 614.945 50.4946 614.945Z" fill="#E6E6E6"/>
<path d="M64.183 613.91C63.6488 613.91 63.1258 614.127 62.7459 614.506C62.3665 614.886 62.1493 615.409 62.1493 615.943C62.1493 616.48 62.3665 617.004 62.7459 617.383C63.1228 617.761 63.6488 617.977 64.183 617.977C64.7202 617.977 65.2433 617.76 65.6232 617.383C66.0001 617.004 66.2168 616.48 66.2168 615.943C66.2168 615.409 65.9999 614.886 65.6232 614.506C65.2433 614.126 64.72 613.91 64.183 613.91Z" fill="#E6E6E6"/>
<path d="M77.5052 611.176C76.971 611.176 76.4452 611.396 76.068 611.773C75.6884 612.152 75.4714 612.676 75.4714 613.21C75.4714 613.747 75.6886 614.27 76.068 614.65C76.4476 615.029 76.971 615.246 77.5052 615.246C78.0397 615.246 78.5627 615.029 78.9426 614.65C79.3223 614.27 79.5389 613.747 79.5389 613.21C79.5389 612.676 79.322 612.152 78.9426 611.773C78.5657 611.396 78.0397 611.176 77.5052 611.176Z" fill="#E6E6E6"/>
<path d="M35.0106 615.227C34.4764 615.227 33.9506 615.444 33.5734 615.821C33.194 616.198 32.9768 616.724 32.9768 617.258C32.9768 617.795 33.194 618.319 33.5734 618.698C33.9506 619.075 34.4764 619.295 35.0106 619.295C35.5475 619.295 36.0708 619.075 36.4507 618.698C36.8277 618.319 37.0443 617.795 37.0443 617.258C37.0443 616.724 36.8274 616.198 36.4507 615.821C36.0711 615.444 35.5477 615.227 35.0106 615.227Z" fill="#E6E6E6"/>
<path d="M30.0675 582.647C30.0675 582.112 29.8506 581.589 29.4709 581.209C29.094 580.83 28.5707 580.613 28.0338 580.613C27.4966 580.613 26.9735 580.83 26.5966 581.209C26.2169 581.586 26 582.109 26 582.647C26 583.183 26.2169 583.707 26.5966 584.084C26.9735 584.463 27.4996 584.68 28.0338 584.68C28.568 584.68 29.091 584.463 29.4709 584.084C29.8506 583.707 30.0675 583.181 30.0675 582.647Z" fill="#E6E6E6"/>
<path d="M33.4218 568.817C33.956 568.817 34.4791 568.6 34.859 568.22C35.2359 567.844 35.4556 567.317 35.4556 566.783C35.4556 566.249 35.2357 565.723 34.859 565.346C34.4794 564.966 33.956 564.75 33.4218 564.75C32.8849 564.75 32.3616 564.966 31.9816 565.346C31.6047 565.723 31.3881 566.249 31.3881 566.783C31.3881 567.317 31.605 567.844 31.9816 568.22C32.3616 568.6 32.8849 568.817 33.4218 568.817Z" fill="#E6E6E6"/>
</g>
<path d="M46.3193 641H47.9393V646.68H51.4493V648H46.3193V641ZM57.9654 642.62V648H56.4754V647.38C56.0887 647.847 55.5287 648.08 54.7954 648.08C54.2887 648.08 53.8287 647.967 53.4154 647.74C53.0087 647.513 52.6887 647.19 52.4554 646.77C52.222 646.35 52.1054 645.863 52.1054 645.31C52.1054 644.757 52.222 644.27 52.4554 643.85C52.6887 643.43 53.0087 643.107 53.4154 642.88C53.8287 642.653 54.2887 642.54 54.7954 642.54C55.482 642.54 56.0187 642.757 56.4054 643.19V642.62H57.9654ZM55.0654 646.8C55.4587 646.8 55.7854 646.667 56.0454 646.4C56.3054 646.127 56.4354 645.763 56.4354 645.31C56.4354 644.857 56.3054 644.497 56.0454 644.23C55.7854 643.957 55.4587 643.82 55.0654 643.82C54.6654 643.82 54.3354 643.957 54.0754 644.23C53.8154 644.497 53.6854 644.857 53.6854 645.31C53.6854 645.763 53.8154 646.127 54.0754 646.4C54.3354 646.667 54.6654 646.8 55.0654 646.8ZM65.1296 642.62V648H63.6496V647.36C63.443 647.593 63.1963 647.773 62.9096 647.9C62.623 648.02 62.313 648.08 61.9796 648.08C61.273 648.08 60.713 647.877 60.2996 647.47C59.8863 647.063 59.6796 646.46 59.6796 645.66V642.62H61.2396V645.43C61.2396 646.297 61.603 646.73 62.3296 646.73C62.703 646.73 63.003 646.61 63.2296 646.37C63.4563 646.123 63.5696 645.76 63.5696 645.28V642.62H65.1296ZM70.1449 642.54C70.8116 642.54 71.3482 642.74 71.7549 643.14C72.1682 643.54 72.3749 644.133 72.3749 644.92V648H70.8149V645.16C70.8149 644.733 70.7216 644.417 70.5349 644.21C70.3482 643.997 70.0782 643.89 69.7249 643.89C69.3316 643.89 69.0182 644.013 68.7849 644.26C68.5516 644.5 68.4349 644.86 68.4349 645.34V648H66.8749V642.62H68.3649V643.25C68.5716 643.023 68.8282 642.85 69.1349 642.73C69.4416 642.603 69.7782 642.54 70.1449 642.54ZM76.7475 648.08C76.1742 648.08 75.6575 647.963 75.1975 647.73C74.7442 647.49 74.3875 647.16 74.1275 646.74C73.8742 646.32 73.7475 645.843 73.7475 645.31C73.7475 644.777 73.8742 644.3 74.1275 643.88C74.3875 643.46 74.7442 643.133 75.1975 642.9C75.6575 642.66 76.1742 642.54 76.7475 642.54C77.3142 642.54 77.8075 642.66 78.2275 642.9C78.6542 643.133 78.9642 643.47 79.1575 643.91L77.9475 644.56C77.6675 644.067 77.2642 643.82 76.7375 643.82C76.3309 643.82 75.9942 643.953 75.7275 644.22C75.4609 644.487 75.3275 644.85 75.3275 645.31C75.3275 645.77 75.4609 646.133 75.7275 646.4C75.9942 646.667 76.3309 646.8 76.7375 646.8C77.2709 646.8 77.6742 646.553 77.9475 646.06L79.1575 646.72C78.9642 647.147 78.6542 647.48 78.2275 647.72C77.8075 647.96 77.3142 648.08 76.7475 648.08ZM83.5867 642.54C84.2533 642.54 84.79 642.74 85.1967 643.14C85.61 643.54 85.8167 644.133 85.8167 644.92V648H84.2567V645.16C84.2567 644.733 84.1633 644.417 83.9767 644.21C83.79 643.997 83.52 643.89 83.1667 643.89C82.7733 643.89 82.46 644.013 82.2267 644.26C81.9933 644.5 81.8767 644.86 81.8767 645.34V648H80.3167V640.58H81.8767V643.18C82.0833 642.973 82.3333 642.817 82.6267 642.71C82.92 642.597 83.24 642.54 83.5867 642.54Z" fill="white"/>
<g filter="url(#filter8_d_362_145)">
<rect x="208" y="132" width="132" height="132" rx="15" fill="#333232"/>
</g>
<g filter="url(#filter9_d_362_145)">
<rect x="226.5" y="142.5" width="94" height="94" rx="14.5" stroke="#E6E6E6" shape-rendering="crispEdges"/>
</g>
<path d="M290.667 170V204.264L295.667 209.301L300.667 204.264V170H290.667ZM290.667 166.667H300.667V160.049H290.667V166.667ZM304 173.333V204.951C304 205.391 303.826 205.813 303.516 206.125L296.85 212.841C296.198 213.497 295.136 213.497 294.484 212.841L287.817 206.125C287.507 205.813 287.333 205.391 287.333 204.951V196.667H285.667C282.905 196.667 280.667 194.428 280.667 191.667V181.667C280.667 178.905 282.905 176.667 285.667 176.667H287.333V173.333H254V198.333C254 199.254 253.254 200 252.333 200H250.667C245.144 200 240.667 204.477 240.667 210C240.667 215.523 245.144 220 250.667 220H307.333V173.333H304ZM304 170H309C309.921 170 310.667 170.746 310.667 171.667V221.667C310.667 222.587 309.921 223.333 309 223.333H250.667C243.303 223.333 237.333 217.364 237.333 210V171.667C237.333 163.382 244.049 156.667 252.333 156.667C253.254 156.667 254 157.413 254 158.333V170H287.333V158.382C287.333 157.462 288.08 156.716 289 156.716H302.333C303.254 156.716 304 157.462 304 158.382V170ZM287.333 180H285.667C284.746 180 284 180.746 284 181.667V191.667C284 192.587 284.746 193.333 285.667 193.333H287.333V180ZM240.667 201.181C243.11 198.412 246.684 196.667 250.667 196.667V160.118C245.013 160.927 240.667 165.789 240.667 171.667V201.181ZM262.333 176.667H272.333C275.095 176.667 277.333 178.905 277.333 181.667V191.667C277.333 194.428 275.095 196.667 272.333 196.667H262.333C259.572 196.667 257.333 194.428 257.333 191.667V181.667C257.333 178.905 259.572 176.667 262.333 176.667ZM262.333 180C261.413 180 260.667 180.746 260.667 181.667V191.667C260.667 192.587 261.413 193.333 262.333 193.333H272.333C273.254 193.333 274 192.587 274 191.667V181.667C274 180.746 273.254 180 272.333 180H262.333ZM259 206.667C258.08 206.667 257.333 205.92 257.333 205C257.333 204.079 258.08 203.333 259 203.333H282.333C283.254 203.333 284 204.079 284 205C284 205.92 283.254 206.667 282.333 206.667H259ZM259 213.333C258.08 213.333 257.333 212.587 257.333 211.667C257.333 210.746 258.08 210 259 210H285.667C286.587 210 287.333 210.746 287.333 211.667C287.333 212.587 286.587 213.333 285.667 213.333H259Z" fill="#E6E6E6"/>
<path d="M255.677 248H258.857C259.617 248 260.287 248.147 260.867 248.44C261.453 248.727 261.907 249.133 262.227 249.66C262.553 250.187 262.717 250.8 262.717 251.5C262.717 252.2 262.553 252.813 262.227 253.34C261.907 253.867 261.453 254.277 260.867 254.57C260.287 254.857 259.617 255 258.857 255H255.677V248ZM258.777 253.67C259.477 253.67 260.033 253.477 260.447 253.09C260.867 252.697 261.077 252.167 261.077 251.5C261.077 250.833 260.867 250.307 260.447 249.92C260.033 249.527 259.477 249.33 258.777 249.33H257.297V253.67H258.777ZM266.838 253.83C267.118 253.83 267.365 253.79 267.578 253.71C267.798 253.623 268.002 253.49 268.188 253.31L269.018 254.21C268.512 254.79 267.772 255.08 266.798 255.08C266.192 255.08 265.655 254.963 265.188 254.73C264.722 254.49 264.362 254.16 264.108 253.74C263.855 253.32 263.728 252.843 263.728 252.31C263.728 251.783 263.852 251.31 264.098 250.89C264.352 250.463 264.695 250.133 265.128 249.9C265.568 249.66 266.062 249.54 266.608 249.54C267.122 249.54 267.588 249.65 268.008 249.87C268.428 250.083 268.762 250.397 269.008 250.81C269.262 251.217 269.388 251.7 269.388 252.26L265.408 253.03C265.522 253.297 265.698 253.497 265.938 253.63C266.185 253.763 266.485 253.83 266.838 253.83ZM266.608 250.72C266.215 250.72 265.895 250.847 265.648 251.1C265.402 251.353 265.272 251.703 265.258 252.15L267.878 251.64C267.805 251.36 267.655 251.137 267.428 250.97C267.202 250.803 266.928 250.72 266.608 250.72ZM272.547 255.08C272.1 255.08 271.664 255.027 271.237 254.92C270.81 254.807 270.47 254.667 270.217 254.5L270.737 253.38C270.977 253.533 271.267 253.66 271.607 253.76C271.947 253.853 272.28 253.9 272.607 253.9C273.267 253.9 273.597 253.737 273.597 253.41C273.597 253.257 273.507 253.147 273.327 253.08C273.147 253.013 272.87 252.957 272.497 252.91C272.057 252.843 271.694 252.767 271.407 252.68C271.12 252.593 270.87 252.44 270.657 252.22C270.45 252 270.347 251.687 270.347 251.28C270.347 250.94 270.444 250.64 270.637 250.38C270.837 250.113 271.124 249.907 271.497 249.76C271.877 249.613 272.324 249.54 272.837 249.54C273.217 249.54 273.594 249.583 273.967 249.67C274.347 249.75 274.66 249.863 274.907 250.01L274.387 251.12C273.914 250.853 273.397 250.72 272.837 250.72C272.504 250.72 272.254 250.767 272.087 250.86C271.92 250.953 271.837 251.073 271.837 251.22C271.837 251.387 271.927 251.503 272.107 251.57C272.287 251.637 272.574 251.7 272.967 251.76C273.407 251.833 273.767 251.913 274.047 252C274.327 252.08 274.57 252.23 274.777 252.45C274.984 252.67 275.087 252.977 275.087 253.37C275.087 253.703 274.987 254 274.787 254.26C274.587 254.52 274.294 254.723 273.907 254.87C273.527 255.01 273.074 255.08 272.547 255.08ZM276.349 249.62H277.909V255H276.349V249.62ZM277.129 248.87C276.843 248.87 276.609 248.787 276.429 248.62C276.249 248.453 276.159 248.247 276.159 248C276.159 247.753 276.249 247.547 276.429 247.38C276.609 247.213 276.843 247.13 277.129 247.13C277.416 247.13 277.649 247.21 277.829 247.37C278.009 247.53 278.099 247.73 278.099 247.97C278.099 248.23 278.009 248.447 277.829 248.62C277.649 248.787 277.416 248.87 277.129 248.87ZM285.207 249.62V254.1C285.207 255.087 284.951 255.82 284.437 256.3C283.924 256.78 283.174 257.02 282.187 257.02C281.667 257.02 281.174 256.957 280.707 256.83C280.241 256.703 279.854 256.52 279.547 256.28L280.167 255.16C280.394 255.347 280.681 255.493 281.027 255.6C281.374 255.713 281.721 255.77 282.067 255.77C282.607 255.77 283.004 255.647 283.257 255.4C283.517 255.16 283.647 254.793 283.647 254.3V254.07C283.241 254.517 282.674 254.74 281.947 254.74C281.454 254.74 281.001 254.633 280.587 254.42C280.181 254.2 279.857 253.893 279.617 253.5C279.377 253.107 279.257 252.653 279.257 252.14C279.257 251.627 279.377 251.173 279.617 250.78C279.857 250.387 280.181 250.083 280.587 249.87C281.001 249.65 281.454 249.54 281.947 249.54C282.727 249.54 283.321 249.797 283.727 250.31V249.62H285.207ZM282.257 253.46C282.671 253.46 283.007 253.34 283.267 253.1C283.534 252.853 283.667 252.533 283.667 252.14C283.667 251.747 283.534 251.43 283.267 251.19C283.007 250.943 282.671 250.82 282.257 250.82C281.844 250.82 281.504 250.943 281.237 251.19C280.971 251.43 280.837 251.747 280.837 252.14C280.837 252.533 280.971 252.853 281.237 253.1C281.504 253.34 281.844 253.46 282.257 253.46ZM290.229 249.54C290.896 249.54 291.433 249.74 291.839 250.14C292.253 250.54 292.459 251.133 292.459 251.92V255H290.899V252.16C290.899 251.733 290.806 251.417 290.619 251.21C290.433 250.997 290.163 250.89 289.809 250.89C289.416 250.89 289.103 251.013 288.869 251.26C288.636 251.5 288.519 251.86 288.519 252.34V255H286.959V249.62H288.449V250.25C288.656 250.023 288.913 249.85 289.219 249.73C289.526 249.603 289.863 249.54 290.229 249.54Z" fill="white"/>
<path d="M156 117.029C164.285 116.691 182.478 119.16 188.971 131.739M188.971 131.739L191 117.029M188.971 131.739H187.957H176.797" stroke="#333232" stroke-width="2"/>
<path d="M191 245.029C182.715 244.691 164.522 247.16 158.029 259.74M158.029 259.74L156 245.029M158.029 259.74H159.043H170.203" stroke="#333232" stroke-width="2"/>
<path d="M156 372.029C164.285 371.691 182.478 374.16 188.971 386.739M188.971 386.739L191 372.029M188.971 386.739H187.957H176.797" stroke="#333232" stroke-width="2"/>
<path d="M191 500.029C182.715 499.691 164.522 502.16 158.029 514.74M158.029 514.74L156 500.029M158.029 514.74H159.043H170.203" stroke="#333232" stroke-width="2"/>
<defs>
<filter id="filter0_d_362_145" x="0" y="0" width="140" height="144" filterUnits="userSpaceOnUse" color-interpolation-filters="sRGB">
<feFlood flood-opacity="0" result="BackgroundImageFix"/>
<feColorMatrix in="SourceAlpha" type="matrix" values="0 0 0 0 0 0 0 0 0 0 0 0 0 0 0 0 0 0 127 0" result="hardAlpha"/>
<feOffset dx="4" dy="8"/>
<feGaussianBlur stdDeviation="2"/>
<feComposite in2="hardAlpha" operator="out"/>
<feColorMatrix type="matrix" values="0 0 0 0 0 0 0 0 0 0 0 0 0 0 0 0 0 0 0.25 0"/>
<feBlend mode="normal" in2="BackgroundImageFix" result="effect1_dropShadow_362_145"/>
<feBlend mode="normal" in="SourceGraphic" in2="effect1_dropShadow_362_145" result="shape"/>
</filter>
<filter id="filter1_d_362_145" x="15" y="8" width="103" height="103" filterUnits="userSpaceOnUse" color-interpolation-filters="sRGB">
<feFlood flood-opacity="0" result="BackgroundImageFix"/>
<feColorMatrix in="SourceAlpha" type="matrix" values="0 0 0 0 0 0 0 0 0 0 0 0 0 0 0 0 0 0 127 0" result="hardAlpha"/>
<feOffset dx="1" dy="2"/>
<feGaussianBlur stdDeviation="2"/>
<feComposite in2="hardAlpha" operator="out"/>
<feColorMatrix type="matrix" values="0 0 0 0 1 0 0 0 0 0.81 0 0 0 0 0.81 0 0 0 0.25 0"/>
<feBlend mode="normal" in2="BackgroundImageFix" result="effect1_dropShadow_362_145"/>
<feBlend mode="normal" in="SourceGraphic" in2="effect1_dropShadow_362_145" result="shape"/>
</filter>
<filter id="filter2_d_362_145" x="0" y="260" width="140" height="144" filterUnits="userSpaceOnUse" color-interpolation-filters="sRGB">
<feFlood flood-opacity="0" result="BackgroundImageFix"/>
<feColorMatrix in="SourceAlpha" type="matrix" values="0 0 0 0 0 0 0 0 0 0 0 0 0 0 0 0 0 0 127 0" result="hardAlpha"/>
<feOffset dx="4" dy="8"/>
<feGaussianBlur stdDeviation="2"/>
<feComposite in2="hardAlpha" operator="out"/>
<feColorMatrix type="matrix" values="0 0 0 0 0 0 0 0 0 0 0 0 0 0 0 0 0 0 0.25 0"/>
<feBlend mode="normal" in2="BackgroundImageFix" result="effect1_dropShadow_362_145"/>
<feBlend mode="normal" in="SourceGraphic" in2="effect1_dropShadow_362_145" result="shape"/>
</filter>
<filter id="filter3_d_362_145" x="15" y="268" width="103" height="103" filterUnits="userSpaceOnUse" color-interpolation-filters="sRGB">
<feFlood flood-opacity="0" result="BackgroundImageFix"/>
<feColorMatrix in="SourceAlpha" type="matrix" values="0 0 0 0 0 0 0 0 0 0 0 0 0 0 0 0 0 0 127 0" result="hardAlpha"/>
<feOffset dx="1" dy="2"/>
<feGaussianBlur stdDeviation="2"/>
<feComposite in2="hardAlpha" operator="out"/>
<feColorMatrix type="matrix" values="0 0 0 0 1 0 0 0 0 0.81 0 0 0 0 0.81 0 0 0 0.25 0"/>
<feBlend mode="normal" in2="BackgroundImageFix" result="effect1_dropShadow_362_145"/>
<feBlend mode="normal" in="SourceGraphic" in2="effect1_dropShadow_362_145" result="shape"/>
</filter>
<filter id="filter4_d_362_145" x="208" y="392" width="140" height="144" filterUnits="userSpaceOnUse" color-interpolation-filters="sRGB">
<feFlood flood-opacity="0" result="BackgroundImageFix"/>
<feColorMatrix in="SourceAlpha" type="matrix" values="0 0 0 0 0 0 0 0 0 0 0 0 0 0 0 0 0 0 127 0" result="hardAlpha"/>
<feOffset dx="4" dy="8"/>
<feGaussianBlur stdDeviation="2"/>
<feComposite in2="hardAlpha" operator="out"/>
<feColorMatrix type="matrix" values="0 0 0 0 0 0 0 0 0 0 0 0 0 0 0 0 0 0 0.25 0"/>
<feBlend mode="normal" in2="BackgroundImageFix" result="effect1_dropShadow_362_145"/>
<feBlend mode="normal" in="SourceGraphic" in2="effect1_dropShadow_362_145" result="shape"/>
</filter>
<filter id="filter5_d_362_145" x="223" y="400" width="103" height="103" filterUnits="userSpaceOnUse" color-interpolation-filters="sRGB">
<feFlood flood-opacity="0" result="BackgroundImageFix"/>
<feColorMatrix in="SourceAlpha" type="matrix" values="0 0 0 0 0 0 0 0 0 0 0 0 0 0 0 0 0 0 127 0" result="hardAlpha"/>
<feOffset dx="1" dy="2"/>
<feGaussianBlur stdDeviation="2"/>
<feComposite in2="hardAlpha" operator="out"/>
<feColorMatrix type="matrix" values="0 0 0 0 1 0 0 0 0 0.81 0 0 0 0 0.81 0 0 0 0.25 0"/>
<feBlend mode="normal" in2="BackgroundImageFix" result="effect1_dropShadow_362_145"/>
<feBlend mode="normal" in="SourceGraphic" in2="effect1_dropShadow_362_145" result="shape"/>
</filter>
<filter id="filter6_d_362_145" x="0" y="524" width="140" height="144" filterUnits="userSpaceOnUse" color-interpolation-filters="sRGB">
<feFlood flood-opacity="0" result="BackgroundImageFix"/>
<feColorMatrix in="SourceAlpha" type="matrix" values="0 0 0 0 0 0 0 0 0 0 0 0 0 0 0 0 0 0 127 0" result="hardAlpha"/>
<feOffset dx="4" dy="8"/>
<feGaussianBlur stdDeviation="2"/>
<feComposite in2="hardAlpha" operator="out"/>
<feColorMatrix type="matrix" values="0 0 0 0 0 0 0 0 0 0 0 0 0 0 0 0 0 0 0.25 0"/>
<feBlend mode="normal" in2="BackgroundImageFix" result="effect1_dropShadow_362_145"/>
<feBlend mode="normal" in="SourceGraphic" in2="effect1_dropShadow_362_145" result="shape"/>
</filter>
<filter id="filter7_d_362_145" x="15" y="532" width="103" height="103" filterUnits="userSpaceOnUse" color-interpolation-filters="sRGB">
<feFlood flood-opacity="0" result="BackgroundImageFix"/>
<feColorMatrix in="SourceAlpha" type="matrix" values="0 0 0 0 0 0 0 0 0 0 0 0 0 0 0 0 0 0 127 0" result="hardAlpha"/>
<feOffset dx="1" dy="2"/>
<feGaussianBlur stdDeviation="2"/>
<feComposite in2="hardAlpha" operator="out"/>
<feColorMatrix type="matrix" values="0 0 0 0 1 0 0 0 0 0.81 0 0 0 0 0.81 0 0 0 0.25 0"/>
<feBlend mode="normal" in2="BackgroundImageFix" result="effect1_dropShadow_362_145"/>
<feBlend mode="normal" in="SourceGraphic" in2="effect1_dropShadow_362_145" result="shape"/>
</filter>
<filter id="filter8_d_362_145" x="208" y="132" width="140" height="144" filterUnits="userSpaceOnUse" color-interpolation-filters="sRGB">
<feFlood flood-opacity="0" result="BackgroundImageFix"/>
<feColorMatrix in="SourceAlpha" type="matrix" values="0 0 0 0 0 0 0 0 0 0 0 0 0 0 0 0 0 0 127 0" result="hardAlpha"/>
<feOffset dx="4" dy="8"/>
<feGaussianBlur stdDeviation="2"/>
<feComposite in2="hardAlpha" operator="out"/>
<feColorMatrix type="matrix" values="0 0 0 0 0 0 0 0 0 0 0 0 0 0 0 0 0 0 0.25 0"/>
<feBlend mode="normal" in2="BackgroundImageFix" result="effect1_dropShadow_362_145"/>
<feBlend mode="normal" in="SourceGraphic" in2="effect1_dropShadow_362_145" result="shape"/>
</filter>
<filter id="filter9_d_362_145" x="223" y="140" width="103" height="103" filterUnits="userSpaceOnUse" color-interpolation-filters="sRGB">
<feFlood flood-opacity="0" result="BackgroundImageFix"/>
<feColorMatrix in="SourceAlpha" type="matrix" values="0 0 0 0 0 0 0 0 0 0 0 0 0 0 0 0 0 0 127 0" result="hardAlpha"/>
<feOffset dx="1" dy="2"/>
<feGaussianBlur stdDeviation="2"/>
<feComposite in2="hardAlpha" operator="out"/>
<feColorMatrix type="matrix" values="0 0 0 0 1 0 0 0 0 0.81 0 0 0 0 0.81 0 0 0 0.25 0"/>
<feBlend mode="normal" in2="BackgroundImageFix" result="effect1_dropShadow_362_145"/>
<feBlend mode="normal" in="SourceGraphic" in2="effect1_dropShadow_362_145" result="shape"/>
</filter>
<clipPath id="clip0_362_145">
<rect width="80" height="80" fill="white" transform="translate(26 278)"/>
</clipPath>
<clipPath id="clip1_362_145">
<rect width="80" height="80" fill="white" transform="translate(26 542)"/>
</clipPath>
</defs>
</svg>
