<svg width="44" height="40" viewBox="0 0 44 40" fill="none" xmlns="http://www.w3.org/2000/svg">
<g clip-path="url(#clip0_232_1056)">
<path d="M20.4285 20.7143H26.7143C27.1472 20.7143 27.5 20.185 27.5 19.7914V19.0771C27.5 18.9364 27.5463 18.9028 27.632 18.7857L28.3886 17.8571H28.2857C27.852 17.8571 27.5 17.5371 27.5 17.1428C27.5 16.7493 27.1472 16.4286 26.7143 16.4286H20.4285C19.9956 16.4286 19.6428 16.54 19.6428 16.9343V19.7914C19.6428 20.185 19.9956 20.7143 20.4285 20.7143ZM21.2143 17.8571H25.9285V19.2857H21.2143V17.8571Z" fill="#EE8B26"/>
<path d="M9.42862 15.5057C11.1644 15.5057 12.5715 14.2265 12.5715 12.6486C12.5715 11.0706 11.1644 9.79144 9.42862 9.79144C7.69287 9.79144 6.28577 11.0706 6.28577 12.6486C6.28577 14.2265 7.69287 15.5057 9.42862 15.5057Z" fill="#F8CF26"/>
<path d="M15.7143 5.71427C16.148 5.71427 16.5 5.82499 16.5 6.21999V6.93427L17.4428 5.8957C17.5913 5.7157 17.8239 5.71427 18.0714 5.71427H24.3571C24.79 5.71427 25.1428 5.18499 25.1428 4.79142V1.93427C25.1428 1.53999 24.79 1.42856 24.3571 1.42856H14.9285C14.4956 1.42856 14.1428 1.53999 14.1428 1.93356V4.7907C14.1428 5.18499 14.4956 5.71427 14.9285 5.71427H15.7143ZM15.7143 2.85713H23.5714V4.2857H15.7143V2.85713Z" fill="#EE8B26"/>
<path d="M34.5714 15.5057C36.3072 15.5057 37.7143 14.2265 37.7143 12.6486C37.7143 11.0706 36.3072 9.79144 34.5714 9.79144C32.8357 9.79144 31.4286 11.0706 31.4286 12.6486C31.4286 14.2265 32.8357 15.5057 34.5714 15.5057Z" fill="#F8CF26"/>
<path d="M36.1429 20H33V21.9343V22.6486V24.0771C33 24.4714 32.648 25 32.2143 25H25.9286V26.4286H28.2857H29.8572H34.5714V22.1429H36.1429V26.9343C36.1429 27.3286 35.7909 27.8571 35.3572 27.8571H29.8572C29.4242 27.8571 29.0714 27.9686 29.0714 28.3629V38.5714H30.6429V30.5057C30.6429 30.1107 30.9949 30 31.4286 30H38.5V21.9343C38.5 20.7521 37.4424 20 36.1429 20Z" fill="#F8CF26"/>
<path d="M11 24.0771V22.6486V21.9343V20H7.85714C6.55757 20 5.5 20.7521 5.5 21.9343V30H12.5714C13.0051 30 13.3571 30.1107 13.3571 30.5057V38.5714H14.9286V28.3629C14.9286 27.9686 14.5758 27.8571 14.1429 27.8571H8.64286C8.20914 27.8571 7.85714 27.3286 7.85714 26.9343V22.1429H9.42857V26.4286H14.1429H15.7143H18.0714V25H11.7857C11.352 25 11 24.4714 11 24.0771Z" fill="#F8CF26"/>
<path d="M9.42852 16.9343C12.0284 16.9343 14.1428 15.0121 14.1428 12.6486C14.1428 10.285 12.0284 8.36285 9.42852 8.36285C6.82859 8.36285 4.71423 10.285 4.71423 12.6486C4.71423 15.0121 6.82859 16.9343 9.42852 16.9343ZM9.42852 9.79143C11.1618 9.79143 12.5714 11.0729 12.5714 12.6486C12.5714 14.2243 11.1618 15.5057 9.42852 15.5057C7.69523 15.5057 6.28566 14.2243 6.28566 12.6486C6.28566 11.0729 7.69523 9.79143 9.42852 9.79143Z" fill="black"/>
<path d="M34.5715 16.9343C37.1714 16.9343 39.2857 15.0121 39.2857 12.6486C39.2857 10.285 37.1714 8.36285 34.5715 8.36285C31.9715 8.36285 29.8572 10.285 29.8572 12.6486C29.8572 15.0121 31.9715 16.9343 34.5715 16.9343ZM34.5715 9.79143C36.3047 9.79143 37.7143 11.0729 37.7143 12.6486C37.7143 14.2243 36.3047 15.5057 34.5715 15.5057C32.8382 15.5057 31.4286 14.2243 31.4286 12.6486C31.4286 11.0729 32.8382 9.79143 34.5715 9.79143Z" fill="black"/>
<path d="M42.4286 18.5714V27.6486C42.4286 28.83 41.371 29.7914 40.0714 29.7914V21.9343C40.0714 19.965 38.3091 18.5714 36.1429 18.5714H32.2143C31.7806 18.5714 31.4286 18.6822 31.4286 19.0772V21.9343V22.6486V23.5714H25.1429C24.7091 23.5714 24.3571 23.6822 24.3571 24.0772V26.4286H19.6429V24.0772C19.6429 23.6822 19.2909 23.5714 18.8571 23.5714H12.5714V22.6486V21.9343V19.0772C12.5714 18.6822 12.2194 18.5714 11.7857 18.5714H7.85714C5.69093 18.5714 3.92857 19.965 3.92857 21.9343V29.7914C2.629 29.7914 1.57143 28.83 1.57143 27.6486V18.5714H0V27.6486C0 29.1093 0.971929 30.3643 2.35714 30.9172V40H3.92857V31.4286H4.71429H5.5H11.7857V39.0772C11.7857 39.4714 12.1377 40 12.5714 40H14.9286H15.7143H16.5V39.0772V28.3629V27.8572H18.8571H25.1429H27.5V28.3629V39.0772V40H28.2857H29.0714H31.4286C31.8623 40 32.2143 39.4714 32.2143 39.0772V31.4286H38.5H39.2857H40.0714V40H41.6429V30.9172C43.0281 30.3643 44 29.1093 44 27.6486V18.5714H42.4286ZM15.7143 26.4286H14.1429H9.42857V22.1429H7.85714V26.9343C7.85714 27.3286 8.20914 27.8572 8.64286 27.8572H14.1429C14.5758 27.8572 14.9286 27.9686 14.9286 28.3629V38.5714H13.3571V30.5057C13.3571 30.1107 13.0051 30 12.5714 30H5.5V21.9343C5.5 20.7522 6.55757 20 7.85714 20H11V21.9343V22.6486V24.0772C11 24.4714 11.352 25 11.7857 25H18.0714V26.4286H15.7143ZM31.4286 30C30.9949 30 30.6429 30.1107 30.6429 30.5057V38.5714H29.0714V28.3629C29.0714 27.9686 29.4242 27.8572 29.8571 27.8572H35.3571C35.7909 27.8572 36.1429 27.3286 36.1429 26.9343V22.1429H34.5714V26.4286H29.8571H28.2857H25.9286V25H32.2143C32.648 25 33 24.4714 33 24.0772V22.6486V21.9343V20H36.1429C37.4424 20 38.5 20.7522 38.5 21.9343V30H31.4286Z" fill="black"/>
<path d="M14.9286 6.93429V9.07714C14.9286 9.385 15.1446 9.65714 15.466 9.755C15.5477 9.78 15.6318 9.79143 15.7143 9.79143C15.9571 9.79143 16.1912 9.79357 16.3428 9.61L18.4643 7.14286H24.3571C25.6567 7.14286 26.7143 5.97286 26.7143 4.79143V1.93429C26.7143 0.752143 25.6567 0 24.3571 0H14.9286C13.629 0 12.5714 0.752143 12.5714 1.93357V4.79071C12.5714 5.97286 13.629 6.93429 14.9286 6.93429ZM14.1428 1.93357C14.1428 1.54 14.4956 1.42857 14.9286 1.42857H24.3571C24.7901 1.42857 25.1428 1.54 25.1428 1.93357V4.79071C25.1428 5.185 24.7901 5.71429 24.3571 5.71429H18.0714C17.8239 5.71429 17.5913 5.71571 17.4428 5.89571L16.5 6.93429V6.22C16.5 5.825 16.148 5.71429 15.7143 5.71429H14.9286C14.4956 5.71429 14.1428 5.185 14.1428 4.79143V1.93357Z" fill="black"/>
<path d="M23.5714 2.85715H15.7142V4.28572H23.5714V2.85715Z" fill="black"/>
<path d="M25.9285 17.8571H21.2142V19.2857H25.9285V17.8571Z" fill="black"/>
<path d="M20.4286 15C19.129 15 18.0714 15.7521 18.0714 16.9343V19.7914C18.0714 20.9729 19.129 22.1429 20.4286 22.1429H26.7143C28.0138 22.1429 29.0714 20.9729 29.0714 19.7914V19.2929L30.5108 17.33C30.6719 17.1107 30.6868 16.9336 30.5501 16.7014C30.4134 16.4693 30.1471 16.4286 29.8571 16.4286H28.9371C28.6126 15 27.7388 15 26.7143 15H20.4286ZM27.5 17.1429C27.5 17.5371 27.852 17.8571 28.2857 17.8571H28.3886L27.632 18.785C27.5463 18.9021 27.5 18.9357 27.5 19.0771V19.7914C27.5 20.185 27.1472 20.7143 26.7143 20.7143H20.4286C19.9956 20.7143 19.6428 20.185 19.6428 19.7914V16.9343C19.6428 16.54 19.9956 16.4286 20.4286 16.4286H26.7143C27.1472 16.4286 27.5 16.7493 27.5 17.1429Z" fill="black"/>
<path d="M19.6428 11.22H18.0714V12.6486H19.6428V11.22Z" fill="black"/>
<path d="M22.7857 11.22H21.2142V12.6486H22.7857V11.22Z" fill="black"/>
<path d="M25.9286 11.22H24.3572V12.6486H25.9286V11.22Z" fill="black"/>
</g>
<defs>
<clipPath id="clip0_232_1056">
<rect width="44" height="40" fill="white"/>
</clipPath>
</defs>
</svg>
