<svg width="40" height="40" viewBox="0 0 40 40" fill="none" xmlns="http://www.w3.org/2000/svg">
<path d="M20 4.375C11.3706 4.375 4.375 11.3706 4.375 20H35.625C35.625 11.3706 28.6294 4.375 20 4.375Z" fill="#FFC865"/>
<path d="M20 35.625C28.6294 35.625 35.625 28.6294 35.625 20H4.375C4.375 28.6294 11.3706 35.625 20 35.625Z" fill="#BE9148"/>
<path d="M11.4137 17.4925L2.51245 18.7437L5.62495 20.3256V29.8962L14.375 28.645V19.0425L11.4137 17.4925ZM7.85433 28.3544C7.08808 28.4619 6.4637 27.8744 6.46558 27.0475C6.46745 26.2156 7.09433 25.4575 7.85995 25.35C8.6312 25.2419 9.25058 25.8244 9.2487 26.6569C9.24745 27.4837 8.62495 28.2462 7.85433 28.3544ZM7.86183 24.1506C7.09558 24.2581 6.4712 23.6706 6.47308 22.8437C6.47433 22.0169 7.10183 21.2537 7.86745 21.1462C8.6387 21.0381 9.25808 21.6262 9.25683 22.4531C9.25495 23.2794 8.63308 24.0419 7.86183 24.1506ZM11.7493 27.8069C10.9781 27.915 10.3587 27.3269 10.3606 26.5C10.3618 25.6681 10.9843 24.9106 11.755 24.8019C12.5212 24.6944 13.1456 25.2762 13.1437 26.1087C13.1425 26.9362 12.515 27.6994 11.7493 27.8069ZM11.7568 23.6031C10.9856 23.7112 10.3662 23.1231 10.3681 22.2962C10.3693 21.4694 10.9918 20.7069 11.7625 20.5981C12.5287 20.4906 13.1531 21.0781 13.1512 21.905C13.15 22.7319 12.5231 23.4956 11.7568 23.6031Z" fill="#00B3AA"/>
<path d="M11.755 24.8025C12.5213 24.695 13.1456 25.2768 13.1438 26.1093C13.1425 26.9362 12.515 27.6993 11.7494 27.8075C10.9781 27.9156 10.3587 27.3275 10.3606 26.5006C10.3619 25.6681 10.9838 24.9112 11.755 24.8025ZM10.3681 22.2962C10.3669 23.1231 10.9863 23.7112 11.7569 23.6031C12.5231 23.4956 13.15 22.7318 13.1512 21.905C13.1525 21.0781 12.5281 20.4906 11.7625 20.5981C10.9919 20.7068 10.3694 21.4693 10.3681 22.2962ZM6.465 27.0481C6.46375 27.875 7.08812 28.4625 7.85375 28.355C8.625 28.2468 9.24687 27.4837 9.24812 26.6568C9.24937 25.825 8.63 25.2418 7.85937 25.35C7.09375 25.4575 6.46687 26.2156 6.465 27.0481ZM6.47313 22.8437C6.47188 23.6706 7.09625 24.2581 7.86188 24.1506C8.63313 24.0425 9.255 23.2793 9.25625 22.4525C9.2575 21.6256 8.63813 21.0375 7.8675 21.1456C7.10188 21.2537 6.47438 22.0168 6.47313 22.8437ZM5.625 20.2937L2.50562 18.7437L2.5 28.3456L5.625 29.8956V20.2937Z" fill="#018273"/>
<path d="M28.125 27.3631V36.7381L26.875 37.9881V28.6562L21.25 27.9881L23.1444 26.875L28.125 27.3631ZM24.1331 36.66C24.8706 36.66 25.4688 36.0131 25.4688 35.2156C25.4688 34.4181 24.7963 33.5931 23.8269 33.5931C23.0894 33.5931 22.4419 34.1606 22.4419 34.9581C22.4413 35.7562 23.1831 36.66 24.1331 36.66ZM23.835 29.4237C23.0925 29.4237 22.4412 29.995 22.4412 30.7975C22.4412 31.6 23.1881 32.51 24.1438 32.51C24.8863 32.51 25.4875 31.8594 25.4875 31.0569C25.4875 30.2538 24.8106 29.4237 23.835 29.4237Z" fill="#6BC4D2"/>
<path d="M21.25 27.9881V37.3631L26.875 37.9881V28.6562L21.25 27.9881ZM24.1331 36.66C23.1837 36.66 22.4419 35.7562 22.4419 34.9587C22.4419 34.1612 23.0894 33.5937 23.8269 33.5937C24.7963 33.5937 25.4688 34.4181 25.4688 35.2162C25.4681 36.0137 24.8706 36.66 24.1331 36.66ZM24.1438 32.51C23.1881 32.51 22.4412 31.6006 22.4412 30.7975C22.4412 29.995 23.0925 29.4237 23.835 29.4237C24.8106 29.4237 25.4875 30.2537 25.4875 31.0562C25.4875 31.8587 24.8856 32.51 24.1438 32.51Z" fill="#508D9B"/>
<path d="M38.1225 15.3956C38.2238 15.0669 37.6406 14.4231 36.77 13.9206C35.8506 13.39 34.965 13.2162 34.7857 13.5275C34.78 13.5375 34.775 13.5481 34.7706 13.5594L33.4313 12.8256C33.4413 12.8144 33.4506 12.8019 33.4588 12.7887C33.6381 12.4775 33.04 11.7944 32.1263 11.2669C31.2069 10.7362 30.3213 10.5625 30.1419 10.8737C30.1194 10.9125 30.1094 10.9569 30.1106 11.0062L28.4088 10.0744C28.4844 10.05 28.5406 10.01 28.5731 9.95374C28.7525 9.64249 28.1544 8.95936 27.2406 8.43186C26.3213 7.90124 25.4356 7.72749 25.2563 8.03874C25.2088 8.12061 25.2169 8.22999 25.2719 8.35561L23.6144 7.44749C23.7675 7.43624 23.8781 7.38811 23.9294 7.29999C24.1088 6.98874 23.5106 6.30561 22.5969 5.77811C21.6775 5.24749 20.7919 5.07374 20.6125 5.38499C20.5463 5.49999 20.5881 5.66686 20.7138 5.85874L19.89 5.40749L16.6031 8.72499L35.9638 19.4912L33.0081 24.755L36.0238 21.4512L38.8281 15.7819L38.1225 15.3956Z" fill="#FF786E"/>
<path d="M13.9788 13.9894L16.6025 8.72562L35.9631 19.4912L33.0075 24.755L13.9788 13.9894ZM19.9563 8.89375C19.0369 8.36312 18.4444 7.68312 18.6213 7.37625L18.1756 8.14812C17.9988 8.455 18.5913 9.135 19.5106 9.66562C19.9306 9.90812 21.1169 10.4519 21.4575 10.1087L21.9031 9.33687C21.5625 9.67937 20.3769 9.13625 19.9563 8.89375ZM21.9469 6.90312C21.0275 6.3725 20.4344 5.6925 20.6119 5.38562L20.1663 6.1575C19.9894 6.46437 20.5819 7.14437 21.5013 7.675C21.9206 7.91687 23.1063 8.46187 23.4481 8.11812L23.8938 7.34625C23.5519 7.69 22.3663 7.14562 21.9469 6.90312ZM24.6006 11.5475C23.6813 11.0169 23.0888 10.3369 23.2656 10.03L22.82 10.8019C22.6431 11.1087 23.2356 11.7887 24.155 12.3194C24.5744 12.5612 25.76 13.1062 26.1019 12.7625L26.5475 11.9906C26.2056 12.3337 25.02 11.7894 24.6006 11.5475ZM26.5913 9.55687C25.6719 9.02625 25.0788 8.34562 25.2563 8.03937L24.8106 8.81125C24.6338 9.11812 25.2263 9.79812 26.1456 10.3287C26.565 10.5706 27.7506 11.1156 28.0925 10.7719L28.5381 10C28.1963 10.3437 27.01 9.79937 26.5913 9.55687ZM29.4863 14.3819C28.5669 13.8512 27.9744 13.1706 28.1513 12.8644L27.7056 13.6362C27.5288 13.9431 28.1213 14.6231 29.0406 15.1537C29.4606 15.3962 30.6469 15.94 30.9875 15.5969L31.4331 14.825C31.0919 15.1681 29.9063 14.6244 29.4863 14.3819ZM31.4763 12.3919C30.5569 11.8612 29.9638 11.1812 30.1413 10.8744L29.6956 11.6462C29.5188 11.9531 30.1113 12.6331 31.0306 13.1637C31.45 13.4056 32.6356 13.9506 32.9775 13.6069L33.4231 12.835C33.0819 13.1787 31.8956 12.6337 31.4763 12.3919ZM34.13 17.0356C33.2106 16.505 32.6181 15.825 32.795 15.5181L32.3494 16.29C32.1725 16.5969 32.765 17.2769 33.6844 17.8075C34.1038 18.0494 35.2894 18.5944 35.6313 18.2506L36.0769 17.4787C35.7356 17.8225 34.5494 17.2781 34.13 17.0356ZM36.1206 15.0456C35.2013 14.515 34.6081 13.8344 34.7856 13.5281L34.34 14.3C34.1631 14.6069 34.7556 15.2869 35.675 15.8175C36.0944 16.0594 37.28 16.6044 37.6219 16.2606L38.0675 15.4887C37.7256 15.8325 36.54 15.2875 36.1206 15.0456Z" fill="#BE5652"/>
</svg>
