<svg width="57" height="60" viewBox="0 0 57 60" fill="none" xmlns="http://www.w3.org/2000/svg">
<path d="M27.2654 17.1741C27.2654 17.1975 27.5335 17.4077 27.8483 17.6531C28.1748 17.8984 28.4196 18.1203 28.3963 18.1554C28.373 18.1788 27.895 18.2489 27.347 18.3073C23.756 18.7161 20.7247 21.111 19.6287 24.4054C19.4655 24.9077 19.3023 25.5619 19.2673 25.8657L19.209 26.4264L19.5588 25.7021C21.4009 21.8236 24.6538 19.5923 28.7227 19.3937C30.3783 19.3119 31.5326 19.5105 33.0949 20.118C34.1558 20.5386 34.1442 20.5503 32.9783 20.7605C32.0922 20.9124 30.0985 21.5432 30.0052 21.7068C29.9586 21.7652 30.7747 21.8119 32.0106 21.8119C33.1532 21.8119 34.2841 21.847 34.5289 21.8937L34.972 21.9638L34.4706 22.4778C32.8617 24.1367 30.9613 24.9428 28.4313 25.0362L26.9739 25.0946L28.0815 24.6974C29.5505 24.1717 31.4626 23.2021 30.8797 23.2839C30.6581 23.3073 29.4806 23.3773 28.2564 23.4474C24.1757 23.6577 22.5551 24.1717 21.1094 25.7138C20.5614 26.3096 19.687 27.6647 19.687 27.9334C19.687 27.9685 19.8036 28.0035 19.9552 28.0035C20.1184 28.0035 20.5265 27.6998 21.0861 27.1507C22.0421 26.2395 23.3013 25.5152 24.4089 25.2582C24.9569 25.1297 25.0735 25.1414 25.6914 25.3867C27.382 26.0759 28.0115 26.1928 30.1218 26.1811C31.9639 26.1811 32.1738 26.1577 33.0949 25.854C33.6428 25.6787 34.389 25.3633 34.7738 25.1647L35.45 24.7909L35.893 25.3166C36.1379 25.6087 36.7092 26.3096 37.1405 26.8937L37.945 27.9451L39.3907 28.0152V27.4428C39.3907 26.2278 38.6912 24.3236 37.6768 22.8049C37.2921 22.2091 37.2804 22.1741 37.4553 21.8353C37.7118 21.333 38.0849 20.1998 38.1665 19.604L38.2481 19.1017L37.5136 19.8493C37.1056 20.2699 36.5459 20.7255 36.2894 20.854L35.7998 21.0993L35.7181 20.5619C35.6015 19.7792 35.2518 18.9498 34.6572 18.0503C34.3657 17.618 34.0859 17.2325 34.0392 17.2091C33.9926 17.1741 33.9693 17.7115 34.0043 18.389L34.0626 19.639L33.4796 19.2185C32.7101 18.6694 31.4743 18.0269 30.5649 17.7348C29.5738 17.3961 27.2654 17.0105 27.2654 17.1741Z" fill="#333232"/>
<path d="M23.3479 27.0572C22.6367 27.396 21.9255 28.0152 21.5758 28.611C21.3892 28.9264 21.3426 28.9381 20.4682 28.9381C19.6637 28.9381 19.5238 28.9731 19.279 29.2185C18.731 29.7675 19.2556 30.3399 20.3049 30.3399H20.8529V30.7956C20.8529 31.0526 20.8879 31.3329 20.9229 31.4264C20.9695 31.5666 20.748 31.6016 19.6054 31.6484C18.1364 31.7068 17.7283 31.8236 17.0871 32.4311C16.3409 33.1203 16.2476 33.4591 16.2126 35.8423L16.166 38.0152L16.4808 38.3773C16.714 38.6577 16.8889 38.7511 17.1803 38.7511C18.148 38.7511 18.2879 38.4357 18.2879 36.2979C18.2879 33.9381 18.3462 33.8563 20.1767 33.8446H21.4359L21.5758 34.3937C21.6457 34.7091 21.7157 34.9778 21.7157 34.9895C21.7273 35.0128 21.5175 35.1063 21.2726 35.1881C20.6547 35.41 20.2816 35.6904 19.8619 36.2862L19.5121 36.7885L19.4772 39.2301C19.4422 41.3446 19.4655 41.7301 19.6287 41.9754C19.8969 42.3843 20.3283 42.5245 20.8179 42.361C21.4475 42.1624 21.5525 41.7535 21.5525 39.6857C21.5525 37.9684 21.5641 37.91 21.8439 37.6413C22.0538 37.4194 22.252 37.3493 22.6251 37.3493C23.0914 37.3493 23.1847 37.4077 23.9076 38.1437C24.852 39.1016 26.0878 39.7909 27.4985 40.1647C28.338 40.375 28.6878 40.41 29.8886 40.3516C30.8797 40.3166 31.4859 40.2231 31.9639 40.0596C33.1881 39.6156 34.2841 38.9497 35.1352 38.1437C35.8814 37.4194 35.9863 37.3493 36.4527 37.3493C36.8257 37.3493 37.0239 37.4194 37.2338 37.6413C37.5253 37.9217 37.5253 37.9568 37.5253 39.8493C37.5253 41.7184 37.5369 41.7885 37.8051 42.1039C38.1665 42.5245 38.9127 42.5596 39.2974 42.1624C39.5539 41.9053 39.5656 41.8353 39.5656 39.3469V36.7885L39.2158 36.2745C38.8661 35.7722 37.8984 35.1413 37.502 35.1297C37.2455 35.1297 37.2455 35.0829 37.4786 34.3937L37.6652 33.8446H38.8661C39.9737 33.8446 40.1019 33.868 40.405 34.125L40.7315 34.4054L40.7898 36.3563C40.8481 38.2254 40.8598 38.3189 41.1279 38.5292C41.5127 38.8446 42.1306 38.8212 42.4804 38.4591C42.7718 38.1787 42.7718 38.167 42.7718 35.854V33.5175L42.3987 32.9568C42.1772 32.6413 41.7692 32.2325 41.4544 32.0456C40.9297 31.7185 40.7898 31.6951 39.4957 31.6484L38.0966 31.6016L38.1665 30.3166L38.901 30.3049C39.5306 30.2815 39.6822 30.2348 39.8687 30.0012C40.1602 29.6507 40.1486 29.5689 39.7988 29.2301C39.5539 28.9731 39.414 28.9381 38.6096 28.9264H37.7002L37.2338 28.3189C36.6858 27.618 35.8464 27.0105 35.1585 26.8236C34.4356 26.625 33.0249 26.7535 32.372 27.0572C32.0805 27.1974 31.6025 27.5596 31.3227 27.84C30.8097 28.354 30.798 28.3657 30.4599 28.1787C30.0052 27.9451 28.9093 27.9451 28.5595 28.1904C28.303 28.3773 28.2797 28.3657 27.8017 27.8867C27.5452 27.6063 27.0089 27.2325 26.6241 27.0456C26.0412 26.7769 25.773 26.7185 24.9919 26.7185C24.2107 26.7185 23.9426 26.7769 23.3479 27.0572ZM26.1578 28.0502C27.382 28.6227 27.9532 29.5222 27.9649 30.9007C27.9649 31.917 27.8017 32.3727 27.1488 33.0736C26.5658 33.7044 25.8197 34.0198 24.9336 34.0082C23.8026 33.9848 22.8349 33.3656 22.2986 32.3026C21.9022 31.5315 21.8323 30.8656 22.0655 30.0829C22.3453 29.1133 22.835 28.5175 23.6861 28.1086C24.5955 27.6764 25.3416 27.6647 26.1578 28.0502ZM35.3917 28.097C36.0096 28.4241 36.5809 28.9965 36.8374 29.5806C37.1639 30.3049 37.1405 31.5899 36.7791 32.3142C36.2428 33.3656 35.2751 33.9848 34.1442 34.0082C33.2581 34.0198 32.5119 33.7044 31.929 33.0736C31.2877 32.3727 31.0779 31.847 31.0779 30.9241C31.0779 29.604 31.6258 28.7044 32.7684 28.1203C33.4097 27.7932 33.5845 27.7582 34.2025 27.8049C34.5872 27.8283 35.1235 27.9685 35.3917 28.097ZM29.9353 29.1834C30.355 29.3353 30.3433 29.3002 30.1335 29.9778C30.0402 30.3166 29.9586 30.4451 29.8886 30.3516C29.8303 30.2465 29.6671 30.2231 29.4106 30.2582C29.0375 30.3166 29.0142 30.3049 28.8976 29.896C28.7461 29.3119 28.7461 29.3002 29.0492 29.1717C29.399 29.0315 29.5039 29.0315 29.9353 29.1834ZM30.1218 35.3633C30.2151 35.6554 30.7281 36.0642 31.0196 36.0642C31.2644 36.0642 31.8474 35.5385 31.9523 35.2465C31.9989 35.0946 32.0456 35.0946 32.3021 35.2348C32.5702 35.375 32.5935 35.4334 32.5003 35.7138C32.0805 36.882 30.4483 37.1156 29.7371 36.0993C29.364 35.5502 29.3407 35.3633 29.6321 35.2465C30.0052 35.0946 30.0402 35.1063 30.1218 35.3633Z" fill="#333232"/>
<path d="M24.4089 29.3119C23.9659 29.5689 23.7793 29.9194 23.7677 30.4568C23.7677 31.2161 24.1291 31.625 24.852 31.7068C25.5049 31.7885 25.9013 31.5666 26.1811 30.9825C26.6824 29.9311 25.3999 28.7395 24.4089 29.3119ZM25.0968 29.6624C25.2717 29.9428 25.0618 30.2699 24.6654 30.3166C24.2923 30.3633 24.0941 30.0479 24.2457 29.6624C24.3273 29.4521 24.4206 29.3937 24.6538 29.4287C24.8286 29.4521 25.0268 29.5572 25.0968 29.6624Z" fill="#333232"/>
<path d="M33.1998 29.5105C32.9083 29.8026 32.8617 29.9428 32.8617 30.4568C32.8617 30.9708 32.9083 31.111 33.1998 31.403C33.4796 31.6834 33.6428 31.7418 34.0859 31.7418C34.5289 31.7418 34.6921 31.6834 34.972 31.403C35.2518 31.1227 35.3101 30.9591 35.3101 30.5152C35.3101 30.0479 35.2518 29.9077 34.9137 29.5689C34.3774 29.0315 33.7011 29.0082 33.1998 29.5105ZM34.0043 29.5105C34.0975 29.5689 34.1442 29.7558 34.1209 29.9428C34.0975 30.1881 34.0159 30.2932 33.8177 30.3166C33.3047 30.3984 33.0366 29.9428 33.398 29.5923C33.5962 29.382 33.7711 29.3586 34.0043 29.5105Z" fill="#333232"/>
<path d="M3.58115 1.2C3.58115 0.702944 3.98199 0.3 4.47644 0.3H10.445C10.9395 0.3 11.3403 0.702944 11.3403 1.2V7.2C11.3403 7.69706 10.9395 8.1 10.445 8.1H4.47644C3.98199 8.1 3.58115 7.69706 3.58115 7.2V1.2Z" fill="#752626" fill-opacity="0.75"/>
<path d="M8.35602 6.6C8.35602 6.10294 8.75685 5.7 9.25131 5.7H15.2199C15.7143 5.7 16.1152 6.10294 16.1152 6.6V12.6C16.1152 13.0971 15.7143 13.5 15.2199 13.5H9.25131C8.75685 13.5 8.35602 13.0971 8.35602 12.6V6.6Z" fill="#C55B5B" fill-opacity="0.75"/>
<path d="M0 12C0 11.5029 0.400834 11.1 0.895288 11.1H9.25131C9.74576 11.1 10.1466 11.5029 10.1466 12V20.4C10.1466 20.8971 9.74576 21.3 9.25131 21.3H0.895288C0.400834 21.3 0 20.8971 0 20.4V12Z" fill="#A56A34" fill-opacity="0.75"/>
<path d="M2.38743 47.1C2.38743 46.6029 2.78827 46.2 3.28272 46.2H11.6387C12.1332 46.2 12.534 46.6029 12.534 47.1V55.5C12.534 55.9971 12.1332 56.4 11.6387 56.4H3.28272C2.78827 56.4 2.38743 55.9971 2.38743 55.5V47.1Z" fill="#790DB9"/>
<path d="M6.26702 50.7C6.26702 50.2029 6.66785 49.8 7.1623 49.8H15.5183C16.0128 49.8 16.4136 50.2029 16.4136 50.7V59.1C16.4136 59.5971 16.0128 60 15.5183 60H7.1623C6.66785 60 6.26702 59.5971 6.26702 59.1V50.7Z" fill="#540E7E" fill-opacity="0.75"/>
<path d="M46.8534 43.2C46.8534 42.7029 47.2542 42.3 47.7487 42.3H56.1047C56.5992 42.3 57 42.7029 57 43.2V51.6C57 52.0971 56.5992 52.5 56.1047 52.5H47.7487C47.2542 52.5 46.8534 52.0971 46.8534 51.6V43.2Z" fill="#497526" fill-opacity="0.75"/>
<path d="M52.822 9C52.822 8.50294 53.2228 8.1 53.7173 8.1H56.1047C56.5992 8.1 57 8.50294 57 9V11.4C57 11.8971 56.5992 12.3 56.1047 12.3H53.7173C53.2228 12.3 52.822 11.8971 52.822 11.4V9Z" fill="#267575" fill-opacity="0.75"/>
<path d="M52.822 0.9C52.822 0.402944 53.2228 0 53.7173 0H56.1047C56.5992 0 57 0.402944 57 0.9V3.3C57 3.79706 56.5992 4.2 56.1047 4.2H53.7173C53.2228 4.2 52.822 3.79706 52.822 3.3V0.9Z" fill="#2A6464"/>
<path d="M44.7644 0.9C44.7644 0.402944 45.1652 0 45.6597 0H48.0471C48.5416 0 48.9424 0.402944 48.9424 0.9V3.3C48.9424 3.79706 48.5416 4.2 48.0471 4.2H45.6597C45.1652 4.2 44.7644 3.79706 44.7644 3.3V0.9Z" fill="#2A6464"/>
</svg>
