<svg width="40" height="40" viewBox="0 0 40 40" fill="none" xmlns="http://www.w3.org/2000/svg">
<path d="M16.3562 39.2075C16.7725 39.0375 17.3937 38.7675 18.0675 38.4225L18.3875 38.2588L18.69 38.4525C19.315 38.8525 19.8837 39.15 20.1987 39.3062C20.485 39.165 20.9812 38.9063 21.5375 38.5588L21.8337 38.375L22.1462 38.53C22.7362 38.8237 23.2725 39.055 23.6437 39.2075C23.9862 38.435 24.58 36.8288 24.58 35C24.58 34.3563 24.4312 33.7263 24.1375 33.125H15.865C15.5712 33.7263 15.4225 34.355 15.4225 35C15.4212 36.8375 16.0137 38.4375 16.3562 39.2075Z" fill="#E0A838"/>
<path d="M17.5888 33.125C17.5338 33.325 17.5 33.5325 17.5 33.75C17.5 35.1313 20 37.5 20 37.5C20 37.5 22.5 35.1313 22.5 33.75C22.5 33.5325 22.4663 33.325 22.4113 33.125H17.5888Z" fill="#D1712A"/>
<path d="M28.6 21.4188C29.1137 19.1563 29.375 16.9975 29.375 15C29.375 6.735 21.6225 1.68625 20 0.721252C18.38 1.68875 10.625 6.74875 10.625 15C10.625 17.235 10.835 19.435 11.25 21.5375L11.33 21.9475L8.125 24.085V29.5163C8.125 29.72 8.22 29.905 8.385 30.0238C8.54875 30.1438 8.7525 30.1738 8.9475 30.11L13.6175 28.5525L13.8713 28.9988C14.105 29.4088 14.2575 29.635 14.265 29.6475L14.4413 29.9038L13.6413 32.3038C13.5775 32.4963 13.6088 32.7013 13.7275 32.8675C13.8463 33.0325 14.0312 33.1275 14.235 33.1275H25.7663C25.97 33.1275 26.155 33.0325 26.2737 32.8675C26.3925 32.7025 26.4237 32.4975 26.36 32.305L25.575 29.95L25.6962 29.715C25.7 29.7075 25.8262 29.4638 26.03 29.0238L26.265 28.5163L31.0538 30.1125C31.2463 30.1763 31.45 30.1475 31.6162 30.0263C31.7812 29.9075 31.8762 29.7225 31.8762 29.5188V24.0875L28.5063 21.8413L28.6 21.4188Z" fill="#CC4121"/>
<path d="M20 19.375C23.1066 19.375 25.625 16.8566 25.625 13.75C25.625 10.6434 23.1066 8.125 20 8.125C16.8934 8.125 14.375 10.6434 14.375 13.75C14.375 16.8566 16.8934 19.375 20 19.375Z" fill="#FFFAEE"/>
<path d="M20 16.875C21.7259 16.875 23.125 15.4759 23.125 13.75C23.125 12.0241 21.7259 10.625 20 10.625C18.2741 10.625 16.875 12.0241 16.875 13.75C16.875 15.4759 18.2741 16.875 20 16.875Z" fill="#A3AEB5"/>
<path d="M20 20C23.4462 20 26.25 17.1962 26.25 13.75C26.25 10.3038 23.4462 7.5 20 7.5C16.5538 7.5 13.75 10.3038 13.75 13.75C13.75 17.1962 16.5538 20 20 20ZM20 8.75C22.7613 8.75 25 10.9887 25 13.75C25 16.5113 22.7613 18.75 20 18.75C17.2387 18.75 15 16.5113 15 13.75C15 10.9887 17.2387 8.75 20 8.75ZM20 17.5C22.0712 17.5 23.75 15.8212 23.75 13.75C23.75 11.6788 22.0712 10 20 10C17.9288 10 16.25 11.6788 16.25 13.75C16.25 15.8212 17.9288 17.5 20 17.5ZM20 11.25C21.3788 11.25 22.5 12.3712 22.5 13.75C22.5 15.1288 21.3788 16.25 20 16.25C18.6212 16.25 17.5 15.1288 17.5 13.75C17.5 12.3712 18.6212 11.25 20 11.25ZM29.21 21.5563C29.67 19.5313 30 17.2925 30 15C30 5.335 20 0 20 0C20 0 10 5.335 10 15C10 17.5238 10.2587 19.7437 10.6362 21.6587L7.5 23.75V29.5163C7.5 30.2288 8.08375 30.7675 8.7475 30.7675C8.8775 30.7675 9.01125 30.7463 9.145 30.7025L13.3275 29.3088C13.5837 29.7575 13.75 30 13.75 30L13.0488 32.105C12.7788 32.9138 13.3813 33.75 14.2338 33.75H14.9775C14.8713 34.1513 14.795 34.565 14.795 35C14.795 37.7613 16.045 40 16.045 40C16.045 40 17.1062 39.6163 18.3512 38.9788C19.3487 39.6163 20.1975 40 20.1975 40C20.1975 40 20.9487 39.6612 21.8675 39.09C23.015 39.6612 23.955 40 23.955 40C23.955 40 25.205 37.7613 25.205 35C25.205 34.565 25.1287 34.1513 25.0225 33.75H25.7663C26.62 33.75 27.2213 32.9138 26.9525 32.105L26.25 30C26.25 30 26.3813 29.7463 26.5963 29.2825L30.855 30.7025C30.9875 30.7463 31.1213 30.7675 31.2525 30.7675C31.9163 30.7675 32.5 30.23 32.5 29.5163V23.75L29.21 21.5563ZM20.0012 1.4525C22.0537 2.73625 28.75 7.49875 28.75 15C28.75 21.0413 26.3463 26.8288 25.4625 28.75H14.45C13.5788 27.2212 11.25 22.4375 11.25 15C11.25 7.52375 17.9512 2.74125 20.0012 1.4525ZM8.75 29.5163V24.42L10.9238 22.9713C11.4775 25.255 12.1775 27.0025 12.7462 28.185L8.75 29.5163ZM23.9538 35C23.9538 36.3487 23.6062 37.5725 23.3037 38.3838C23.0387 38.2663 22.7387 38.1275 22.4237 37.9713L21.7987 37.66L21.2063 38.0288C20.8213 38.2675 20.4675 38.4638 20.1975 38.605C19.89 38.4438 19.4737 38.2125 19.0262 37.9262L18.4213 37.5388L17.7813 37.8662C17.3913 38.0662 17.0188 38.24 16.6963 38.3825C16.3938 37.57 16.045 36.3438 16.045 35C16.045 34.5588 16.1337 34.1412 16.2787 33.75H23.7188C23.865 34.1412 23.9538 34.5588 23.9538 35ZM25.7663 32.5H14.235L15.0663 30H24.9325L25.7663 32.5ZM31.25 29.5163L27.1 28.1325C27.6313 26.8613 28.32 25.0175 28.8937 22.8487L31.25 24.4187V29.5163Z" fill="#231F20"/>
</svg>
