<svg width="40" height="40" viewBox="0 0 40 40" fill="none" xmlns="http://www.w3.org/2000/svg">
<path d="M16.6125 24.4L14.7375 25.2063C14.1062 25.475 13.3937 25.475 12.7687 25.2063L10.8937 24.4C9.97498 24.0063 9.38123 23.1 9.38123 22.1V18.75C9.38123 16.6813 11.0625 15 13.1312 15H14.3812C16.45 15 18.1312 16.6813 18.1312 18.75V22.1C18.1312 23.1 17.5375 24.0063 16.6187 24.4H16.6125Z" fill="#DDA15E"/>
<path d="M21.9625 28.125C20.825 26.9687 19.2437 26.25 17.5 26.25H15.625C15.625 27.2875 14.7875 28.125 13.75 28.125C12.7125 28.125 11.875 27.2875 11.875 26.25H10C6.55 26.25 3.75 29.05 3.75 32.5V36.875H17.5L20 28.125H21.9625Z" fill="#274C77"/>
<path d="M10.625 34.375H11.875C12.5625 34.375 13.125 34.9375 13.125 35.625V36.875H10.625V34.375Z" fill="#DDA15E"/>
<path d="M7.5 19.8312C7.31875 19.9375 7.1 20 6.875 20C6.1875 20 5.625 19.4375 5.625 18.75C5.625 18.0625 6.1875 17.5 6.875 17.5C7.1375 17.5 7.38125 17.5813 7.5875 17.725" fill="#274C77"/>
<path d="M20 19.8312C20.1812 19.9375 20.4 20 20.625 20C21.3125 20 21.875 19.4375 21.875 18.75C21.875 18.0625 21.3125 17.5 20.625 17.5C20.3625 17.5 20.1187 17.5813 19.9125 17.725" fill="#274C77"/>
<path d="M11.875 24.8187L12.7625 25.2C13.3938 25.475 14.1062 25.475 14.7375 25.2L15.625 24.8187V26.25C15.625 27.2875 14.7875 28.125 13.75 28.125C12.7125 28.125 11.875 27.2875 11.875 26.25V24.8187Z" fill="#BC6C25"/>
<path d="M17.5 36.875L20 28.125H33.75L31.25 36.875" fill="#8B8C89"/>
<path d="M17.7437 17.1125C17.3875 16.9687 16.975 16.875 16.4562 16.875C13.75 16.875 13.75 19.375 11.0375 19.375C10.3312 19.375 9.80625 19.2062 9.375 18.9562V18.75C9.375 16.6813 11.0563 15 13.125 15H14.375C15.8562 15 17.1375 15.8625 17.7437 17.1125Z" fill="#274C77"/>
<path d="M18.125 21.625V18.75C18.125 16.6813 16.4437 15 14.375 15H13.125C11.0563 15 9.375 16.6813 9.375 18.75V21.25H8.125C7.78125 21.25 7.5 20.9688 7.5 20.625V18.75C7.5 15.3 10.3 12.5 13.75 12.5C15.475 12.5 17.0375 13.2 18.1687 14.3313C19.3 15.4625 20 17.025 20 18.75V20.7375C20 21.0375 19.7875 21.2937 19.5 21.35L18.125 21.625Z" fill="#E7ECEF"/>
<path d="M25.625 31.875C25.9688 31.875 26.25 32.1562 26.25 32.5C26.25 32.8438 25.9688 33.125 25.625 33.125V31.875Z" fill="#A3CEF1"/>
<path d="M13.75 22.5C13.6813 22.1625 13.9 21.8313 14.2375 21.7625L19.375 20.7375V18.95C19.375 15.9563 17.1188 13.3375 14.1375 13.1375C10.8625 12.9188 8.125 15.5188 8.125 18.75V20.625H9.375V21.875H8.125C7.4375 21.875 6.875 21.3125 6.875 20.625V18.95C6.875 15.375 9.525 12.2375 13.0875 11.9063C17.175 11.5188 20.625 14.7375 20.625 18.75V20.7375C20.625 21.3313 20.2062 21.8438 19.6187 21.9625L14.4813 22.9875C14.1438 23.0563 13.8125 22.8375 13.7437 22.5H13.75Z" fill="#6096BA"/>
<path d="M13.75 36.875H12.5V35.625C12.5 35.2813 12.2188 35 11.875 35H7.5C7.15625 35 6.875 34.7188 6.875 34.375V31.875C6.875 31.7063 6.94375 31.55 7.05625 31.4313L7.8625 30.625C8.10625 30.3813 8.5 30.3813 8.74375 30.625C8.9875 30.8688 8.9875 31.2625 8.74375 31.5063L8.11875 32.1313V33.75H11.8687C12.9062 33.75 13.7437 34.5875 13.7437 35.625V36.875H13.75Z" fill="#6096BA"/>
<path d="M33.75 36.875H2.5V38.125H33.75V36.875Z" fill="#A3CEF1"/>
<path d="M23.125 6.53126L25.0437 5.89376C25.4937 5.74376 25.9875 5.86251 26.325 6.19376L33.1875 13.0563C33.525 13.3938 33.6375 13.8875 33.4875 14.3375L32.85 16.2563L35.5 18.9063L37.15 16.1625C37.7375 15.1813 37.5875 13.9188 36.775 13.1063L26.2687 2.60626C25.4562 1.79376 24.2 1.63751 23.2125 2.23126L20.4688 3.88126L23.1188 6.53126H23.125Z" fill="#274C77"/>
<path d="M20.9125 8.73752C20.5563 8.38127 20.3625 7.91252 20.3625 7.41252C20.3625 6.91252 20.5563 6.44377 20.9125 6.08752L21.7938 6.97502C21.675 7.09377 21.6125 7.25002 21.6125 7.41877C21.6125 7.58752 21.675 7.74377 21.7938 7.86252L20.9125 8.75002V8.73752Z" fill="#A3CEF1"/>
<path d="M19.5875 10.0688C18.125 8.60626 18.125 6.22501 19.5875 4.76251L20.4687 5.64376C19.4937 6.61876 19.4937 8.20626 20.4687 9.18126L19.5875 10.0625V10.0688Z" fill="#A3CEF1"/>
<path d="M18.2625 11.3937C16.0687 9.2 16.0687 5.63125 18.2625 3.4375L19.1438 4.31875C17.4375 6.025 17.4375 8.8 19.1438 10.5062L18.2625 11.3875V11.3937Z" fill="#A3CEF1"/>
<path d="M31.9625 19.0125C31.4812 19.0125 31 18.8313 30.6375 18.4625L31.5187 17.575C31.7625 17.8188 32.1562 17.8188 32.4062 17.575L33.2874 18.4625C32.9249 18.825 32.4437 19.0125 31.9625 19.0125Z" fill="#A3CEF1"/>
<path d="M31.9625 20.8875C31 20.8875 30.0437 20.525 29.3125 19.7937L30.1937 18.9125C31.1687 19.8875 32.7562 19.8875 33.7312 18.9125L34.6125 19.7937C33.8812 20.525 32.9187 20.8875 31.9625 20.8875Z" fill="#A3CEF1"/>
<path d="M31.9625 22.7625C30.525 22.7625 29.0813 22.2125 27.9875 21.1187L28.8688 20.2375C30.575 21.9437 33.35 21.9437 35.0563 20.2375L35.9375 21.1187C34.8438 22.2125 33.4 22.7625 31.9625 22.7625Z" fill="#A3CEF1"/>
</svg>
