<svg width="40" height="40" viewBox="0 0 40 40" fill="none" xmlns="http://www.w3.org/2000/svg">
<g clip-path="url(#clip0_232_1075)">
<path d="M39.1836 6.53061V38.3673C39.1836 38.8163 38.8163 39.1837 38.3673 39.1837H1.63261C1.18363 39.1837 0.816284 38.8163 0.816284 38.3673V6.53061H39.1836Z" fill="white"/>
<path d="M39.1836 1.63264V6.5306H0.816284V1.63264C0.816284 1.18366 1.18363 0.816315 1.63261 0.816315H38.3673C38.8163 0.816315 39.1836 1.18366 39.1836 1.63264Z" fill="#FFD248"/>
<path d="M38.3673 0H1.63265C0.732408 0 0 0.732408 0 1.63265V38.3673C0 39.2676 0.732408 40 1.63265 40H38.3673C39.2676 40 40 39.2676 40 38.3673V1.63265C40 0.732408 39.2676 0 38.3673 0ZM38.3673 1.63265V5.71429H1.63265V1.63265H38.3673ZM1.63265 38.3673V7.34694H38.3673V38.3673H1.63265Z" fill="#231F20"/>
<path d="M6.1224 2.85715H3.26526V4.4898H6.1224V2.85715Z" fill="#231F20"/>
<path d="M10.2041 2.85715H7.34692V4.4898H10.2041V2.85715Z" fill="#231F20"/>
<path d="M36.7347 2.85715H33.8776V4.4898H36.7347V2.85715Z" fill="#231F20"/>
<path d="M31.0203 19.5918V22.8571C31.0203 23.3061 30.653 23.6735 30.204 23.6735H28.2121C28.0407 24.2449 27.8203 24.7918 27.5428 25.2979L28.9468 26.7102C29.2652 27.0286 29.2652 27.5428 28.9468 27.8612L26.6366 30.1714C26.3183 30.4898 25.804 30.4898 25.4856 30.1714L24.0734 28.7673C23.5672 29.0449 23.0203 29.2653 22.4489 29.4367V31.4286C22.4489 31.8775 22.0815 32.2449 21.6326 32.2449H18.3672C17.9183 32.2449 17.5509 31.8775 17.5509 31.4286V29.4367C16.9795 29.2653 16.4326 29.0449 15.9264 28.7673L14.5142 30.1714C14.1958 30.4898 13.6815 30.4898 13.3632 30.1714L11.053 27.8612C10.7346 27.5428 10.7346 27.0286 11.053 26.7102L12.457 25.2979C12.1795 24.7918 11.9591 24.2449 11.7877 23.6735H9.79582C9.34684 23.6735 8.97949 23.3061 8.97949 22.8571V19.5918C8.97949 19.1428 9.34684 18.7755 9.79582 18.7755H11.7877C11.9591 18.2041 12.1795 17.6571 12.457 17.151L11.053 15.7388C10.7346 15.4204 10.7346 14.9061 11.053 14.5877L13.3632 12.2775C13.6815 11.9592 14.1958 11.9592 14.5142 12.2775L15.9264 13.6816C16.4326 13.4041 16.9795 13.1837 17.5509 13.0122V11.0204C17.5509 10.5714 17.9183 10.2041 18.3672 10.2041H21.6326C22.0815 10.2041 22.4489 10.5714 22.4489 11.0204V13.0122C23.0203 13.1837 23.5672 13.4041 24.0734 13.6816L25.4856 12.2775C25.804 11.9592 26.3183 11.9592 26.6366 12.2775L28.9468 14.5877C29.2652 14.9061 29.2652 15.4204 28.9468 15.7388L27.5428 17.151C27.8203 17.6571 28.0407 18.2041 28.2121 18.7755H30.204C30.653 18.7755 31.0203 19.1428 31.0203 19.5918Z" fill="#AFB6BB"/>
<path d="M21.6326 33.0612H18.3673C17.467 33.0612 16.7346 32.3288 16.7346 31.4286V30.0251C16.5115 29.9432 16.2952 29.8545 16.0865 29.7595L15.0898 30.7504C14.7834 31.0568 14.374 31.2265 13.9387 31.2265C13.5035 31.2265 13.0941 31.0568 12.7859 30.7487L10.4758 28.4385C10.1677 28.1305 9.9979 27.7211 9.9979 27.2858C9.9979 26.8505 10.1676 26.4411 10.4758 26.133L11.4649 25.138C11.3698 24.9292 11.2812 24.713 11.1993 24.4899H9.79586C8.89562 24.4899 8.16321 23.7575 8.16321 22.8572V19.5919C8.16321 18.6917 8.89562 17.9593 9.79586 17.9593H11.1994C11.2812 17.7362 11.3699 17.5198 11.4649 17.3111L10.4741 16.3145C10.1676 16.008 9.9979 15.5986 9.9979 15.1633C9.9979 14.7281 10.1676 14.3187 10.4758 14.0105L12.7859 11.7004C13.094 11.3923 13.5034 11.2225 13.9386 11.2225C14.3739 11.2225 14.7833 11.3922 15.0915 11.7004L16.0864 12.6896C16.2952 12.5945 16.5115 12.5058 16.7346 12.4239V11.0204C16.7346 10.1202 17.467 9.38776 18.3672 9.38776H21.6325C22.5328 9.38776 23.2652 10.1202 23.2652 11.0204V12.4239C23.4883 12.5058 23.7046 12.5945 23.9133 12.6895L24.91 11.6986C25.2164 11.3922 25.6258 11.2225 26.0611 11.2225C26.4964 11.2225 26.9057 11.3922 27.2139 11.7003L29.524 14.0105C29.8321 14.3185 30.0019 14.7279 30.0019 15.1632C30.0019 15.5985 29.8322 16.0078 29.524 16.316L28.5349 17.3109C28.63 17.5198 28.7186 17.736 28.8005 17.9591H30.204C31.1043 17.9591 31.8367 18.6915 31.8367 19.5918V22.8571C31.8367 23.7573 31.1043 24.4897 30.204 24.4897H28.8005C28.7186 24.7128 28.63 24.9291 28.535 25.1379L29.5258 26.1345C29.8323 26.441 30.002 26.8504 30.002 27.2856C30.002 27.7209 29.8323 28.1303 29.5241 28.4385L27.214 30.7486C26.9059 31.0567 26.4965 31.2265 26.0613 31.2265C25.626 31.2265 25.2166 31.0567 24.9084 30.7486L23.9135 29.7594C23.7047 29.8545 23.4884 29.9432 23.2653 30.0251V31.4286C23.2653 32.3288 22.5328 33.0612 21.6326 33.0612ZM15.9267 27.951C16.0607 27.951 16.1956 27.9839 16.319 28.0515C16.7554 28.2908 17.2488 28.4937 17.7856 28.6548C18.1309 28.7584 18.3674 29.0762 18.3674 29.4367V31.4286H21.6327V29.4367C21.6327 29.0762 21.8691 28.7584 22.2145 28.6549C22.7512 28.4938 23.2447 28.2909 23.6811 28.0516C23.9984 27.8776 24.3923 27.9333 24.6491 28.1885L26.0613 29.5925L28.3697 27.284L26.9639 25.8736C26.7088 25.6169 26.653 25.2229 26.827 24.9056C27.0663 24.4692 27.2693 23.9758 27.4303 23.439C27.5339 23.0937 27.8517 22.8572 28.2122 22.8572H30.204V19.5919H28.2122C27.8517 19.5919 27.5338 19.3555 27.4303 19.0101C27.2693 18.4734 27.0663 17.9799 26.827 17.5435C26.653 17.2261 26.7088 16.8322 26.9639 16.5755L28.3679 15.1633L26.0595 12.8549L24.6491 14.2607C24.3923 14.5159 23.9984 14.5716 23.6811 14.3976C23.2447 14.1583 22.7512 13.9553 22.2145 13.7943C21.8692 13.6907 21.6327 13.3729 21.6327 13.0124V11.0204H18.3674V13.0122C18.3674 13.3727 18.131 13.6906 17.7856 13.7941C17.2488 13.9552 16.7554 14.1581 16.319 14.3974C16.0016 14.5713 15.6076 14.5157 15.351 14.2605L13.9387 12.8565L11.6304 15.165L13.0361 16.5753C13.2913 16.8321 13.347 17.226 13.173 17.5433C12.9337 17.9798 12.7308 18.4732 12.5697 19.01C12.4661 19.3553 12.1484 19.5918 11.7879 19.5918H9.79586V22.8571H11.7877C12.1482 22.8571 12.4661 23.0935 12.5696 23.4389C12.7306 23.9756 12.9336 24.4691 13.1728 24.9055C13.3469 25.2229 13.2911 25.6168 13.0359 25.8735L11.6319 27.2857L13.9404 29.594L15.3508 28.1883C15.5079 28.0324 15.716 27.951 15.9267 27.951Z" fill="#231F20"/>
<path d="M19.9999 17.9592C21.804 17.9592 23.2652 19.4204 23.2652 21.2245C23.2652 23.0286 21.804 24.4898 19.9999 24.4898C18.1958 24.4898 16.7346 23.0286 16.7346 21.2245C16.7346 19.4204 18.1958 17.9592 19.9999 17.9592Z" fill="white"/>
<path d="M20 25.3061C17.7494 25.3061 15.9183 23.4751 15.9183 21.2245C15.9183 18.9739 17.7494 17.1429 20 17.1429C22.2506 17.1429 24.0816 18.9739 24.0816 21.2245C24.0816 23.4751 22.2506 25.3061 20 25.3061ZM20 18.7755C18.6496 18.7755 17.551 19.8741 17.551 21.2245C17.551 22.5749 18.6496 23.6735 20 23.6735C21.3503 23.6735 22.4489 22.5749 22.4489 21.2245C22.4489 19.8741 21.3503 18.7755 20 18.7755Z" fill="#231F20"/>
<path d="M32.653 12.2449H31.0204V13.8776H32.653V12.2449Z" fill="#231F20"/>
<path d="M35.102 12.2449H33.4694V13.8776H35.102V12.2449Z" fill="#231F20"/>
<path d="M37.551 12.2449H35.9183V13.8776H37.551V12.2449Z" fill="#231F20"/>
<path d="M4.08163 28.5714H2.44897V30.2041H4.08163V28.5714Z" fill="#231F20"/>
<path d="M6.5306 28.5714H4.89795V30.2041H6.5306V28.5714Z" fill="#231F20"/>
<path d="M8.97958 28.5714H7.34692V30.2041H8.97958V28.5714Z" fill="#231F20"/>
<path d="M34.6939 35.1021H5.30615V36.7347H34.6939V35.1021Z" fill="#231F20"/>
</g>
<defs>
<clipPath id="clip0_232_1075">
<rect width="40" height="40" fill="white"/>
</clipPath>
</defs>
</svg>
