<svg width="35" height="35" viewBox="0 0 35 35" fill="none" xmlns="http://www.w3.org/2000/svg">
<path d="M12.1847 6.62813C11.7507 7.00568 11.3997 7.47146 11.1545 7.99531C10.9466 8.4982 10.8104 9.02852 10.7499 9.57031C10.7499 9.63594 11.0628 9.63594 11.1761 9.61406C11.2893 9.59219 11.1761 9.3625 11.4458 8.38359C11.6351 7.78343 11.9841 7.24788 12.4544 6.83594C12.5245 6.72109 12.3142 6.5625 12.1847 6.62813ZM16.5483 5.64922C12.6594 6.67734 12.4328 9.8875 14.051 12.168C15.6691 14.4484 20.4966 13.125 20.8634 9.72891C20.9488 9.14666 20.8932 8.5521 20.7016 7.99645C20.51 7.44079 20.188 6.9407 19.7634 6.53925C19.3388 6.1378 18.8242 5.84703 18.2642 5.69198C17.7041 5.53693 17.1152 5.52226 16.5483 5.64922ZM19.8709 9.65235C19.6012 12.1953 16.0089 13.1578 14.8061 11.468C13.6033 9.77813 13.7705 7.38281 16.6616 6.62266C17.0828 6.52864 17.5202 6.5397 17.9362 6.65486C18.3523 6.77003 18.7346 6.98587 19.0502 7.28384C19.3658 7.58182 19.6054 7.95302 19.7484 8.36557C19.8913 8.77812 19.9334 9.21969 19.8709 9.65235ZM16.8342 8.05C15.4048 8.42735 15.3239 9.60313 15.9172 10.4344C16.5106 11.2656 18.2797 10.7953 18.4146 9.54297C18.4459 9.32977 18.4256 9.11204 18.3554 8.90858C18.2852 8.70511 18.1672 8.52201 18.0117 8.37507C17.8561 8.22813 17.6676 8.12175 17.4625 8.06512C17.2574 8.00849 17.0417 8.0033 16.8342 8.05ZM19.488 14.6508C18.7343 15.4106 17.719 15.844 16.6562 15.8594C16.1171 15.8985 15.5773 15.7951 15.0894 15.5592C14.6016 15.3234 14.1824 14.9633 13.873 14.5141C13.6896 14.5141 13.3336 14.968 13.3336 15.0609C13.3336 15.1539 14.3692 16.6086 16.5699 16.7453C18.7706 16.882 19.9195 15.6078 19.9626 15.3781C20.0058 15.1484 19.6714 14.6289 19.488 14.6508ZM27.2659 3.09531C27.0864 3.13174 26.9158 3.204 26.7641 3.30787C26.6124 3.41175 26.4826 3.54517 26.3822 3.70038C26.2818 3.8556 26.2129 4.0295 26.1794 4.21197C26.1459 4.39444 26.1485 4.58185 26.1871 4.76328L23.1989 6.78672C22.8857 6.30885 22.5222 5.86693 22.1148 5.46875C20.3333 4.28243 18.2233 3.70733 16.0952 3.82813C14.2112 3.91277 12.4222 4.69043 11.0628 6.01563L8.29575 4.76328C8.29575 4.76328 8.56544 3.98672 8.02606 3.59844C7.65013 3.36637 7.21215 3.25902 6.77318 3.29137C6.3342 3.32372 5.91613 3.49416 5.57726 3.77891C5.3945 3.95618 5.25687 4.17573 5.17615 4.41876C5.09544 4.66178 5.07405 4.92103 5.11382 5.17427C5.1536 5.42752 5.25334 5.66721 5.40451 5.87279C5.55569 6.07838 5.75377 6.24374 5.98179 6.35469C6.22187 6.48414 6.49737 6.52965 6.76556 6.48417C7.03375 6.43869 7.27964 6.30475 7.4651 6.10313L9.9139 7.47031C9.67124 7.82382 9.47538 8.20809 9.33137 8.61328C9.10828 9.27193 8.95107 9.95165 8.8621 10.6422C8.8621 10.6422 8.4306 10.5711 7.5568 11.4133C6.68299 12.2555 6.79087 13.5352 7.3788 14.0328C7.96673 14.5305 9.40149 14.4922 9.40149 14.4922C9.40149 14.4922 9.44464 15.8594 11.2624 17.6586C13.0801 19.4578 16.4998 19.2992 16.4998 19.2992V20.8469C16.4998 20.8469 16.3218 20.8906 16.1654 20.9398C15.6073 21.1403 15.1323 21.5256 14.8169 22.0336C14.2505 22.8266 13.7381 25.6102 13.7381 25.6102C13.418 25.7007 13.1346 25.8922 12.9291 26.157C12.6378 26.5891 12.5461 27.6391 13.2203 28.0711C13.3908 28.1747 13.5841 28.2334 13.7826 28.2419C13.9812 28.2504 14.1787 28.2085 14.3572 28.1199C14.5356 28.0313 14.6895 27.8989 14.8046 27.7347C14.9197 27.5705 14.9926 27.3797 15.0165 27.1797C15.0379 26.9158 14.981 26.6514 14.8532 26.4205C14.7254 26.1895 14.5324 26.0026 14.2991 25.8836C14.2991 25.8836 14.2991 25.6539 14.4124 24.9922C14.592 23.9053 14.9885 22.8669 15.5774 21.9406C16.1654 21.2133 16.435 21.5086 16.435 21.5086C16.435 21.5086 15.5559 26.0914 15.5343 27.6172C15.5083 28.0319 15.5879 28.4463 15.7655 28.8208C15.943 29.1953 16.2126 29.5171 16.5483 29.7555V30.4391C16.5483 30.4391 16.4135 30.3516 15.7123 30.5102C15.5798 30.545 15.4583 30.6136 15.3593 30.7094C15.2603 30.8052 15.187 30.9251 15.1465 31.0577C15.106 31.1902 15.0995 31.3311 15.1277 31.4669C15.156 31.6026 15.2179 31.7289 15.3077 31.8336C15.626 32.1508 16.6832 31.943 16.9529 31.7844C17.2225 31.6258 16.9529 29.8703 16.9529 29.8703L17.4922 29.9633C17.4922 29.9633 17.5839 31.4234 17.5839 31.5109C17.5839 31.5984 17.6918 31.8063 18.3229 31.9211C18.954 32.0359 19.8493 31.5109 19.6066 30.8273C19.3639 30.1438 18.0748 30.3297 18.0748 30.3297L18.0316 29.7828C18.5327 29.3134 18.8648 28.6879 18.9755 28.0055C19.1104 26.9117 18.0748 21.9898 18.0963 21.8969C18.1179 21.8039 18.3013 21.7602 18.5494 21.968C19.0332 22.6879 19.4675 23.4407 19.8493 24.2211C19.9693 24.3455 20.1129 24.4441 20.2714 24.5108C20.4299 24.5775 20.6001 24.611 20.7717 24.6094C21.0899 24.5656 22.8645 22.8102 22.8645 22.8102C22.8645 22.8102 24.3208 22.9688 24.7038 21.875C25.0868 20.7813 24.2345 19.6875 22.8861 20.3492C21.5376 21.0109 22.5247 22.4656 22.5247 22.4656C22.4017 22.6642 22.2402 22.8353 22.05 22.9688C21.7156 23.2203 20.885 23.9695 20.6584 23.9695C20.4319 23.9695 19.8709 22.9688 19.4178 22.1484C19.1116 21.6145 18.6126 21.2223 18.0262 21.0547L17.8428 19.0695C19.3223 18.8613 20.7405 18.3335 22.0015 17.5219C22.6187 17.1525 23.152 16.6551 23.5665 16.0623C23.9811 15.4696 24.2675 14.7948 24.4071 14.082C24.4071 14.082 26.5647 13.7867 26.6294 11.8945C26.6941 10.0023 24.6984 10.0953 24.6984 10.0953C24.6984 10.0953 24.6984 9.75078 24.6337 9.4336C24.5347 9.07748 24.3991 8.73289 24.2291 8.40547L27.1094 6.01563C27.2768 6.11807 27.4587 6.1937 27.6488 6.23984C27.8947 6.27245 28.1446 6.24734 28.3793 6.16646C28.6141 6.08558 28.8274 5.95109 29.0027 5.77338C29.178 5.59567 29.3108 5.37948 29.3906 5.14151C29.4705 4.90353 29.4953 4.65014 29.4633 4.40088C29.4312 4.15162 29.3431 3.91317 29.2057 3.70392C29.0683 3.49468 28.8853 3.32024 28.6709 3.19407C28.4564 3.06791 28.2163 2.99339 27.9689 2.97626C27.7216 2.95914 27.4737 2.99987 27.2443 3.09531H27.2659ZM6.22991 5.82969C6.05816 5.73144 5.91783 5.58527 5.82559 5.40855C5.73334 5.23182 5.69307 5.03197 5.70954 4.83273C5.72601 4.63348 5.79853 4.44322 5.9185 4.28453C6.03847 4.12584 6.20085 4.00539 6.38633 3.9375C6.51567 3.87962 6.65639 3.85265 6.79764 3.85868C6.93889 3.86472 7.07688 3.90359 7.20095 3.97231C7.32502 4.04102 7.43186 4.13773 7.5132 4.25496C7.59454 4.3722 7.64821 4.50682 7.67007 4.64844C7.70796 4.83537 7.69435 5.02927 7.63073 5.20887C7.5671 5.38847 7.45592 5.54684 7.30938 5.6666C7.16284 5.78637 6.9866 5.8629 6.79999 5.88781C6.61338 5.91272 6.42361 5.88504 6.25149 5.80781L6.22991 5.82969ZM8.99695 13.7813C8.88368 13.7813 8.0746 13.8742 7.91818 13.125C7.82174 12.7957 7.85427 12.4414 8.00899 12.1358C8.16371 11.8302 8.42871 11.5969 8.74883 11.4844C8.8675 11.4461 8.81356 12.2609 8.92683 12.8297C9.0401 13.3984 9.13179 13.7594 9.01852 13.7594L8.99695 13.7813ZM14.4771 27.0703C14.463 27.1737 14.426 27.2724 14.3688 27.3591C14.3116 27.4458 14.2357 27.5182 14.1469 27.5709C14.0581 27.6236 13.9587 27.6551 13.8561 27.6631C13.7535 27.6711 13.6505 27.6554 13.5547 27.6172C13.2203 27.4094 13.0855 26.4523 13.7381 26.3156C14.1157 26.25 14.4771 26.6602 14.4771 27.0703ZM23.4902 20.7813C23.6832 20.7813 23.8694 20.8531 24.0136 20.9832C24.1578 21.1132 24.2498 21.2924 24.2723 21.4867C24.2723 21.8969 23.4632 22.307 23.1935 22.1703C22.9238 22.0336 22.816 20.918 23.4902 20.7813ZM24.8602 11.9602C24.8232 11.613 24.8232 11.2628 24.8602 10.9156C24.9776 10.8859 25.0999 10.8823 25.2187 10.9052C25.3375 10.928 25.4501 10.9768 25.5485 11.048C25.647 11.1192 25.729 11.2113 25.789 11.3178C25.8489 11.4243 25.8854 11.5427 25.8958 11.6648C26.0523 12.5563 24.6822 13.2617 24.6175 13.1688C24.5528 13.0758 24.8386 12.3922 24.8602 11.9602ZM8.13933 5.90078C8.09618 5.80781 8.32272 5.35391 8.32272 5.35391C8.4306 5.35391 10.545 6.31094 10.4533 6.49141C10.3616 6.67188 10.1836 6.97266 10.1189 6.92891C10.0541 6.88516 8.18787 6.01563 8.13933 5.90078ZM18.0963 28.3227C17.8698 28.7766 16.7047 29.0992 16.4782 28.3227C16.2517 27.5461 17.0176 20.2344 17.2603 20.2344C17.3358 20.2016 18.3391 27.8906 18.0963 28.3227ZM23.625 12.8734C23.5601 13.2651 23.4478 13.6472 23.2906 14.0109C23.0349 13.5815 22.7406 13.1769 22.4114 12.8023C22.2981 12.8023 22.0069 13.0102 22.1202 13.125C22.509 13.5831 22.8406 14.0883 23.1072 14.6289C23.0641 14.7656 22.6811 15.4 22.6811 15.4C22.3868 14.8918 22.057 14.4056 21.694 13.9453C21.6023 13.9453 21.3111 14.1695 21.3542 14.2406C21.7427 14.7769 22.0821 15.348 22.3683 15.9469C22.2981 16.0617 21.8289 16.543 21.7803 16.45C21.5606 16.0089 21.3119 15.5832 21.036 15.1758C20.9659 15.1758 20.7178 15.2906 20.7663 15.4C20.8148 15.5094 21.5969 16.7453 21.5053 16.8602C21.3379 17.0129 21.1574 17.1502 20.9659 17.2703C20.9659 17.2703 20.5182 16.1766 20.4265 16.1766C20.3348 16.1766 19.9303 16.3844 19.9788 16.45C20.0273 16.5156 20.5613 17.4289 20.4696 17.5438C20.3744 17.626 20.2692 17.6959 20.1568 17.7516L19.5365 16.9531L19.2183 17.1555C19.2183 17.1555 19.7145 17.932 19.6228 17.9539L19.1751 18.0906C19.1751 18.0906 18.9054 17.4781 18.8137 17.4508C18.722 17.4234 18.366 17.4508 18.4362 17.5219C18.5482 17.7354 18.6455 17.9565 18.7274 18.1836C17.3413 18.4727 15.9117 18.4727 14.5256 18.1836C13.3863 17.9313 12.3481 17.3375 11.5459 16.4793C10.7437 15.6211 10.2145 14.5381 10.0272 13.3711C9.58179 11.2526 9.93591 9.04174 11.0196 7.175C11.8017 5.90078 13.1772 5.35391 14.5688 4.85078C16.1869 4.26016 19.1535 4.48438 21.5106 6.08125C23.8678 7.67813 23.6952 12.3484 23.625 12.8734ZM26.5269 5.82969C26.4136 5.94453 24.1213 7.92969 24.0511 7.81485C23.981 7.7 23.7329 7.10938 23.7329 7.10938C23.8246 7.06563 26.117 5.21719 26.2518 5.35391C26.3867 5.49063 26.6348 5.72031 26.5269 5.82969ZM27.3576 5.46875C27.19 5.37017 27.0534 5.22546 26.9637 5.05138C26.8739 4.87731 26.8347 4.681 26.8505 4.48523C26.8663 4.28947 26.9365 4.10225 27.053 3.94529C27.1695 3.78834 27.3274 3.66807 27.5086 3.59844C27.6372 3.54048 27.7772 3.51331 27.9178 3.51903C28.0584 3.52475 28.1958 3.5632 28.3194 3.63141C28.443 3.69962 28.5495 3.79575 28.6305 3.91237C28.7116 4.02899 28.7651 4.16296 28.7869 4.30391C28.8296 4.49297 28.8189 4.69039 28.7561 4.87358C28.6933 5.05678 28.5809 5.21836 28.4318 5.33987C28.2827 5.46137 28.1029 5.53789 27.9129 5.56068C27.723 5.58348 27.5305 5.55162 27.3576 5.46875Z" fill="#333232" fill-opacity="0.7"/>
</svg>
