<svg width="35" height="35" viewBox="0 0 35 35" fill="none" xmlns="http://www.w3.org/2000/svg">
<path d="M10.9934 20.5378C10.9284 20.6153 10.7559 20.8598 10.6059 21.0923C10.2839 21.5931 9.96793 21.9091 9.60468 22.0878C9.37718 22.2003 9.24093 22.2253 8.71043 22.2253C7.95343 22.2253 7.43493 22.0828 6.88043 21.7246C6.67793 21.5946 6.52293 21.5171 6.53493 21.5571C6.55993 21.5996 7.14268 23.7211 7.84618 26.2723C8.54968 28.8293 9.13393 30.9278 9.14568 30.9338C9.14568 30.9338 9.27568 30.9988 9.41393 31.0713C10.5107 31.6256 12.4302 32.1026 14.6119 32.3646C15.6967 32.4946 19.0469 32.5446 20.1734 32.4546C22.8084 32.2346 25.0317 31.6258 26.4149 30.7556L26.7427 30.5481L27.6249 26.4468C28.1077 24.1936 28.5669 22.0596 28.6444 21.7138L28.7819 21.0821L28.4479 21.2846C27.9592 21.5826 27.3692 21.7436 26.8029 21.7496C26.3737 21.7496 26.2784 21.7246 25.8789 21.5346C25.6339 21.4146 25.1937 21.1236 24.8954 20.8908C23.9774 20.1636 23.9059 20.1936 23.6614 21.3916C23.5239 22.0713 23.3039 22.7208 23.1069 23.0311C22.9169 23.3291 22.4572 23.7343 22.1652 23.8596C21.7894 24.0196 21.3364 24.1046 20.8537 24.1046C19.6852 24.1046 19.0057 23.6693 18.1294 22.3698C17.8612 21.9766 17.6052 21.6368 17.5574 21.6186C17.4374 21.5761 17.3124 21.6961 16.7167 22.4173C16.1622 23.0968 15.6437 23.5083 15.1072 23.6991C14.8209 23.7941 14.6602 23.8116 14.1652 23.7941C13.4319 23.7591 13.0087 23.6091 12.5914 23.2338C12.1204 22.8106 11.9714 22.4826 11.6254 21.1296C11.4479 20.4441 11.2499 20.2578 10.9934 20.5378ZM15.2082 11.2983C14.4454 11.3808 13.3602 11.5786 12.5494 11.7931C9.39618 12.6156 6.98793 14.2253 6.01018 16.1446C5.69993 16.7588 5.58093 17.2831 5.58093 18.0226C5.58093 18.9526 5.74843 19.5246 6.27243 20.3771C6.80918 21.2476 7.64943 21.7183 8.68068 21.7363C9.41393 21.7363 9.72993 21.5338 10.2784 20.6753C10.6302 20.1151 10.8504 19.9303 11.1727 19.9303C11.5124 19.9303 11.7924 20.1153 11.9297 20.4248C11.9897 20.5623 12.1147 20.9673 12.1977 21.3311C12.3877 22.0938 12.5672 22.4933 12.8712 22.8093C13.2827 23.2326 14.1649 23.4293 14.8144 23.2446C15.4167 23.0646 15.7264 22.8213 16.4477 21.9628C17.0617 21.2236 17.2047 21.1103 17.5029 21.1103C17.8249 21.1103 17.9799 21.2528 18.4984 22.0223C19.2197 23.0833 19.6907 23.4528 20.4952 23.5781C20.9124 23.6431 21.5387 23.5781 21.9079 23.4181C22.4504 23.1906 22.8559 22.6013 23.0464 21.7786C23.3982 20.2408 23.4279 20.1633 23.7977 19.9726C24.1614 19.7826 24.4477 19.8826 25.2167 20.4973C25.4967 20.7173 25.8542 20.9623 26.0214 21.0456C26.5937 21.3376 27.3507 21.2906 28.0422 20.9256C28.9064 20.4726 29.4192 19.3878 29.4192 18.0228C29.4192 17.0631 29.2042 16.3773 28.6144 15.5071C27.4817 13.8381 24.9959 12.3893 22.0929 11.7036C21.0199 11.4476 19.3687 11.1971 19.2914 11.2803C19.2664 11.2803 19.2614 12.0253 19.2614 12.9018V14.4996L19.0764 14.7096C18.7304 15.1091 17.8127 15.3056 16.9482 15.1683C16.4354 15.0908 16.1197 14.9408 15.8992 14.6856L15.7442 14.4956V12.8978C15.7442 12.0156 15.7192 11.2881 15.7017 11.2703C15.6717 11.2703 15.4524 11.2683 15.2082 11.2983ZM16.8652 6.66057C16.6627 6.70307 16.4599 6.79057 16.3707 6.87557L16.2207 7.01307V10.6673V14.3153L16.4007 14.4703C16.6282 14.6553 16.8897 14.7153 17.5034 14.7153C18.1174 14.7153 18.3799 14.6553 18.6062 14.4703L18.7862 14.3153V10.6793V7.04307L18.6187 6.88307C18.3509 6.60882 17.5639 6.51332 16.8664 6.66307L16.8652 6.66057ZM17.1334 2.95282C16.2574 4.05582 16.0367 4.85457 16.4179 5.53407C16.6204 5.89157 16.9784 6.06457 17.5029 6.06457C18.2302 6.06457 18.6652 5.69507 18.7607 5.00932C18.8382 4.46707 18.4209 3.56657 17.7237 2.76807L17.4912 2.49982L17.1334 2.95282Z" fill="#333232" fill-opacity="0.7"/>
</svg>
