<svg width="35" height="35" viewBox="0 0 35 35" fill="none" xmlns="http://www.w3.org/2000/svg">
<path d="M30.7614 29.0918H3.75255C2.46394 29.0918 1.41565 28.0287 1.41565 26.722V24.6484C1.41565 24.4596 1.56658 24.3066 1.7527 24.3066H32.7613C32.9475 24.3066 33.0983 24.4596 33.0983 24.6484V26.722C33.0983 28.0287 32.05 29.0918 30.7614 29.0918ZM2.08975 24.9902V26.722C2.08975 27.6518 2.83564 28.4082 3.75255 28.4082H30.7615C31.6784 28.4082 32.4243 27.6518 32.4243 26.722V24.9902H2.08975Z" fill="#333232" fill-opacity="0.7"/>
<path d="M32.7613 24.9902H1.7527C1.56658 24.9902 1.41565 24.8372 1.41565 24.6484V9.37009C1.41565 7.80582 2.67062 6.53317 4.21316 6.53317H15.9426C16.1287 6.53317 16.2797 6.68623 16.2797 6.87497C16.2797 7.06371 16.1287 7.21677 15.9426 7.21677H4.21316C3.04232 7.21677 2.08975 8.18275 2.08975 9.37009V24.3066H32.4242V9.37009C32.4242 8.18275 31.4717 7.21677 30.3008 7.21677H22.6159C22.4297 7.21677 22.2788 7.06371 22.2788 6.87497C22.2788 6.68623 22.4297 6.53317 22.6159 6.53317H30.3008C31.8433 6.53317 33.0983 7.80582 33.0983 9.37009V24.6484C33.0983 24.8372 32.9475 24.9902 32.7613 24.9902Z" fill="#333232" fill-opacity="0.7"/>
<path d="M11.9659 14.6332C11.8778 14.6332 11.7917 14.5981 11.7275 14.5331C11.6398 14.4442 11.6074 14.3137 11.643 14.1933L13.073 9.35956C13.089 9.30535 13.118 9.25607 13.1575 9.21607L21.0224 1.24038C21.5317 0.723927 22.2088 0.439484 22.9289 0.439484C23.6492 0.439484 24.3263 0.723927 24.8356 1.24038C25.3449 1.75684 25.6254 2.44351 25.6254 3.17386C25.6254 3.90428 25.3449 4.59088 24.8356 5.1074L16.9708 13.083C16.9313 13.123 16.8827 13.1525 16.8293 13.1687L12.0627 14.6188C12.0308 14.6286 11.9982 14.6332 11.9659 14.6332ZM13.6942 9.63847L12.4685 13.7817L16.5542 12.5387L24.359 4.62397C24.7409 4.23657 24.9513 3.72162 24.9513 3.17386C24.9513 2.6261 24.7409 2.11108 24.359 1.72375C23.977 1.33636 23.4692 1.12308 22.9289 1.12308C22.3888 1.12308 21.8809 1.33643 21.499 1.72375L13.6942 9.63847Z" fill="#333232" fill-opacity="0.7"/>
<path d="M14.5874 11.4784C14.199 11.4784 13.8106 11.3285 13.5149 11.0287C12.9236 10.429 12.9236 9.45321 13.5149 8.8535C13.6465 8.72006 13.8599 8.72006 13.9916 8.8535C14.1232 8.987 14.1232 9.20336 13.9916 9.33687C13.663 9.67005 13.663 10.2121 13.9916 10.5453C14.3201 10.8785 14.8547 10.8785 15.1832 10.5453C15.3149 10.4119 15.5283 10.412 15.6599 10.5453C15.7915 10.6788 15.7915 10.8953 15.6599 11.0287C15.3642 11.3285 14.9758 11.4784 14.5874 11.4784Z" fill="#333232" fill-opacity="0.7"/>
<path d="M16.2557 13.171C15.8506 13.171 15.4697 13.011 15.1832 12.7205C14.8968 12.43 14.739 12.0438 14.739 11.6329C14.739 11.2221 14.8968 10.8358 15.1832 10.5453L19.378 6.29151C19.5095 6.15808 19.7231 6.15808 19.8546 6.29151C19.9863 6.42502 19.9863 6.64145 19.8546 6.77488L15.6599 11.0287C15.5007 11.1901 15.413 11.4047 15.413 11.6329C15.413 11.8611 15.5007 12.0757 15.6599 12.2371C15.8191 12.3985 16.0307 12.4874 16.2557 12.4874C16.4808 12.4874 16.6924 12.3985 16.8515 12.2371C16.9831 12.1036 17.1966 12.1036 17.3282 12.2371C17.4598 12.3706 17.4598 12.5869 17.3282 12.7204C17.0418 13.011 16.6609 13.171 16.2557 13.171Z" fill="#333232" fill-opacity="0.7"/>
<path d="M23.644 6.17423C23.5578 6.17423 23.4715 6.14087 23.4057 6.07416L20.0691 2.6905C19.9374 2.557 19.9374 2.34057 20.0691 2.20713C20.2006 2.0737 20.4141 2.0737 20.5457 2.20713L23.8823 5.59079C24.014 5.72429 24.014 5.94072 23.8823 6.07416C23.8166 6.14087 23.7302 6.17423 23.644 6.17423Z" fill="#333232" fill-opacity="0.7"/>
<path d="M24.6721 21.5722H19.2793C18.1642 21.5722 17.257 20.6523 17.257 19.5215C17.257 18.3907 18.1642 17.4707 19.2793 17.4707H26.6944C27.4378 17.4707 28.0426 16.8573 28.0426 16.1035V16.0004C28.0426 15.2465 27.4378 14.6332 26.6944 14.6332H11.9658C11.7797 14.6332 11.6288 14.4802 11.6288 14.2914C11.6288 14.1027 11.7797 13.9496 11.9658 13.9496H26.6944C27.8095 13.9496 28.7167 14.8696 28.7167 16.0004V16.1035C28.7167 17.2343 27.8095 18.1543 26.6944 18.1543H19.2793C18.5359 18.1543 17.9311 18.7676 17.9311 19.5215C17.9311 20.2753 18.5359 20.8886 19.2793 20.8886H24.6721C24.8583 20.8886 25.0091 21.0416 25.0091 21.2304C25.0091 21.4192 24.8583 21.5722 24.6721 21.5722Z" fill="#333232" fill-opacity="0.7"/>
<path d="M11.8642 21.914H1.7527C1.56658 21.914 1.41565 21.761 1.41565 21.5722C1.41565 21.3834 1.56658 21.2304 1.7527 21.2304H11.8642C12.0503 21.2304 12.2012 21.3834 12.2012 21.5722C12.2012 21.761 12.0503 21.914 11.8642 21.914Z" fill="#333232" fill-opacity="0.7"/>
<path d="M11.8642 19.8633H1.7527C1.56658 19.8633 1.41565 19.7103 1.41565 19.5215C1.41565 19.3326 1.56658 19.1797 1.7527 19.1797H11.8642C12.0503 19.1797 12.2012 19.3326 12.2012 19.5215C12.2012 19.7103 12.0503 19.8633 11.8642 19.8633Z" fill="#333232" fill-opacity="0.7"/>
<path d="M11.8642 17.8125H1.7527C1.56658 17.8125 1.41565 17.6595 1.41565 17.4707C1.41565 17.2819 1.56658 17.1289 1.7527 17.1289H11.8642C12.0503 17.1289 12.2012 17.2819 12.2012 17.4707C12.2012 17.6595 12.0503 17.8125 11.8642 17.8125Z" fill="#333232" fill-opacity="0.7"/>
<path d="M20.9645 33.1933H13.5495C13.3633 33.1933 13.2124 33.0403 13.2124 32.8515V28.75C13.2124 28.5612 13.3633 28.4082 13.5495 28.4082H20.9645C21.1507 28.4082 21.3016 28.5612 21.3016 28.75V32.8515C21.3016 33.0403 21.1507 33.1933 20.9645 33.1933ZM13.8865 32.5097H20.6275V29.0918H13.8865V32.5097Z" fill="#333232" fill-opacity="0.7"/>
<path d="M19.2792 33.1933H15.2346C15.0485 33.1933 14.8976 33.0403 14.8976 32.8515V28.75C14.8976 28.5612 15.0485 28.4082 15.2346 28.4082H19.2792C19.4654 28.4082 19.6163 28.5612 19.6163 28.75V32.8515C19.6163 33.0403 19.4654 33.1933 19.2792 33.1933ZM15.5717 32.5097H18.9422V29.0918H15.5717V32.5097Z" fill="#333232" fill-opacity="0.7"/>
<path d="M21.9756 34.5605H12.5382C11.9807 34.5605 11.5271 34.1005 11.5271 33.5351C11.5271 32.9697 11.9807 32.5097 12.5382 32.5097H21.9756C22.5332 32.5097 22.9868 32.9697 22.9868 33.5351C22.9868 34.1005 22.5332 34.5605 21.9756 34.5605ZM12.5382 33.1933C12.3524 33.1933 12.2012 33.3467 12.2012 33.5351C12.2012 33.7236 12.3524 33.8769 12.5382 33.8769H21.9756C22.1615 33.8769 22.3127 33.7236 22.3127 33.5351C22.3127 33.3467 22.1615 33.1933 21.9756 33.1933H12.5382Z" fill="#333232" fill-opacity="0.7"/>
</svg>
