<svg width="35" height="35" viewBox="0 0 35 35" fill="none" xmlns="http://www.w3.org/2000/svg">
<g clip-path="url(#clip0_278_661)">
<path d="M30.3653 2.52238H26.5877C26.3024 2.07135 26.2219 1.5203 26.3772 0.994617C26.4944 0.598885 26.2681 0.18367 25.8731 0.0664336C25.735 0.0261016 25.5947 0.0276055 25.4647 0.0626738C25.4617 0.0634258 25.4595 0.0641777 25.4565 0.0649297C25.4453 0.0686894 25.4341 0.0716289 25.4221 0.0753887C24.8882 0.229197 24.3969 0.514461 23.9981 0.904246C23.7606 1.13721 23.5621 1.3993 23.4052 1.68231C23.3545 1.43068 23.3544 1.16709 23.4112 0.907254C23.5001 0.504754 23.2454 0.106014 22.8429 0.0171465C22.6981 -0.0142305 22.554 -0.00151564 22.4248 0.0462676C21.8901 0.235213 21.4085 0.559236 21.0314 0.985662C20.4437 1.648 20.1443 2.49928 20.1883 3.38337C20.2256 4.15097 20.5184 4.86861 21.0202 5.43757V10.0807C21.0202 10.8759 20.3735 11.5226 19.5783 11.5226H9.44092C7.31426 11.5226 5.43629 12.6061 4.32894 14.2496C3.41122 14.4504 2.46813 15.3144 1.86329 16.5599C1.48095 17.3484 1.29057 18.1825 1.32564 18.9091C1.36823 19.7701 1.73634 20.4301 2.33893 20.7221C2.55549 20.8259 2.78997 20.8774 3.0349 20.8774C3.11556 20.8774 3.19766 20.87 3.28058 20.8588V34.2533C3.28058 34.6655 3.61438 35 4.02727 35H7.08731C7.50027 35 7.834 34.6654 7.834 34.2533V32.7868H10.1436C10.5558 32.7868 10.8903 32.4522 10.8903 32.0401V26.3231C10.8903 26.3224 10.891 26.3224 10.891 26.3224C11.5362 26.0872 12.1395 25.7534 12.6839 25.3308C12.7459 25.2822 12.7981 25.2262 12.8407 25.165H18.3702V34.2532C18.3702 34.6654 18.7047 34.9999 19.1169 34.9999H22.1769C22.5898 34.9999 22.9236 34.6654 22.9236 34.2532V32.7867H25.2332C25.6454 32.7867 25.9799 32.4522 25.9799 32.04V22.5209C27.3172 21.4195 28.1715 19.7513 28.1715 17.8868V9.54446C28.8622 9.35476 29.4961 8.98145 29.9957 8.46548H31.0493C32.4994 8.46548 33.6785 7.28566 33.6785 5.83631C33.6784 4.00913 32.1926 2.52238 30.3653 2.52238ZM3.28051 19.4803C3.1334 19.5378 3.00571 19.5512 2.92286 19.5117C2.7847 19.4445 2.68462 19.1824 2.66822 18.8434C2.64361 18.3453 2.7914 17.7271 3.07222 17.1468C3.16553 16.955 3.26787 16.7802 3.37389 16.6219C3.31339 16.9669 3.28051 19.4803 3.28051 19.4803ZM24.8672 2.16917C24.8904 2.28866 24.9203 2.40665 24.9561 2.52238H24.6537C24.7112 2.39769 24.7829 2.27895 24.8672 2.16917ZM6.34055 33.5065H4.77396V32.9569H6.34055V33.5065ZM9.39683 31.2933H7.834V30.743H9.3969L9.39683 31.2933ZM9.39683 29.3989H7.834V28.535C8.39851 28.3289 8.92194 28.0504 9.3969 27.7136L9.39683 29.3989ZM21.4301 33.5065H19.8635V32.9569H21.4301V33.5065ZM24.4865 31.2933H22.9236V30.743H24.4865V31.2933ZM24.4865 29.3989H22.9236V23.8374C23.4709 23.7687 23.9951 23.6283 24.4865 23.4222V29.3989ZM31.0493 6.97203H29.6478C29.4036 6.97504 29.1878 7.09596 29.0541 7.27965C28.6322 7.79186 28.0155 8.12122 27.3553 8.18315C27.1656 8.20031 26.9962 8.28918 26.8744 8.42207C26.7527 8.55496 26.678 8.73194 26.678 8.92608V17.8866C26.678 20.3702 24.6604 22.3908 22.1806 22.3916H22.1768C21.7646 22.3916 21.4301 22.7261 21.4301 23.1383L21.4264 31.6127H19.8635V24.4183C19.8635 24.0061 19.5289 23.6716 19.1168 23.6716H12.0746C12.2396 22.9204 12.2792 22.1311 12.1702 21.3321C12.1142 20.9229 11.737 20.6377 11.3294 20.693C10.9202 20.749 10.6341 21.1254 10.6902 21.5338C11.0434 24.1234 9.41105 26.5891 6.89317 27.2693V27.27C6.57509 27.3559 6.34062 27.6449 6.34062 27.9899V31.6129H4.77396V17.6837C4.77396 15.1097 6.86774 13.016 9.44092 13.016H19.5783C21.1965 13.016 22.5137 11.6995 22.5137 10.0806V5.13665C22.5137 4.92009 22.4211 4.72595 22.274 4.58929L22.2748 4.58854C21.6005 3.96278 21.4952 2.93158 21.9903 2.18263C22.1583 2.80915 22.5047 3.38562 23.0066 3.82989C23.1492 3.95608 23.3254 4.01808 23.5016 4.01808C23.5158 4.01808 30.3655 4.01583 30.3655 4.01583C31.369 4.01583 32.1852 4.83197 32.1852 5.83631C32.185 6.46207 31.6758 6.97203 31.0493 6.97203Z" fill="#333232" fill-opacity="0.7"/>
<path d="M26.2179 6.39331C26.6303 6.39331 26.9646 6.05901 26.9646 5.64662C26.9646 5.23424 26.6303 4.89993 26.2179 4.89993C25.8055 4.89993 25.4712 5.23424 25.4712 5.64662C25.4712 6.05901 25.8055 6.39331 26.2179 6.39331Z" fill="#333232" fill-opacity="0.7"/>
<path d="M9.44115 15.0322C7.97929 15.0322 6.79004 16.2215 6.79004 17.6833C6.79004 18.0956 7.12438 18.43 7.53673 18.43C7.94907 18.43 8.28342 18.0956 8.28342 17.6833C8.28342 17.0449 8.80274 16.5257 9.44115 16.5257C9.8535 16.5257 10.1878 16.1914 10.1878 15.779C10.1879 15.3666 9.8535 15.0322 9.44115 15.0322Z" fill="#333232" fill-opacity="0.7"/>
</g>
<defs>
<clipPath id="clip0_278_661">
<rect width="35" height="35" fill="white"/>
</clipPath>
</defs>
</svg>
