<svg width="35" height="35" viewBox="0 0 35 35" fill="none" xmlns="http://www.w3.org/2000/svg">
<path d="M19.1004 22.2946C23.2837 16.7348 28.6169 10.9187 26.3751 8.74737C24.1036 6.43387 15.9022 9.61144 10.9891 14.1107C5.87081 18.403 9.14812 23.1801 10.0914 24.1351C11.1637 25.1939 15.1611 27.9519 19.1004 22.2946Z" stroke="#333232" stroke-opacity="0.7" stroke-width="2" stroke-miterlimit="10" stroke-linecap="round"/>
<path d="M21.7293 12.0807C16.4198 16.2794 11.7486 21.3881 8.0946 27.0279" stroke="#333232" stroke-opacity="0.7" stroke-width="2" stroke-miterlimit="10" stroke-linecap="round"/>
<path d="M16.9772 12.9526C17.2178 13.8101 17.4615 14.6733 17.7109 15.5457C18.6064 15.8121 19.5015 16.0759 20.4006 16.3411" stroke="#333232" stroke-opacity="0.7" stroke-width="2" stroke-miterlimit="10" stroke-linecap="round"/>
<path d="M13.5607 15.1423C14.0975 16.0978 14.6422 17.0638 15.1969 18.0421C16.159 18.5924 17.1136 19.1336 18.0639 19.6674" stroke="#333232" stroke-opacity="0.7" stroke-width="2" stroke-miterlimit="10" stroke-linecap="round"/>
<path d="M11.2546 18.4446C11.6716 19.2867 12.1003 20.1421 12.5435 21.0118C13.3651 21.4301 14.1758 21.8356 14.9778 22.2311" stroke="#333232" stroke-opacity="0.7" stroke-width="2" stroke-miterlimit="10" stroke-linecap="round"/>
</svg>
