<svg width="36" height="35" viewBox="0 0 36 35" fill="none" xmlns="http://www.w3.org/2000/svg">
<path d="M17.2709 12.8165H16.8202V19.0525C16.8202 22.2923 18.3974 25.1752 20.834 26.9951C14.2201 26.3922 9.02394 20.8907 9.02394 14.2142V7.64811C9.02394 6.96233 9.16362 6.28687 9.43128 5.66214C9.65422 5.92669 9.90281 6.17182 10.1748 6.39344C9.69387 6.99959 9.43031 7.74012 9.42559 8.52113C9.41401 10.456 11.0678 12.039 13.03 12.039H13.3846C13.4013 12.0633 13.4195 12.0868 13.4411 12.1083L14.9764 13.6222C15.0679 13.7117 15.1877 13.7563 15.3076 13.7563C15.4281 13.7563 15.5487 13.7111 15.6403 13.6209L17.174 12.1084C17.1956 12.0871 17.2137 12.0636 17.2304 12.0391H17.5473C18.5166 12.0391 19.4578 11.6731 20.1368 10.9909C20.7912 10.3333 21.1513 9.4651 21.1513 8.54239C21.1513 7.76173 20.895 7.02358 20.422 6.41792C20.7022 6.19158 20.958 5.9405 21.1865 5.6687C21.4525 6.29193 21.5914 6.96507 21.5914 7.64818V12.2257C21.5914 12.4711 21.7931 12.6701 22.0419 12.6701H22.042C22.2908 12.6701 22.4925 12.4711 22.4925 12.2257V7.64818C22.4925 6.65929 22.2444 5.68804 21.7738 4.8222C22.2374 4.00244 22.4924 3.06974 22.4924 2.11251V1.79785C22.4924 1.55251 22.2064 1.41442 22.0099 1.56488L20.1918 2.95661C19.1207 2.11784 17.7956 1.6586 16.4188 1.6586H14.1963C12.8186 1.6586 11.4928 2.11825 10.4215 2.95777L8.60544 1.56474C8.40898 1.41401 8.12268 1.55203 8.12268 1.79751V2.10294C8.12268 3.0625 8.37848 3.9967 8.84384 4.81742C8.37169 5.68422 8.12275 6.65697 8.12275 7.64811V14.2142C8.12275 18.5293 10.1532 22.3848 13.3207 24.9028V27.2348C13.3207 27.8893 13.7575 28.4447 14.3587 28.6335V29.7919H11.96L10.5894 30.555C10.3727 30.6756 10.2962 30.9466 10.4185 31.1603C10.5409 31.374 10.8157 31.4494 11.0324 31.3288L12.1968 30.6806H15.2598V28.6329C15.4255 28.5809 15.5806 28.5013 15.7178 28.3972C15.8532 28.5 16.0063 28.5812 16.1727 28.6335V31.5089H13.774L12.4034 32.272C12.1867 32.3927 12.1102 32.6637 12.2326 32.8774C12.3549 33.0911 12.6297 33.1665 12.8464 33.0458L14.0109 32.3976H17.0739V28.6335C17.6301 28.4588 18.0456 27.9701 18.1044 27.3794C18.7518 27.568 19.4188 27.7112 20.1015 27.8054V28.2031C20.1015 30.1879 21.7331 31.7969 23.7459 31.7969H23.8238C24.4675 32.817 25.6142 33.4979 26.9197 33.4979H27.3703V29.0116V28.5672V22.7756C27.3703 17.2753 22.8486 12.8165 17.2709 12.8165ZM13.4938 11.1504H13.0178C11.5569 11.1504 10.3207 9.97199 10.3267 8.53138C10.3296 7.83897 10.6045 7.18833 11.1014 6.69826C11.1154 6.68452 11.1293 6.67119 11.1461 6.65526C11.2079 6.59716 11.2721 6.54233 11.3384 6.49086C10.8724 7.05318 10.6835 7.82981 10.9232 8.59298C11.0612 9.03246 11.3357 9.42293 11.7053 9.70368C12.1161 10.0157 12.6041 10.1778 13.1036 10.1778C13.2639 10.1778 13.4255 10.1611 13.5859 10.1273C13.685 10.1065 13.7809 10.0789 13.8739 10.0464L13.4938 11.1504ZM13.3978 9.25811C12.9204 9.3584 12.4281 9.20978 12.0774 8.83934C11.9986 8.75608 11.9318 8.66174 11.8795 8.56023C11.4442 7.71688 11.9498 6.76429 12.8186 6.5815C12.9158 6.56099 13.0128 6.55122 13.1085 6.55122C13.7491 6.55122 14.3265 6.9922 14.4654 7.63424C14.625 8.37211 14.1461 9.10061 13.3978 9.25811ZM15.3076 12.6921L14.5369 11.9321L15.3078 11.6009L16.0782 11.9322L15.3076 12.6921ZM15.3079 10.6314L14.5055 10.9763L15.3076 8.64554L16.1098 10.9763L15.3079 10.6314ZM16.15 8.22021C16.0527 7.77048 16.1861 7.30761 16.5252 6.96582C16.6474 6.84257 16.7947 6.74426 16.9558 6.67755C17.1396 6.60139 17.326 6.56605 17.5075 6.56605C18.1481 6.56605 18.7254 7.00697 18.8644 7.64907C19.024 8.38694 18.5451 9.11545 17.7968 9.27295C17.0482 9.43017 16.3097 8.95808 16.15 8.22021ZM19.4437 10.4172C18.9399 10.898 18.2556 11.1504 17.5546 11.1504H17.1214L16.7471 10.063C16.9875 10.147 17.2438 10.192 17.5066 10.192C17.6643 10.192 17.8245 10.1758 17.9848 10.1421C19.2191 9.8823 20.0089 8.68082 19.7456 7.46368C19.672 7.12393 19.524 6.8185 19.3222 6.5601C19.3655 6.59675 19.4082 6.63427 19.4494 6.67385C19.9657 7.16809 20.25 7.83173 20.25 8.54239C20.25 9.2536 19.9633 9.92127 19.4437 10.4172ZM21.4848 3.09189C21.2533 4.14757 20.6532 5.1074 19.7827 5.78368C19.4577 5.53342 19.0942 5.34324 18.7067 5.21855L21.4848 3.09189ZM14.1964 2.54727H16.4189C17.5168 2.54727 18.5763 2.8903 19.4555 3.52037L15.3013 6.70058L11.1571 3.52187C12.0369 2.89085 13.0972 2.54727 14.1964 2.54727ZM11.8921 5.21151C11.5068 5.33271 11.1444 5.51865 10.8193 5.76406C9.95882 5.09051 9.36514 4.14059 9.13298 3.09517L11.8921 5.21151ZM14.7775 27.8131C14.4618 27.796 14.2219 27.5235 14.2219 27.2117V25.5628C14.5183 25.762 14.8227 25.9505 15.1348 26.1272V27.2348C15.1348 27.3846 15.1579 27.5291 15.2003 27.6653C15.0866 27.7657 14.936 27.8217 14.7775 27.8131ZM17.2107 27.2348C17.2107 27.5672 16.9251 27.8352 16.5831 27.8126C16.2713 27.792 16.0359 27.5225 16.0359 27.2143V26.5947C16.4182 26.7757 16.8101 26.9398 17.2106 27.0864L17.2107 27.2348ZM23.2946 30.8718C21.9959 30.6592 21.0026 29.5434 21.0026 28.2032V27.9014C21.3457 27.9264 21.6923 27.9396 22.0419 27.9396H22.3645C22.6602 28.0875 22.9641 28.2214 23.2755 28.3406V29.9045C23.2755 30.0288 23.2821 30.1516 23.2945 30.2727V30.8718H23.2946ZM26.469 32.5728C25.2731 32.3771 24.3367 31.4154 24.1958 30.218V28.6434C24.9239 28.8447 25.685 28.9671 26.4691 29.0013L26.469 32.5728ZM26.4691 28.0149C23.5115 27.111 21.1609 24.7325 20.3246 21.7932C20.26 21.5664 20.024 21.4312 19.7912 21.484L19.7909 21.484C19.5383 21.5413 19.389 21.7954 19.4589 22.0414C19.9139 23.6415 20.7724 25.1082 21.9598 26.3067C22.3231 26.6734 22.7133 27.0091 23.1252 27.3141C19.941 25.8864 17.7214 22.7205 17.7214 19.0525V13.7159C18.1857 13.738 18.6411 13.7946 19.0851 13.8826V17.9965C19.0851 18.2419 19.2868 18.4408 19.5357 18.4408C19.7845 18.4408 19.9863 18.2419 19.9863 17.9965V14.109C23.7368 15.2541 26.4691 18.7059 26.4691 22.7756V28.0149H26.4691Z" fill="#333232" fill-opacity="0.7"/>
<path d="M19.0962 19.8168C19.1026 19.954 19.112 20.0911 19.124 20.2277C19.1465 20.4819 19.3773 20.6674 19.6337 20.6333C19.8706 20.6017 20.0435 20.3931 20.0225 20.1584C20.0109 20.0285 20.002 19.8979 19.996 19.7673C19.9851 19.5318 19.7852 19.3477 19.5462 19.3477C19.2874 19.3477 19.0841 19.562 19.0962 19.8168Z" fill="#333232" fill-opacity="0.7"/>
<path d="M16.9477 7.76979C17.1532 7.76979 17.3198 7.6055 17.3198 7.40284C17.3198 7.20018 17.1532 7.03589 16.9477 7.03589C16.7422 7.03589 16.5756 7.20018 16.5756 7.40284C16.5756 7.6055 16.7422 7.76979 16.9477 7.76979Z" fill="#333232" fill-opacity="0.7"/>
<path d="M13.6677 7.76979C13.8732 7.76979 14.0398 7.6055 14.0398 7.40284C14.0398 7.20018 13.8732 7.03589 13.6677 7.03589C13.4621 7.03589 13.2955 7.20018 13.2955 7.40284C13.2955 7.6055 13.4621 7.76979 13.6677 7.76979Z" fill="#333232" fill-opacity="0.7"/>
</svg>
