<svg width="35" height="35" viewBox="0 0 35 35" fill="none" xmlns="http://www.w3.org/2000/svg">
<path d="M29.2029 10.7793C28.9572 10.6693 28.7105 10.5657 28.4627 10.461C28.3666 10.5315 28.2566 10.5988 28.1242 10.6597C28.0665 10.6874 27.9831 10.7216 27.8796 10.7558C26.3052 11.3048 22.4621 11.0292 18.0913 10.0551C13.7206 9.08099 10.1231 7.69671 8.92795 6.52817C8.86171 6.46836 8.79445 6.39569 8.73566 6.3231C8.65985 6.23443 8.60215 6.14687 8.55191 6.0593C8.34683 6.05397 8.14285 6.0433 7.93879 6.04009C6.99352 6.02409 2.4252 6.25904 2.22333 7.16378C1.90075 8.6132 6.49901 10.0221 7.32677 10.3318C10.6304 11.5602 14.057 12.4745 17.4931 13.2403C20.9314 14.0072 24.4219 14.6353 27.935 14.9248C28.8162 14.9974 33.5768 15.6746 33.9005 14.2252C34.2241 12.7703 30.0649 11.1659 29.2029 10.7793Z" fill="#333232" fill-opacity="0.7"/>
<path d="M18.4534 8.43048C22.7504 9.38751 26.0776 9.54665 27.2419 9.21238C27.2548 8.97312 27.2611 8.73495 27.2537 8.49782C27.2505 8.33225 27.2398 8.1699 27.2227 8.00754C26.9044 4.30007 24.2245 1.06476 20.3985 0.21136C16.5746 -0.639919 12.7721 1.14918 10.9094 4.37062C10.8271 4.51164 10.7481 4.65369 10.6743 4.80108C10.5526 5.04143 10.4447 5.29026 10.3432 5.5466C11.4562 6.35618 14.4181 7.53115 18.4534 8.43048ZM24.2886 5.24856C24.9145 5.31049 25.361 5.96312 25.2872 6.70331C25.2135 7.44351 24.6464 7.99572 24.0215 7.93166C23.3956 7.86973 22.9481 7.21813 23.0217 6.47691C23.0955 5.73671 23.6626 5.18662 24.2886 5.24856ZM19.4243 4.58103C20.1517 4.74338 20.6089 5.46327 20.4476 6.18959C20.2853 6.917 19.5654 7.37412 18.8379 7.21286C18.1116 7.05051 17.6534 6.33062 17.8158 5.60321C17.9771 4.87689 18.698 4.41867 19.4243 4.58103ZM13.2154 4.01276C13.4632 3.30995 14.1447 2.91046 14.7375 3.11978C15.3303 3.32909 15.6102 4.06826 15.3624 4.76895C15.1145 5.47175 14.4331 5.87124 13.8392 5.66193C13.2464 5.45261 12.9676 4.71344 13.2154 4.01276Z" fill="#333232" fill-opacity="0.7"/>
<path d="M1.88804 29.9883C1.7855 29.9659 1.68508 29.9264 1.59109 29.8708C1.09972 29.5814 0.935249 28.9512 1.22366 28.4609L9.72695 13.9943C10.0143 13.5041 10.6466 13.3385 11.1369 13.628C11.6271 13.9164 11.7916 14.5466 11.5032 15.0379L3.001 29.5044C2.76817 29.9007 2.31317 30.0833 1.88804 29.9883Z" fill="#333232" fill-opacity="0.7"/>
<path d="M24.263 34.9753C23.8378 34.8813 23.5036 34.5224 23.4608 34.0663L21.9078 17.3578C21.8554 16.7906 22.271 16.2897 22.8381 16.2373C23.4031 16.185 23.9062 16.6005 23.9596 17.1666L25.5126 33.8751C25.565 34.4412 25.1484 34.9444 24.5823 34.9956C24.4723 35.0052 24.3644 34.9988 24.263 34.9753Z" fill="#333232" fill-opacity="0.7"/>
<path d="M11.6592 29.0376C11.5364 29.592 10.9853 29.9423 10.4298 29.8184C9.87442 29.6956 9.52408 29.1445 9.64795 28.5891C9.77182 28.0336 10.323 27.6833 10.8784 27.8072C11.4338 27.931 11.7831 28.4822 11.6592 29.0376Z" fill="#333232" fill-opacity="0.7"/>
<path d="M18.5902 26.3599C18.4662 26.9153 17.9162 27.2645 17.3608 27.1407C16.8054 27.0168 16.455 26.4667 16.5779 25.9102C16.7028 25.3559 17.2529 25.0065 17.8084 25.1305C18.3638 25.2533 18.713 25.8034 18.5902 26.3599Z" fill="#333232" fill-opacity="0.7"/>
<path d="M15.6881 20.4351C15.5642 20.9905 15.0141 21.3397 14.4587 21.2159C13.9033 21.093 13.553 20.5419 13.6768 19.9854C13.8008 19.4321 14.3519 19.0807 14.9062 19.2046C15.4617 19.3296 15.812 19.8797 15.6881 20.4351Z" fill="#333232" fill-opacity="0.7"/>
</svg>
