<svg width="36" height="35" viewBox="0 0 36 35" fill="none" xmlns="http://www.w3.org/2000/svg">
<g clip-path="url(#clip0_278_292)">
<path d="M12.8704 25.2064C12.5476 26.7712 12.3381 27.5277 11.1132 27.6246C10.8114 27.6485 10.5656 27.8731 10.5185 28.1681C10.4714 28.4629 10.6353 28.7513 10.915 28.8655C10.9938 28.8976 12.8671 29.6524 15.0558 29.6525C15.0562 29.6525 15.0564 29.6525 15.0566 29.6525C16.5818 29.6525 17.8902 29.2879 18.9453 28.569C20.1956 27.717 21.0576 26.3837 21.5159 24.6077L17.304 20.4211C13.7445 20.9892 13.2402 23.4133 12.8704 25.2064Z" fill="#333232" fill-opacity="0.7"/>
<path d="M35.2424 6.81997C35.1291 6.70733 34.9271 6.57306 34.6084 6.57306C34.2346 6.57306 33.2417 6.57306 27.2115 11.6331C24.426 13.9704 21.2144 16.8619 18.6599 19.3225L22.6568 23.2952C25.2842 20.6022 28.3491 17.2269 30.7865 14.33C32.3257 12.501 33.5093 10.9918 34.3044 9.84446C35.3575 8.32478 35.8187 7.39271 35.2424 6.81997Z" fill="#333232" fill-opacity="0.7"/>
<path d="M19.9386 29.9864C18.586 30.9081 16.9435 31.3753 15.0558 31.3753C12.5713 31.3752 10.4784 30.5517 10.2462 30.4571C9.21699 30.0365 8.61936 28.9848 8.79276 27.8999C8.96256 26.837 9.82608 26.0292 10.9047 25.9136C10.9987 25.6368 11.1027 25.1325 11.1584 24.8629C11.3634 23.869 11.6442 22.5076 12.5078 21.2959C13.4509 19.9729 14.8726 19.1246 16.7393 18.7691C17.8106 17.7206 19.0329 16.5678 20.3084 15.3979C19.6636 15.26 19.0871 14.8458 18.7778 14.2195C18.2455 13.1405 18.7098 11.8427 19.8134 11.3234C20.9199 10.8029 22.2471 11.2575 22.7786 12.3381C22.8836 12.5511 22.9484 12.7724 22.9787 12.9945C24.0366 12.0602 25.0872 11.1533 26.079 10.321C26.0849 10.3161 26.0904 10.3113 26.0964 10.3064C24.9817 8.20278 23.383 6.33896 21.4352 4.91189C18.6383 2.86265 15.3078 1.77886 11.8042 1.778C11.8031 1.778 11.8023 1.778 11.8014 1.778C9.43691 1.778 6.56266 2.5927 4.30002 3.90455C1.52666 5.51242 -0.000545832 7.66277 1.4634e-07 9.95924C0.000873712 12.7318 1.58661 13.8915 2.86082 14.8232C3.89981 15.5831 4.72042 16.1832 4.72086 17.4984C4.72118 18.8135 3.90101 19.413 2.86256 20.1722C1.5888 21.1034 0.00338521 22.2624 0.00425878 25.0353C0.00491395 27.3314 1.53311 29.4823 4.30722 31.0916C6.5715 32.405 9.44728 33.2215 11.8122 33.2221C11.8139 33.2221 11.8153 33.2221 11.8168 33.2221C16.1088 33.2221 20.1434 31.5885 23.178 28.6221C25.4533 26.398 26.9623 23.624 27.5756 20.6062C26.0521 22.2721 24.5185 23.8897 23.1463 25.2711C22.5643 27.3467 21.4868 28.9314 19.9386 29.9864ZM12.1266 8.30238C12.3994 7.1318 13.5898 6.40109 14.786 6.66921C15.9805 6.93604 16.7289 8.09941 16.4581 9.26837C16.1852 10.436 14.9941 11.1669 13.7979 10.9001C12.6024 10.6348 11.8536 9.47005 12.1266 8.30238ZM4.9197 12.2918C4.15479 11.3533 4.31203 9.98734 5.27087 9.24027C6.22961 8.49459 7.62633 8.64749 8.39267 9.5843C9.15595 10.5214 8.99816 11.8873 8.04008 12.6359C7.08341 13.3832 5.68451 13.2287 4.9197 12.2918ZM6.08722 26.6148C5.12783 25.8671 4.97004 24.5012 5.73496 23.563C6.49932 22.6266 7.89659 22.4731 8.85588 23.2206C9.81439 23.9682 9.97229 25.3342 9.20803 26.2708C8.44377 27.209 7.04639 27.3624 6.08722 26.6148Z" fill="#333232" fill-opacity="0.7"/>
</g>
<defs>
<clipPath id="clip0_278_292">
<rect width="35.493" height="35" fill="white"/>
</clipPath>
</defs>
</svg>
