<svg width="35" height="35" viewBox="0 0 35 35" fill="none" xmlns="http://www.w3.org/2000/svg">
<path d="M23.9873 24.9102C23.7686 24.8896 23.5498 24.876 23.3242 24.876C22.292 24.876 21.3076 25.1084 20.4326 25.5186C19.332 24.2197 17.9102 23.2012 16.2764 22.5996C16.0029 22.4971 15.7158 22.4082 15.4287 22.333C14.6016 22.1074 13.7402 21.9912 12.8447 21.9912C11.6826 21.9912 10.5752 22.1895 9.54297 22.5586C5.75586 23.8984 3.02148 27.4736 2.93262 31.7051H30.1465C30.1465 28.1572 27.4463 25.2451 23.9873 24.9102ZM10.5137 25.3135C8.58594 25.9971 7.05469 27.4941 6.30957 29.4219C6.23438 29.6133 6.05664 29.7295 5.86523 29.7295C5.81055 29.7295 5.74902 29.7227 5.69434 29.6953C5.44824 29.5996 5.3252 29.3262 5.4209 29.0801C6.26172 26.8857 8.00488 25.1904 10.1992 24.4111C10.4521 24.3223 10.7188 24.4521 10.8076 24.7051C10.8965 24.958 10.7666 25.2246 10.5137 25.3135Z" fill="#333232" fill-opacity="0.7"/>
<path d="M22.0732 16.126C23.1191 16.126 23.9326 16.5225 24.2881 16.7275C24.5547 15.3125 24.8897 14.0068 25.1973 12.9268L23.1191 12.0859L23.1055 12.0312C19.6533 14.8477 17.6914 18.5596 16.5771 21.6904C16.584 21.6904 16.5977 21.6973 16.6045 21.7041C18.1426 22.2715 19.5439 23.1875 20.6855 24.377C21.5264 24.0693 22.4082 23.9189 23.3174 23.9189C23.4883 23.9189 23.666 23.9258 23.8369 23.9395C23.7617 23.2354 23.7275 22.5107 23.7344 21.7793C23.6865 21.793 23.6387 21.7998 23.5977 21.7998C23.5225 21.7998 23.4473 21.7793 23.3721 21.7451C23.3516 21.7314 21.9023 20.9727 20.5352 20.9727C20.2686 20.9727 20.0566 20.7607 20.0566 20.4941C20.0566 20.2275 20.2686 20.0156 20.5352 20.0156C21.998 20.0156 23.4473 20.7129 23.7617 20.8701C23.8164 19.7969 23.9395 18.7305 24.1035 17.7051C24.0352 17.6914 23.9668 17.6641 23.9053 17.623C23.8916 17.6094 23.1191 17.083 22.0596 17.083C21.793 17.083 21.5811 16.8711 21.5811 16.6045C21.5947 16.3379 21.8135 16.126 22.0732 16.126Z" fill="#333232" fill-opacity="0.7"/>
<path d="M28.2598 6.52149C28.2598 6.52149 26.7012 2.61133 21.7793 3.4043C21.7793 3.4043 23.8643 4.60059 23.6523 6.30958C23.6523 6.30958 20.3369 4.48438 16.9053 8.37403C16.9053 8.37403 23.2148 8.03907 23.9463 11.3887L25.4707 12.0039C25.4707 12.0039 29.6885 12.5371 29.832 16.0234C29.832 16.0234 31.7393 13.8975 30.9121 11.2725C30.9121 11.2725 32.6074 11.1631 33.1064 12.6397C33.1133 12.6465 34.5762 6.30958 28.2598 6.52149Z" fill="#333232" fill-opacity="0.7"/>
<path d="M11.751 15.9688C11.2861 15.4492 10.7734 14.9502 10.2061 14.4785L10.1924 14.5264L8.3877 15.2578C8.85938 16.9326 9.38574 19.2432 9.50879 21.5537C10.582 21.2119 11.7031 21.0342 12.8379 21.0342C13.5693 21.0342 14.3008 21.1094 15.0117 21.2529C14.875 20.9111 14.7178 20.5693 14.5537 20.2207C14.4785 20.2549 14.3965 20.2754 14.3076 20.2686C14.2871 20.2686 12.4756 20.1455 11.6348 20.2617C11.6143 20.2617 11.5938 20.2686 11.5664 20.2686C11.334 20.2686 11.1289 20.0977 11.0947 19.8584C11.0605 19.5986 11.2383 19.3525 11.5049 19.3184C12.2295 19.2158 13.5078 19.2705 14.0752 19.2979C13.6104 18.4365 13.0498 17.5752 12.3936 16.748C12.3389 16.7959 12.2705 16.8301 12.2021 16.8437C11.6621 16.9736 11.0879 17.165 10.9648 17.2607C10.8691 17.3496 10.7529 17.3975 10.6299 17.3975C10.5068 17.3975 10.3838 17.3496 10.2949 17.2539C10.1104 17.0693 10.1104 16.7617 10.2949 16.5771C10.5684 16.3174 11.252 16.0986 11.751 15.9688Z" fill="#333232" fill-opacity="0.7"/>
<path d="M3.66405 13.7403C2.9873 15.8936 4.55273 17.6367 4.55273 17.6367C4.66894 14.7725 8.12792 14.3418 8.12792 14.3418L9.3789 13.836C9.97362 11.0879 15.1484 11.3613 15.1484 11.3613C12.332 8.1758 9.61816 9.66603 9.61816 9.66603C9.44042 8.2715 11.1562 7.28713 11.1562 7.28713C7.12304 6.63771 5.84472 9.84377 5.84472 9.84377C0.669915 9.66603 1.87304 14.8613 1.87304 14.8613C2.27636 13.6514 3.66405 13.7403 3.66405 13.7403Z" fill="#333232" fill-opacity="0.7"/>
</svg>
