<svg width="35" height="35" viewBox="0 0 35 35" fill="none" xmlns="http://www.w3.org/2000/svg">
<path d="M4.87775 32.3174C4.53053 32.0406 4.18591 31.3934 4.24928 31.1374C4.27838 31.0199 4.63091 30.4274 5.03248 29.8214C5.46253 29.1726 6.11882 27.9849 6.62938 26.9316C8.00472 24.0939 9.65283 20.5974 9.81888 20.1651C10.2275 19.1009 10.7108 17.5231 11.3031 15.3191C12.4261 11.1401 12.9611 9.71688 13.8596 8.51763C14.6366 7.48038 15.7051 6.77263 16.4939 6.77263C16.9267 6.77263 17.9803 7.09638 18.6244 7.42738C19.4576 7.85563 20.2931 8.47688 21.3734 9.47138C21.8929 9.94963 22.7906 10.7409 23.3684 11.2296C26.0362 13.4869 26.6469 14.7876 25.8468 16.5086C25.224 17.8481 23.9816 19.0454 20.3779 21.7786C18.1889 23.4389 17.2135 24.2204 13.6431 27.1741C9.33206 30.7406 6.58911 32.5001 5.34001 32.5001C5.21179 32.5001 5.00373 32.4174 4.87775 32.3174ZM12.4158 18.6634C14.329 14.8591 14.6671 14.2331 15.4476 13.0496C16.1124 12.0416 17.2152 10.8439 17.6623 10.6444C17.8176 10.5744 17.9447 10.4894 17.9447 10.4544C17.9447 10.4194 17.7844 10.3069 17.5888 10.2044C17.3931 10.1044 16.9099 9.70563 16.5151 9.32138C16.1202 8.93713 15.772 8.62263 15.7412 8.62263C15.7104 8.62263 15.6852 8.84263 15.6852 9.11088C15.6852 10.6286 15.2273 11.7754 11.8219 18.7854C11.0706 20.3319 10.481 21.6496 10.5082 21.7214C10.6446 22.0819 10.9123 21.6541 12.4158 18.6634ZM24.7438 12.1144C24.6361 12.0569 23.8646 11.3814 23.0296 10.6151C20.9394 8.69738 20.2987 8.17038 19.3099 7.55413C18.3619 6.96338 18.3438 6.90188 19.0401 6.63213C19.3637 6.50713 19.5638 6.49463 20.2716 6.55463C20.7363 6.59463 21.2801 6.62213 21.48 6.61713C22.1691 6.59213 23.1252 5.96038 24.6361 4.52363C26.3583 2.88613 27.0853 2.50138 28.4597 2.49988C29.1265 2.49913 29.2449 2.52488 29.6764 2.77288C30.0618 2.99288 30.1693 3.10638 30.2316 3.35438C30.3611 3.86938 30.2267 4.29963 29.7999 4.73188L29.417 5.12013L29.0642 4.79688C28.4862 4.26738 28.1173 4.21738 27.4169 4.57438C26.988 4.79188 25.6915 5.98213 25.1633 6.64213C24.7373 7.17438 24.205 8.11113 24.2027 8.33238C24.2021 8.38988 24.4322 8.91263 24.714 9.49338C25.2693 10.6374 25.4118 11.2374 25.2477 11.7414C25.1133 12.1539 24.9874 12.2466 24.7438 12.1144ZM22.5252 7.71113C23.4523 6.70613 23.6041 6.39763 22.8981 6.95338C22.506 7.26213 22.0442 7.38813 21.3049 7.38888C20.8828 7.38913 20.7211 7.41888 20.7457 7.49388C20.7948 7.64388 21.696 8.26438 21.867 8.26713C21.9452 8.26838 22.2414 8.01813 22.5252 7.71113ZM29.5764 4.27563C29.988 3.83138 29.981 3.24838 29.564 3.24838C29.1398 3.24838 28.91 3.87513 29.176 4.30663C29.3128 4.52913 29.344 4.52563 29.5764 4.27563Z" fill="#333232" fill-opacity="0.7"/>
</svg>
