<svg width="35" height="35" viewBox="0 0 35 35" fill="none" xmlns="http://www.w3.org/2000/svg">
<path d="M27.2927 6.90052C27.1713 6.90051 27.0508 6.87867 26.9372 6.83605C20.8517 4.56246 14.1506 4.55919 8.06294 6.82684C7.80889 6.92113 7.52779 6.91064 7.28147 6.79767C7.03516 6.68471 6.84381 6.47852 6.74952 6.22447C6.65523 5.97042 6.66572 5.68932 6.77868 5.44301C6.89165 5.19669 7.09784 5.00534 7.35189 4.91105C13.8985 2.47385 21.1042 2.47777 27.6482 4.9221C27.8734 5.00487 28.0623 5.16436 28.1816 5.37255C28.3009 5.58074 28.3431 5.82433 28.3006 6.0605C28.2582 6.29668 28.1339 6.51035 27.9496 6.66398C27.7652 6.8176 27.5326 6.90136 27.2927 6.90052ZM26.4711 8.59895C26.4711 8.59895 25.8982 8.37789 25.1872 8.15131C20.2762 6.59236 15.0078 6.56024 10.0782 8.05921C9.2861 8.30237 8.53083 8.59342 8.53083 8.59342C8.42436 8.63419 8.32714 8.6959 8.24493 8.77489C8.16271 8.85389 8.09717 8.94856 8.05217 9.05332C8.00718 9.15808 7.98364 9.2708 7.98296 9.38481C7.98228 9.49882 8.00446 9.61181 8.0482 9.7171L17.1537 31.7303C17.3379 32.1742 17.6382 32.1742 17.8224 31.7303L26.9519 9.72632C26.9955 9.62122 27.0176 9.50849 27.0171 9.39472C27.0165 9.28096 26.9932 9.16845 26.9486 9.06379C26.904 8.95913 26.839 8.86444 26.7573 8.78525C26.6756 8.70606 26.5789 8.64397 26.4729 8.60263L26.4711 8.59895ZM10.7764 11.7379C10.7764 11.2187 10.9303 10.7112 11.2188 10.2795C11.5072 9.84784 11.9172 9.51139 12.3968 9.31271C12.8765 9.11403 13.4043 9.06205 13.9135 9.16333C14.4227 9.26462 14.8904 9.51463 15.2575 9.88174C15.6246 10.2489 15.8746 10.7166 15.9759 11.2258C16.0772 11.735 16.0252 12.2628 15.8265 12.7424C15.6279 13.2221 15.2914 13.6321 14.8597 13.9205C14.4281 14.2089 13.9205 14.3629 13.4014 14.3629C12.7052 14.3629 12.0375 14.0863 11.5452 13.5941C11.0529 13.1018 10.7764 12.4341 10.7764 11.7379ZM17.5222 24.5792C17.003 24.5792 16.4955 24.4253 16.0638 24.1368C15.6321 23.8484 15.2956 23.4384 15.097 22.9588C14.8983 22.4791 14.8463 21.9513 14.9476 21.4421C15.0489 20.9329 15.2989 20.4652 15.666 20.0981C16.0331 19.7309 16.5008 19.4809 17.01 19.3796C17.5192 19.2784 18.047 19.3303 18.5267 19.529C19.0064 19.7277 19.4163 20.0642 19.7048 20.4958C19.9932 20.9275 20.1472 21.435 20.1472 21.9542C20.1472 22.6504 19.8706 23.3181 19.3783 23.8104C18.886 24.3026 18.2183 24.5792 17.5222 24.5792ZM20.5764 17.2937C20.0572 17.2937 19.5497 17.1397 19.118 16.8513C18.6863 16.5629 18.3499 16.1529 18.1512 15.6732C17.9525 15.1936 17.9005 14.6658 18.0018 14.1566C18.1031 13.6474 18.3531 13.1796 18.7202 12.8125C19.0873 12.4454 19.555 12.1954 20.0642 12.0941C20.5735 11.9928 21.1012 12.0448 21.5809 12.2435C22.0606 12.4422 22.4705 12.7786 22.759 13.2103C23.0474 13.642 23.2014 14.1495 23.2014 14.6687C23.2014 15.3649 22.9248 16.0326 22.4325 16.5248C21.9402 17.0171 21.2726 17.2937 20.5764 17.2937Z" fill="#333232" fill-opacity="0.7"/>
</svg>
