<svg width="35" height="35" viewBox="0 0 35 35" fill="none" xmlns="http://www.w3.org/2000/svg">
<path d="M10.9946 17.8418L6.98367 16.0781L5.70288 17.377L8.93182 20.6514C9.10708 20.1387 9.38346 19.667 9.74074 19.2637L10.9946 17.8418Z" fill="#333232" fill-opacity="0.7"/>
<path d="M15.5177 25.1289C15.12 25.4912 14.6549 25.7715 14.1493 25.9492L17.3782 29.2236L18.659 27.9248L16.9198 23.8574L15.5177 25.1289Z" fill="#333232" fill-opacity="0.7"/>
<path d="M19.6702 8.00488C20.014 7.61523 20.378 7.23926 20.742 6.89062L17.6142 5.10644L15.6391 3.97852L12.0866 1.95508L10.0104 4.06055L16.9469 11.0947L19.6702 8.00488Z" fill="#333232" fill-opacity="0.7"/>
<path d="M29.4783 17.1309L27.7189 13.9658C27.5976 14.0957 27.4695 14.2324 27.3347 14.3691C27.1122 14.5947 26.8696 14.8271 26.6201 15.0527L23.58 17.8076L30.5164 24.8486L32.5859 22.7432L30.5906 19.1406L29.4783 17.1309Z" fill="#333232" fill-opacity="0.7"/>
<path d="M26.6674 13.6924C26.8629 13.4941 27.0516 13.2959 27.2336 13.0908C29.1616 10.9375 30.5165 8.29883 31.1569 5.44141C31.2917 4.83301 31.0962 4.25879 30.7052 3.86914C30.3143 3.4795 29.7548 3.27442 29.1548 3.41114C26.3371 4.06055 23.7418 5.43457 21.6116 7.38965C21.1802 7.78614 20.769 8.20313 20.378 8.64746L17.621 11.7715L11.9046 18.252L10.4418 19.9131C10.0508 20.3574 9.80143 20.8906 9.69357 21.4375C9.50483 22.4424 9.79469 23.5225 10.5564 24.2949C11.3182 25.0674 12.3832 25.3682 13.3742 25.1768C13.9202 25.0742 14.4392 24.8213 14.8774 24.418L16.5155 22.9346L22.9059 17.1377L25.9866 14.3486C26.2225 14.1299 26.4449 13.9111 26.6674 13.6924ZM25.5686 7.63575C25.3125 7.63575 25.0967 7.42383 25.0967 7.16407C25.0967 6.89746 25.3057 6.68555 25.5619 6.67871C26.2157 6.67188 26.8292 6.92481 27.2876 7.39649C27.7055 7.82032 27.9549 8.38086 27.9886 8.97559C28.0021 9.24219 27.8066 9.46778 27.5437 9.48145C27.537 9.48145 27.5235 9.48145 27.5168 9.48145C27.2673 9.48145 27.0584 9.28321 27.0449 9.03028C27.0247 8.66797 26.8696 8.32618 26.6135 8.06641C26.3438 7.78614 25.9663 7.62891 25.5686 7.63575Z" fill="#333232" fill-opacity="0.7"/>
<path d="M32.8016 15.333C32.3702 14.9023 31.6826 14.9023 31.2512 15.333L30.1726 16.4268L30.3007 16.6592L31.2849 18.4365L32.8016 16.9053C33.0173 16.6865 33.1252 16.4063 33.1252 16.1191C33.1184 15.832 33.0106 15.5518 32.8016 15.333Z" fill="#333232" fill-opacity="0.7"/>
<path d="M24.8271 21.8408C24.3957 22.2783 24.3957 22.9756 24.8271 23.4131C25.2585 23.8506 25.9461 23.8506 26.3775 23.4131L27.0719 22.709L25.5214 21.1367L24.8271 21.8408Z" fill="#333232" fill-opacity="0.7"/>
<path d="M19.3938 3.30859C19.6095 3.08984 19.7174 2.80957 19.7174 2.52246C19.7174 2.23535 19.6095 1.95508 19.3938 1.73633C18.9691 1.29883 18.2748 1.29883 17.8434 1.73633L16.3267 3.27441L18.3085 4.40918L19.3938 3.30859Z" fill="#333232" fill-opacity="0.7"/>
<path d="M11.426 9.82324C11.8574 10.2539 12.5517 10.2539 12.9764 9.82324L13.6775 9.11914L12.127 7.54688L11.426 8.25098C10.9946 8.68164 10.9946 9.38574 11.426 9.82324Z" fill="#333232" fill-opacity="0.7"/>
<path d="M3.94346 19.1611C3.76145 18.9766 3.45811 18.9766 3.2761 19.1611L1.53018 20.9316C1.34818 21.1162 1.34818 21.4238 1.53018 21.6084C1.62456 21.7041 1.74589 21.752 1.86049 21.752C1.97509 21.752 2.10317 21.7041 2.1908 21.6084L3.93672 19.8379C4.12546 19.6465 4.12546 19.3457 3.94346 19.1611Z" fill="#333232" fill-opacity="0.7"/>
<path d="M5.91853 21.8408L4.17935 23.6113C3.99734 23.7959 3.99734 24.1035 4.17935 24.2881C4.27373 24.3838 4.39506 24.4316 4.50966 24.4316C4.62426 24.4316 4.75234 24.3838 4.83997 24.2881L6.58589 22.5176C6.76789 22.333 6.76789 22.0254 6.58589 21.8408C6.40388 21.6563 6.10728 21.6563 5.91853 21.8408Z" fill="#333232" fill-opacity="0.7"/>
<path d="M12.9764 28.3213C12.7944 28.1367 12.4911 28.1367 12.3091 28.3213L10.5631 30.0918C10.3811 30.2764 10.3811 30.584 10.5631 30.7686C10.6575 30.8643 10.7789 30.9121 10.8935 30.9121C11.0148 30.9121 11.1361 30.8643 11.2238 30.7686L12.9697 28.998C13.1584 28.8066 13.1584 28.5059 12.9764 28.3213Z" fill="#333232" fill-opacity="0.7"/>
<path d="M14.9515 31.001L13.2123 32.7715C13.0303 32.9561 13.0303 33.2637 13.2123 33.4482C13.3067 33.5439 13.428 33.5918 13.5426 33.5918C13.6572 33.5918 13.7853 33.5439 13.8729 33.4482L15.6188 31.6777C15.8009 31.4932 15.8009 31.1855 15.6188 31.001C15.4368 30.8164 15.1402 30.8164 14.9515 31.001Z" fill="#333232" fill-opacity="0.7"/>
</svg>
