<svg width="36" height="35" viewBox="0 0 36 35" fill="none" xmlns="http://www.w3.org/2000/svg">
<path d="M16.0287 32.4754C15.6032 32.3954 15.1374 32.1659 14.77 31.8526L14.5487 31.6626L14.2451 31.7401C13.6826 31.8826 13.1062 31.8326 12.5984 31.5976C12.3034 31.4626 11.8538 31.0239 11.7214 30.7439C11.6507 30.5939 11.6099 30.5464 11.5663 30.5664C10.4949 31.0311 9.56286 31.1179 8.7121 30.8326C8.27443 30.6851 8.0477 30.5461 7.70655 30.2136C7.17185 29.6924 6.95387 29.1231 6.99812 28.3639C7.04096 27.6311 7.30749 27.0626 7.87658 26.4909L8.23867 26.1271V25.8466C8.23867 25.3416 8.39582 24.7986 8.67497 24.3389C8.9454 23.8936 9.62166 23.2766 10.128 23.0131C10.2299 22.9606 10.3133 22.8956 10.3133 22.8681C10.3133 22.8406 10.127 22.0511 9.89952 21.1114C9.6719 20.1714 9.39131 19.0114 9.27588 18.5336C9.16055 18.0559 8.92294 17.0741 8.74805 16.3521C7.99262 13.2336 8.03406 13.4561 8.14179 13.0984C8.17474 12.9884 8.26371 12.8196 8.33975 12.7214L8.47789 12.5439L8.31593 12.3714C8.11619 12.1564 7.93759 11.7899 7.8818 11.4776C7.82528 11.1606 7.89194 10.7849 8.06887 10.4204C8.31676 9.90988 8.9894 9.34588 9.59801 9.13813L9.74452 9.08813L9.73438 8.80213C9.70523 8.05513 10.0321 7.28113 10.5812 6.79688C10.7849 6.61688 11.3435 6.30388 11.5575 6.24888C11.6407 6.22388 11.6455 6.20638 11.6455 5.87363C11.6455 4.53863 12.396 3.41913 13.6917 2.82163C14.1926 2.59163 14.5978 2.49988 15.1294 2.49963C15.6036 2.49938 15.8813 2.55213 16.3142 2.72713C16.7777 2.91213 17.3969 3.40563 17.7141 3.84138L17.8378 4.01138L18.0788 3.91388C19.3366 3.40638 20.6707 3.54563 21.4606 4.26688C21.5881 4.38438 21.7403 4.54663 21.7986 4.62963L21.9048 4.77963L22.3241 4.77988C22.9702 4.78013 23.4862 4.94488 23.9732 5.30263C24.1729 5.45013 24.1922 5.45513 24.3059 5.41013C24.8665 5.18513 25.3946 5.12563 25.8946 5.23013C26.7286 5.40513 27.5114 6.02513 27.8973 6.81688C28.2044 7.44713 28.243 8.09988 28.0106 8.73113L27.8887 9.06213L28.0269 9.28963C28.5031 10.0696 28.5195 11.0724 28.0727 12.0916L27.9412 12.3916L28.1087 12.5541C28.201 12.6441 28.3255 12.8226 28.3856 12.9526C28.4783 13.1526 28.4945 13.2384 28.4935 13.5169C28.4924 13.8051 28.4147 14.1649 27.856 16.4704C27.5061 17.9144 26.8079 20.8159 26.3044 22.9181C25.801 25.0204 25.3522 26.8709 25.3072 27.0301C25.2106 27.3714 25.0192 27.6666 24.7884 27.8299C24.6971 27.8949 23.3494 28.5751 21.7935 29.3424L18.9645 30.7374L18.873 30.9399C18.5918 31.5609 17.9133 32.1594 17.2152 32.4019C16.9607 32.4894 16.3201 32.5279 16.0287 32.4754ZM16.8731 31.4059C17.2614 31.2784 17.6995 30.9026 17.8937 30.5324C18.0964 30.1456 17.9302 29.3529 17.5619 28.9509C17.3832 28.7559 17.2 28.6659 16.909 28.6304C16.7085 28.6054 16.6528 28.5804 16.5241 28.4529C16.3806 28.3104 16.3745 28.2954 16.3907 28.1011C16.4009 27.9886 16.4485 27.7934 16.4982 27.6659C16.61 27.3799 16.6475 26.8444 16.5775 26.5314C16.4163 25.8071 15.8388 25.2799 15.093 25.1759C14.7577 25.1284 14.5922 25.1509 14.3405 25.2759C13.9306 25.4784 13.379 26.2196 13.174 26.8439C13.1481 26.9214 13.0657 27.0389 12.991 27.1044C12.8787 27.2019 12.8214 27.2219 12.662 27.2219C12.5023 27.2219 12.4453 27.1969 12.3316 27.1019C12.1328 26.9294 12.0976 26.7646 12.197 26.4719C12.3125 26.1314 12.6381 25.5339 12.8831 25.2124L13.095 24.9346L12.9508 24.7621C12.4287 24.1339 11.534 23.8116 10.7841 23.9821C9.94849 24.1721 9.29496 24.9989 9.29572 25.8651C9.29603 26.2181 9.35681 26.4039 9.5279 26.5724L9.6734 26.7149L9.47467 26.7599C8.62529 26.9549 8.00342 27.7684 8.051 28.6231C8.0842 29.2219 8.42674 29.6411 9.05546 29.8531C9.26609 29.9231 9.4002 29.9406 9.76533 29.9406C10.2883 29.9406 10.6077 29.8606 11.1042 29.6074C11.3572 29.4774 11.4185 29.4274 11.4851 29.2916C11.5837 29.0916 11.7393 28.9966 11.9739 28.9966C12.3013 28.9966 12.5019 29.2676 12.5046 29.7136C12.5069 30.1051 12.7395 30.4981 13.0675 30.6646C13.2627 30.7646 13.7392 30.8021 13.9796 30.7371C14.069 30.7121 14.2474 30.6246 14.3759 30.5396C14.5666 30.4146 14.644 30.3846 14.7953 30.3846C14.9587 30.3846 14.9991 30.4096 15.1329 30.5346C15.2297 30.6296 15.2849 30.7196 15.2849 30.7821C15.2849 31.0731 15.9548 31.4611 16.4621 31.4641C16.582 31.4649 16.767 31.4366 16.8731 31.4016L16.8731 31.4059ZM20.4233 28.2966C20.4786 27.8736 21.4423 16.2561 21.4237 16.2379C21.4085 16.2129 20.0702 16.8361 19.1309 17.2914L19.0037 17.3539V23.2539V29.1541L19.7026 28.8091L20.4015 28.4641L20.4233 28.2966ZM23.1112 27.1274C23.6218 26.8754 23.9378 26.6974 23.951 26.6544C23.9637 26.6169 24.1655 25.7776 24.4019 24.7904C24.864 22.8589 26.2848 16.9401 26.6956 15.2346C27.0942 13.5794 27.0995 13.5551 27.0576 13.5551C26.9666 13.5551 24.8724 14.5761 24.9238 14.5956C24.9826 14.6206 24.9937 14.5581 24.5458 16.6436C24.4447 17.1149 22.8663 24.5134 22.2746 27.2901C22.2462 27.4226 22.2389 27.5326 22.2568 27.5326C22.2771 27.5326 22.661 27.3491 23.1112 27.1274ZM17.5945 21.7466V17.3519L16.3965 16.7829C15.7376 16.4701 15.1884 16.2241 15.176 16.2364C15.1557 16.2614 15.7641 23.7056 15.8192 24.1199C15.8395 24.2749 15.8471 24.2824 16.1721 24.4414C16.754 24.7259 17.2077 25.2266 17.4591 25.8616C17.52 26.0166 17.5755 26.1416 17.5821 26.1416C17.5897 26.1416 17.5945 24.1639 17.5945 21.7466ZM12.7017 19.2519C12.1852 16.7051 11.7485 14.6074 11.7312 14.5904C11.677 14.5379 9.56676 13.5494 9.53399 13.5621C9.51624 13.5621 9.83265 14.9469 10.2358 16.6244C10.639 18.3019 11.1387 20.3869 11.3463 21.2576C11.5539 22.1281 11.7375 22.8649 11.7543 22.8944C11.772 22.9244 11.8787 22.9719 11.9938 23.0019C12.4919 23.1269 12.9306 23.3564 13.3608 23.7146C13.504 23.8346 13.6257 23.9196 13.6311 23.9071C13.6362 23.8821 13.2183 21.7989 12.7017 19.2519ZM20.4603 14.9091C22.5789 14.1181 22.6651 14.0816 24.5428 13.1894C25.5977 12.6881 26.5469 12.2481 26.652 12.2119C26.8722 12.1369 26.9675 12.0119 27.1456 11.5734C27.2923 11.2114 27.3572 10.8294 27.3303 10.4824C27.2814 9.84364 26.9115 9.44438 26.2942 9.36363L26.0917 9.33613L26.3153 9.19363C26.5927 9.01613 26.8329 8.76063 26.9767 8.49113C27.0747 8.30613 27.0867 8.24613 27.0867 7.91613C27.0867 7.56763 27.0791 7.53113 26.9399 7.25413C26.7465 6.86838 26.4483 6.57413 26.0571 6.38338C25.7763 6.24588 25.7392 6.23838 25.386 6.23838C25.053 6.23838 24.9885 6.23838 24.7968 6.34588C24.5316 6.47838 24.2854 6.70763 24.0916 6.99888L23.9443 7.22138L23.9182 7.05138C23.8523 6.61738 23.5107 6.19288 23.0603 5.98513C22.4057 5.68288 21.7884 5.77513 21.3575 6.24038L21.1646 6.44788L21.1494 6.03438C21.1368 5.67788 21.12 5.59063 21.0265 5.40238C20.6813 4.70688 19.7324 4.45838 18.7086 4.79538C18.515 4.85788 18.2724 4.96538 18.1698 5.02788C17.9791 5.14788 17.6727 5.46088 17.6695 5.53813C17.6685 5.56313 17.6442 5.63313 17.6173 5.69563L17.5669 5.81063L17.5162 5.65563C17.4883 5.57063 17.3866 5.34488 17.2903 5.15388C16.5775 3.73838 15.4613 3.21088 14.2384 3.71188C13.2416 4.12013 12.6904 4.92963 12.6915 5.98388C12.6919 6.45438 12.7992 7.02138 12.9595 7.40138C12.9696 7.42638 12.8723 7.40138 12.7415 7.32638C12.5374 7.22138 12.4623 7.20638 12.2114 7.20638C11.9536 7.20638 11.8845 7.23138 11.6289 7.34888C11.287 7.51638 11.0932 7.71113 10.9307 8.05363C10.7039 8.53163 10.7457 9.08388 11.0552 9.69563C11.1414 9.86563 11.2118 10.0111 11.2118 10.0181C11.2118 10.0181 11.1457 10.0181 11.0651 9.99313C10.8286 9.93813 10.5408 9.95313 10.2237 10.0331C9.82829 10.1331 9.55956 10.2731 9.30269 10.5121C8.81293 10.9691 8.78487 11.4031 9.22006 11.7891C9.32728 11.8841 9.50648 11.9966 9.61849 12.0366C9.80074 12.1041 11.5116 12.8276 16.1832 14.8129C17.0121 15.1649 17.8224 15.5099 17.9839 15.5791C18.1454 15.6491 18.2812 15.7066 18.2857 15.7066C18.2908 15.7079 19.2679 15.3454 20.4583 14.9011L20.4603 14.9091ZM17.2431 12.4836C17.1186 12.3611 17.0923 12.3036 17.0674 12.1076C17.0522 11.9801 17.0056 11.8129 16.9653 11.7354C16.8593 11.5304 16.6025 11.3296 16.379 11.2766C16.16 11.2241 16.0281 11.2466 15.7286 11.3816C15.4862 11.4916 15.3209 11.4816 15.1509 11.3491C14.9881 11.2216 14.9324 11.0761 14.9324 10.7749C14.9324 10.4454 14.8523 10.2659 14.6162 10.0666C14.2014 9.71638 13.5446 9.85414 13.2909 10.3446C13.2509 10.4221 13.2047 10.5896 13.1888 10.7169C13.1634 10.9144 13.1376 10.9699 13.0131 11.0929C12.881 11.2229 12.8463 11.2379 12.6617 11.2379C12.4759 11.2379 12.4427 11.2129 12.3048 11.0879C12.1565 10.9429 12.1527 10.9304 12.1527 10.6619C12.1527 10.3669 12.2513 10.0106 12.3994 9.77063C12.6123 9.42513 13.033 9.07938 13.4055 8.94388L13.5817 8.87888L13.569 8.59913C13.5274 7.67663 14.1611 6.74338 15.132 6.29688C16.0253 5.88613 16.8959 5.99563 17.7457 6.62563C18.1167 6.90088 18.3455 7.19063 18.6381 7.75588C18.6407 7.75588 18.7905 7.73088 18.9685 7.68838C19.5385 7.54588 20.1785 7.61338 20.66 7.86588C21.1328 8.11338 21.5361 8.63888 21.678 9.18963C21.7082 9.30713 21.7482 9.40213 21.7675 9.40213C21.7878 9.40188 21.9168 9.36213 22.0566 9.31463C22.6879 9.10213 23.3521 9.13463 23.916 9.41213C24.6545 9.77413 25.1491 10.5754 25.1491 11.4099C25.1491 11.7414 25.0776 11.8769 24.8508 11.9759C24.6546 12.0609 24.4936 12.0459 24.3224 11.9284C24.1939 11.8384 24.1483 11.7209 24.0951 11.3419C24.0466 10.9964 23.9483 10.7784 23.7454 10.5679C23.4927 10.3056 23.347 10.2526 22.8785 10.2526C22.4931 10.2526 22.4511 10.2526 22.2036 10.3801C22.047 10.4551 21.8215 10.6151 21.6487 10.7736C21.3205 11.0739 21.1715 11.1286 20.93 11.0381C20.8486 11.0081 20.745 10.9256 20.6927 10.8506C20.6076 10.7281 20.6025 10.6956 20.6319 10.4464C20.6497 10.2989 20.6641 9.99388 20.6646 9.77088C20.6656 9.29738 20.6038 9.13888 20.3273 8.90538C19.8924 8.53813 19.1235 8.57588 18.7801 8.98038C18.5446 9.25813 18.2491 9.32613 17.9937 9.16038C17.8578 9.07288 17.7977 8.92538 17.7531 8.57538C17.6806 8.00463 17.3214 7.51438 16.7853 7.25438C16.5423 7.13688 16.4872 7.12438 16.1657 7.12438C15.8483 7.12463 15.7871 7.14938 15.5583 7.24688C14.9956 7.51963 14.6885 7.92738 14.616 8.49763C14.5932 8.67263 14.5666 8.83088 14.5554 8.84838C14.5453 8.87338 14.5681 8.89088 14.6063 8.90338C15.1919 9.09838 15.6807 9.53313 15.8733 10.0336L15.9412 10.2111H16.2352C16.5468 10.2111 16.9269 10.3236 17.1629 10.4661C17.3685 10.5886 17.694 10.9041 17.8243 11.1059C17.9999 11.3776 18.1024 11.7224 18.1024 12.0409C18.1024 12.3099 18.0999 12.3206 17.9504 12.4666C17.8125 12.6016 17.7793 12.6166 17.5934 12.6166C17.4087 12.6166 17.3739 12.5916 17.2421 12.4716L17.2431 12.4836Z" fill="#333232" fill-opacity="0.7"/>
</svg>
