<svg width="36" height="35" viewBox="0 0 36 35" fill="none" xmlns="http://www.w3.org/2000/svg">
<g clip-path="url(#clip0_278_671)">
<path d="M35.0339 11.2109C34.4154 10.5761 33.3886 10.5558 32.7443 11.1658C32.7443 11.1658 32.4564 11.4636 32.0394 11.6288C31.5404 11.8253 31.0658 11.6521 30.5536 11.877C30.5536 11.877 27.7754 9.5351 27.771 9.53141C27.6456 9.4368 27.5149 9.35012 27.3805 9.26932C27.6329 8.91481 27.9836 8.63303 28.3932 8.46343C28.6508 8.35713 28.8198 8.1096 28.8242 7.8337C28.8287 7.5578 28.667 7.3059 28.4124 7.19236C27.8344 6.9332 27.1923 6.82253 26.5561 6.87421C26.2335 6.89971 25.9154 6.96738 25.6106 7.07368C25.0562 6.99213 24.4865 7.03438 23.9477 7.19817C23.2347 7.41514 22.6154 7.83446 22.1548 8.38625C21.8987 8.35057 21.6381 8.33238 21.3754 8.33238C19.9752 8.33238 18.6179 8.87181 17.6052 9.82036H9.59678C8.12202 9.82036 6.67686 10.3234 5.52766 11.2363C4.54375 12.0182 3.80935 13.0715 3.42039 14.2443H3.32814C1.73681 14.2443 0.44219 15.5212 0.44219 17.0915V18.0109C0.17348 18.2185 0 18.5396 0 18.9007V19.2945C0 19.9169 0.513717 20.4236 1.14554 20.4236C1.77659 20.4236 2.29031 19.9169 2.29031 19.2945V18.9007C2.29031 18.5396 2.11683 18.2185 1.84895 18.011V17.0916C1.84895 16.3534 2.40696 15.7441 3.12805 15.6473C3.1103 15.8402 3.1015 16.0331 3.1015 16.2268C3.1015 16.2268 3.10517 19.5005 3.10594 19.5042C3.21371 20.733 3.86986 21.836 4.88995 22.5305V26.629C4.88995 27.4611 5.57638 28.1381 6.42001 28.1381H10.5666C11.1615 28.1381 11.6457 27.6606 11.6457 27.0731C11.6457 26.9741 11.6376 26.8766 11.6236 26.7805H13.2105C13.8061 26.7805 14.2903 26.3029 14.2903 25.7154C14.2903 25.1447 14.0541 24.6118 13.6437 24.2274V23.2592H16.5252V26.629C16.5252 27.4611 17.2117 28.1381 18.0553 28.1381H22.2019C22.7975 28.1381 23.2817 27.6606 23.2817 27.0731C23.2817 26.9741 23.2743 26.8766 23.2603 26.7805H24.8465C25.4414 26.7805 25.9263 26.3029 25.9263 25.7154C25.9263 25.1447 25.6901 24.6118 25.279 24.2274V20.9863C25.5219 20.5095 25.6673 19.9875 25.7071 19.4481H29.2574C31.3491 19.4481 33.0512 17.7701 33.0512 15.7062C33.0512 15.5694 33.0424 15.4332 33.0269 15.2979C33.0579 15.2819 33.7864 14.8858 34.3312 14.3493C34.8987 13.7895 35.2833 13.0884 35.2833 13.0884C35.6273 12.4725 35.5269 11.7184 35.0339 11.2109ZM10.9984 25.3928V23.2591H12.237V24.563C12.237 24.8017 12.3602 25.023 12.5654 25.1504C12.6651 25.2116 12.7448 25.296 12.7994 25.3928H10.9984ZM22.6338 25.3928V23.1171C23.0752 22.9999 23.4937 22.8114 23.8724 22.5602V24.563C23.8724 24.8017 23.9964 25.023 24.2008 25.1504C24.3005 25.2116 24.3802 25.296 24.4348 25.3928H22.6338ZM29.2575 18.0605H25.0164C24.8216 18.0605 24.6459 18.1384 24.5189 18.2636C24.3919 18.3896 24.313 18.5628 24.313 18.7543V19.1453C24.313 19.8347 24.0509 20.4928 23.5756 20.998C23.1232 21.4792 22.512 21.7835 21.8536 21.8548C21.4971 21.8934 21.227 22.1904 21.227 22.5442V25.9206C21.227 26.1594 21.351 26.3807 21.5555 26.5081C21.6551 26.57 21.7355 26.6537 21.7901 26.7505H18.0554C17.9874 26.7505 17.9321 26.6959 17.9321 26.6289V22.5653C17.9321 22.1823 17.6177 21.8715 17.2287 21.8715H10.295C9.90603 21.8715 9.59158 22.1823 9.59158 22.5653V25.9206C9.59158 26.1593 9.71557 26.3806 9.92003 26.508C10.0197 26.5699 10.0994 26.6537 10.154 26.7505H6.42001C6.35208 26.7505 6.29678 26.6958 6.29678 26.6289V22.1438C6.29678 21.8912 6.15726 21.6582 5.93214 21.5359C5.12026 21.0955 4.5888 20.2947 4.50833 19.3905V16.2267C4.50833 15.8453 4.55186 15.4645 4.63822 15.0947C4.89286 14.0085 5.52246 13.0221 6.40968 12.3174C7.32268 11.5916 8.42546 11.2079 9.59678 11.2079H17.8974C18.0997 11.2079 18.2819 11.1235 18.4104 10.9888C18.8001 10.5797 19.2681 10.2609 19.7818 10.0447C20.2947 9.82768 20.852 9.71338 21.4188 9.71338C21.441 9.71338 21.4041 9.85974 21.3879 9.93035C21.303 10.3038 21.5414 10.6751 21.92 10.7588C21.9717 10.7704 22.0241 10.7763 22.075 10.7763C22.3968 10.7763 22.6869 10.5572 22.7607 10.2339C22.9216 9.52635 23.4102 8.93737 24.0656 8.63604C23.8914 8.9913 23.774 9.37569 23.7216 9.77388C23.6715 10.1531 23.9431 10.5018 24.3284 10.5506C24.7137 10.6001 25.0664 10.3322 25.1167 9.95223C25.1986 9.33125 25.5337 8.76708 26.04 8.39432C26.0474 8.39138 26.0548 8.38994 26.0629 8.38707C26.1588 8.35282 26.257 8.32521 26.3567 8.30333C26.1087 8.61273 25.9094 8.96286 25.7706 9.34069C25.6407 9.69451 25.8216 10.0847 26.1751 10.2216L26.1743 10.2223C26.4378 10.3242 26.6858 10.4618 26.9109 10.63C26.9154 10.633 26.9191 10.6366 26.9235 10.6402C27.015 10.7086 29.4759 12.7936 29.4759 12.7936C29.4574 12.8263 29.4397 12.8598 29.4227 12.8933C29.1791 13.3854 29.1444 13.9416 29.3246 14.4592C29.5046 14.9768 29.8789 15.394 30.3771 15.6342C30.6657 15.7732 30.9757 15.8438 31.2879 15.8438C31.406 15.8438 31.5241 15.8329 31.6414 15.8133C31.5847 17.0617 30.5374 18.0605 29.2575 18.0605ZM34.0515 12.4186C34.0507 12.4194 34.0507 12.4194 34.0507 12.4194C34.0507 12.4194 33.7666 13.0513 32.9502 13.6977C32.3435 14.1782 31.508 14.4192 31.508 14.4192C31.3383 14.4767 31.1559 14.4658 30.995 14.3879C30.8341 14.3099 30.7131 14.1753 30.6548 14.0079C30.5965 13.8411 30.6083 13.6613 30.6865 13.5026C30.7655 13.3439 30.9021 13.2245 31.0718 13.167C31.1021 13.1568 31.9635 13.143 32.5731 12.9123C33.2677 12.6495 33.7187 12.166 33.7187 12.166C33.8036 12.0867 33.9379 12.0889 34.0191 12.1719C34.0928 12.2483 34.0876 12.3539 34.0515 12.4186Z" fill="#333232" fill-opacity="0.7"/>
<path d="M26.1671 14.1732C26.5776 14.1732 26.9104 13.845 26.9104 13.4401C26.9104 13.0353 26.5776 12.7071 26.1671 12.7071C25.7566 12.7071 25.4238 13.0353 25.4238 13.4401C25.4238 13.845 25.7566 14.1732 26.1671 14.1732Z" fill="#333232" fill-opacity="0.7"/>
<path d="M9.59709 13.0814C8.12725 13.0814 6.81981 14.106 6.48852 15.5176C6.40084 15.8909 6.63663 16.2635 7.01506 16.35C7.06842 16.3622 7.12179 16.368 7.17433 16.368C7.49433 16.368 7.78369 16.1513 7.85896 15.8307C8.04415 15.0416 8.77508 14.469 9.59702 14.469C9.98549 14.469 10.3004 14.1584 10.3004 13.7752C10.3005 13.392 9.98556 13.0814 9.59709 13.0814Z" fill="#333232" fill-opacity="0.7"/>
</g>
<defs>
<clipPath id="clip0_278_671">
<rect width="35.4861" height="35" fill="white"/>
</clipPath>
</defs>
</svg>
