<svg width="35" height="35" viewBox="0 0 35 35" fill="none" xmlns="http://www.w3.org/2000/svg">
<path d="M23.4317 13.5114C23.789 13.1213 23.8109 12.4323 23.8291 11.8781C23.8328 11.7651 23.8364 11.6594 23.8401 11.5682C23.8729 11.0797 23.8729 10.5838 23.8729 10.1062C23.8729 9.63593 23.8765 9.15103 23.9057 8.67707C23.9312 8.26874 23.9677 7.71093 23.6614 7.26978C23.2276 6.63905 22.6151 6.58437 21.9698 6.58437L13.4422 6.58072C13.4093 6.58072 13.3729 6.58072 13.3401 6.58072C12.9281 6.57707 12.4614 6.57707 12.0896 6.86145C11.612 7.22968 11.4224 8.52395 11.4406 11.3349C11.4406 11.4443 11.4406 11.5391 11.4406 11.612C11.4406 11.663 11.4406 11.725 11.437 11.787C11.426 12.3229 11.4114 13.1323 11.8526 13.5917C12.2245 13.9818 13.3547 14.0255 13.8468 14.0255C13.8942 14.0255 13.9343 14.0255 13.9672 14.0255C15.1265 14.0073 16.2203 14.0073 17.2739 14.0073C18.776 14.0073 20.1942 14.0073 21.576 13.9526C21.7218 13.9453 21.8567 13.9453 21.9843 13.9417C22.6041 13.9307 23.0562 13.9198 23.4317 13.5114ZM21.5541 13.4057C20.1833 13.4568 18.7687 13.4568 17.2703 13.4604C16.213 13.4604 15.1156 13.4604 13.9526 13.4786C13.1614 13.4896 12.3922 13.3729 12.2427 13.2125C11.9583 12.9135 11.9729 12.2135 11.9802 11.7943C11.9802 11.725 11.9838 11.663 11.9838 11.6083C11.9838 11.5354 11.9838 11.4406 11.9838 11.3276C11.9802 10.7698 11.9765 9.83645 12.0422 8.97603C12.1479 7.56874 12.3776 7.32447 12.4213 7.29166C12.6182 7.13853 12.9208 7.12395 13.2234 7.12395C13.2599 7.12395 13.2963 7.12395 13.3328 7.12395C13.3692 7.12395 13.4057 7.12395 13.4385 7.12395L21.9661 7.12759C22.6005 7.12759 22.9468 7.19322 23.2057 7.57603C23.388 7.84218 23.3807 8.2177 23.3552 8.64062C23.3224 9.12916 23.3224 9.62499 23.3224 10.1026C23.3224 10.5729 23.3187 11.0578 23.2896 11.5318C23.2823 11.6338 23.2786 11.7432 23.275 11.8599C23.2604 12.301 23.2422 12.9026 23.0234 13.1396C22.8156 13.3656 22.564 13.3802 21.9661 13.3911C21.8458 13.3948 21.7073 13.3984 21.5541 13.4057ZM19.0203 11.5026C18.8927 11.9109 18.6192 12.2609 18.2729 12.4614C18.0505 12.5891 17.7989 12.6547 17.551 12.6547C17.3687 12.6547 17.1901 12.6182 17.026 12.5489C16.6031 12.363 16.3114 11.9401 16.2968 11.4989C16.2932 11.3495 16.4135 11.2219 16.563 11.2182C16.7125 11.2146 16.8401 11.3349 16.8437 11.4844C16.851 11.7177 17.0151 11.9474 17.2448 12.0495C17.4745 12.1479 17.7625 12.126 17.9958 11.9911C18.2255 11.8599 18.4041 11.6229 18.4953 11.3422C18.539 11.1963 18.6958 11.1198 18.838 11.1635C18.9875 11.2073 19.0677 11.3604 19.0203 11.5026ZM15.739 9.23853C15.7609 9.33697 15.7245 9.43905 15.6442 9.50468L14.4739 10.4708C14.4229 10.5146 14.3609 10.5328 14.2989 10.5328C14.2187 10.5328 14.1422 10.5 14.0875 10.4344C13.9927 10.3177 14.0073 10.1463 14.1239 10.0479L14.8968 9.40989L14 9.15103C13.8541 9.10728 13.7703 8.9578 13.814 8.81197C13.8578 8.66614 14.0073 8.58228 14.1531 8.62603L15.5495 9.03072C15.6442 9.05989 15.7208 9.14009 15.739 9.23853ZM21.4265 8.72082C21.4739 8.86301 21.3937 9.01978 21.2515 9.06718L20.2453 9.3953L20.9817 9.97864C21.1021 10.0734 21.1203 10.2448 21.0255 10.3614C20.9708 10.4307 20.8906 10.4672 20.8104 10.4672C20.7521 10.4672 20.6901 10.4489 20.6427 10.4088L19.5015 9.50832C19.4213 9.44634 19.3849 9.34426 19.4031 9.24582C19.4213 9.14739 19.4906 9.06353 19.589 9.03437L21.0838 8.54947C21.226 8.49843 21.3791 8.57864 21.4265 8.72082ZM13.0047 17.6786C12.9901 17.4344 12.9718 17.1573 12.8479 16.8984C12.6911 16.563 12.3849 16.3516 12.0677 16.3661C11.776 16.3771 11.4151 16.6104 11.3057 17.088C11.2328 17.4125 11.3057 19.6547 11.3786 20.3729C11.4041 20.6099 11.4406 20.8578 11.5609 21.0838C11.7177 21.3755 11.9911 21.5614 12.2718 21.5687C12.2791 21.5687 12.2864 21.5687 12.2901 21.5687C12.6291 21.5687 12.9573 21.3099 13.0885 20.9307C13.1942 20.6281 13.1724 20.3073 13.1541 20.0484L13.0047 17.6786ZM12.5781 20.7521C12.5234 20.9088 12.3995 21.0292 12.2937 21.0219C12.2099 21.0182 12.1078 20.938 12.0458 20.825C11.9729 20.6937 11.9437 20.526 11.9255 20.3182C11.8416 19.4979 11.7979 17.4489 11.8416 17.2083C11.8781 17.0516 11.9911 16.9167 12.0932 16.913C12.1807 16.9094 12.2937 17.0042 12.3557 17.1318C12.4323 17.2958 12.4468 17.5109 12.4614 17.7151L12.6182 20.0812C12.6291 20.3146 12.6474 20.5552 12.5781 20.7521ZM15.0864 16.8255C14.9552 16.6031 14.7437 16.4427 14.5213 16.3917C14.3463 16.3516 14.1677 16.3807 14.0218 16.4792C13.8432 16.5958 13.7156 16.8109 13.6646 17.0734C13.6245 17.2776 13.6281 17.4818 13.6354 17.6641C13.6427 17.8573 13.639 18.0323 13.639 18.2C13.639 18.5026 13.6354 18.787 13.6682 19.1333C13.6791 19.2536 13.6864 19.3995 13.6901 19.5489C13.7083 20.001 13.7302 20.5151 13.8942 20.8797C14.0364 21.1896 14.3026 21.3828 14.576 21.3828C14.6161 21.3828 14.6526 21.3792 14.6927 21.3719C14.9224 21.3245 15.1229 21.1276 15.2286 20.8505C15.3052 20.6463 15.3271 20.4312 15.338 20.2271C15.3927 19.4323 15.389 18.6229 15.3307 17.8281C15.3088 17.5073 15.2687 17.1354 15.0864 16.8255ZM14.7984 20.1979C14.7875 20.3693 14.7729 20.5333 14.7218 20.6646C14.6781 20.7776 14.6161 20.8359 14.5833 20.8432C14.5505 20.8505 14.4557 20.7922 14.3974 20.6609C14.2771 20.3911 14.2588 19.9354 14.2406 19.5344C14.2333 19.3739 14.2297 19.2245 14.2151 19.0896C14.1859 18.7687 14.1859 18.4953 14.1896 18.2073C14.1896 18.0323 14.1896 17.8536 14.1859 17.6531C14.1823 17.4927 14.175 17.3286 14.2041 17.1864C14.226 17.0698 14.2771 16.9713 14.3317 16.9385C14.3427 16.9312 14.3536 16.9239 14.3755 16.9239C14.3828 16.9239 14.3937 16.9239 14.4047 16.9276C14.4812 16.9458 14.5651 17.0151 14.6198 17.1062C14.7401 17.3141 14.7729 17.5984 14.7911 17.8755C14.8458 18.6448 14.8495 19.425 14.7984 20.1979ZM17.3979 16.7271C17.2593 16.4573 17.0114 16.2823 16.7526 16.2713C16.4317 16.2568 16.1218 16.4937 15.9942 16.8474C15.8995 17.1172 15.9177 17.4052 15.9323 17.6349C15.9578 18.0177 15.9724 18.3677 15.987 18.7031C16.0125 19.2536 16.0343 19.775 16.0963 20.4021C16.1109 20.5406 16.1729 21.0073 16.4354 21.2114C16.5776 21.3208 16.7489 21.3792 16.9203 21.3792C16.9567 21.3792 16.9932 21.3755 17.0297 21.3719C17.212 21.3463 17.3651 21.2516 17.4635 21.1094C17.6312 20.8687 17.6677 20.6135 17.6859 20.3729C17.7698 19.3521 17.6786 18.3203 17.5656 17.3614C17.5328 17.15 17.5 16.9312 17.3979 16.7271ZM17.1354 20.3255C17.1172 20.5443 17.0916 20.6755 17.0114 20.7958C16.9932 20.8213 16.9604 20.8286 16.9422 20.8323C16.8838 20.8396 16.8218 20.8213 16.7672 20.7812C16.7271 20.7448 16.6578 20.5661 16.6359 20.351C16.5776 19.7385 16.5557 19.2281 16.5302 18.6812C16.5156 18.3422 16.501 17.9922 16.4755 17.6021C16.4609 17.4016 16.45 17.1974 16.5083 17.0297C16.5484 16.913 16.6505 16.8146 16.7234 16.8182C16.7854 16.8219 16.862 16.8875 16.9093 16.9786C16.9713 17.0989 16.9932 17.2557 17.0151 17.4234C17.1245 18.3531 17.2156 19.3521 17.1354 20.3255ZM19.9208 18.1161C19.9828 18.1271 20.0448 18.1307 20.1067 18.1307C20.3948 18.1307 20.6755 18.0213 20.8687 17.8208C21.1312 17.551 21.2151 17.1463 21.0729 16.8109C20.9416 16.5047 20.6828 16.2823 20.362 16.2094C20.0302 16.1328 19.6729 16.2203 19.4104 16.4463C19.1734 16.6505 19.0422 16.9604 19.0713 17.2557C19.1114 17.6786 19.4687 18.0396 19.9208 18.1161ZM19.7677 16.8656C19.8698 16.7781 19.9937 16.7307 20.1213 16.7307C20.1614 16.7307 20.1979 16.7344 20.238 16.7453C20.3911 16.7818 20.5078 16.8802 20.5698 17.0297C20.6245 17.1573 20.5843 17.3323 20.4786 17.4417C20.3692 17.5547 20.1833 17.6094 20.012 17.5766C19.8078 17.5401 19.6328 17.3797 19.6146 17.2047C19.6036 17.088 19.6656 16.9568 19.7677 16.8656ZM22.8666 18.0578C22.9031 18.0578 22.9396 18.0542 22.9797 18.0505C23.2713 18.0213 23.5302 17.8792 23.687 17.6641C23.9276 17.3359 23.9021 16.8474 23.6323 16.5266C23.3734 16.2203 22.9177 16.0599 22.5203 16.1292C22.1995 16.1875 21.9515 16.3953 21.8422 16.6943C21.7218 17.0297 21.8021 17.4234 22.0463 17.6969C22.2432 17.9266 22.5531 18.0578 22.8666 18.0578ZM22.3489 16.8838C22.3927 16.7635 22.4765 16.6943 22.6114 16.6687C22.8192 16.6323 23.0745 16.7234 23.2093 16.8802C23.3187 17.0078 23.3333 17.2156 23.2422 17.3396C23.1765 17.4271 23.0562 17.4891 22.9213 17.5036C22.7427 17.5219 22.5567 17.4526 22.4474 17.3323C22.338 17.2156 22.2979 17.0297 22.3489 16.8838ZM20.3984 19.1333C19.9573 19.0641 19.713 19.2208 19.5343 19.3849C19.3338 19.5672 19.2062 19.8625 19.2172 20.1141C19.2281 20.3729 19.3411 20.6099 19.5453 20.7995C19.6948 20.938 19.9062 21.051 20.0995 21.0984C20.1614 21.113 20.2271 21.1203 20.2927 21.1203C20.6026 21.1203 20.9161 20.9526 21.0875 20.6828C21.2807 20.3766 21.2843 19.9646 21.0984 19.6401C20.9343 19.3521 20.6937 19.1771 20.3984 19.1333ZM20.6208 20.3948C20.5406 20.526 20.3656 20.6026 20.2271 20.5698C20.125 20.5443 20.001 20.475 19.9172 20.4021C19.8187 20.3109 19.7677 20.2088 19.764 20.0922C19.7604 19.9974 19.8224 19.8625 19.9026 19.7896C19.9901 19.7094 20.0666 19.6656 20.1942 19.6656C20.2307 19.6656 20.2672 19.6693 20.3146 19.6766C20.4422 19.6948 20.5406 19.775 20.6208 19.9135C20.7047 20.0594 20.7047 20.2599 20.6208 20.3948ZM23.0927 18.962C22.6953 18.8963 22.3088 19.0349 22.0901 19.3229C21.8677 19.6109 21.8276 20.0193 21.988 20.3583C22.112 20.6245 22.3562 20.8359 22.637 20.9234C22.7354 20.9526 22.8375 20.9672 22.9432 20.9672C23.2166 20.9672 23.4828 20.8614 23.6797 20.6719C23.9531 20.4021 24.0515 19.9828 23.9312 19.6255C23.8073 19.2792 23.4901 19.0276 23.0927 18.962ZM23.2896 20.2818C23.1656 20.4021 22.9614 20.4531 22.7937 20.3984C22.6588 20.3583 22.5385 20.2526 22.4802 20.125C22.4073 19.9719 22.4255 19.7786 22.5203 19.6547C22.6114 19.5344 22.7609 19.4906 22.8958 19.4906C22.9323 19.4906 22.9687 19.4943 23.0015 19.4979C23.1583 19.5234 23.3442 19.6146 23.4062 19.7969C23.4609 19.9609 23.4135 20.1578 23.2896 20.2818ZM31.6458 5.3703C31.3468 5.35937 31.0734 5.46509 30.8984 5.66562C30.5812 6.02655 30.6432 6.51509 30.6942 6.9052L30.6979 6.91978C30.7052 6.96353 30.7088 7.00728 30.7161 7.05103C30.7562 7.33905 30.7963 7.61249 30.676 7.79478C30.5448 7.9953 30.1437 8.19582 29.5713 8.15572C29.2906 8.13749 28.926 8.01718 28.8166 7.7401C28.7474 7.56145 28.8276 7.33905 28.9224 7.0802C29.0354 6.77395 29.163 6.42395 29.039 6.05937C28.9297 5.73124 28.6088 5.49062 28.2661 5.47239C27.9015 5.45051 27.6135 5.75312 27.464 6.04114C27.1359 6.69009 26.9937 7.34634 27.0557 7.94791C27.1323 8.68072 27.5224 9.32239 28.0948 9.6578C28.1166 9.67239 28.1385 9.68332 28.1604 9.69426C28.1567 10.0588 28.1422 10.4635 28.0948 10.8391C28.0291 11.3896 27.9015 11.8088 27.701 12.1516C27.6828 12.1807 27.6646 12.2099 27.6463 12.2427C27.4021 12.6219 27.1067 12.9099 26.7677 13.1031C26.4979 13.2562 26.1916 13.351 25.8562 13.3875C25.8526 11.962 25.8526 10.5255 25.8635 9.12551C25.8817 7.16041 25.5281 5.77134 24.8135 4.99478C23.9495 4.05416 22.6078 3.71874 21.6307 3.60207C19.651 3.3651 17.901 3.31405 15.9541 3.44166C14.9771 3.50364 13.8323 3.6203 12.7604 4.00676C11.951 4.29843 10.8354 4.87812 10.1208 5.97916C9.388 7.10937 9.26404 8.46197 9.19841 9.86562C9.14372 11.0213 9.10727 12.2391 9.09268 13.4823C8.19216 13.5005 7.27341 13.7375 6.42393 14.1677H6.42029C5.59633 14.587 4.84529 15.1885 4.24737 15.9031C4.08331 16.0963 3.93383 16.3042 3.80258 16.5156C3.80258 16.5156 3.80258 16.5156 3.80258 16.5193C3.27393 17.3687 2.98227 18.375 2.90935 19.5927C2.87654 20.1505 2.88747 20.7667 2.94216 21.4667C2.90935 21.4922 2.87289 21.5213 2.84008 21.5469C2.37706 21.9443 2.1182 22.5896 2.13279 23.3114C2.14372 23.9203 2.27133 24.7187 2.58852 25.1417C2.75622 25.3641 3.04789 25.5062 3.36143 25.5135C3.37602 25.5135 3.38695 25.5135 3.40154 25.5135C3.68591 25.5135 3.94477 25.4042 4.10883 25.2146C4.42602 24.85 4.36039 24.3651 4.3057 23.9713L4.30206 23.9568C4.29477 23.913 4.29112 23.8693 4.28383 23.8255C4.24008 23.5375 4.20362 23.2641 4.32029 23.0818C4.45154 22.8812 4.85258 22.6807 5.42133 22.7135C5.70206 22.7318 6.06664 22.8484 6.17966 23.1255C6.25258 23.3042 6.16872 23.5266 6.07758 23.7854C5.96456 24.0953 5.8406 24.4417 5.96456 24.8062C6.07758 25.1307 6.39477 25.3713 6.74112 25.3896C7.10935 25.4078 7.39372 25.1052 7.53956 24.8172C7.86768 24.1682 8.00622 23.5083 7.9406 22.9104C7.86039 22.1776 7.47029 21.5396 6.89789 21.2042C6.87602 21.1896 6.85414 21.1786 6.83227 21.1677C6.83591 20.8031 6.84685 20.3984 6.8906 20.0229C6.95622 19.4724 7.08018 19.0531 7.27706 18.7068C7.29529 18.6776 7.31352 18.6484 7.33175 18.6156C7.57602 18.2364 7.87133 17.9448 8.20675 17.7516C8.47654 17.5984 8.77914 17.5 9.11456 17.4635C9.14737 18.9766 9.2057 20.4568 9.2932 21.8385C9.33331 22.4911 9.88018 23.0052 10.5401 23.0052C10.6276 23.0052 10.7187 23.0052 10.8062 23.0052C10.0807 24.7443 9.82185 26.7932 9.99685 29.3963C9.40258 29.8885 9.08904 30.5703 9.19112 31.2411C9.20935 31.3724 9.32237 31.4708 9.45727 31.4745C10.4271 31.4927 11.4406 31.4927 12.425 31.4927C13.4057 31.4927 14.4192 31.4927 15.3817 31.5109H15.3854C15.5239 31.5109 15.6406 31.4052 15.6588 31.2667C15.7281 30.6141 15.4109 29.9542 14.8312 29.462C14.7911 26.8042 14.8276 25.3531 15.7463 22.9687C16.8692 22.9505 17.9995 22.9286 19.1224 22.8922C19.4396 23.4463 19.6838 23.9859 19.8771 24.5255C19.8807 24.5364 19.8843 24.5474 19.888 24.5583C20.4312 26.0969 20.526 27.6427 20.464 29.5312C19.8953 30.0198 19.5963 30.687 19.6984 31.3432C19.7166 31.4745 19.8297 31.5729 19.9646 31.5766C20.9343 31.5948 21.9479 31.5948 22.9323 31.5948C23.913 31.5948 24.9265 31.5948 25.889 31.613H25.8927C26.0312 31.613 26.1479 31.5073 26.1661 31.3687C26.2354 30.7234 25.9218 30.0672 25.3495 29.575C25.4333 27.2891 25.3896 25.7432 24.7661 23.9568C24.7625 23.9349 24.7552 23.913 24.7442 23.8911C24.6021 23.4937 24.4307 23.0818 24.2265 22.6443C24.3906 22.6333 24.551 22.6224 24.7151 22.6115C25.3567 22.5641 25.8635 22.0208 25.8708 21.3792C25.8817 20.063 25.8817 18.7141 25.8817 17.376C26.7786 17.3578 27.6937 17.1281 28.5432 16.6979C28.5432 16.6979 28.5468 16.6979 28.5468 16.6943C29.3708 16.2786 30.1255 15.6807 30.7271 14.9661C30.8911 14.7729 31.0406 14.5651 31.1718 14.3536C31.1718 14.3536 31.1718 14.3536 31.1718 14.35C31.7041 13.5005 31.9995 12.4979 32.0797 11.2802C32.1161 10.7224 32.1052 10.1062 32.0541 9.40624C32.087 9.38072 32.1234 9.3552 32.1562 9.32603C32.6192 8.92864 32.8817 8.28697 32.8708 7.56509C32.8635 6.95624 32.7396 6.1578 32.4224 5.73489C32.2474 5.52343 31.9593 5.38124 31.6458 5.3703ZM4.12706 17.0479L6.67914 18.6776C6.5406 18.9729 6.44581 19.3047 6.38018 19.6984C5.41039 19.5891 4.4406 19.476 3.47081 19.3667C3.55466 18.4698 3.76977 17.7078 4.12706 17.0479ZM3.44164 19.9172C4.4005 20.0266 5.35935 20.1359 6.3182 20.2453C6.29997 20.4859 6.28904 20.7266 6.28539 20.9599C5.84424 20.8323 5.33383 20.7922 4.76143 20.8432C4.38956 20.876 3.9156 20.9599 3.46716 21.1641C3.438 20.7083 3.4307 20.2963 3.44164 19.9172ZM7.39737 22.9833C7.45206 23.4792 7.33175 24.0333 7.05466 24.5875C6.97445 24.7443 6.85414 24.8646 6.77393 24.8609C6.64997 24.8536 6.52602 24.7625 6.48591 24.6458C6.42393 24.4635 6.50779 24.2338 6.59529 23.9896C6.71195 23.6724 6.8432 23.3114 6.69372 22.9396C6.48956 22.4255 5.92445 22.2141 5.46143 22.1849C4.93279 22.1521 4.19633 22.2943 3.8682 22.7974C3.63487 23.151 3.69685 23.5594 3.74789 23.9203C3.75518 23.9604 3.75883 24.0042 3.76612 24.0443L3.76977 24.0588C3.80987 24.3687 3.85362 24.6932 3.7005 24.8682C3.63487 24.9411 3.5182 24.9849 3.38331 24.9776C3.23383 24.9739 3.09893 24.912 3.02966 24.8208C2.83643 24.5656 2.69789 23.9568 2.68331 23.3114C2.67237 22.7609 2.8656 22.2578 3.20102 21.9698C3.25935 21.9187 3.31768 21.875 3.37966 21.8349C3.8281 21.5359 4.3932 21.4266 4.80883 21.3901C4.95466 21.3755 5.09685 21.3719 5.23175 21.3719C5.70206 21.3719 6.10675 21.4484 6.44581 21.6052C6.44581 21.6052 6.44945 21.6052 6.44945 21.6088C6.50779 21.638 6.56612 21.6672 6.62081 21.6963C7.04008 21.9333 7.33539 22.4292 7.39737 22.9833ZM6.95622 18.2073L4.41508 16.5849C4.49529 16.4719 4.57914 16.3625 4.66664 16.2568C5.15883 15.6698 5.76039 15.1667 6.42393 14.7875C6.76664 15.4875 7.10935 16.1911 7.45206 16.8911L7.71456 17.4307C7.43383 17.6312 7.17862 17.8901 6.95622 18.2073ZM8.19216 17.1609L7.94424 16.6505C7.60154 15.9469 7.25518 15.2432 6.91247 14.5396C7.61612 14.2187 8.35987 14.0437 9.08904 14.0255C9.08175 14.9917 9.08539 15.9651 9.09997 16.9312C8.77914 16.9604 8.47289 17.037 8.19216 17.1609ZM10.9448 24.263C12.1807 24.3068 13.4203 24.4307 14.638 24.6349C14.4593 25.3568 14.3646 26.0385 14.3135 26.7604C13.0484 26.7167 11.776 26.7568 10.5182 26.8807C10.5765 25.9219 10.7187 25.0578 10.9448 24.263ZM10.4963 27.4312C11.7505 27.3073 13.0265 27.2635 14.288 27.3073C14.2661 27.8578 14.2661 28.4448 14.2771 29.1047C14.2041 29.0682 14.1312 29.0318 14.0583 28.9989C13.0484 28.5505 11.6995 28.5432 10.7078 28.9807C10.6458 29.0062 10.5838 29.0354 10.5255 29.0682C10.4927 28.4922 10.4817 27.9489 10.4963 27.4312ZM15.112 30.975C14.3937 30.9641 13.6536 30.9641 12.9245 30.9641C12.7567 30.9641 12.589 30.9641 12.4213 30.9641C11.5281 30.9641 10.6057 30.9641 9.71977 30.9531C9.74164 30.5193 10.0005 30.0927 10.4271 29.7719C10.4343 29.7646 10.4453 29.7609 10.4526 29.7536C10.5948 29.6516 10.7515 29.5604 10.9265 29.4838C11.787 29.1047 12.9573 29.112 13.8359 29.5021C14.0364 29.5896 14.2187 29.6989 14.3791 29.8193C14.3901 29.8266 14.3974 29.8338 14.4083 29.8411C14.8093 30.1547 15.0682 30.563 15.112 30.975ZM14.7838 24.1026C13.5771 23.8984 12.3448 23.7708 11.1198 23.7198C11.2036 23.4792 11.2984 23.2458 11.4005 23.0161C12.6364 23.0125 13.8942 23.0052 15.1557 22.9906C15.0099 23.3844 14.8859 23.7526 14.7838 24.1026ZM20.3255 24.1719C20.1651 23.7489 19.9682 23.3224 19.7349 22.8885C21.0474 22.8411 22.3526 22.7828 23.6359 22.6989C23.8218 23.0818 23.9786 23.4427 24.1135 23.7891L20.3255 24.1719ZM24.9156 29.9396C25.3203 30.2568 25.5755 30.6614 25.6192 31.0734C24.901 31.0625 24.1609 31.0625 23.4317 31.0625C23.264 31.0625 23.0963 31.0625 22.9286 31.0625C22.0354 31.0625 21.113 31.0625 20.2271 31.0516C20.2489 30.6323 20.4896 30.2203 20.8906 29.9068C20.8979 29.9031 20.9052 29.8958 20.9125 29.8885C21.0656 29.7719 21.2406 29.6661 21.4338 29.5823C22.2942 29.2031 23.4646 29.2104 24.3432 29.6005C24.5437 29.688 24.726 29.7974 24.8901 29.9213C24.8937 29.925 24.9047 29.9323 24.9156 29.9396ZM24.8135 29.2213C24.7333 29.1776 24.6495 29.1375 24.562 29.0974C23.5521 28.6489 22.2031 28.6417 21.2114 29.0792C21.1458 29.1083 21.0838 29.1375 21.0218 29.1703C21.0364 28.5469 21.0291 27.9562 20.989 27.3911C22.2651 27.3328 23.5521 27.3656 24.8245 27.4823C24.839 28.0146 24.8317 28.587 24.8135 29.2213ZM24.3067 24.3213C24.5984 25.2 24.7406 26.0203 24.7989 26.9318C23.5192 26.8187 22.225 26.7896 20.9453 26.8479C20.8687 26.1115 20.7302 25.4042 20.5114 24.7042L24.3067 24.3213ZM25.3166 21.3864C25.313 21.7474 25.0286 22.0536 24.6677 22.0792C22.9031 22.2104 21.0911 22.2979 19.2682 22.3562C19.2646 22.3562 19.2646 22.3562 19.2609 22.3562C16.337 22.451 13.3802 22.4693 10.5364 22.4729C10.1682 22.4729 9.86195 22.1849 9.83643 21.8167C9.59945 18.1125 9.56664 13.6536 9.74893 9.88749C9.81456 8.56041 9.92393 7.28801 10.5838 6.27447C11.2146 5.30103 12.2208 4.78332 12.9536 4.52082C13.9635 4.15624 15.0573 4.04687 15.9942 3.98489C16.6687 3.94114 17.3213 3.91926 17.9666 3.91926C19.1515 3.91926 20.3146 3.99218 21.5724 4.1453C22.4583 4.25103 23.6687 4.54999 24.4198 5.36666C25.0359 6.03749 25.3422 7.30259 25.3239 9.12187C25.3057 11.1417 25.313 13.2344 25.3203 15.2614C25.3239 15.8594 25.3239 16.4646 25.3276 17.0734C25.3239 17.0844 25.3239 17.0989 25.3239 17.1099C25.3239 17.1281 25.3239 17.15 25.3276 17.1682C25.3312 18.5755 25.3312 20.001 25.3166 21.3864ZM25.8745 16.8401C25.8745 16.3078 25.8708 15.7792 25.8708 15.2542C25.8708 14.8167 25.8672 14.3755 25.8672 13.9344C26.1953 13.9052 26.5015 13.8286 26.7859 13.7083L27.0557 14.2661C27.3875 14.9552 27.7229 15.6479 28.0583 16.337C27.3474 16.6542 26.6036 16.8255 25.8745 16.8401ZM30.3041 14.6271C29.8083 15.2141 29.2031 15.7135 28.5396 16.0891C28.2078 15.4036 27.876 14.7146 27.5442 14.0255L27.2599 13.4385C27.5442 13.238 27.7995 12.9792 28.0218 12.6656L30.5557 14.2989C30.4755 14.412 30.3916 14.5213 30.3041 14.6271ZM30.8474 13.8359L28.2989 12.1953C28.4375 11.9 28.5359 11.5682 28.6015 11.1745C29.5713 11.2875 30.5411 11.4042 31.5109 11.5172C31.4271 12.4177 31.2083 13.1797 30.8474 13.8359ZM31.5437 10.9739C30.5849 10.8609 29.626 10.7479 28.6672 10.6349C28.689 10.3943 28.6963 10.1536 28.7036 9.9203C29.0245 10.0151 29.3854 10.0625 29.7791 10.0625C29.925 10.0625 30.0745 10.0552 30.2276 10.0443C30.5995 10.0114 31.0734 9.93124 31.5218 9.73072C31.551 10.1792 31.5583 10.5911 31.5437 10.9739ZM31.7953 8.92499C31.737 8.97239 31.6786 9.01978 31.613 9.05989C31.1646 9.3552 30.5995 9.46457 30.1802 9.49739C29.5312 9.55207 28.988 9.47916 28.5541 9.28228C28.5505 9.27864 28.5432 9.27864 28.5396 9.27499C28.4812 9.24582 28.4229 9.21666 28.3718 9.18749C27.9562 8.94322 27.6609 8.44374 27.5989 7.88957C27.5479 7.39374 27.6682 6.84322 27.9489 6.28905C28.0291 6.13228 28.1531 6.01197 28.2333 6.01926C28.3573 6.02655 28.4812 6.12135 28.5213 6.23801C28.5833 6.4203 28.4995 6.64999 28.4083 6.89426C28.2916 7.21145 28.1604 7.57239 28.3062 7.94426C28.5104 8.45832 29.0718 8.67343 29.5349 8.70259C30.0635 8.73905 30.8 8.60051 31.1317 8.09739C31.3651 7.74374 31.3067 7.33541 31.2557 6.97447C31.2484 6.93437 31.2448 6.89062 31.2375 6.85051L31.2338 6.83593C31.1937 6.52603 31.15 6.20155 31.3067 6.02655C31.3724 5.95364 31.489 5.90989 31.6239 5.91718C31.7734 5.92447 31.9083 5.9828 31.9776 6.07759C32.1708 6.33645 32.3093 6.94166 32.3166 7.58697C32.3276 8.13749 32.1307 8.63697 31.7953 8.92499Z" fill="#333232" fill-opacity="0.7"/>
</svg>
