<svg width="799" height="248" viewBox="0 0 799 248" fill="none" xmlns="http://www.w3.org/2000/svg">
<g id="programmers-svg">
<g id="boy">
<g id="boy_2">
<path d="M117.536 233.227C117.441 233.274 117.346 233.321 117.251 233.364C116.653 233.661 116.05 233.954 115.443 234.242C113.626 235.107 111.786 235.929 109.923 236.708C105.02 238.757 99.9904 240.487 94.8643 241.885C94.0031 236.519 93.1678 223.862 92.3668 214.554C92.2161 212.802 92.0654 211.171 91.9147 209.73C91.7716 207.837 91.4997 205.956 91.1009 204.101C91.0618 203.955 91.0055 203.815 90.9329 203.683C91.0147 204.428 91.1009 206.648 91.1827 209.73C91.2257 211.171 91.2645 212.802 91.3075 214.554C91.5099 223.514 91.7209 235.706 91.9319 242.647C91.3334 242.793 90.7305 242.94 90.1277 243.077C89.7488 243.168 89.3655 243.254 88.9823 243.336C88.5172 243.439 88.0522 243.542 87.5871 243.637C87.1005 243.74 86.614 243.839 86.1274 243.934C78.1759 245.495 70.0912 246.279 61.9878 246.275C61.4495 246.275 60.9156 246.271 60.3773 246.266C60.2137 246.266 60.05 246.262 59.8821 246.258C59.4084 246.249 58.9176 246.241 58.4181 246.228C48.8418 245.963 39.3283 244.593 30.0671 242.144L30.5322 207.9C30.3189 208.489 30.1913 209.105 30.1532 209.729C30.0025 210.904 29.8475 212.57 29.6925 214.554C29.1026 222.197 28.4954 234.526 27.8667 241.541C20.4216 239.424 14.9788 237.492 8.17525 234.092C7.91256 233.963 7.6456 233.829 7.38293 233.696C7.4303 233.364 7.48198 233.033 7.52934 232.693C8.30013 227.339 7.39155 220.372 8.24415 214.554C8.89436 210.065 9.56609 205.753 10.2421 202.095C11.0603 197.693 11.8913 194.232 12.7138 192.55C13.6611 190.609 14.6085 188.698 15.5257 186.869C15.9218 186.082 16.3108 185.308 16.6926 184.55C16.8993 184.141 17.106 183.736 17.3083 183.34C18.2298 181.537 19.0997 179.872 19.8963 178.396C20.4561 177.358 20.9728 176.42 21.4465 175.598C22.0019 174.63 22.4928 173.83 22.8976 173.223C25.8873 168.693 30.3357 165.321 35.5056 163.665L35.6348 163.63L35.7597 163.682L35.9018 163.746L44.1091 160.747L47.7735 151.929L66.5952 150.771L75.8962 157.846L86.8551 161.212L86.9455 161.173L87.0747 161.207C91.7793 162.712 95.8974 165.646 98.856 169.599C99.1488 169.978 99.4201 170.369 99.6828 170.765C100.398 171.824 101.362 173.498 102.499 175.598C102.968 176.463 103.463 177.401 103.984 178.396C104.299 178.994 107.012 187.454 109.651 196.096C112.119 204.187 114.521 212.436 114.836 214.554C114.892 214.945 114.952 215.341 115.008 215.733C115.365 218.182 115.718 220.648 116.059 223.053C116.562 226.621 117.053 230.064 117.523 233.141C117.527 233.171 117.531 233.197 117.536 233.227Z" fill="#E4D0A7"/>
<path d="M128.451 224.039L119.844 231.208L117.523 233.141L117.251 233.364C116.653 233.661 116.05 233.954 115.443 234.242C113.626 235.107 111.786 235.929 109.923 236.708C105.02 238.757 99.9904 240.487 94.8643 241.885C93.8912 242.152 92.9137 242.406 91.9319 242.647C91.3334 242.793 90.7305 242.94 90.1277 243.077C89.7488 243.168 89.3655 243.254 88.9823 243.336C88.5172 243.439 88.0522 243.542 87.5871 243.637C87.1005 243.74 86.614 243.839 86.1274 243.934C84.8181 242.689 83.7757 241.191 83.0636 239.531C82.3515 237.871 81.9845 236.083 81.985 234.277C81.985 234.161 81.985 234.04 81.9893 233.92L83.3715 198.489L83.983 182.785C84.0772 179.234 85.5573 175.86 88.1072 173.385C90.657 170.91 94.0743 169.53 97.6288 169.539C98.0422 169.539 98.4512 169.56 98.856 169.599C99.1488 169.978 99.4201 170.369 99.6828 170.765C100.398 171.824 101.362 173.498 102.499 175.598C102.968 176.463 103.463 177.401 103.984 178.396C104.299 178.994 107.012 187.454 109.651 196.096L108.489 205.12L106.387 221.388L115.008 215.733L121.079 211.748L123.672 216.073L128.451 224.039Z" fill="#E4D0A7"/>
<path d="M57.077 146.095C70.3793 146.095 81.1628 135.318 81.1628 122.024C81.1628 108.729 70.3793 97.9518 57.077 97.9518C43.7748 97.9518 32.9912 108.729 32.9912 122.024C32.9912 135.318 43.7748 146.095 57.077 146.095Z" fill="#A0616A"/>
<path d="M33.2804 105.435C35.2387 102.797 38.0535 100.922 40.2065 98.44C41.3879 97.0782 42.3688 95.5353 43.6968 94.3163C46.1644 92.0512 49.6152 91.1231 52.9635 91.0077C56.6331 90.9135 60.2734 91.684 63.5897 93.2569C66.906 94.8299 69.8052 97.161 72.0527 100.062C73.8029 99.0361 75.5531 98.0105 77.3033 96.985C77.9948 98.8038 78.6862 100.623 79.3777 102.442C79.9452 101.949 80.6689 101.672 81.4207 101.662C82.1725 101.651 82.9038 101.907 83.4849 102.384C84.066 102.861 84.4594 103.528 84.5954 104.267C84.7314 105.006 84.6012 105.769 84.2278 106.422C84.6443 105.135 86.5527 104.862 87.6049 105.712C88.657 106.562 88.9387 108.074 88.7671 109.415C88.5517 110.886 87.9008 112.259 86.8983 113.358C85.8958 114.457 84.5874 115.23 83.1413 115.58C80.8574 116.089 78.1991 115.554 76.3711 117.014C74.9056 118.185 74.4631 120.316 72.9675 121.447C71.1245 122.842 68.5196 122.197 66.2287 122.505C62.2206 123.044 59.047 127.141 59.5286 131.154C59.166 129.888 58.7849 128.585 57.9619 127.557C57.1388 126.528 55.7525 125.832 54.4902 126.21C52.4035 126.836 52.0622 129.678 52.5679 131.796C53.9091 137.412 58.9922 146.49 58.9922 146.49C52.392 149.092 44.5288 146.631 39.4363 141.694C34.3438 136.756 31.6916 129.765 30.5363 122.769C29.5566 116.836 29.6954 110.264 33.2804 105.435Z" fill="#1D1C28"/>
<path d="M124.455 224.343L118.927 215.127L137.31 201.188L144.953 193.123C145.946 192.075 147.197 191.306 148.58 190.893C149.964 190.48 151.431 190.436 152.837 190.768C154.242 191.099 155.536 191.793 156.589 192.78C157.642 193.768 158.418 195.015 158.838 196.395C159.46 198.441 159.262 200.649 158.287 202.553C157.311 204.456 155.634 205.907 153.609 206.597L141.732 210.65L124.455 224.343Z" fill="#A0616A"/>
<path d="M123.732 213.913C123.728 214.644 123.71 215.363 123.672 216.073C123.582 218.032 123.355 219.982 122.991 221.908C122.397 225.144 121.337 228.277 119.844 231.208C119.646 231.6 119.435 231.987 119.219 232.366C118.664 232.659 118.1 232.943 117.536 233.227C117.441 233.274 117.346 233.321 117.251 233.364C114.853 234.557 112.41 235.671 109.923 236.708C105.02 238.757 99.9904 240.487 94.8643 241.885C93.8912 242.152 92.9137 242.406 91.9319 242.647C90.0157 243.121 88.0809 243.549 86.1274 243.934C78.1759 245.495 70.0912 246.279 61.9878 246.275C61.4495 246.275 60.9156 246.271 60.3773 246.266C60.2137 246.266 60.05 246.262 59.8821 246.258C59.4084 246.249 58.9176 246.241 58.4181 246.228C48.8418 245.963 39.3283 244.593 30.0671 242.144C29.3308 241.95 28.5973 241.749 27.8667 241.541C20.8265 239.54 13.9787 236.916 7.40448 233.7C0.178951 218.84 1.53535 210.904 0.226318 192.881C2.91328 186.172 48.3721 190.91 83.3715 198.489C92.8706 200.546 101.595 202.814 108.489 205.12C115.611 207.5 120.774 209.919 122.798 212.191C123.27 212.662 123.595 213.26 123.732 213.913Z" fill="#1D1C28"/>
<path d="M0.228784 195.967C0.161925 194.851 0.08718 193.698 0 192.498C4.36632 181.602 121.529 200.894 123.506 213.53C123.5 214.688 123.451 215.812 123.367 216.91C118.581 204.439 7.27461 186.102 0.228784 195.967Z" fill="black"/>
</g>
</g>
<g id="girl">
<g id="girl_2">
<path d="M791.123 233.25C790.861 233.383 790.594 233.517 790.331 233.646C783.528 237.045 778.085 238.978 770.64 241.095C770.011 234.08 769.404 221.751 768.814 214.108C768.659 212.124 768.504 210.458 768.353 209.283C768.315 208.659 768.188 208.043 767.974 207.454L768.439 241.698C759.178 244.147 749.665 245.517 740.088 245.782C739.589 245.795 739.098 245.803 738.624 245.812C738.456 245.816 738.293 245.82 738.129 245.82C737.591 245.825 737.057 245.829 736.519 245.829C726.427 245.836 716.372 244.618 706.575 242.201C706.786 235.259 706.997 223.068 707.199 214.108C707.242 212.356 707.281 210.725 707.324 209.283C707.406 206.202 707.492 203.982 707.573 203.237C707.501 203.369 707.445 203.509 707.406 203.654C707.007 205.51 706.735 207.391 706.592 209.283C706.441 210.725 706.29 212.356 706.14 214.108C705.339 223.416 704.503 236.073 703.642 241.439C698.516 240.041 693.486 238.311 688.584 236.262C686 235.186 683.463 234.026 680.971 232.781C681.444 229.682 681.94 226.209 682.448 222.607C682.844 219.814 683.253 216.944 683.671 214.108C684.317 209.727 706.26 162.418 711.432 160.761L711.561 160.727L711.651 160.766L722.61 157.4L731.911 150.325L750.733 151.483L754.397 160.301L762.605 163.3L762.747 163.236L762.872 163.184L763.001 163.219C768.171 164.875 772.619 168.247 775.609 172.777C776.014 173.383 776.504 174.184 777.06 175.152C777.534 175.974 778.05 176.912 778.61 177.95C779.407 179.426 780.277 181.091 781.198 182.894C781.4 183.29 781.607 183.695 781.814 184.104C782.197 184.861 782.586 185.634 782.981 186.423C783.898 188.252 784.845 190.163 785.793 192.104C786.615 193.786 787.446 197.246 788.264 201.649C788.94 205.307 789.612 209.619 790.262 214.108C791.115 219.926 790.206 226.893 790.977 232.247C791.024 232.587 791.076 232.918 791.123 233.25Z" fill="#E4D0A7"/>
<path d="M798.28 192.435C796.971 210.458 798.328 218.394 791.102 233.254C784.528 236.47 777.68 239.094 770.64 241.095C769.908 241.302 769.174 241.502 768.439 241.698C759.178 244.147 749.665 245.517 740.088 245.782C739.589 245.795 739.098 245.803 738.624 245.812C738.456 245.816 738.293 245.82 738.129 245.82C737.591 245.825 737.057 245.829 736.519 245.829C726.427 245.836 716.372 244.618 706.575 242.201C705.593 241.96 704.615 241.706 703.642 241.439C698.516 240.041 693.486 238.311 688.584 236.262C686 235.186 683.463 234.026 680.971 232.781C680.407 232.497 679.843 232.213 679.287 231.92C676.432 226.902 674.809 220.8 674.775 213.467C676.751 200.831 793.914 181.539 798.28 192.435Z" fill="#1D1C28"/>
<path d="M681.478 184.475L668.655 190.882L678.386 221.355C679.085 223.543 680.337 225.514 682.023 227.076C683.708 228.638 685.768 229.739 688.004 230.271C690.761 230.927 693.655 230.688 696.267 229.589C698.879 228.491 701.073 226.59 702.531 224.161L728.335 179.958C730.164 176.912 730.728 173.272 729.908 169.816C729.088 166.359 726.948 163.361 723.945 161.46C722.33 160.438 720.518 159.767 718.626 159.491C716.735 159.215 714.806 159.341 712.966 159.859C711.127 160.377 709.416 161.277 707.947 162.499C706.478 163.721 705.283 165.239 704.44 166.954L688.69 200.494L681.478 184.475Z" fill="#E4D0A7"/>
<path d="M671.861 193.285L681.478 188.48L673.464 166.854L671.352 155.948C671.077 154.531 670.435 153.211 669.491 152.12C668.546 151.028 667.331 150.204 665.967 149.729C664.604 149.254 663.139 149.144 661.721 149.412C660.302 149.68 658.978 150.315 657.881 151.254C656.257 152.646 655.236 154.614 655.036 156.743C654.836 158.873 655.471 160.996 656.808 162.666L664.648 172.461L671.861 193.285Z" fill="#FFB6B6"/>
<path d="M798.277 195.522C798.344 194.406 798.418 193.253 798.506 192.053C794.139 181.157 676.976 200.449 675 213.084C675.005 214.243 675.055 215.367 675.138 216.465C679.925 203.994 791.231 185.657 798.277 195.522Z" fill="black"/>
<path d="M734.922 147.16C747.012 147.16 756.813 137.365 756.813 125.282C756.813 113.2 747.012 103.405 734.922 103.405C722.833 103.405 713.032 113.2 713.032 125.282C713.032 137.365 722.833 147.16 734.922 147.16Z" fill="#FFB6B6"/>
<path d="M763.355 137.342C767.937 126.843 765.341 117.181 759.755 112.055V112.051C757.559 107.132 754.64 103.336 751.298 102.445C749.683 101.408 748.116 100.19 746.376 99.5705C745.566 99.2673 744.703 99.1312 743.838 99.1704C742.974 99.2096 742.127 99.4233 741.347 99.7986L740.46 99.5619C739.706 97.6382 738.824 97.5995 737.842 98.8647C734.061 97.1046 730.655 96.317 727.624 96.317C717.737 96.317 711.889 104.683 710.339 114.796L718.603 116.995L721.475 112.421L720.148 117.409L724.708 118.618C731.65 127.651 723.343 148.489 712.815 160.082C715.321 159.389 717.817 158.804 720.303 158.326L729.337 145.089L723.74 157.139C726.646 156.713 730.354 157.121 734.406 157.943C735.771 156.162 736.49 153.786 735.784 151.669C736.938 153.902 737.734 156.302 738.143 158.783C746.695 160.87 758.36 161.941 764.647 162.733C769.726 161.076 769.74 142.361 763.355 137.342Z" fill="#1D1C28"/>
<path d="M766.336 101.627C769.693 109.138 762.92 112.369 756.716 112.277C751.11 112.195 746.346 108.259 746.059 102.663C745.922 99.9754 746.858 97.3436 748.662 95.3462C750.467 93.3489 752.991 92.1496 755.68 92.0122C761.279 91.7262 764.05 96.5105 766.336 101.627Z" fill="#1D1C28"/>
</g>
</g>
<g id="computer-svg" clipPath="url(#clip0_225_511)">
<path id="Vector" d="M387.551 42.1602C393.901 42.1602 399.049 37.0156 399.049 30.6694C399.049 24.3233 393.901 19.1787 387.551 19.1787C381.202 19.1787 376.054 24.3233 376.054 30.6694C376.054 37.0156 381.202 42.1602 387.551 42.1602Z" fill="#FD6584"/>
<path id="Vector_2" d="M413.283 25.2284C412.959 24.1658 412.331 23.2212 411.477 22.5109C410.622 21.8005 409.578 21.3554 408.474 21.2304C408.448 21.2283 408.422 21.2283 408.396 21.2304C408.365 21.2207 408.334 21.2135 408.301 21.2089C404.452 20.7097 400.172 21.9233 397.291 24.5656C396.221 25.5311 395.366 26.7097 394.78 28.0257C394.246 27.2967 393.543 26.7088 392.73 26.3128C391.918 25.9169 391.021 25.7249 390.117 25.7534C388.952 25.8304 387.839 26.2647 386.929 26.9971C386.02 27.7295 385.359 28.7244 385.036 29.8461C385 29.9831 385.01 30.1279 385.064 30.259C385.117 30.39 385.212 30.5003 385.333 30.5734C385.679 30.8694 386.091 31.0788 386.534 31.1845C387.486 31.3867 388.446 31.5718 389.407 31.7396C391.284 32.0667 393.171 32.3321 395.069 32.5358C396.322 32.6692 397.578 32.7753 398.837 32.8542C401.438 33.0178 404.051 33.0565 406.657 32.9747C407.948 32.9317 409.188 32.8886 410.368 32.3206C411.228 31.898 411.963 31.2587 412.5 30.4658C413.005 29.703 413.338 28.8388 413.473 27.934C413.608 27.0291 413.544 26.1056 413.283 25.2284Z" fill="#E6E6E6"/>
<path id="Vector_3" d="M389.63 41.9692C389.609 41.4877 389.528 41.0108 389.389 40.5491C389.064 39.4866 388.434 38.5423 387.579 37.8321C386.724 37.1219 385.68 36.6766 384.575 36.5511C384.551 36.5489 384.526 36.5489 384.502 36.5511C384.469 36.5419 384.436 36.5347 384.403 36.5296C382.272 36.2687 380.11 36.4908 378.077 37.1794C374.951 38.2252 372.208 40.3339 370.886 43.3463C370.352 42.6169 369.647 42.0287 368.834 41.6328C368.021 41.2368 367.123 41.0451 366.219 41.0741C365.053 41.1511 363.94 41.5854 363.031 42.3178C362.121 43.0502 361.46 44.0451 361.137 45.1667C361.104 45.3038 361.115 45.4479 361.168 45.5785C361.221 45.7091 361.315 45.8196 361.435 45.894C361.781 46.1892 362.193 46.3986 362.636 46.5051C363.592 46.7074 364.548 46.8924 365.512 47.0603C367.39 47.3874 369.276 47.6527 371.171 47.8564C375.02 48.2694 378.893 48.4161 382.762 48.2954C384.05 48.2523 385.294 48.2093 386.474 47.6413C387.333 47.2185 388.066 46.5792 388.601 45.7864C389.356 44.6623 389.718 43.3202 389.63 41.9692Z" fill="#E6E6E6"/>
<path id="Vector_4" d="M539.373 181.398C539.538 189.233 538.456 197.044 536.168 204.54C536.088 204.812 535.991 205.084 535.895 205.356H488.721C489.395 202.037 490.466 198.811 491.909 195.748C495.835 187.42 502.245 180.293 508.574 173.215C517.291 163.462 525.8 153.789 527.146 141.105C530.602 146.37 533.359 152.06 535.351 158.033C532.913 158.936 530.675 160.307 528.765 162.069C528.236 162.565 527.675 163.286 527.947 163.974C528.204 164.551 528.909 164.743 529.534 164.871C531.04 165.159 532.546 165.448 534.053 165.72C535.238 165.96 536.44 166.184 537.642 166.409C538.698 171.338 539.278 176.358 539.373 181.398Z" fill="#F2F2F2"/>
<path id="Vector_5" d="M579 176.21C571.437 180.806 566.629 187.916 562.704 195.876C559.287 196.654 556.133 198.31 553.554 200.68C553.009 201.177 552.448 201.897 552.737 202.586C552.977 203.162 553.698 203.355 554.323 203.483C555.813 203.771 557.335 204.059 558.826 204.331C558.682 204.668 558.537 205.02 558.393 205.356H508.398C510.668 202.297 513.181 199.427 515.913 196.772C516.506 196.18 517.115 195.619 517.74 195.043C524.113 189.287 531.431 184.671 539.373 181.398C551.883 176.171 565.564 174.38 579 176.21Z" fill="#F2F2F2"/>
<path id="Vector_6" d="M516.731 205.356H472.216C471.973 201.794 471.994 198.218 472.28 194.659C474.059 172.67 486.028 151.723 504.088 139.04C501.78 147.255 502.966 155.423 505.37 163.622C505.033 163.734 504.697 163.83 504.392 163.958C501.954 164.861 499.717 166.232 497.806 167.994C497.277 168.491 496.717 169.211 496.989 169.9C497.229 170.476 497.95 170.669 498.575 170.797C500.082 171.085 501.588 171.373 503.078 171.646C504.28 171.886 505.482 172.11 506.683 172.35C507.244 172.446 507.805 172.558 508.366 172.67C508.446 172.863 508.494 173.039 508.574 173.215C511.395 180.982 514.471 188.813 515.913 196.773C516.27 198.77 516.516 200.785 516.65 202.81C516.699 203.659 516.731 204.508 516.731 205.356Z" fill="#F2F2F2"/>
<path id="Vector_7" d="M274.121 181.398C274.286 189.233 273.204 197.044 270.916 204.54C270.836 204.812 270.74 205.084 270.644 205.356H223.469C224.143 202.037 225.214 198.811 226.658 195.748C230.583 187.42 236.993 180.293 243.323 173.215C252.04 163.462 260.548 153.789 261.895 141.105C265.35 146.37 268.108 152.06 270.099 158.033C267.661 158.936 265.424 160.307 263.513 162.069C262.984 162.565 262.423 163.286 262.696 163.974C262.952 164.551 263.657 164.743 264.282 164.871C265.788 165.159 267.295 165.448 268.801 165.72C269.987 165.96 271.188 166.184 272.39 166.409C273.447 171.338 274.026 176.358 274.121 181.398Z" fill="#F2F2F2"/>
<path id="Vector_8" d="M313.748 176.21C306.185 180.806 301.378 187.916 297.452 195.876C294.035 196.654 290.882 198.31 288.302 200.68C287.757 201.177 287.196 201.897 287.485 202.586C287.725 203.162 288.446 203.355 289.071 203.483C290.561 203.771 292.084 204.059 293.574 204.331C293.43 204.668 293.286 205.02 293.141 205.356H243.146C245.416 202.297 247.929 199.427 250.662 196.772C251.255 196.18 251.863 195.619 252.488 195.043C258.861 189.287 266.179 184.671 274.121 181.398C286.632 176.171 300.312 174.38 313.748 176.21Z" fill="#F2F2F2"/>
<path id="Vector_9" d="M251.479 205.356H206.964C206.721 201.794 206.742 198.218 207.028 194.659C208.807 172.67 220.777 151.723 238.836 139.04C236.528 147.255 237.714 155.423 240.118 163.622C239.781 163.734 239.445 163.83 239.14 163.958C236.702 164.861 234.465 166.232 232.554 167.994C232.026 168.491 231.465 169.211 231.737 169.9C231.978 170.476 232.699 170.669 233.324 170.797C234.83 171.085 236.336 171.373 237.826 171.646C239.028 171.886 240.23 172.11 241.432 172.35C241.993 172.446 242.553 172.558 243.114 172.67C243.194 172.863 243.242 173.039 243.323 173.215C246.143 180.982 249.219 188.813 250.662 196.773C251.019 198.77 251.265 200.785 251.399 202.81C251.447 203.659 251.479 204.508 251.479 205.356Z" fill="#F2F2F2"/>
<path id="Vector_10" d="M417.201 186.678L456.976 190.207L457.402 190.246V20.6268C457.26 20.5278 457.118 20.4288 456.976 20.3299C448.686 14.535 439.719 9.77447 430.274 6.15405L428.241 34.17L428.056 36.7349L426.045 64.5184L425.425 73.0652L417.274 185.688L417.201 186.678Z" fill="#E6E6E6"/>
<path id="Vector_11" d="M318.838 17.468C318.554 17.6487 318.27 17.8295 317.985 18.0188V190.246L318.838 190.168L358.182 186.678L358.109 185.688L349.958 73.0652L349.338 64.5184L347.327 36.7348L347.141 34.1699L345.01 4.78979C335.818 7.97412 327.034 12.2295 318.838 17.468Z" fill="#E6E6E6"/>
<path id="Vector_12" d="M317.985 18.0189C317.413 18.389 316.84 18.7677 316.276 19.1507V192.596C316.276 196.929 318.847 200.561 322.283 201.487C322.844 201.639 323.423 201.715 324.005 201.715H451.808C452.389 201.716 452.966 201.639 453.526 201.487C454.804 201.132 455.961 200.439 456.876 199.481C458.622 197.617 459.576 195.148 459.538 192.596V22.1675C458.831 21.6467 458.121 21.1303 457.402 20.6268C457.26 20.5278 457.118 20.4288 456.976 20.3299V192.596C456.977 193.154 456.91 193.71 456.777 194.252C456.17 196.813 454.168 198.689 451.808 198.689H324.005C321.155 198.689 318.838 195.957 318.838 192.596V17.468C318.554 17.6488 318.27 17.8295 317.985 18.0189Z" fill="#E6E6E6"/>
<path id="Vector_13" d="M458.257 34.1716H317.556V36.7361H458.257V34.1716Z" fill="#E6E6E6"/>
<path id="Vector_14" d="M415.164 1.45888C414.311 1.24801 413.459 1.05004 412.598 0.86499V70.5003H415.164V1.45888Z" fill="#E6E6E6"/>
<path id="Vector_15" d="M363.216 0C362.359 0.15923 361.502 0.322766 360.65 0.49921V70.5003H363.216V0Z" fill="#E6E6E6"/>
<path id="Vector_16" d="M289.97 197.226C289.97 198.698 290.252 200.156 290.801 201.521C291.012 202.05 291.264 202.563 291.555 203.053C291.93 203.693 292.366 204.295 292.855 204.852C293.937 206.084 295.27 207.071 296.764 207.747C298.258 208.423 299.879 208.773 301.519 208.772H470.019C473.081 208.772 476.019 207.556 478.185 205.392C480.351 203.227 481.567 200.291 481.567 197.23C481.567 194.169 480.351 191.233 478.185 189.069C476.019 186.904 473.081 185.688 470.019 185.688H301.519C298.458 185.691 295.523 186.908 293.358 189.071C291.193 191.234 289.974 194.167 289.97 197.226Z" fill="#E6E6E6"/>
<path id="Vector_17" d="M317.556 73.0662L457.401 73.0662V64.5179L317.556 64.5179V73.0662Z" fill="#E6E6E6"/>
<path id="Vector_18" d="M393.466 66.655H381.491C381.491 65.4081 381.987 64.2123 382.869 63.3306C383.751 62.4488 384.948 61.9535 386.196 61.9535H388.761C389.379 61.9535 389.991 62.0751 390.562 62.3114C391.132 62.5477 391.651 62.894 392.088 63.3306C392.525 63.7671 392.871 64.2854 393.108 64.8558C393.344 65.4262 393.466 66.0376 393.466 66.655Z" fill="#E6E6E6"/>
<path id="Vector_19" d="M200 203.819C203.741 208.249 207.787 212.412 212.109 216.278H559.425C563.746 212.412 567.793 208.249 571.533 203.819H200Z" fill="#E4D0A7"/>
<path id="Vector_20" d="M370.816 162.157V206.294H401.755V162.157C401.755 161.839 401.654 161.53 401.466 161.274C401.277 161.019 401.012 160.83 400.709 160.736C400.566 160.689 400.416 160.666 400.265 160.668H372.31C372.114 160.667 371.92 160.705 371.739 160.78C371.558 160.855 371.393 160.964 371.254 161.103C371.116 161.241 371.005 161.405 370.93 161.586C370.855 161.767 370.816 161.961 370.816 162.157ZM382.89 177.322C382.898 176.452 383.25 175.621 383.868 175.008C384.487 174.396 385.322 174.052 386.193 174.052C387.064 174.052 387.899 174.396 388.517 175.008C389.136 175.621 389.487 176.452 389.496 177.322V182.443C389.491 183.316 389.141 184.151 388.522 184.767C387.903 185.382 387.066 185.727 386.193 185.727C385.32 185.727 384.482 185.382 383.863 184.767C383.245 184.151 382.895 183.316 382.89 182.443V177.322Z" fill="#1D1C28"/>
<path id="Vector_21" d="M370.721 204.882V209.138C370.722 209.359 370.81 209.57 370.965 209.726C371.121 209.883 371.332 209.971 371.552 209.973H401.019C401.239 209.972 401.451 209.884 401.607 209.727C401.762 209.571 401.85 209.359 401.85 209.138V204.882H370.721Z" fill="#E4D0A7"/>
<path id="Vector_22" d="M322.145 95.6587V176.246C322.146 177.273 322.554 178.258 323.281 178.984C324.008 179.71 324.993 180.119 326.02 180.12H445.513C446.54 180.119 447.526 179.71 448.252 178.984C448.979 178.258 449.387 177.273 449.388 176.246V95.6587C449.386 94.6326 448.977 93.6493 448.25 92.9241C447.524 92.199 446.54 91.7911 445.513 91.7898H326.02C324.994 91.7911 324.009 92.199 323.283 92.9241C322.557 93.6493 322.147 94.6326 322.145 95.6587Z" fill="#E4D0A7"/>
<path id="Vector_23" d="M324.948 96.6615V175.252C324.949 175.801 325.168 176.327 325.556 176.715C325.944 177.103 326.47 177.321 327.019 177.322H444.518C445.067 177.321 445.593 177.103 445.982 176.715C446.37 176.327 446.588 175.801 446.589 175.252V96.6615C446.589 96.1121 446.371 95.5852 445.983 95.1963C445.595 94.8074 445.068 94.5884 444.518 94.5872H327.019C326.47 94.5884 325.943 94.8074 325.555 95.1963C325.166 95.5852 324.948 96.1121 324.948 96.6615Z" fill="#333232"/>
<path id="Vector_24" d="M348.907 210.976C349.027 211.126 349.179 211.246 349.352 211.329C349.525 211.412 349.714 211.454 349.906 211.453H419.81C420.001 211.453 420.19 211.41 420.363 211.328C420.535 211.246 420.687 211.126 420.808 210.978C420.928 210.829 421.014 210.656 421.059 210.47C421.104 210.285 421.107 210.091 421.068 209.904L419.982 204.753C419.937 204.543 419.841 204.347 419.701 204.184C419.561 204.021 419.382 203.896 419.181 203.819C419.036 203.762 418.881 203.733 418.725 203.733H350.987C350.831 203.733 350.676 203.762 350.53 203.819C350.33 203.896 350.151 204.021 350.011 204.184C349.871 204.347 349.774 204.543 349.729 204.753L348.644 209.904C348.606 210.091 348.609 210.284 348.655 210.47C348.7 210.655 348.786 210.828 348.907 210.976Z" fill="#1D1C28"/>
<path id="Vector_25" d="M416.286 205.952H418.018C418.134 205.952 418.229 205.858 418.229 205.742V204.871C418.229 204.755 418.134 204.661 418.018 204.661H416.286C416.17 204.661 416.076 204.755 416.076 204.871V205.742C416.076 205.858 416.17 205.952 416.286 205.952Z" fill="#E4D0A7"/>
<path id="Vector_26" d="M411.98 205.952H413.712C413.828 205.952 413.923 205.858 413.923 205.742V204.871C413.923 204.755 413.828 204.661 413.712 204.661H411.98C411.864 204.661 411.769 204.755 411.769 204.871V205.742C411.769 205.858 411.864 205.952 411.98 205.952Z" fill="#E4D0A7"/>
<path id="Vector_27" d="M407.674 205.952H409.406C409.522 205.952 409.616 205.858 409.616 205.742V204.871C409.616 204.755 409.522 204.661 409.406 204.661H407.674C407.558 204.661 407.463 204.755 407.463 204.871V205.742C407.463 205.858 407.558 205.952 407.674 205.952Z" fill="#E4D0A7"/>
<path id="Vector_28" d="M403.368 205.952H405.1C405.216 205.952 405.31 205.858 405.31 205.742V204.871C405.31 204.755 405.216 204.661 405.1 204.661H403.368C403.252 204.661 403.157 204.755 403.157 204.871V205.742C403.157 205.858 403.252 205.952 403.368 205.952Z" fill="#E4D0A7"/>
<path id="Vector_29" d="M399.062 205.952H400.794C400.91 205.952 401.004 205.858 401.004 205.742V204.871C401.004 204.755 400.91 204.661 400.794 204.661H399.062C398.945 204.661 398.851 204.755 398.851 204.871V205.742C398.851 205.858 398.945 205.952 399.062 205.952Z" fill="#E4D0A7"/>
<path id="Vector_30" d="M394.756 205.952H396.488C396.604 205.952 396.698 205.858 396.698 205.742V204.871C396.698 204.755 396.604 204.661 396.488 204.661H394.756C394.639 204.661 394.545 204.755 394.545 204.871V205.742C394.545 205.858 394.639 205.952 394.756 205.952Z" fill="#E4D0A7"/>
<path id="Vector_31" d="M390.45 205.952H392.182C392.298 205.952 392.392 205.858 392.392 205.742V204.871C392.392 204.755 392.298 204.661 392.182 204.661H390.45C390.333 204.661 390.239 204.755 390.239 204.871V205.742C390.239 205.858 390.333 205.952 390.45 205.952Z" fill="#E4D0A7"/>
<path id="Vector_32" d="M386.143 205.952H387.876C387.992 205.952 388.086 205.858 388.086 205.742V204.871C388.086 204.755 387.992 204.661 387.876 204.661H386.143C386.027 204.661 385.933 204.755 385.933 204.871V205.742C385.933 205.858 386.027 205.952 386.143 205.952Z" fill="#E4D0A7"/>
<path id="Vector_33" d="M381.837 205.952H383.57C383.686 205.952 383.78 205.858 383.78 205.742V204.871C383.78 204.755 383.686 204.661 383.57 204.661H381.837C381.721 204.661 381.627 204.755 381.627 204.871V205.742C381.627 205.858 381.721 205.952 381.837 205.952Z" fill="#E4D0A7"/>
<path id="Vector_34" d="M377.531 205.952H379.264C379.38 205.952 379.474 205.858 379.474 205.742V204.871C379.474 204.755 379.38 204.661 379.264 204.661H377.531C377.415 204.661 377.321 204.755 377.321 204.871V205.742C377.321 205.858 377.415 205.952 377.531 205.952Z" fill="#E4D0A7"/>
<path id="Vector_35" d="M373.225 205.952H374.958C375.074 205.952 375.168 205.858 375.168 205.742V204.871C375.168 204.755 375.074 204.661 374.958 204.661H373.225C373.109 204.661 373.015 204.755 373.015 204.871V205.742C373.015 205.858 373.109 205.952 373.225 205.952Z" fill="#E4D0A7"/>
<path id="Vector_36" d="M368.919 205.952H370.652C370.768 205.952 370.862 205.858 370.862 205.742V204.871C370.862 204.755 370.768 204.661 370.652 204.661H368.919C368.803 204.661 368.709 204.755 368.709 204.871V205.742C368.709 205.858 368.803 205.952 368.919 205.952Z" fill="#E4D0A7"/>
<path id="Vector_37" d="M364.613 205.952H366.346C366.462 205.952 366.556 205.858 366.556 205.742V204.871C366.556 204.755 366.462 204.661 366.346 204.661H364.613C364.497 204.661 364.403 204.755 364.403 204.871V205.742C364.403 205.858 364.497 205.952 364.613 205.952Z" fill="#E4D0A7"/>
<path id="Vector_38" d="M360.307 205.952H362.04C362.156 205.952 362.25 205.858 362.25 205.742V204.871C362.25 204.755 362.156 204.661 362.04 204.661H360.307C360.191 204.661 360.097 204.755 360.097 204.871V205.742C360.097 205.858 360.191 205.952 360.307 205.952Z" fill="#E4D0A7"/>
<path id="Vector_39" d="M356.001 205.952H357.734C357.85 205.952 357.944 205.858 357.944 205.742V204.871C357.944 204.755 357.85 204.661 357.734 204.661H356.001C355.885 204.661 355.791 204.755 355.791 204.871V205.742C355.791 205.858 355.885 205.952 356.001 205.952Z" fill="#E4D0A7"/>
<path id="Vector_40" d="M351.695 205.952H353.428C353.544 205.952 353.638 205.858 353.638 205.742V204.871C353.638 204.755 353.544 204.661 353.428 204.661H351.695C351.579 204.661 351.485 204.755 351.485 204.871V205.742C351.485 205.858 351.579 205.952 351.695 205.952Z" fill="#E4D0A7"/>
<path id="Vector_41" d="M416.337 208.104H418.069C418.185 208.104 418.279 208.009 418.279 207.893V207.023C418.279 206.907 418.185 206.812 418.069 206.812H416.337C416.221 206.812 416.126 206.907 416.126 207.023V207.893C416.126 208.009 416.221 208.104 416.337 208.104Z" fill="#E4D0A7"/>
<path id="Vector_42" d="M412.031 208.104H413.763C413.879 208.104 413.973 208.009 413.973 207.893V207.023C413.973 206.907 413.879 206.812 413.763 206.812H412.031C411.914 206.812 411.82 206.907 411.82 207.023V207.893C411.82 208.009 411.914 208.104 412.031 208.104Z" fill="#E4D0A7"/>
<path id="Vector_43" d="M407.725 208.104H409.457C409.573 208.104 409.667 208.009 409.667 207.893V207.023C409.667 206.907 409.573 206.812 409.457 206.812H407.725C407.608 206.812 407.514 206.907 407.514 207.023V207.893C407.514 208.009 407.608 208.104 407.725 208.104Z" fill="#E4D0A7"/>
<path id="Vector_44" d="M403.419 208.104H405.151C405.267 208.104 405.361 208.009 405.361 207.893V207.023C405.361 206.907 405.267 206.812 405.151 206.812H403.419C403.302 206.812 403.208 206.907 403.208 207.023V207.893C403.208 208.009 403.302 208.104 403.419 208.104Z" fill="#E4D0A7"/>
<path id="Vector_45" d="M399.112 208.104H400.845C400.961 208.104 401.055 208.009 401.055 207.893V207.023C401.055 206.907 400.961 206.812 400.845 206.812H399.112C398.996 206.812 398.902 206.907 398.902 207.023V207.893C398.902 208.009 398.996 208.104 399.112 208.104Z" fill="#E4D0A7"/>
<path id="Vector_46" d="M394.806 208.104H396.539C396.655 208.104 396.749 208.009 396.749 207.893V207.023C396.749 206.907 396.655 206.812 396.539 206.812H394.806C394.69 206.812 394.596 206.907 394.596 207.023V207.893C394.596 208.009 394.69 208.104 394.806 208.104Z" fill="#E4D0A7"/>
<path id="Vector_47" d="M390.5 208.104H392.233C392.349 208.104 392.443 208.009 392.443 207.893V207.023C392.443 206.907 392.349 206.812 392.233 206.812H390.5C390.384 206.812 390.29 206.907 390.29 207.023V207.893C390.29 208.009 390.384 208.104 390.5 208.104Z" fill="#E4D0A7"/>
<path id="Vector_48" d="M386.194 208.104H387.927C388.043 208.104 388.137 208.009 388.137 207.893V207.023C388.137 206.907 388.043 206.812 387.927 206.812H386.194C386.078 206.812 385.984 206.907 385.984 207.023V207.893C385.984 208.009 386.078 208.104 386.194 208.104Z" fill="#E4D0A7"/>
<path id="Vector_49" d="M381.888 208.104H383.621C383.737 208.104 383.831 208.009 383.831 207.893V207.023C383.831 206.907 383.737 206.812 383.621 206.812H381.888C381.772 206.812 381.678 206.907 381.678 207.023V207.893C381.678 208.009 381.772 208.104 381.888 208.104Z" fill="#E4D0A7"/>
<path id="Vector_50" d="M377.582 208.104H379.315C379.431 208.104 379.525 208.009 379.525 207.893V207.023C379.525 206.907 379.431 206.812 379.315 206.812H377.582C377.466 206.812 377.372 206.907 377.372 207.023V207.893C377.372 208.009 377.466 208.104 377.582 208.104Z" fill="#E4D0A7"/>
<path id="Vector_51" d="M373.276 208.104H375.009C375.125 208.104 375.219 208.009 375.219 207.893V207.023C375.219 206.907 375.125 206.812 375.009 206.812H373.276C373.16 206.812 373.066 206.907 373.066 207.023V207.893C373.066 208.009 373.16 208.104 373.276 208.104Z" fill="#E4D0A7"/>
<path id="Vector_52" d="M368.97 208.104H370.703C370.819 208.104 370.913 208.009 370.913 207.893V207.023C370.913 206.907 370.819 206.812 370.703 206.812H368.97C368.854 206.812 368.76 206.907 368.76 207.023V207.893C368.76 208.009 368.854 208.104 368.97 208.104Z" fill="#E4D0A7"/>
<path id="Vector_53" d="M364.664 208.104H366.397C366.513 208.104 366.607 208.009 366.607 207.893V207.023C366.607 206.907 366.513 206.812 366.397 206.812H364.664C364.548 206.812 364.454 206.907 364.454 207.023V207.893C364.454 208.009 364.548 208.104 364.664 208.104Z" fill="#E4D0A7"/>
<path id="Vector_54" d="M360.358 208.104H362.091C362.207 208.104 362.301 208.009 362.301 207.893V207.023C362.301 206.907 362.207 206.812 362.091 206.812H360.358C360.242 206.812 360.148 206.907 360.148 207.023V207.893C360.148 208.009 360.242 208.104 360.358 208.104Z" fill="#E4D0A7"/>
<path id="Vector_55" d="M356.052 208.104H357.785C357.901 208.104 357.995 208.009 357.995 207.893V207.023C357.995 206.907 357.901 206.812 357.785 206.812H356.052C355.936 206.812 355.842 206.907 355.842 207.023V207.893C355.842 208.009 355.936 208.104 356.052 208.104Z" fill="#E4D0A7"/>
<path id="Vector_56" d="M351.746 208.104H353.479C353.595 208.104 353.689 208.009 353.689 207.893V207.023C353.689 206.907 353.595 206.812 353.479 206.812H351.746C351.63 206.812 351.536 206.907 351.536 207.023V207.893C351.536 208.009 351.63 208.104 351.746 208.104Z" fill="#E4D0A7"/>
<path id="Vector_57" d="M380.597 210.686H397.4C397.516 210.686 397.61 210.592 397.61 210.476V209.605C397.61 209.489 397.516 209.395 397.4 209.395H380.597C380.48 209.395 380.386 209.489 380.386 209.605V210.476C380.386 210.592 380.48 210.686 380.597 210.686Z" fill="#E4D0A7"/>
<path id="Vector_58" d="M332.924 105.413H442.867C442.981 105.411 443.09 105.364 443.17 105.282C443.25 105.2 443.295 105.091 443.295 104.977C443.295 104.862 443.25 104.753 443.17 104.671C443.09 104.589 442.981 104.542 442.867 104.54H332.924C332.809 104.542 332.701 104.589 332.621 104.671C332.541 104.753 332.496 104.862 332.496 104.977C332.496 105.091 332.541 105.2 332.621 105.282C332.701 105.364 332.809 105.411 332.924 105.413Z" fill="#E4D0A7"/>
<path id="Vector_59" d="M435.383 102.308C436.798 102.308 437.945 101.136 437.945 99.6906C437.945 98.2448 436.798 97.0728 435.383 97.0728C433.968 97.0728 432.821 98.2448 432.821 99.6906C432.821 101.136 433.968 102.308 435.383 102.308Z" fill="#E4D0A7"/>
<path id="Vector_60" d="M426.531 102.308C427.947 102.308 429.094 101.136 429.094 99.6906C429.094 98.2448 427.947 97.0728 426.531 97.0728C425.116 97.0728 423.969 98.2448 423.969 99.6906C423.969 101.136 425.116 102.308 426.531 102.308Z" fill="#E4D0A7"/>
<path id="Vector_61" d="M417.68 102.308C419.095 102.308 420.242 101.136 420.242 99.6906C420.242 98.2448 419.095 97.0728 417.68 97.0728C416.265 97.0728 415.118 98.2448 415.118 99.6906C415.118 101.136 416.265 102.308 417.68 102.308Z" fill="#E4D0A7"/>
<path id="Vector_62" d="M337.784 98.1977C337.784 98.2596 337.796 98.3209 337.82 98.3782C337.843 98.4355 337.877 98.4876 337.921 98.5315C337.965 98.5755 338.016 98.6105 338.074 98.6344C338.131 98.6583 338.192 98.6708 338.254 98.6711H344.541C344.665 98.6682 344.783 98.6168 344.87 98.5279C344.957 98.4391 345.006 98.3198 345.006 98.1955C345.006 98.0713 344.957 97.952 344.87 97.8631C344.783 97.7742 344.665 97.7229 344.541 97.72H338.254C338.128 97.7215 338.009 97.7726 337.921 97.8621C337.833 97.9516 337.784 98.0722 337.784 98.1977Z" fill="#E4D0A7"/>
<path id="Vector_63" d="M337.784 99.9838C337.784 100.046 337.796 100.107 337.82 100.164C337.843 100.222 337.877 100.274 337.921 100.318C337.965 100.362 338.016 100.397 338.074 100.421C338.131 100.444 338.192 100.457 338.254 100.457H344.541C344.665 100.454 344.783 100.403 344.87 100.314C344.957 100.225 345.006 100.106 345.006 99.9816C345.006 99.8573 344.957 99.7379 344.87 99.649C344.783 99.5602 344.665 99.5089 344.541 99.5061H338.254C338.128 99.5076 338.009 99.5587 337.921 99.6482C337.833 99.7377 337.784 99.8584 337.784 99.9838Z" fill="#E4D0A7"/>
<path id="Vector_64" d="M337.784 101.765C337.784 101.891 337.833 102.011 337.921 102.101C338.009 102.19 338.128 102.242 338.254 102.243H344.541C344.665 102.24 344.783 102.189 344.87 102.1C344.957 102.011 345.006 101.892 345.006 101.768C345.006 101.643 344.957 101.524 344.87 101.435C344.783 101.346 344.665 101.295 344.541 101.292H338.254C338.192 101.292 338.131 101.305 338.074 101.329C338.016 101.353 337.965 101.388 337.921 101.432C337.877 101.475 337.843 101.528 337.82 101.585C337.796 101.642 337.784 101.703 337.784 101.765Z" fill="#E4D0A7"/>
<path id="Vector_65" d="M339.727 115.568H337.468C336.784 115.568 336.228 116.123 336.228 116.808C336.228 117.492 336.784 118.047 337.468 118.047H339.727C340.412 118.047 340.968 117.492 340.968 116.808C340.968 116.123 340.412 115.568 339.727 115.568Z" fill="#E6E6E6"/>
<path id="Vector_66" d="M365.564 115.568H363.305C362.62 115.568 362.064 116.123 362.064 116.808C362.064 117.492 362.62 118.047 363.305 118.047H365.564C366.249 118.047 366.804 117.492 366.804 116.808C366.804 116.123 366.249 115.568 365.564 115.568Z" fill="#E6E6E6"/>
<path id="Vector_67" d="M372.884 115.568H370.625C369.94 115.568 369.385 116.123 369.385 116.808C369.385 117.492 369.94 118.047 370.625 118.047H372.884C373.569 118.047 374.124 117.492 374.124 116.808C374.124 116.123 373.569 115.568 372.884 115.568Z" fill="#E6E6E6"/>
<path id="Vector_68" d="M358.536 115.362H344.496C343.811 115.362 343.256 115.916 343.256 116.601C343.256 117.285 343.811 117.84 344.496 117.84H358.536C359.221 117.84 359.776 117.285 359.776 116.601C359.776 115.916 359.221 115.362 358.536 115.362Z" fill="#E6E6E6"/>
<path id="Vector_69" d="M392.984 115.362H378.944C378.259 115.362 377.704 115.916 377.704 116.601C377.704 117.285 378.259 117.84 378.944 117.84H392.984C393.669 117.84 394.225 117.285 394.225 116.601C394.225 115.916 393.669 115.362 392.984 115.362Z" fill="#E6E6E6"/>
<path id="Vector_70" d="M346.617 121.163H344.358C343.673 121.163 343.118 121.718 343.118 122.402C343.118 123.087 343.673 123.642 344.358 123.642H346.617C347.302 123.642 347.857 123.087 347.857 122.402C347.857 121.718 347.302 121.163 346.617 121.163Z" fill="#E6E6E6"/>
<path id="Vector_71" d="M372.453 121.163H370.194C369.509 121.163 368.954 121.718 368.954 122.402C368.954 123.087 369.509 123.642 370.194 123.642H372.453C373.138 123.642 373.693 123.087 373.693 122.402C373.693 121.718 373.138 121.163 372.453 121.163Z" fill="#E6E6E6"/>
<path id="Vector_72" d="M379.774 121.163H377.515C376.83 121.163 376.274 121.718 376.274 122.402C376.274 123.087 376.83 123.642 377.515 123.642H379.774C380.458 123.642 381.014 123.087 381.014 122.402C381.014 121.718 380.458 121.163 379.774 121.163Z" fill="#E6E6E6"/>
<path id="Vector_73" d="M365.426 120.956H351.386C350.701 120.956 350.145 121.511 350.145 122.195C350.145 122.88 350.701 123.435 351.386 123.435H365.426C366.111 123.435 366.666 122.88 366.666 122.195C366.666 121.511 366.111 120.956 365.426 120.956Z" fill="#E6E6E6"/>
<path id="Vector_74" d="M399.874 120.956H385.834C385.149 120.956 384.594 121.511 384.594 122.195C384.594 122.88 385.149 123.435 385.834 123.435H399.874C400.559 123.435 401.114 122.88 401.114 122.195C401.114 121.511 400.559 120.956 399.874 120.956Z" fill="#E6E6E6"/>
<path id="Vector_75" d="M353.507 126.757H351.248C350.563 126.757 350.008 127.312 350.008 127.997C350.008 128.681 350.563 129.236 351.248 129.236H353.507C354.192 129.236 354.747 128.681 354.747 127.997C354.747 127.312 354.192 126.757 353.507 126.757Z" fill="#E6E6E6"/>
<path id="Vector_76" d="M379.343 126.757H377.084C376.399 126.757 375.844 127.312 375.844 127.997C375.844 128.681 376.399 129.236 377.084 129.236H379.343C380.028 129.236 380.583 128.681 380.583 127.997C380.583 127.312 380.028 126.757 379.343 126.757Z" fill="#E6E6E6"/>
<path id="Vector_77" d="M386.663 126.757H384.404C383.719 126.757 383.164 127.312 383.164 127.997C383.164 128.681 383.719 129.236 384.404 129.236H386.663C387.348 129.236 387.903 128.681 387.903 127.997C387.903 127.312 387.348 126.757 386.663 126.757Z" fill="#E6E6E6"/>
<path id="Vector_78" d="M372.315 126.551H358.275C357.59 126.551 357.035 127.106 357.035 127.79C357.035 128.475 357.59 129.03 358.275 129.03H372.315C373 129.03 373.556 128.475 373.556 127.79C373.556 127.106 373 126.551 372.315 126.551Z" fill="#E6E6E6"/>
<path id="Vector_79" d="M406.764 126.551H392.724C392.039 126.551 391.483 127.106 391.483 127.79C391.483 128.475 392.039 129.03 392.724 129.03H406.764C407.449 129.03 408.004 128.475 408.004 127.79C408.004 127.106 407.449 126.551 406.764 126.551Z" fill="#E6E6E6"/>
<path id="Vector_80" d="M360.396 132.352H358.137C357.452 132.352 356.897 132.907 356.897 133.591C356.897 134.276 357.452 134.831 358.137 134.831H360.396C361.081 134.831 361.637 134.276 361.637 133.591C361.637 132.907 361.081 132.352 360.396 132.352Z" fill="#E6E6E6"/>
<path id="Vector_81" d="M386.233 132.352H383.974C383.289 132.352 382.733 132.907 382.733 133.591C382.733 134.276 383.289 134.831 383.974 134.831H386.233C386.917 134.831 387.473 134.276 387.473 133.591C387.473 132.907 386.917 132.352 386.233 132.352Z" fill="#E6E6E6"/>
<path id="Vector_82" d="M393.553 132.352H391.294C390.609 132.352 390.054 132.907 390.054 133.591C390.054 134.276 390.609 134.831 391.294 134.831H393.553C394.238 134.831 394.793 134.276 394.793 133.591C394.793 132.907 394.238 132.352 393.553 132.352Z" fill="#E6E6E6"/>
<path id="Vector_83" d="M379.205 132.145H365.165C364.48 132.145 363.925 132.7 363.925 133.385C363.925 134.069 364.48 134.624 365.165 134.624H379.205C379.89 134.624 380.445 134.069 380.445 133.385C380.445 132.7 379.89 132.145 379.205 132.145Z" fill="#E6E6E6"/>
<path id="Vector_84" d="M365.564 154.598H363.305C362.62 154.598 362.064 155.153 362.064 155.838C362.064 156.522 362.62 157.077 363.305 157.077H365.564C366.249 157.077 366.804 156.522 366.804 155.838C366.804 155.153 366.249 154.598 365.564 154.598Z" fill="#E6E6E6"/>
<path id="Vector_85" d="M372.884 154.598H370.625C369.94 154.598 369.385 155.153 369.385 155.838C369.385 156.522 369.94 157.077 370.625 157.077H372.884C373.569 157.077 374.124 156.522 374.124 155.838C374.124 155.153 373.569 154.598 372.884 154.598Z" fill="#E6E6E6"/>
<path id="Vector_86" d="M392.984 154.805H378.944C378.259 154.805 377.704 155.36 377.704 156.044C377.704 156.729 378.259 157.284 378.944 157.284H392.984C393.669 157.284 394.225 156.729 394.225 156.044C394.225 155.36 393.669 154.805 392.984 154.805Z" fill="#E6E6E6"/>
<path id="Vector_87" d="M339.727 154.598H337.468C336.784 154.598 336.228 155.153 336.228 155.838C336.228 156.522 336.784 157.077 337.468 157.077H339.727C340.412 157.077 340.968 156.522 340.968 155.838C340.968 155.153 340.412 154.598 339.727 154.598Z" fill="#E6E6E6"/>
<path id="Vector_88" d="M358.536 154.805H344.496C343.811 154.805 343.256 155.36 343.256 156.044C343.256 156.729 343.811 157.284 344.496 157.284H358.536C359.221 157.284 359.776 156.729 359.776 156.044C359.776 155.36 359.221 154.805 358.536 154.805Z" fill="#E6E6E6"/>
<path id="Vector_89" d="M346.617 149.004H344.358C343.673 149.004 343.118 149.559 343.118 150.243C343.118 150.928 343.673 151.482 344.358 151.482H346.617C347.302 151.482 347.857 150.928 347.857 150.243C347.857 149.559 347.302 149.004 346.617 149.004Z" fill="#E6E6E6"/>
<path id="Vector_90" d="M372.453 149.004H370.194C369.509 149.004 368.954 149.559 368.954 150.243C368.954 150.928 369.509 151.482 370.194 151.482H372.453C373.138 151.482 373.693 150.928 373.693 150.243C373.693 149.559 373.138 149.004 372.453 149.004Z" fill="#E6E6E6"/>
<path id="Vector_91" d="M379.774 149.004H377.515C376.83 149.004 376.274 149.559 376.274 150.243C376.274 150.928 376.83 151.482 377.515 151.482H379.774C380.458 151.482 381.014 150.928 381.014 150.243C381.014 149.559 380.458 149.004 379.774 149.004Z" fill="#E6E6E6"/>
<path id="Vector_92" d="M365.426 149.21H351.386C350.701 149.21 350.145 149.765 350.145 150.45C350.145 151.134 350.701 151.689 351.386 151.689H365.426C366.111 151.689 366.666 151.134 366.666 150.45C366.666 149.765 366.111 149.21 365.426 149.21Z" fill="#E6E6E6"/>
<path id="Vector_93" d="M353.507 143.409H351.248C350.563 143.409 350.008 143.964 350.008 144.649C350.008 145.333 350.563 145.888 351.248 145.888H353.507C354.192 145.888 354.747 145.333 354.747 144.649C354.747 143.964 354.192 143.409 353.507 143.409Z" fill="#E6E6E6"/>
<path id="Vector_94" d="M379.343 143.409H377.084C376.399 143.409 375.844 143.964 375.844 144.649C375.844 145.333 376.399 145.888 377.084 145.888H379.343C380.028 145.888 380.583 145.333 380.583 144.649C380.583 143.964 380.028 143.409 379.343 143.409Z" fill="#E6E6E6"/>
<path id="Vector_95" d="M386.663 143.409H384.404C383.719 143.409 383.164 143.964 383.164 144.649C383.164 145.333 383.719 145.888 384.404 145.888H386.663C387.348 145.888 387.903 145.333 387.903 144.649C387.903 143.964 387.348 143.409 386.663 143.409Z" fill="#E6E6E6"/>
<path id="Vector_96" d="M372.315 143.616H358.275C357.59 143.616 357.035 144.171 357.035 144.855C357.035 145.54 357.59 146.095 358.275 146.095H372.315C373 146.095 373.556 145.54 373.556 144.855C373.556 144.171 373 143.616 372.315 143.616Z" fill="#E6E6E6"/>
<path id="Vector_97" d="M360.396 137.815H358.137C357.452 137.815 356.897 138.37 356.897 139.054C356.897 139.739 357.452 140.293 358.137 140.293H360.396C361.081 140.293 361.637 139.739 361.637 139.054C361.637 138.37 361.081 137.815 360.396 137.815Z" fill="#E6E6E6"/>
<path id="Vector_98" d="M386.233 137.815H383.974C383.289 137.815 382.733 138.37 382.733 139.054C382.733 139.739 383.289 140.293 383.974 140.293H386.233C386.917 140.293 387.473 139.739 387.473 139.054C387.473 138.37 386.917 137.815 386.233 137.815Z" fill="#E6E6E6"/>
<path id="Vector_99" d="M393.553 137.815H391.294C390.609 137.815 390.054 138.37 390.054 139.054C390.054 139.739 390.609 140.293 391.294 140.293H393.553C394.238 140.293 394.793 139.739 394.793 139.054C394.793 138.37 394.238 137.815 393.553 137.815Z" fill="#E6E6E6"/>
<path id="Vector_100" d="M379.205 138.021H365.165C364.48 138.021 363.925 138.576 363.925 139.261C363.925 139.945 364.48 140.5 365.165 140.5H379.205C379.89 140.5 380.445 139.945 380.445 139.261C380.445 138.576 379.89 138.021 379.205 138.021Z" fill="#E6E6E6"/>
<path id="Vector_101" opacity="0.2" d="M330.727 203.8L327.068 189.688L323.837 201.865L330.727 203.8Z" fill="black"/>
<path id="Vector_102" d="M206.816 203.637C207.006 204.189 207.366 204.666 207.844 205.001C208.322 205.336 208.895 205.511 209.479 205.5L220.886 205.207C221.474 205.196 222.043 204.994 222.507 204.633C222.971 204.272 223.306 203.77 223.461 203.203L225.076 185.951C225.648 186.211 226.272 186.339 226.901 186.326C228.004 186.298 229.05 185.834 229.811 185.035C230.571 184.236 230.983 183.167 230.955 182.065C230.927 180.963 230.463 179.917 229.663 179.157C228.864 178.397 227.795 177.985 226.692 178.013C226.441 178.012 226.19 178.038 225.944 178.091C225.677 177.802 225.352 177.572 224.991 177.416C224.629 177.26 224.239 177.182 223.845 177.186L206.298 177.639C206.153 177.644 206.008 177.662 205.865 177.692C205.48 177.764 205.115 177.917 204.795 178.142C204.474 178.366 204.206 178.657 204.007 178.994C203.808 179.331 203.684 179.706 203.642 180.095C203.601 180.484 203.643 180.878 203.767 181.249L206.816 203.637ZM225.407 184.78L226.555 180.669C226.686 180.194 226.689 179.693 226.564 179.217C226.62 179.216 226.669 179.19 226.725 179.19C227.513 179.174 228.274 179.47 228.844 180.014C229.413 180.559 229.743 181.306 229.761 182.094C229.78 182.881 229.485 183.643 228.942 184.213C228.399 184.784 227.652 185.116 226.864 185.136C226.355 185.152 225.851 185.029 225.407 184.78Z" fill="#1D1C28"/>
<path id="Vector_103" d="M205.865 177.692C206.239 179.829 210.442 181.33 215.496 181.069C220.143 180.855 223.943 179.224 224.64 177.292C224.382 177.215 224.114 177.18 223.845 177.186L206.298 177.639C206.153 177.644 206.008 177.662 205.865 177.692Z" fill="#E4D0A7"/>
<path id="Vector_104" d="M216.422 194.157C216.445 194.151 216.467 194.141 216.487 194.128L218.965 192.507C218.995 192.488 219.019 192.461 219.036 192.43C219.053 192.398 219.062 192.363 219.062 192.327C219.062 192.292 219.053 192.257 219.036 192.225C219.019 192.194 218.995 192.167 218.965 192.148L216.39 190.462C216.366 190.446 216.34 190.436 216.312 190.43C216.284 190.425 216.255 190.425 216.228 190.431C216.2 190.436 216.174 190.448 216.15 190.463C216.127 190.479 216.107 190.5 216.091 190.523C216.076 190.547 216.065 190.574 216.06 190.601C216.054 190.629 216.055 190.658 216.061 190.686C216.066 190.713 216.078 190.74 216.094 190.763C216.11 190.786 216.13 190.806 216.154 190.822L218.454 192.327L216.252 193.768C216.209 193.796 216.178 193.838 216.163 193.887C216.149 193.935 216.152 193.988 216.172 194.034C216.193 194.081 216.229 194.119 216.275 194.141C216.321 194.164 216.373 194.169 216.422 194.157Z" fill="#333232"/>
<path id="Vector_105" d="M212.51 194.337C212.551 194.326 212.589 194.304 212.617 194.272C212.646 194.24 212.664 194.2 212.67 194.158C212.676 194.115 212.669 194.072 212.65 194.033C212.631 193.995 212.601 193.963 212.564 193.942L210.28 192.633L212.487 190.995C212.51 190.978 212.529 190.957 212.544 190.933C212.558 190.908 212.568 190.881 212.572 190.854C212.576 190.826 212.575 190.797 212.568 190.77C212.561 190.742 212.549 190.717 212.532 190.694C212.515 190.671 212.494 190.652 212.47 190.638C212.445 190.623 212.418 190.614 212.39 190.609C212.363 190.605 212.334 190.607 212.307 190.614C212.279 190.621 212.253 190.633 212.231 190.65L209.76 192.484C209.731 192.505 209.708 192.533 209.693 192.566C209.678 192.598 209.671 192.634 209.673 192.669C209.675 192.705 209.686 192.74 209.705 192.77C209.724 192.8 209.75 192.826 209.781 192.843L212.35 194.315C212.398 194.343 212.455 194.351 212.51 194.337Z" fill="#333232"/>
<path id="Vector_106" d="M216.176 195.577C216.197 195.571 216.217 195.563 216.235 195.552C216.259 195.537 216.28 195.518 216.297 195.495C216.314 195.472 216.326 195.446 216.332 195.419C216.339 195.391 216.34 195.363 216.336 195.335C216.332 195.307 216.322 195.28 216.307 195.256L212.795 189.486C212.765 189.437 212.718 189.403 212.662 189.389C212.607 189.376 212.548 189.385 212.5 189.415C212.451 189.444 212.416 189.492 212.403 189.547C212.389 189.603 212.398 189.661 212.427 189.71L215.939 195.48C215.963 195.519 215.999 195.55 216.042 195.567C216.084 195.585 216.131 195.588 216.176 195.577Z" fill="#333232"/>
<path id="Vector_107" opacity="0.2" d="M447.881 203.8L451.54 189.688L454.77 201.865L447.881 203.8Z" fill="black"/>
</g>
</g>
<defs>
<clipPath id="clip0_225_511">
<rect width="379" height="248" fill="white" transform="translate(200)"/>
</clipPath>
</defs>
</svg>
