<svg width="636" height="181" viewBox="0 0 636 181" fill="none" xmlns="http://www.w3.org/2000/svg">
<path d="M73.4233 13.2561C73.4233 13.4104 75.1972 14.7986 77.2796 16.4183C79.4391 18.0379 81.0587 19.5033 80.9045 19.7346C80.7502 19.8889 77.5881 20.3516 73.9632 20.7373C50.2086 23.4367 30.156 39.2474 22.9062 60.9967C21.8265 64.3131 20.7467 68.6321 20.5153 70.6374L20.1297 74.3394L22.4435 69.5576C34.6293 43.952 56.1472 29.2211 83.064 27.9099C94.0158 27.3701 101.651 28.6812 111.986 32.6917C119.004 35.4682 118.927 35.5453 111.215 36.9336C105.353 37.9362 92.1648 42.101 91.5478 43.1807C91.2393 43.5664 96.638 43.8749 104.813 43.8749C112.372 43.8749 119.853 44.1062 121.472 44.4147L124.403 44.8775L121.087 48.271C110.443 59.2228 97.872 64.5445 81.1358 65.1615L71.4952 65.5471L78.8221 62.9248C88.5399 59.4542 101.188 53.0528 97.3322 53.5927C95.8668 53.7469 88.0771 54.2097 79.979 54.6724C52.9851 56.0607 42.2647 59.4542 32.7011 69.6347C29.0762 73.5681 23.2918 82.5147 23.2918 84.2885C23.2918 84.5199 24.0631 84.7513 25.0657 84.7513C26.1455 84.7513 28.8449 82.746 32.5469 79.1211C38.8712 73.1054 47.2007 68.3236 54.5276 66.6268C58.1525 65.7785 58.9237 65.8556 63.0114 67.4752C74.1946 72.0256 78.3593 72.7969 92.319 72.7197C104.505 72.7197 105.893 72.5655 111.986 70.5602C115.611 69.4034 120.547 67.321 123.092 66.0098L127.565 63.5418L130.496 67.0125C132.116 68.9406 135.895 73.5681 138.748 77.4244L144.07 84.3657L153.634 84.8284V81.0493C153.634 73.0282 149.006 60.4568 142.296 50.4305C139.751 46.4971 139.674 46.2658 140.831 44.0291C142.528 40.7127 144.996 33.2316 145.535 29.2982L146.075 25.9818L141.216 30.9178C138.517 33.6943 134.815 36.7022 133.118 37.5506L129.879 39.1702L129.339 35.6225C128.568 30.4551 126.254 24.9792 122.321 19.0405C120.393 16.1869 118.542 13.6417 118.233 13.4875C117.925 13.2561 117.77 16.8039 118.002 21.2771L118.387 29.5296L114.531 26.753C109.441 23.1282 101.266 18.8863 95.2498 16.9581C88.6941 14.7215 73.4233 12.1764 73.4233 13.2561Z" fill="#E4D0A7"/>
<path d="M47.5092 78.5042C42.8046 80.7408 38.0999 84.8284 35.7862 88.7618C34.5521 90.8442 34.2436 90.9213 28.4592 90.9213C23.1376 90.9213 22.2121 91.1527 20.5925 92.7723C16.9676 96.3972 20.4382 100.176 27.3795 100.176H31.0044V103.184C31.0044 104.881 31.2358 106.732 31.4671 107.349C31.7756 108.275 30.3103 108.506 22.752 108.814C13.0342 109.2 10.3348 109.971 6.0929 113.982C1.15688 118.532 0.539877 120.769 0.308501 136.502L0 150.848L2.08238 153.239C3.62489 155.09 4.78177 155.707 6.7099 155.707C13.1113 155.707 14.0368 153.624 14.0368 139.51C14.0368 123.931 14.4224 123.391 26.5311 123.314H34.8606L35.7862 126.939C36.2489 129.021 36.7117 130.795 36.7117 130.872C36.7888 131.026 35.4005 131.643 33.7809 132.183C29.6932 133.649 27.2252 135.5 24.4487 139.433L22.135 142.75L21.9036 158.869C21.6722 172.828 21.8265 175.374 22.9062 176.993C24.6801 179.693 27.5337 180.618 30.773 179.538C34.9378 178.227 35.6319 175.528 35.6319 161.877C35.6319 150.539 35.709 150.154 37.56 148.38C38.9483 146.914 40.2594 146.452 42.7274 146.452C45.8124 146.452 46.4294 146.837 51.2112 151.696C57.4584 158.02 65.6337 162.571 74.9658 165.039C80.5188 166.427 82.8326 166.658 90.7765 166.273C97.3322 166.041 101.343 165.424 104.505 164.345C112.603 161.414 119.853 157.018 125.483 151.696C130.419 146.914 131.113 146.452 134.198 146.452C136.666 146.452 137.977 146.914 139.365 148.38C141.294 150.231 141.294 150.462 141.294 162.956C141.294 175.296 141.371 175.759 143.145 177.842C145.535 180.618 150.472 180.849 153.017 178.227C154.713 176.53 154.791 176.068 154.791 159.64V142.75L152.477 139.356C150.163 136.04 143.762 131.875 141.139 131.798C139.443 131.798 139.443 131.489 140.985 126.939L142.219 123.314H150.163C157.49 123.314 158.338 123.468 160.344 125.165L162.503 127.016L162.889 139.896C163.274 152.236 163.351 152.853 165.125 154.241C167.67 156.324 171.758 156.169 174.072 153.778C176 151.927 176 151.85 176 136.58V121.154L173.532 117.452C172.067 115.37 169.367 112.671 167.285 111.437C163.814 109.277 162.889 109.123 154.328 108.814L145.073 108.506L145.535 100.022L150.394 99.945C154.559 99.7907 155.562 99.4822 156.796 97.9397C158.724 95.626 158.647 95.0861 156.333 92.8495C154.713 91.1527 153.788 90.9213 148.466 90.8442H142.45L139.365 86.8337C135.741 82.2062 130.188 78.1956 125.637 76.9616C120.855 75.6505 111.523 76.4989 107.204 78.5042C105.276 79.4297 102.114 81.8205 100.263 83.6715C96.8694 87.0651 96.7923 87.1422 94.5556 85.9082C91.5478 84.3657 84.298 84.3657 81.9842 85.9853C80.2875 87.2193 80.1332 87.1422 76.9711 83.98C75.2743 82.129 71.7266 79.661 69.1814 78.427C65.3251 76.6531 63.5513 76.2675 58.3839 76.2675C53.2165 76.2675 51.4426 76.6531 47.5092 78.5042ZM66.0964 85.0598C74.1946 88.8389 77.9737 94.7776 78.0508 103.878C78.0508 110.588 76.9711 113.596 72.6521 118.224C68.7958 122.388 63.8598 124.471 57.9982 124.394C50.5171 124.239 44.1157 120.152 40.5679 113.133C37.9457 108.043 37.4829 103.647 39.0254 98.4796C40.8764 92.0782 44.1157 88.1448 49.7458 85.4454C55.7616 82.5918 60.6976 82.5147 66.0964 85.0598ZM127.18 85.3683C131.267 87.5278 135.046 91.3069 136.743 95.1632C138.903 99.945 138.748 108.429 136.358 113.211C132.81 120.152 126.408 124.239 118.927 124.394C113.066 124.471 108.13 122.388 104.273 118.224C100.032 113.596 98.6433 110.126 98.6433 104.033C98.6433 95.3175 102.268 89.3788 109.826 85.5226C114.068 83.363 115.225 83.1317 119.313 83.4402C121.858 83.5944 125.406 84.5199 127.18 85.3683ZM91.085 92.541C93.8615 93.5436 93.7844 93.3122 92.3961 97.7855C91.7791 100.022 91.2393 100.87 90.7765 100.253C90.3909 99.5594 89.3111 99.4051 87.6144 99.6365C85.1464 100.022 84.9921 99.945 84.2209 97.2456C83.2182 93.3893 83.2182 93.3122 85.2235 92.4638C87.5372 91.5383 88.2314 91.5383 91.085 92.541ZM92.319 133.34C92.936 135.268 96.3295 137.968 98.2577 137.968C99.8773 137.968 103.734 134.497 104.428 132.569C104.736 131.566 105.045 131.566 106.741 132.492C108.515 133.417 108.67 133.803 108.053 135.654C105.276 143.367 94.4785 144.909 89.7739 138.199C87.3059 134.574 87.1516 133.34 89.0798 132.569C91.5478 131.566 91.7791 131.643 92.319 133.34Z" fill="#E4D0A7"/>
<path d="M54.5276 93.3893C51.5969 95.0861 50.3629 97.3998 50.2857 100.948C50.2857 105.961 52.6766 108.66 57.4584 109.2C61.7774 109.74 64.3997 108.275 66.2507 104.418C69.5671 97.477 61.0833 89.6102 54.5276 93.3893ZM59.078 95.7031C60.2349 97.5541 58.8466 99.7136 56.2244 100.022C53.7564 100.331 52.4452 98.2482 53.4479 95.7031C53.9877 94.3148 54.6047 93.9292 56.1473 94.1606C57.3041 94.3148 58.6153 95.009 59.078 95.7031Z" fill="#E4D0A7"/>
<path d="M112.68 94.7005C110.752 96.6286 110.443 97.5541 110.443 100.948C110.443 104.341 110.752 105.267 112.68 107.195C114.531 109.046 115.611 109.431 118.542 109.431C121.472 109.431 122.552 109.046 124.403 107.195C126.254 105.344 126.64 104.264 126.64 101.333C126.64 98.2482 126.254 97.3227 124.018 95.0861C120.47 91.5383 115.997 91.3841 112.68 94.7005ZM118.002 94.7005C118.619 95.0861 118.927 96.3201 118.773 97.5541C118.619 99.1737 118.079 99.8679 116.768 100.022C113.374 100.562 111.6 97.5541 113.991 95.2403C115.302 93.8521 116.459 93.6978 118.002 94.7005Z" fill="#E4D0A7"/>
<path d="M180.168 95L166.088 19.736L159.048 18.072V6.55199H190.28L192.456 16.664L183.496 17.944L193.992 77.08L213.704 8.216H231.88L250.952 78.488L260.936 17.944L250.184 16.28L251.592 6.55199H283.464V17.816L273.48 20.376L259.4 95H237.896L219.848 30.104L202.568 95H180.168Z" fill="#E4D0A7"/>
<path d="M310.896 95.512C306.032 95.512 301.381 94.4027 296.944 92.184C292.507 89.88 288.88 86.424 286.064 81.816C283.248 77.208 281.84 71.4053 281.84 64.408C281.84 56.8987 283.248 50.7973 286.064 46.104C288.965 41.3253 292.592 37.8267 296.944 35.608C301.381 33.304 305.861 32.152 310.384 32.152C313.968 32.152 317.424 32.792 320.752 34.072C324.08 35.2667 326.811 37.1867 328.944 39.832C331.163 42.392 332.272 45.6773 332.272 49.688C332.272 53.272 331.504 56.344 329.968 58.904C328.517 61.464 326.469 63.5547 323.824 65.176C321.264 66.7973 318.32 67.992 314.992 68.76C311.664 69.528 308.165 69.8693 304.496 69.784L297.968 69.656C298.48 73.496 299.888 76.7387 302.192 79.384C304.496 82.0293 308.251 83.352 313.456 83.352C317.381 83.352 320.539 82.6267 322.928 81.176C325.317 79.64 327.28 78.1467 328.816 76.696L331.76 87.832C330.992 88.856 329.627 89.9653 327.664 91.16C325.701 92.3547 323.269 93.3787 320.368 94.232C317.552 95.0853 314.395 95.512 310.896 95.512ZM298.096 58.904L302.32 59.032C303.941 59.1173 305.563 59.032 307.184 58.776C308.891 58.4347 310.427 57.9227 311.792 57.24C313.243 56.5573 314.395 55.6613 315.248 54.552C316.101 53.3573 316.528 51.9067 316.528 50.2C316.528 48.2373 315.973 46.7867 314.864 45.848C313.755 44.824 312.347 44.312 310.64 44.312C308.592 44.312 306.629 44.9947 304.752 46.36C302.96 47.64 301.467 49.3893 300.272 51.608C299.077 53.8267 298.352 56.2587 298.096 58.904Z" fill="#E4D0A7"/>
<path d="M348.413 95.512L344.317 92.056V11.672L337.661 12.056L336.253 3.352L355.325 0.791992L359.677 5.272V34.584C361.042 33.9013 362.621 33.3467 364.413 32.92C366.29 32.408 368.424 32.152 370.813 32.152C375.933 32.152 380.37 33.3893 384.125 35.864C387.88 38.3387 390.781 41.88 392.829 46.488C394.962 51.0107 396.029 56.472 396.029 62.872C396.029 69.1013 395.218 74.3493 393.597 78.616C391.976 82.7973 389.8 86.1253 387.069 88.6C384.338 91.0747 381.266 92.8667 377.853 93.976C374.44 95 370.984 95.512 367.485 95.512C365.096 95.512 362.877 95.2987 360.829 94.872C358.781 94.36 356.904 93.6773 355.197 92.824L348.413 95.512ZM367.485 83.48C369.789 83.48 371.88 82.7973 373.757 81.432C375.72 79.9813 377.256 77.8053 378.365 74.904C379.56 71.9173 380.157 68.12 380.157 63.512C380.157 59.0747 379.602 55.448 378.493 52.632C377.469 49.7307 376.018 47.5973 374.141 46.232C372.264 44.8667 370.13 44.184 367.741 44.184C366.12 44.184 364.584 44.3973 363.133 44.824C361.768 45.2507 360.616 45.8053 359.677 46.488V81.816C360.445 82.328 361.597 82.7547 363.133 83.096C364.669 83.352 366.12 83.48 367.485 83.48Z" fill="#E4D0A7"/>
<path d="M412.288 95.512L408.192 92.056V11.672L401.536 12.056L400.128 3.352L419.2 0.791992L423.552 5.272V34.584C424.917 33.9013 426.496 33.3467 428.288 32.92C430.165 32.408 432.299 32.152 434.688 32.152C439.808 32.152 444.245 33.3893 448 35.864C451.755 38.3387 454.656 41.88 456.704 46.488C458.837 51.0107 459.904 56.472 459.904 62.872C459.904 69.1013 459.093 74.3493 457.472 78.616C455.851 82.7973 453.675 86.1253 450.944 88.6C448.213 91.0747 445.141 92.8667 441.728 93.976C438.315 95 434.859 95.512 431.36 95.512C428.971 95.512 426.752 95.2987 424.704 94.872C422.656 94.36 420.779 93.6773 419.072 92.824L412.288 95.512ZM431.36 83.48C433.664 83.48 435.755 82.7973 437.632 81.432C439.595 79.9813 441.131 77.8053 442.24 74.904C443.435 71.9173 444.032 68.12 444.032 63.512C444.032 59.0747 443.477 55.448 442.368 52.632C441.344 49.7307 439.893 47.5973 438.016 46.232C436.139 44.8667 434.005 44.184 431.616 44.184C429.995 44.184 428.459 44.3973 427.008 44.824C425.643 45.2507 424.491 45.8053 423.552 46.488V81.816C424.32 82.328 425.472 82.7547 427.008 83.096C428.544 83.352 429.995 83.48 431.36 83.48Z" fill="#E4D0A7"/>
<path d="M468.879 95L467.471 86.808L474.639 85.144V44.056H468.111L466.703 35.352L485.775 32.024L490.127 36.632V85.4L497.167 86.808V95H468.879ZM482.063 26.904C479.844 26.904 477.967 26.136 476.431 24.6C474.895 22.9787 474.127 21.1013 474.127 18.968C474.127 16.7493 474.895 14.872 476.431 13.336C477.967 11.8 479.844 11.032 482.063 11.032C484.282 11.032 486.159 11.8 487.695 13.336C489.231 14.872 489.999 16.7493 489.999 18.968C489.999 21.1013 489.231 22.9787 487.695 24.6C486.159 26.136 484.282 26.904 482.063 26.904Z" fill="#E4D0A7"/>
<path d="M505.754 95L504.346 86.808L511.514 85.144V44.056H504.986L503.578 35.352L522.522 32.024L527.002 36.76C528.623 35.5653 530.799 34.4987 533.53 33.56C536.261 32.6213 539.034 32.152 541.85 32.152C545.434 32.152 548.719 32.7493 551.706 33.944C554.693 35.1387 557.082 36.9733 558.874 39.448C560.666 41.9227 561.562 45.1227 561.562 49.048V85.656L568.602 86.808L568.474 95H539.674V86.808L546.074 85.4V52.632C546.074 49.9013 545.349 47.896 543.898 46.616C542.533 45.336 540.613 44.696 538.138 44.696C535.663 44.696 533.317 45.336 531.098 46.616C528.965 47.8107 527.599 48.7493 527.002 49.432V85.4L534.298 86.936L534.17 95H505.754Z" fill="#E4D0A7"/>
<path d="M598.02 129.816C592.985 129.816 588.591 128.963 584.836 127.256C581.167 125.635 578.308 123.373 576.26 120.472C574.297 117.571 573.316 114.328 573.316 110.744C573.316 106.733 574.255 103.363 576.132 100.632C578.095 97.9867 580.441 95.8533 583.172 94.232C582.233 93.208 581.465 92.0133 580.868 90.648C580.356 89.1973 580.1 87.5333 580.1 85.656C580.1 83.4373 580.527 81.4747 581.38 79.768C582.319 77.976 583.471 76.44 584.836 75.16C581.935 73.2827 579.503 70.808 577.54 67.736C575.663 64.5787 574.724 60.7813 574.724 56.344C574.724 51.1387 575.961 46.744 578.436 43.16C580.996 39.576 584.196 36.8453 588.036 34.968C591.961 33.0907 596.015 32.152 600.196 32.152C603.183 32.152 606.084 32.6213 608.9 33.56C611.801 34.4987 614.404 35.864 616.708 37.656L630.66 30.616L633.604 31L635.012 43.672L623.108 45.08C623.961 46.7013 624.601 48.4507 625.028 50.328C625.54 52.2053 625.796 54.2107 625.796 56.344C625.796 61.464 624.516 65.7307 621.956 69.144C619.481 72.5573 616.281 75.1173 612.356 76.824C608.516 78.5307 604.463 79.384 600.196 79.384C599.599 79.384 599.001 79.384 598.404 79.384C597.892 79.384 597.38 79.3413 596.868 79.256L594.564 82.712L594.82 84.504L607.876 87.192C612.399 88.1307 616.153 89.4533 619.14 91.16C622.127 92.7813 624.345 94.744 625.796 97.048C627.247 99.4373 627.972 102.211 627.972 105.368C627.972 110.488 626.607 114.883 623.876 118.552C621.231 122.221 617.647 124.995 613.124 126.872C608.601 128.835 603.567 129.816 598.02 129.816ZM601.476 114.456C603.865 114.456 606.127 114.157 608.26 113.56C610.393 113.048 612.143 112.237 613.508 111.128C614.959 110.104 615.684 108.909 615.684 107.544C615.684 106.264 614.959 105.24 613.508 104.472C612.057 103.789 610.137 103.192 607.748 102.68C605.444 102.253 602.927 101.784 600.196 101.272C597.465 100.845 594.82 100.205 592.26 99.352C590.383 100.461 589.06 101.656 588.292 102.936C587.609 104.301 587.268 105.624 587.268 106.904C587.268 108.013 587.695 109.123 588.548 110.232C589.401 111.427 590.852 112.408 592.9 113.176C594.948 114.029 597.807 114.456 601.476 114.456ZM600.196 67.352C603.609 67.352 606.084 66.2 607.62 63.896C609.156 61.5067 609.924 58.776 609.924 55.704C609.924 52.7173 609.156 50.072 607.62 47.768C606.084 45.3787 603.609 44.184 600.196 44.184C596.868 44.184 594.436 45.3787 592.9 47.768C591.364 50.072 590.596 52.7173 590.596 55.704C590.596 58.776 591.364 61.5067 592.9 63.896C594.436 66.2 596.868 67.352 600.196 67.352Z" fill="#E4D0A7"/>
<path d="M222.125 173.062V113H237.125V173.062H222.125ZM184.875 173.062V113H199.875V173.062H184.875ZM192.125 146.812V138.812H229.438V146.812H192.125ZM179 174L179.438 168.5C181.438 167.625 184.042 166.812 187.25 166.062L184.875 172.438V162.625H199.875V172.438L197.688 166.562L206 168.375L205.562 174H179ZM216.25 174L216.688 168.5C218.688 167.625 221.292 166.812 224.5 166.062L222.125 172.438V162.625H237.125V172.438L234.938 166.562L243.25 168.375L242.812 174H216.25ZM243 112.125L242.562 117.625C240.562 118.5 237.958 119.312 234.75 120.062L237.125 113.688V123.5H222.125V113.688L224.312 119.562L216 117.75L216.438 112.125H243ZM205.75 112.125L205.312 117.625C203.312 118.5 200.708 119.312 197.5 120.062L199.875 113.688V123.5H184.875V113.688L187.062 119.562L178.75 117.75L179.188 112.125H205.75Z" fill="#E4D0A7"/>
<path d="M278.875 175.062C271.083 175.062 264.875 173.333 260.25 169.875C255.667 166.417 253.375 161.771 253.375 155.938L268.625 154C268.625 157.583 269.688 160.354 271.812 162.312C273.938 164.229 276.979 165.188 280.938 165.188C284.896 165.188 287.958 164.229 290.125 162.312C292.292 160.354 293.375 157.583 293.375 154L304.375 155.938C304.375 161.771 302.062 166.417 297.438 169.875C292.854 173.333 286.667 175.062 278.875 175.062ZM253.375 155.938V113H268.625V154L253.375 155.938ZM253.375 123.5V113.688L255.562 119.625L247.875 117.75L248.312 112.125H275.375L274.938 117.625C274.146 117.917 273 118.271 271.5 118.688C270 119.062 268.25 119.479 266.25 119.938L268.625 113.688V123.5H253.375ZM304.375 155.938L293.375 154V113H304.375V155.938ZM293.375 123.5V113.688L295.562 119.5L286.375 117.75L286.812 112.125H309.625L309.188 117.625C307.646 118.417 305.25 119.25 302 120.125L304.375 113.688V123.5H293.375Z" fill="#E4D0A7"/>
<path d="M327.438 174L328.062 166.125H342.25C349.833 166.125 353.625 162.917 353.625 156.5C353.625 149.542 349.167 146.062 340.25 146.062H328.062V139.562H341.125C360.375 139.562 370 144.771 370 155.188C370 160.938 367.354 165.521 362.062 168.938C356.812 172.312 349.708 174 340.75 174H327.438ZM320.375 173.062V113H335.375V173.062H320.375ZM326.25 143.375L327.438 138.938H341.75C347.5 138.938 350.375 135.75 350.375 129.375C350.375 123.125 347.604 120 342.062 120H327.125V112.125H342.812C350.438 112.125 356.292 113.438 360.375 116.062C364.458 118.688 366.5 122.458 366.5 127.375C366.5 132.542 364.25 136.5 359.75 139.25C355.25 142 348.812 143.375 340.438 143.375H326.25ZM314.5 174L314.938 168.5C316.938 167.625 319.542 166.812 322.75 166.062L320.375 172.438V162.625H335.375V172.438L333.188 166.562L341.5 168.375L341.062 174H314.5ZM341.25 112.125L340.812 117.625C338.812 118.5 336.208 119.312 333 120.062L335.375 113.688V123.5H320.375V113.688L322.562 119.562L314.25 117.75L314.688 112.125H341.25Z" fill="#E4D0A7"/>
</svg>
