<svg width="320" height="93" viewBox="0 0 320 93" fill="none" xmlns="http://www.w3.org/2000/svg">
<path d="M75.5531 15.3106C75.5531 15.3639 76.1705 15.8441 76.8952 16.4042C77.6468 16.9643 78.2105 17.4711 78.1568 17.5511C78.1031 17.6045 77.0026 17.7645 75.741 17.8979C67.4738 18.8314 60.495 24.2994 57.9719 31.8212C57.5962 32.9682 57.2204 34.4618 57.1398 35.1553L57.0056 36.4356L57.8109 34.7819C62.0518 25.9265 69.5406 20.8319 78.9083 20.3785C82.7198 20.1918 85.3771 20.6452 88.9739 22.0322C91.4165 22.9924 91.3896 23.0191 88.7055 23.4992C86.6655 23.846 82.0756 25.2863 81.8609 25.6597C81.7535 25.7931 83.6324 25.8998 86.4776 25.8998C89.1081 25.8998 91.7117 25.9798 92.2754 26.0865L93.2954 26.2465L92.1412 27.4202C88.4371 31.2077 84.0619 33.0482 78.2373 33.2616L74.8821 33.3949L77.432 32.488C80.8141 31.2877 85.2161 29.0739 83.874 29.2606C83.364 29.3139 80.653 29.474 77.8347 29.634C68.4401 30.1141 64.7092 31.2877 61.3808 34.8086C60.1193 36.1689 58.1061 39.263 58.1061 39.8765C58.1061 39.9565 58.3746 40.0365 58.7235 40.0365C59.0993 40.0365 60.0387 39.343 61.3271 38.0894C63.5281 36.0089 66.427 34.3551 68.977 33.7683C70.2385 33.4749 70.5069 33.5016 71.9295 34.0617C75.8216 35.6355 77.271 35.9022 82.1293 35.8755C86.3703 35.8755 86.8534 35.8222 88.9739 35.1287C90.2355 34.7286 91.9533 34.0084 92.8391 33.555L94.3959 32.7014L95.4159 33.9017C95.9795 34.5685 97.2948 36.1689 98.2879 37.5026L100.14 39.9031L103.468 40.0632V38.7562C103.468 35.9822 101.858 31.6345 99.5226 28.167C98.6369 26.8067 98.61 26.7267 99.0126 25.9531C99.6032 24.8062 100.462 22.2189 100.65 20.8586L100.838 19.7116L99.1469 21.4187C98.2074 22.379 96.919 23.4192 96.3285 23.7126L95.2011 24.2727L95.0133 23.0458C94.7448 21.2587 93.9396 19.3649 92.5707 17.3111C91.8996 16.3242 91.2554 15.444 91.1481 15.3906C91.0407 15.3106 90.987 16.5376 91.0675 18.0846L91.2018 20.9386L89.8597 19.9784C88.0881 18.7247 85.2429 17.2577 83.1493 16.5909C80.8678 15.8174 75.5531 14.9372 75.5531 15.3106Z" fill="#333232"/>
<path d="M66.5344 37.876C64.8971 38.6495 63.2597 40.0632 62.4545 41.4235C62.025 42.1437 61.9176 42.1704 59.9045 42.1704C58.0525 42.1704 57.7304 42.2504 57.1667 42.8105C55.9051 44.0641 57.113 45.3711 59.5287 45.3711H60.7903V46.4114C60.7903 46.9982 60.8708 47.6383 60.9513 47.8517C61.0587 48.1718 60.5487 48.2518 57.9183 48.3585C54.5362 48.4919 53.5968 48.7586 52.1205 50.1456C50.4026 51.7193 50.1879 52.4928 50.1074 57.9341L50 62.8953L50.7247 63.7222C51.2616 64.3623 51.6642 64.5757 52.3352 64.5757C54.5631 64.5757 54.8852 63.8555 54.8852 58.9744C54.8852 53.5864 55.0194 53.3997 59.2335 53.373H62.1324L62.4545 54.6267C62.6155 55.3468 62.7766 55.9603 62.7766 55.987C62.8034 56.0403 62.3203 56.2537 61.7566 56.4404C60.334 56.9472 59.4751 57.5874 58.5088 58.9477L57.7035 60.0946L57.623 65.6693C57.5425 70.4971 57.5962 71.3773 57.9719 71.9375C58.5893 72.871 59.5824 73.1911 60.7098 72.8177C62.1592 72.3642 62.4008 71.4307 62.4008 66.7095C62.4008 62.7886 62.4276 62.6552 63.0718 62.0418C63.555 61.535 64.0113 61.3749 64.8702 61.3749C65.9439 61.3749 66.1586 61.5083 67.8228 63.1887C69.9969 65.3759 72.8421 66.9496 76.09 67.8031C78.0226 68.2833 78.8278 68.3633 81.5925 68.2299C83.874 68.1499 85.2698 67.9365 86.3703 67.5631C89.1886 66.5495 91.7117 65.0291 93.6712 63.1887C95.389 61.535 95.6306 61.3749 96.7043 61.3749C97.5632 61.3749 98.0195 61.535 98.5027 62.0418C99.1737 62.6819 99.1737 62.7619 99.1737 67.083C99.1737 71.3507 99.2005 71.5107 99.8179 72.2309C100.65 73.1911 102.368 73.2711 103.254 72.3642C103.844 71.7774 103.871 71.6174 103.871 65.936V60.0946L103.066 58.921C102.26 57.7741 100.033 56.3337 99.12 56.3071C98.5295 56.3071 98.5295 56.2004 99.0663 54.6267L99.4958 53.373H102.26C104.81 53.373 105.106 53.4264 105.804 54.0132L106.555 54.6533L106.689 59.1077C106.824 63.3754 106.85 63.5888 107.468 64.0689C108.353 64.7891 109.776 64.7357 110.581 63.9089C111.252 63.2687 111.252 63.2421 111.252 57.9608V52.6262L110.393 51.3459C109.883 50.6257 108.944 49.6921 108.219 49.2654C107.011 48.5185 106.689 48.4652 103.71 48.3585L100.489 48.2518L100.65 45.3178L102.341 45.2911C103.79 45.2378 104.139 45.1311 104.569 44.5976C105.24 43.7974 105.213 43.6107 104.408 42.8372C103.844 42.2504 103.522 42.1704 101.67 42.1437H99.5763L98.5027 40.7567C97.2411 39.1563 95.3085 37.7693 93.7249 37.3425C92.0607 36.8891 88.8129 37.1825 87.3097 37.876C86.6387 38.1961 85.5382 39.0229 84.894 39.6631C83.713 40.8367 83.6861 40.8634 82.9077 40.4366C81.8609 39.9031 79.3378 39.9031 78.5326 40.4633C77.942 40.89 77.8884 40.8634 76.7879 39.7698C76.1973 39.1296 74.9626 38.2761 74.0769 37.8493C72.7348 37.2358 72.1174 37.1025 70.319 37.1025C68.5207 37.1025 67.9033 37.2358 66.5344 37.876ZM73.0032 40.1432C75.8216 41.4502 77.1368 43.504 77.1636 46.6514C77.1636 48.972 76.7879 50.0122 75.2847 51.6126C73.9426 53.053 72.2248 53.7731 70.1848 53.7465C67.5812 53.6931 65.3534 52.2794 64.1186 49.8522C63.206 48.0918 63.045 46.5714 63.5818 44.7843C64.226 42.5704 65.3534 41.2101 67.3128 40.2766C69.4064 39.2897 71.1243 39.263 73.0032 40.1432ZM94.2617 40.2499C95.6843 40.9967 96.9995 42.3037 97.59 43.6374C98.3416 45.2911 98.2879 48.2251 97.4558 49.8789C96.2211 52.2794 93.9933 53.6931 91.3896 53.7465C89.3497 53.7731 87.6318 53.053 86.2898 51.6126C84.8135 50.0122 84.3303 48.8119 84.3303 46.7048C84.3303 43.6907 85.5919 41.6369 88.2223 40.3032C89.6986 39.5564 90.1013 39.4764 91.5239 39.5831C92.4096 39.6364 93.6443 39.9565 94.2617 40.2499ZM81.6999 42.7305C82.6661 43.0772 82.6393 42.9972 82.1562 44.5443C81.9414 45.3178 81.7535 45.6112 81.5925 45.3978C81.4583 45.1577 81.0825 45.1044 80.492 45.1844C79.6331 45.3178 79.5794 45.2911 79.311 44.3575C78.962 43.0239 78.962 42.9972 79.6599 42.7038C80.4651 42.3837 80.7067 42.3837 81.6999 42.7305ZM82.1293 56.8405C82.344 57.5074 83.5251 58.4409 84.1961 58.4409C84.7598 58.4409 86.1019 57.2406 86.3434 56.5738C86.4508 56.227 86.5582 56.227 87.1487 56.5471C87.766 56.8672 87.8197 57.0006 87.605 57.6407C86.6387 60.308 82.8809 60.8415 81.2435 58.5209C80.3846 57.2673 80.3309 56.8405 81.002 56.5738C81.8609 56.227 81.9414 56.2537 82.1293 56.8405Z" fill="#333232"/>
<path d="M68.977 43.0239C67.957 43.6107 67.5275 44.4109 67.5007 45.6378C67.5007 47.3716 68.3328 48.3051 69.9969 48.4919C71.5001 48.6786 72.4127 48.1718 73.0569 46.8381C74.2111 44.4376 71.2585 41.7169 68.977 43.0239ZM70.5606 43.8241C70.9632 44.4642 70.4801 45.2111 69.5675 45.3178C68.7086 45.4245 68.2522 44.7043 68.6012 43.8241C68.7891 43.344 69.0038 43.2106 69.5406 43.2906C69.9433 43.344 70.3996 43.584 70.5606 43.8241Z" fill="#333232"/>
<path d="M89.2155 43.4773C88.5444 44.1442 88.4371 44.4642 88.4371 45.6378C88.4371 46.8115 88.5444 47.1315 89.2155 47.7984C89.8597 48.4385 90.2355 48.5719 91.2554 48.5719C92.2754 48.5719 92.6512 48.4385 93.2954 47.7984C93.9396 47.1582 94.0738 46.7848 94.0738 45.7712C94.0738 44.7043 93.9396 44.3842 93.1612 43.6107C91.9265 42.3837 90.3697 42.3304 89.2155 43.4773ZM91.0676 43.4773C91.2823 43.6107 91.3897 44.0375 91.336 44.4642C91.2823 45.0244 91.0944 45.2644 90.6381 45.3178C89.4571 45.5045 88.8397 44.4642 89.6718 43.664C90.1281 43.1839 90.5307 43.1306 91.0676 43.4773Z" fill="#333232"/>
<path d="M112.703 43.5809L107.803 17.5516L105.353 16.9761V12.992H116.222L116.979 16.4892L113.861 16.9319L117.514 37.3835L124.374 13.5675H130.7L137.338 37.8704L140.812 16.9319L137.07 16.3564L137.56 12.992H148.653V16.8876L145.178 17.7729L140.278 43.5809H132.794L126.513 21.1373L120.499 43.5809H112.703Z" fill="#333232"/>
<path d="M158.2 43.758C156.507 43.758 154.888 43.3743 153.344 42.607C151.8 41.8102 150.537 40.615 149.557 39.0214C148.577 37.4277 148.087 35.4209 148.087 33.001C148.087 30.4039 148.577 28.2939 149.557 26.6707C150.567 25.0181 151.829 23.8081 153.344 23.0408C154.888 22.244 156.447 21.8456 158.021 21.8456C159.269 21.8456 160.471 22.0669 161.63 22.5096C162.788 22.9227 163.738 23.5867 164.481 24.5016C165.253 25.387 165.639 26.5232 165.639 27.9102C165.639 29.1497 165.372 30.2121 164.837 31.0975C164.332 31.9828 163.619 32.7059 162.699 33.2666C161.808 33.8273 160.783 34.2405 159.625 34.5061C158.467 34.7717 157.249 34.8897 155.972 34.8602L153.7 34.8159C153.878 36.144 154.368 37.2654 155.17 38.1803C155.972 39.0951 157.279 39.5526 159.09 39.5526C160.457 39.5526 161.555 39.3017 162.387 38.8C163.219 38.2688 163.902 37.7524 164.436 37.2507L165.461 41.1019C165.193 41.4561 164.718 41.8397 164.035 42.2529C163.352 42.6661 162.506 43.0202 161.496 43.3153C160.516 43.6104 159.417 43.758 158.2 43.758ZM153.745 31.0975L155.215 31.1417C155.779 31.1712 156.343 31.1417 156.908 31.0532C157.502 30.9352 158.036 30.7581 158.511 30.522C159.016 30.2859 159.417 29.976 159.714 29.5924C160.011 29.1792 160.16 28.6775 160.16 28.0873C160.16 27.4085 159.967 26.9068 159.581 26.5822C159.194 26.228 158.704 26.051 158.11 26.051C157.398 26.051 156.715 26.2871 156.061 26.7592C155.438 27.2019 154.918 27.8069 154.502 28.5742C154.086 29.3415 153.834 30.1826 153.745 31.0975Z" fill="#333232"/>
<path d="M171.256 43.758L169.831 42.5628V14.7627L167.514 14.8955L167.024 11.8854L173.662 11L175.177 12.5494V22.6866C175.652 22.4505 176.201 22.2587 176.825 22.1112C177.478 21.9341 178.221 21.8456 179.052 21.8456C180.834 21.8456 182.378 22.2735 183.685 23.1293C184.992 23.9852 186.002 25.2099 186.714 26.8035C187.457 28.3676 187.828 30.2564 187.828 32.4698C187.828 34.6241 187.546 36.4391 186.982 37.9147C186.417 39.3607 185.66 40.5117 184.71 41.3675C183.759 42.2234 182.69 42.8431 181.502 43.2268C180.314 43.5809 179.112 43.758 177.894 43.758C177.062 43.758 176.29 43.6842 175.577 43.5367C174.865 43.3596 174.211 43.1235 173.617 42.8284L171.256 43.758ZM177.894 39.5968C178.696 39.5968 179.423 39.3607 180.077 38.8886C180.76 38.3869 181.294 37.6343 181.68 36.6309C182.096 35.598 182.304 34.2847 182.304 32.6911C182.304 31.1565 182.111 29.9022 181.725 28.9284C181.369 27.925 180.864 27.1872 180.21 26.715C179.557 26.2428 178.815 26.0067 177.983 26.0067C177.419 26.0067 176.884 26.0805 176.379 26.228C175.904 26.3756 175.503 26.5674 175.177 26.8035V39.0214C175.444 39.1984 175.845 39.346 176.379 39.464C176.914 39.5526 177.419 39.5968 177.894 39.5968Z" fill="#333232"/>
<path d="M193.486 43.758L192.061 42.5628V14.7627L189.745 14.8955L189.255 11.8854L195.892 11L197.407 12.5494V22.6866C197.882 22.4505 198.431 22.2587 199.055 22.1112C199.708 21.9341 200.451 21.8456 201.282 21.8456C203.064 21.8456 204.608 22.2735 205.915 23.1293C207.222 23.9852 208.232 25.2099 208.944 26.8035C209.687 28.3676 210.058 30.2564 210.058 32.4698C210.058 34.6241 209.776 36.4391 209.212 37.9147C208.647 39.3607 207.89 40.5117 206.94 41.3675C205.989 42.2234 204.92 42.8431 203.732 43.2268C202.544 43.5809 201.342 43.758 200.124 43.758C199.292 43.758 198.52 43.6842 197.808 43.5367C197.095 43.3596 196.441 43.1235 195.847 42.8284L193.486 43.758ZM200.124 39.5968C200.926 39.5968 201.653 39.3607 202.307 38.8886C202.99 38.3869 203.524 37.6343 203.911 36.6309C204.326 35.598 204.534 34.2847 204.534 32.6911C204.534 31.1565 204.341 29.9022 203.955 28.9284C203.599 27.925 203.094 27.1872 202.44 26.715C201.787 26.2428 201.045 26.0067 200.213 26.0067C199.649 26.0067 199.114 26.0805 198.609 26.228C198.134 26.3756 197.733 26.5674 197.407 26.8035V39.0214C197.674 39.1984 198.075 39.346 198.609 39.464C199.144 39.5526 199.649 39.5968 200.124 39.5968Z" fill="#333232"/>
<path d="M213.182 43.5809L212.692 40.7478L215.186 40.1723V25.9624H212.914L212.424 22.9522L219.062 21.8013L220.576 23.3949V40.2609L223.026 40.7478V43.5809H213.182ZM217.77 20.0306C216.998 20.0306 216.344 19.765 215.81 19.2338C215.275 18.673 215.008 18.0238 215.008 17.286C215.008 16.5187 215.275 15.8694 215.81 15.3382C216.344 14.807 216.998 14.5414 217.77 14.5414C218.542 14.5414 219.195 14.807 219.73 15.3382C220.265 15.8694 220.532 16.5187 220.532 17.286C220.532 18.0238 220.265 18.673 219.73 19.2338C219.195 19.765 218.542 20.0306 217.77 20.0306Z" fill="#333232"/>
<path d="M226.015 43.5809L225.525 40.7478L228.02 40.1723V25.9624H225.748L225.258 22.9522L231.851 21.8013L233.41 23.4392C233.974 23.026 234.731 22.6571 235.682 22.3325C236.632 22.0079 237.597 21.8456 238.577 21.8456C239.825 21.8456 240.968 22.0521 242.007 22.4653C243.047 22.8785 243.878 23.513 244.502 24.3688C245.126 25.2246 245.438 26.3313 245.438 27.6889V40.3494L247.888 40.7478L247.843 43.5809H237.82V40.7478L240.047 40.2609V28.9284C240.047 27.984 239.795 27.2905 239.29 26.8478C238.815 26.4051 238.147 26.1838 237.285 26.1838C236.424 26.1838 235.607 26.4051 234.835 26.8478C234.093 27.2609 233.618 27.5856 233.41 27.8217V40.2609L235.949 40.7921L235.904 43.5809H226.015Z" fill="#333232"/>
<path d="M258.126 55.6217C256.374 55.6217 254.844 55.3266 253.537 54.7363C252.26 54.1756 251.266 53.3936 250.553 52.3902C249.87 51.3868 249.528 50.2653 249.528 49.0258C249.528 47.6388 249.855 46.4731 250.508 45.5287C251.191 44.6138 252.008 43.876 252.958 43.3153C252.632 42.9612 252.364 42.548 252.157 42.0758C251.978 41.5741 251.889 40.9986 251.889 40.3494C251.889 39.5821 252.038 38.9033 252.335 38.3131C252.661 37.6933 253.062 37.1621 253.537 36.7195C252.528 36.0702 251.681 35.2144 250.998 34.1519C250.345 33.06 250.018 31.7467 250.018 30.2121C250.018 28.4119 250.449 26.8921 251.31 25.6526C252.201 24.4131 253.315 23.4687 254.651 22.8194C256.017 22.1702 257.428 21.8456 258.883 21.8456C259.923 21.8456 260.932 22.0079 261.912 22.3325C262.922 22.6571 263.828 23.1293 264.63 23.7491L269.485 21.3143L270.51 21.4471L271 25.8296L266.857 26.3166C267.154 26.8773 267.377 27.4823 267.525 28.1315C267.704 28.7808 267.793 29.4743 267.793 30.2121C267.793 31.9828 267.347 33.4584 266.456 34.6389C265.595 35.8193 264.481 36.7047 263.115 37.2949C261.779 37.8852 260.368 38.1803 258.883 38.1803C258.675 38.1803 258.467 38.1803 258.259 38.1803C258.081 38.1803 257.903 38.1655 257.725 38.136L256.923 39.3312L257.012 39.951L261.556 40.8806C263.13 41.2052 264.437 41.6627 265.476 42.2529C266.516 42.8136 267.288 43.4924 267.793 44.2892C268.297 45.1155 268.55 46.0747 268.55 47.1666C268.55 48.9373 268.075 50.4571 267.124 51.7262C266.204 52.9952 264.956 53.9543 263.382 54.6035C261.808 55.2823 260.056 55.6217 258.126 55.6217ZM259.329 50.3096C260.16 50.3096 260.947 50.2063 261.69 49.9997C262.432 49.8226 263.041 49.5423 263.516 49.1586C264.021 48.8045 264.273 48.3913 264.273 47.9191C264.273 47.4765 264.021 47.1223 263.516 46.8567C263.011 46.6206 262.343 46.414 261.511 46.237C260.71 46.0894 259.833 45.9271 258.883 45.75C257.933 45.6025 257.012 45.3811 256.121 45.086C255.468 45.4697 255.008 45.8828 254.74 46.3255C254.503 46.7977 254.384 47.2551 254.384 47.6978C254.384 48.0815 254.532 48.4651 254.829 48.8488C255.126 49.2619 255.631 49.6013 256.344 49.8669C257.057 50.162 258.052 50.3096 259.329 50.3096ZM258.883 34.0191C260.071 34.0191 260.932 33.6207 261.467 32.8239C262.001 31.9976 262.269 31.0532 262.269 29.9908C262.269 28.9579 262.001 28.043 261.467 27.2462C260.932 26.4199 260.071 26.0067 258.883 26.0067C257.725 26.0067 256.879 26.4199 256.344 27.2462C255.809 28.043 255.542 28.9579 255.542 29.9908C255.542 31.0532 255.809 31.9976 256.344 32.8239C256.879 33.6207 257.725 34.0191 258.883 34.0191Z" fill="#333232"/>
<path d="M127.305 70.5781V49.806H132.525V70.5781H127.305ZM114.341 70.5781V49.806H119.561V70.5781H114.341ZM116.864 61.4998V58.733H129.85V61.4998H116.864ZM112.296 70.9023L112.449 69.0002C113.145 68.6976 114.051 68.4166 115.168 68.1572L114.341 70.3619V66.9684H119.561V70.3619L118.8 68.3301L121.693 68.9569L121.541 70.9023H112.296ZM125.26 70.9023L125.413 69.0002C126.109 68.6976 127.015 68.4166 128.132 68.1572L127.305 70.3619V66.9684H132.525V70.3619L131.764 68.3301L134.657 68.9569L134.505 70.9023H125.26ZM134.57 49.5034L134.418 51.4056C133.722 51.7082 132.815 51.9892 131.699 52.2485L132.525 50.0438V53.4374H127.305V50.0438L128.066 52.0756L125.173 51.4488L125.326 49.5034H134.57ZM121.606 49.5034L121.454 51.4056C120.758 51.7082 119.851 51.9892 118.735 52.2485L119.561 50.0438V53.4374H114.341V50.0438L115.102 52.0756L112.209 51.4488L112.362 49.5034H121.606Z" fill="#333232"/>
<path d="M147.055 71.2698C144.344 71.2698 142.183 70.6717 140.573 69.4757C138.978 68.2797 138.181 66.673 138.181 64.6556L143.488 63.9855C143.488 65.2248 143.858 66.183 144.598 66.8603C145.337 67.5232 146.396 67.8546 147.773 67.8546C149.151 67.8546 150.217 67.5232 150.971 66.8603C151.725 66.183 152.102 65.2248 152.102 63.9855L155.93 64.6556C155.93 66.673 155.125 68.2797 153.516 69.4757C151.921 70.6717 149.767 71.2698 147.055 71.2698ZM138.181 64.6556V49.806H143.488V63.9855L138.181 64.6556ZM138.181 53.4374V50.0438L138.942 52.0972L136.267 51.4488L136.419 49.5034H145.837L145.685 51.4056C145.41 51.5064 145.011 51.6289 144.489 51.773C143.967 51.9027 143.358 52.0468 142.662 52.2053L143.488 50.0438V53.4374H138.181ZM155.93 64.6556L152.102 63.9855V49.806H155.93V64.6556ZM152.102 53.4374V50.0438L152.863 52.054L149.666 51.4488L149.818 49.5034H157.757L157.605 51.4056C157.068 51.6793 156.235 51.9675 155.104 52.2702L155.93 50.0438V53.4374H152.102Z" fill="#333232"/>
<path d="M163.956 70.9023L164.174 68.1788H169.112C171.751 68.1788 173.07 67.0692 173.07 64.8501C173.07 62.4436 171.519 61.2404 168.415 61.2404H164.174V58.9924H168.72C175.419 58.9924 178.769 60.7937 178.769 64.3962C178.769 66.3848 177.848 67.9699 176.007 69.1515C174.18 70.3187 171.707 70.9023 168.589 70.9023H163.956ZM161.498 70.5781V49.806H166.719V70.5781H161.498ZM163.543 60.3109L163.956 58.7763H168.938C170.939 58.7763 171.939 57.6739 171.939 55.4692C171.939 53.3077 170.975 52.2269 169.046 52.2269H163.848V49.5034H169.307C171.961 49.5034 173.998 49.9574 175.419 50.8652C176.841 51.773 177.551 53.0771 177.551 54.7775C177.551 56.5643 176.768 57.9333 175.202 58.8844C173.636 59.8354 171.395 60.3109 168.481 60.3109H163.543ZM159.454 70.9023L159.606 69.0002C160.302 68.6976 161.208 68.4166 162.325 68.1572L161.498 70.3619V66.9684H166.719V70.3619L165.958 68.3301L168.851 68.9569L168.698 70.9023H159.454ZM168.763 49.5034L168.611 51.4056C167.915 51.7082 167.009 51.9892 165.892 52.2485L166.719 50.0438V53.4374H161.498V50.0438L162.26 52.0756L159.367 51.4488L159.519 49.5034H168.763Z" fill="#333232"/>
<line x1="1" y1="92.5" x2="100" y2="92.5" stroke="black"/>
<line x1="0.5" y1="93" x2="0.5" y2="77" stroke="black"/>
<line x1="319.5" y1="17" x2="319.5" y2="1" stroke="black"/>
<line x1="221" y1="0.5" x2="320" y2="0.5" stroke="black"/>
</svg>
