<svg width="229" height="204" viewBox="0 0 229 204" fill="none" xmlns="http://www.w3.org/2000/svg">
<path d="M94.4233 24.2561C94.4233 24.4104 96.1972 25.7986 98.2796 27.4183C100.439 29.0379 102.059 30.5033 101.904 30.7346C101.75 30.8889 98.5881 31.3517 94.9632 31.7373C71.2086 34.4367 51.156 50.2474 43.9062 71.9967C42.8265 75.3131 41.7467 79.6321 41.5153 81.6374L41.1297 85.3394L43.4435 80.5576C55.6293 54.952 77.1472 40.2211 104.064 38.9099C115.016 38.3701 122.651 39.6812 132.986 43.6917C140.004 46.4682 139.927 46.5453 132.215 47.9336C126.353 48.9362 113.165 53.101 112.548 54.1808C112.239 54.5664 117.638 54.8749 125.813 54.8749C133.372 54.8749 140.853 55.1063 142.472 55.4148L145.403 55.8775L142.087 59.271C131.443 70.2228 118.872 75.5445 102.136 76.1615L92.4952 76.5471L99.8221 73.9248C109.54 70.4542 122.188 64.0528 118.332 64.5927C116.867 64.7469 109.077 65.2097 100.979 65.6724C73.9851 67.0607 63.2647 70.4542 53.7011 80.6347C50.0762 84.5681 44.2918 93.5147 44.2918 95.2886C44.2918 95.5199 45.0631 95.7513 46.0657 95.7513C47.1455 95.7513 49.8449 93.746 53.5469 90.1212C59.8712 84.1054 68.2007 79.3236 75.5276 77.6269C79.1525 76.7785 79.9237 76.8556 84.0114 78.4752C95.1946 83.0256 99.3593 83.7969 113.319 83.7198C125.505 83.7198 126.893 83.5655 132.986 81.5602C136.611 80.4034 141.547 78.321 144.092 77.0098L148.565 74.5418L151.496 78.0125C153.116 79.9406 156.895 84.5681 159.748 88.4244L165.07 95.3657L169.852 95.5971L174.634 95.8284V92.0493C174.634 84.0283 170.006 71.4568 163.296 61.4305C160.751 57.4971 160.674 57.2658 161.831 55.0291C163.528 51.7127 165.996 44.2316 166.535 40.2982L167.075 36.9818L162.216 41.9178C159.517 44.6943 155.815 47.7022 154.118 48.5506L150.879 50.1702L150.339 46.6225C149.568 41.4551 147.254 35.9792 143.321 30.0405C141.393 27.1869 139.542 24.6417 139.233 24.4875C138.925 24.2561 138.77 27.8039 139.002 32.2772L139.387 40.5296L135.531 37.7531C130.441 34.1282 122.266 29.8863 116.25 27.9581C109.694 25.7215 94.4233 23.1764 94.4233 24.2561Z" fill="white"/>
<path d="M68.5092 89.5042C63.8046 91.7408 59.0999 95.8284 56.7862 99.7618C55.5521 101.844 55.2436 101.921 49.4592 101.921C44.1376 101.921 43.2121 102.153 41.5925 103.772C37.9676 107.397 41.4382 111.176 48.3795 111.176H52.0044V114.184C52.0044 115.881 52.2358 117.732 52.4671 118.349C52.7756 119.275 51.3103 119.506 43.752 119.814C34.0342 120.2 31.3348 120.971 27.0929 124.982C22.1569 129.532 21.5399 131.769 21.3085 147.502L21 161.848L23.0824 164.239C24.6249 166.09 25.7818 166.707 27.7099 166.707C34.1113 166.707 35.0368 164.624 35.0368 150.51C35.0368 134.931 35.4224 134.391 47.5311 134.314H55.8606L56.7862 137.939C57.2489 140.021 57.7117 141.795 57.7117 141.872C57.7888 142.026 56.4005 142.643 54.7809 143.183C50.6933 144.649 48.2252 146.5 45.4487 150.433L43.135 153.75L42.9036 169.869C42.6722 183.828 42.8265 186.374 43.9062 187.993C45.6801 190.693 48.5337 191.618 51.773 190.538C55.9378 189.227 56.6319 186.528 56.6319 172.877C56.6319 161.539 56.709 161.154 58.56 159.38C59.9483 157.914 61.2594 157.452 63.7274 157.452C66.8124 157.452 67.4294 157.837 72.2112 162.696C78.4584 169.02 86.6337 173.571 95.9658 176.039C101.519 177.427 103.833 177.658 111.777 177.273C118.332 177.041 122.343 176.424 125.505 175.345C133.603 172.414 140.853 168.018 146.483 162.696C151.419 157.914 152.113 157.452 155.198 157.452C157.666 157.452 158.977 157.914 160.365 159.38C162.294 161.231 162.294 161.462 162.294 173.956C162.294 186.296 162.371 186.759 164.145 188.842C166.535 191.618 171.472 191.849 174.017 189.227C175.713 187.53 175.791 187.068 175.791 170.64V153.75L173.477 150.356C171.163 147.04 164.762 142.875 162.139 142.798C160.443 142.798 160.443 142.489 161.985 137.939L163.219 134.314H171.163C178.49 134.314 179.338 134.468 181.344 136.165L183.503 138.016L183.889 150.896C184.274 163.236 184.351 163.853 186.125 165.241C188.67 167.324 192.758 167.169 195.072 164.778C197 162.927 197 162.85 197 147.58V132.154L194.532 128.452C193.067 126.37 190.367 123.671 188.285 122.437C184.814 120.277 183.889 120.123 175.328 119.814L166.073 119.506L166.304 115.264L166.535 111.022L171.394 110.945C175.559 110.791 176.562 110.482 177.796 108.94C179.724 106.626 179.647 106.086 177.333 103.849C175.713 102.153 174.788 101.921 169.466 101.844H163.45L160.365 97.8337C156.741 93.2062 151.188 89.1956 146.637 87.9616C141.855 86.6505 132.523 87.4989 128.204 89.5042C126.276 90.4296 123.114 92.8205 121.263 94.6715C117.869 98.0651 117.792 98.1422 115.556 96.9082C112.548 95.3657 105.298 95.3657 102.984 96.9853C101.287 98.2193 101.133 98.1422 97.9711 94.98C96.2743 93.129 92.7266 90.661 90.1814 89.427C86.3251 87.6531 84.5513 87.2675 79.3839 87.2675C74.2165 87.2675 72.4426 87.6531 68.5092 89.5042ZM87.0964 96.0598C95.1946 99.8389 98.9737 105.778 99.0508 114.878C99.0508 121.588 97.9711 124.596 93.6521 129.224C89.7958 133.388 84.8598 135.471 78.9982 135.394C71.5171 135.239 65.1157 131.152 61.5679 124.133C58.9457 119.043 58.4829 114.647 60.0254 109.48C61.8764 103.078 65.1157 99.1448 70.7458 96.4454C76.7616 93.5918 81.6976 93.5147 87.0964 96.0598ZM148.18 96.3683C152.267 98.5278 156.046 102.307 157.743 106.163C159.903 110.945 159.748 119.429 157.358 124.211C153.81 131.152 147.408 135.239 139.927 135.394C134.066 135.471 129.13 133.388 125.273 129.224C121.032 124.596 119.643 121.126 119.643 115.033C119.643 106.317 123.268 100.379 130.826 96.5226C135.068 94.363 136.225 94.1317 140.313 94.4402C142.858 94.5944 146.406 95.5199 148.18 96.3683ZM112.085 103.541C114.862 104.544 114.784 104.312 113.396 108.785C112.779 111.022 112.239 111.87 111.777 111.253C111.391 110.559 110.311 110.405 108.614 110.636C106.146 111.022 105.992 110.945 105.221 108.246C104.218 104.389 104.218 104.312 106.223 103.464C108.537 102.538 109.231 102.538 112.085 103.541ZM113.319 144.34C113.936 146.268 117.33 148.968 119.258 148.968C120.877 148.968 124.734 145.497 125.428 143.569C125.736 142.566 126.045 142.566 127.741 143.492C129.515 144.417 129.67 144.803 129.053 146.654C126.276 154.367 115.479 155.909 110.774 149.199C108.306 145.574 108.152 144.34 110.08 143.569C112.548 142.566 112.779 142.643 113.319 144.34Z" fill="white"/>
<path d="M75.5276 104.389C72.5968 106.086 71.3628 108.4 71.2857 111.948C71.2857 116.961 73.6766 119.66 78.4584 120.2C82.7774 120.74 85.3996 119.275 87.2506 115.418C90.567 108.477 82.0833 100.61 75.5276 104.389ZM80.078 106.703C81.2349 108.554 79.8466 110.714 77.2244 111.022C74.7563 111.331 73.4452 109.248 74.4478 106.703C74.9877 105.315 75.6047 104.929 77.1472 105.161C78.3041 105.315 79.6152 106.009 80.078 106.703Z" fill="white"/>
<path d="M133.68 105.7C131.752 107.629 131.443 108.554 131.443 111.948C131.443 115.341 131.752 116.267 133.68 118.195C135.531 120.046 136.611 120.431 139.542 120.431C142.472 120.431 143.552 120.046 145.403 118.195C147.254 116.344 147.64 115.264 147.64 112.333C147.64 109.248 147.254 108.323 145.018 106.086C141.47 102.538 136.997 102.384 133.68 105.7ZM139.002 105.7C139.619 106.086 139.927 107.32 139.773 108.554C139.619 110.174 139.079 110.868 137.768 111.022C134.374 111.562 132.6 108.554 134.991 106.24C136.302 104.852 137.459 104.698 139.002 105.7Z" fill="white"/>
</svg>
