<svg width="202" height="57" viewBox="0 0 202 57" fill="none" xmlns="http://www.w3.org/2000/svg">
<path d="M23.3449 3.96297C23.3449 4.01201 23.9089 4.45341 24.571 4.96837C25.2577 5.48333 25.7726 5.94925 25.7236 6.02281C25.6745 6.07186 24.6691 6.21899 23.5166 6.3416C15.9638 7.19987 9.5881 12.2269 7.28303 19.1421C6.93972 20.1965 6.59641 21.5698 6.52285 22.2073L6.40024 23.3844L7.1359 21.864C11.0104 13.7227 17.852 9.03902 26.4102 8.62214C29.8923 8.45049 32.32 8.86736 35.6059 10.1425C37.8374 11.0253 37.8129 11.0498 35.3607 11.4912C33.497 11.81 29.3038 13.1342 29.1076 13.4775C29.0095 13.6001 30.7261 13.6982 33.3254 13.6982C35.7285 13.6982 38.1072 13.7718 38.6221 13.8699L39.554 14.017L38.4995 15.096C35.1155 18.5781 31.1184 20.2701 25.7971 20.4663L22.7319 20.5889L25.0615 19.7551C28.1512 18.6516 32.1728 16.6163 30.9468 16.788C30.4808 16.837 28.0041 16.9841 25.4293 17.1313C16.8466 17.5727 13.438 18.6516 10.3973 21.8885C9.24479 23.1392 7.40564 25.9837 7.40564 26.5477C7.40564 26.6213 7.65086 26.6949 7.96964 26.6949C8.31295 26.6949 9.17122 26.0573 10.3483 24.9047C12.3591 22.992 15.0075 21.4717 17.337 20.9322C18.4896 20.6624 18.7348 20.687 20.0345 21.2019C23.5902 22.6487 24.9143 22.8939 29.3528 22.8694C33.2273 22.8694 33.6687 22.8204 35.6059 22.1828C36.7585 21.815 38.3279 21.1529 39.1371 20.736L40.5594 19.9513L41.4912 21.0548C42.0062 21.6678 43.2077 23.1392 44.1151 24.3653L45.8071 26.5722L48.8478 26.7194V25.5178C48.8478 22.9675 47.3765 18.9704 45.2431 15.7826C44.4338 14.5319 44.4093 14.4584 44.7772 13.7472C45.3166 12.6928 46.1013 10.3142 46.273 9.06354L46.4447 8.00909L44.8998 9.5785C44.0415 10.4613 42.8644 11.4177 42.325 11.6874L41.295 12.2024L41.1234 11.0743C40.8782 9.43137 40.1425 7.69031 38.8919 5.80212C38.2788 4.8948 37.6903 4.08558 37.5922 4.03653C37.4941 3.96297 37.4451 5.09098 37.5186 6.51325L37.6413 9.13711L36.4152 8.25431C34.7967 7.10178 32.1974 5.75307 30.2847 5.14002C28.2003 4.42888 23.3449 3.61966 23.3449 3.96297Z" fill="black"/>
<path d="M15.1055 24.7086C13.6097 25.4197 12.1139 26.7194 11.3782 27.97C10.9859 28.6321 10.8878 28.6566 9.04861 28.6566C7.3566 28.6566 7.06233 28.7302 6.54737 29.2451C5.39484 30.3977 6.49833 31.5993 8.70531 31.5993H9.85784V32.5556C9.85784 33.0951 9.93141 33.6836 10.005 33.8798C10.1031 34.1741 9.63714 34.2476 7.23399 34.3457C4.14422 34.4683 3.28595 34.7135 1.93724 35.9887C0.36783 37.4355 0.171654 38.1466 0.098088 43.1491L0 47.7102L0.662094 48.4704C1.15253 49.0589 1.52036 49.2551 2.13341 49.2551C4.16874 49.2551 4.463 48.593 4.463 44.1055C4.463 39.152 4.58561 38.9804 8.43556 38.9558H11.0839L11.3782 40.1084C11.5253 40.7705 11.6725 41.3345 11.6725 41.359C11.697 41.408 11.2556 41.6042 10.7406 41.7759C9.44097 42.2418 8.65626 42.8303 7.77347 44.0809L7.03781 45.1354L6.96424 50.2605C6.89068 54.699 6.93972 55.5082 7.28303 56.0231C7.84704 56.8814 8.75435 57.1757 9.78427 56.8324C11.1085 56.4155 11.3292 55.5572 11.3292 51.2168C11.3292 47.6121 11.3537 47.4895 11.9422 46.9255C12.3836 46.4596 12.8005 46.3124 13.5852 46.3124C14.5661 46.3124 14.7622 46.4351 16.2826 47.9799C18.2689 49.9907 20.8682 51.4375 23.8354 52.2222C25.601 52.6636 26.3366 52.7372 28.8624 52.6146C30.9468 52.541 32.2219 52.3449 33.2273 52.0015C35.8021 51.0697 38.1072 49.672 39.8973 47.9799C41.4667 46.4596 41.6874 46.3124 42.6683 46.3124C43.453 46.3124 43.8698 46.4596 44.3112 46.9255C44.9243 47.514 44.9243 47.5876 44.9243 51.5601C44.9243 55.4837 44.9488 55.6308 45.5128 56.2929C46.273 57.1757 47.8424 57.2492 48.6516 56.4155C49.1911 55.876 49.2156 55.7289 49.2156 50.5057V45.1354L48.48 44.0564C47.7443 43.002 45.709 41.6778 44.8752 41.6533C44.3358 41.6533 44.3358 41.5552 44.8262 40.1084L45.2185 38.9558H47.7443C50.0739 38.9558 50.3436 39.0049 50.9812 39.5444L51.6678 40.1329L51.7904 44.2281C51.9131 48.1516 51.9376 48.3478 52.5016 48.7892C53.3108 49.4513 54.6105 49.4022 55.3461 48.642C55.9592 48.0535 55.9592 48.029 55.9592 43.1736V38.2692L55.1745 37.0922C54.7086 36.4301 53.8503 35.5718 53.1882 35.1795C52.0847 34.4928 51.7904 34.4438 49.0685 34.3457L46.1259 34.2476L46.273 31.5502L47.8179 31.5257C49.1421 31.4766 49.4609 31.3786 49.8532 30.8881C50.4663 30.1525 50.4417 29.9808 49.7061 29.2697C49.1911 28.7302 48.8968 28.6566 47.2048 28.6321H45.2921L44.3112 27.3569C43.1587 25.8856 41.3931 24.6105 39.9463 24.2181C38.426 23.8013 35.4588 24.071 34.0856 24.7086C33.4725 25.0028 32.4671 25.763 31.8786 26.3515C30.7996 27.4305 30.7751 27.455 30.064 27.0627C29.1076 26.5722 26.8025 26.5722 26.0669 27.0872C25.5274 27.4796 25.4783 27.455 24.4729 26.4496C23.9335 25.8611 22.8055 25.0764 21.9962 24.684C20.7701 24.12 20.2061 23.9974 18.5631 23.9974C16.9202 23.9974 16.3562 24.12 15.1055 24.7086ZM21.0153 26.7929C23.5902 27.9945 24.7917 29.8827 24.8163 32.7763C24.8163 34.9097 24.4729 35.8661 23.0997 37.3374C21.8736 38.6616 20.3042 39.3237 18.4405 39.2992C16.0619 39.2501 14.0266 37.9504 12.8986 35.7189C12.0648 34.1005 11.9177 32.7027 12.4081 31.0598C12.9967 29.0244 14.0266 27.7738 15.8167 26.9156C17.7294 26.0082 19.2988 25.9837 21.0153 26.7929ZM40.4368 26.891C41.7364 27.5776 42.938 28.7792 43.4775 30.0053C44.1641 31.5257 44.1151 34.2231 43.3549 35.7435C42.2269 37.9504 40.1915 39.2501 37.8129 39.2992C35.9492 39.3237 34.3798 38.6616 33.1537 37.3374C31.805 35.8661 31.3636 34.7626 31.3636 32.8253C31.3636 30.0544 32.5162 28.1662 34.9193 26.9401C36.268 26.2535 36.6359 26.1799 37.9355 26.278C38.7447 26.327 39.8728 26.6213 40.4368 26.891ZM28.9605 29.1716C29.8433 29.4904 29.8187 29.4168 29.3773 30.8391C29.1812 31.5502 29.0095 31.82 28.8624 31.6238C28.7398 31.4031 28.3965 31.354 27.857 31.4276C27.0723 31.5502 27.0232 31.5257 26.778 30.6674C26.4592 29.4413 26.4592 29.4168 27.0968 29.1471C27.8325 28.8528 28.0532 28.8528 28.9605 29.1716ZM29.3528 42.1437C29.549 42.7568 30.628 43.615 31.241 43.615C31.756 43.615 32.9821 42.5115 33.2028 41.8985C33.3009 41.5797 33.3989 41.5797 33.9384 41.874C34.5024 42.1682 34.5515 42.2908 34.3553 42.8794C33.4725 45.3316 30.0394 45.822 28.5436 43.6886C27.7589 42.5361 27.7098 42.1437 28.3229 41.8985C29.1076 41.5797 29.1812 41.6042 29.3528 42.1437Z" fill="black"/>
<path d="M17.337 29.4413C16.4052 29.9808 16.0129 30.7165 15.9883 31.8445C15.9883 33.4384 16.7485 34.2967 18.2689 34.4683C19.6421 34.64 20.4759 34.1741 21.0644 32.948C22.1188 30.741 19.4214 28.2397 17.337 29.4413ZM18.7838 30.177C19.1517 30.7655 18.7103 31.4521 17.8765 31.5502C17.0918 31.6483 16.675 30.9862 16.9937 30.177C17.1654 29.7356 17.3616 29.613 17.852 29.6865C18.2198 29.7356 18.6367 29.9563 18.7838 30.177Z" fill="black"/>
<path d="M35.8266 29.8582C35.2136 30.4712 35.1155 30.7655 35.1155 31.8445C35.1155 32.9234 35.2136 33.2177 35.8266 33.8307C36.4152 34.4193 36.7585 34.5419 37.6903 34.5419C38.6221 34.5419 38.9654 34.4193 39.554 33.8307C40.1425 33.2422 40.2651 32.8989 40.2651 31.9671C40.2651 30.9862 40.1425 30.6919 39.4314 29.9808C38.3034 28.8528 36.8811 28.8037 35.8266 29.8582ZM37.5186 29.8582C37.7148 29.9808 37.8129 30.3731 37.7639 30.7655C37.7148 31.2805 37.5432 31.5012 37.1263 31.5502C36.0473 31.7219 35.4833 30.7655 36.2435 30.0298C36.6604 29.5884 37.0282 29.5394 37.5186 29.8582Z" fill="black"/>
<path d="M57.2844 29.9534L52.8077 6.02325L50.5693 5.49418V1.83139H60.4995L61.1914 5.0465L58.3425 5.45348L61.6797 24.2558L67.9472 2.36046H73.7262L79.7902 24.7034L82.9646 5.45348L79.546 4.92441L79.9937 1.83139H90.1273V5.41278L86.9529 6.22673L82.4762 29.9534H75.639L69.9007 9.31975L64.4065 29.9534H57.2844Z" fill="black"/>
<path d="M98.8493 30.1162C97.3028 30.1162 95.8242 29.7635 94.4133 29.0581C93.0025 28.3255 91.8494 27.2267 90.954 25.7616C90.0587 24.2965 89.611 22.4515 89.611 20.2267C89.611 17.8391 90.0587 15.8992 90.954 14.4069C91.8765 12.8876 93.0296 11.7752 94.4133 11.0697C95.8242 10.3372 97.2486 9.97091 98.6866 9.97091C99.8261 9.97091 100.925 10.1744 101.983 10.5814C103.041 10.9612 103.909 11.5717 104.588 12.4128C105.293 13.2267 105.646 14.2713 105.646 15.5465C105.646 16.686 105.402 17.6628 104.913 18.4767C104.452 19.2907 103.801 19.9554 102.96 20.4709C102.146 20.9864 101.21 21.3662 100.152 21.6104C99.0935 21.8546 97.9811 21.9631 96.8145 21.936L94.7389 21.8953C94.9017 23.1162 95.3494 24.1472 96.0819 24.9883C96.8145 25.8294 98.0083 26.2499 99.6633 26.2499C100.911 26.2499 101.915 26.0193 102.675 25.5581C103.435 25.0697 104.059 24.5949 104.547 24.1337L105.483 27.6744C105.239 27.9999 104.805 28.3527 104.181 28.7325C103.557 29.1123 102.783 29.4379 101.861 29.7092C100.966 29.9806 99.9617 30.1162 98.8493 30.1162ZM94.7796 18.4767L96.1226 18.5174C96.6381 18.5445 97.1536 18.5174 97.6691 18.436C98.2118 18.3275 98.7001 18.1647 99.1342 17.9476C99.5955 17.7306 99.9617 17.4457 100.233 17.093C100.504 16.7131 100.64 16.2519 100.64 15.7093C100.64 15.0852 100.464 14.624 100.111 14.3256C99.7583 14 99.3106 13.8372 98.768 13.8372C98.1168 13.8372 97.4928 14.0542 96.8959 14.4883C96.3261 14.8953 95.8513 15.4515 95.4715 16.1569C95.0916 16.8624 94.861 17.6356 94.7796 18.4767Z" fill="black"/>
<path d="M110.778 30.1162L109.476 29.0174V3.4593L107.359 3.58139L106.912 0.813953L112.976 0L114.359 1.42442V10.7442C114.793 10.5271 115.295 10.3508 115.865 10.2151C116.462 10.0523 117.14 9.97091 117.9 9.97091C119.528 9.97091 120.939 10.3643 122.132 11.1511C123.326 11.938 124.249 13.0639 124.9 14.529C125.578 15.967 125.917 17.7035 125.917 19.7383C125.917 21.7189 125.66 23.3875 125.144 24.7441C124.629 26.0736 123.937 27.1317 123.069 27.9185C122.2 28.7054 121.224 29.2751 120.138 29.6278C119.053 29.9534 117.954 30.1162 116.842 30.1162C116.082 30.1162 115.377 30.0484 114.726 29.9127C114.074 29.7499 113.477 29.5329 112.935 29.2616L110.778 30.1162ZM116.842 26.2906C117.574 26.2906 118.239 26.0736 118.836 25.6395C119.46 25.1782 119.948 24.4864 120.301 23.5639C120.681 22.6143 120.871 21.4069 120.871 19.9418C120.871 18.531 120.695 17.3779 120.342 16.4825C120.016 15.56 119.555 14.8818 118.958 14.4476C118.361 14.0135 117.683 13.7965 116.923 13.7965C116.408 13.7965 115.919 13.8643 115.458 14C115.024 14.1356 114.658 14.312 114.359 14.529V25.7616C114.603 25.9244 114.97 26.06 115.458 26.1686C115.946 26.2499 116.408 26.2906 116.842 26.2906Z" fill="black"/>
<path d="M131.087 30.1162L129.785 29.0174V3.4593L127.668 3.58139L127.221 0.813953L133.285 0L134.668 1.42442V10.7442C135.102 10.5271 135.604 10.3508 136.174 10.2151C136.771 10.0523 137.449 9.97091 138.209 9.97091C139.837 9.97091 141.248 10.3643 142.442 11.1511C143.635 11.938 144.558 13.0639 145.209 14.529C145.887 15.967 146.226 17.7035 146.226 19.7383C146.226 21.7189 145.969 23.3875 145.453 24.7441C144.938 26.0736 144.246 27.1317 143.378 27.9185C142.509 28.7054 141.533 29.2751 140.447 29.6278C139.362 29.9534 138.263 30.1162 137.151 30.1162C136.391 30.1162 135.686 30.0484 135.035 29.9127C134.383 29.7499 133.787 29.5329 133.244 29.2616L131.087 30.1162ZM137.151 26.2906C137.883 26.2906 138.548 26.0736 139.145 25.6395C139.769 25.1782 140.257 24.4864 140.61 23.5639C140.99 22.6143 141.18 21.4069 141.18 19.9418C141.18 18.531 141.004 17.3779 140.651 16.4825C140.325 15.56 139.864 14.8818 139.267 14.4476C138.67 14.0135 137.992 13.7965 137.232 13.7965C136.717 13.7965 136.228 13.8643 135.767 14C135.333 14.1356 134.967 14.312 134.668 14.529V25.7616C134.912 25.9244 135.279 26.06 135.767 26.1686C136.256 26.2499 136.717 26.2906 137.151 26.2906Z" fill="black"/>
<path d="M149.08 29.9534L148.632 27.3488L150.911 26.8197V13.7558H148.836L148.388 10.9883L154.452 9.93021L155.836 11.3953V26.9011L158.074 27.3488V29.9534H149.08ZM153.272 8.30231C152.566 8.30231 151.97 8.05812 151.481 7.56975C150.993 7.05425 150.749 6.45735 150.749 5.77906C150.749 5.07363 150.993 4.47674 151.481 3.98837C151.97 3.49999 152.566 3.25581 153.272 3.25581C153.977 3.25581 154.574 3.49999 155.063 3.98837C155.551 4.47674 155.795 5.07363 155.795 5.77906C155.795 6.45735 155.551 7.05425 155.063 7.56975C154.574 8.05812 153.977 8.30231 153.272 8.30231Z" fill="black"/>
<path d="M160.804 29.9534L160.357 27.3488L162.636 26.8197V13.7558H160.56L160.113 10.9883L166.136 9.93021L167.56 11.436C168.076 11.0562 168.768 10.717 169.636 10.4186C170.504 10.1201 171.386 9.97091 172.281 9.97091C173.421 9.97091 174.465 10.1608 175.415 10.5407C176.364 10.9205 177.124 11.5039 177.694 12.2907C178.264 13.0775 178.549 14.0949 178.549 15.343V26.9825L180.787 27.3488L180.746 29.9534H171.589V27.3488L173.624 26.9011V16.4825C173.624 15.6143 173.394 14.9767 172.932 14.5697C172.498 14.1628 171.888 13.9593 171.101 13.9593C170.314 13.9593 169.568 14.1628 168.863 14.5697C168.184 14.9496 167.75 15.248 167.56 15.4651V26.9011L169.88 27.3895L169.839 29.9534H160.804Z" fill="black"/>
<path d="M190.14 41.0232C188.54 41.0232 187.142 40.7519 185.949 40.2092C184.782 39.6937 183.873 38.9747 183.222 38.0522C182.598 37.1298 182.286 36.0988 182.286 34.9592C182.286 33.684 182.584 32.6123 183.181 31.7441C183.805 30.903 184.551 30.2247 185.419 29.7092C185.121 29.3837 184.877 29.0038 184.687 28.5697C184.524 28.1085 184.443 27.5794 184.443 26.9825C184.443 26.2771 184.578 25.653 184.85 25.1104C185.148 24.5406 185.514 24.0523 185.949 23.6453C185.026 23.0484 184.253 22.2616 183.629 21.2848C183.032 20.281 182.733 19.0736 182.733 17.6628C182.733 16.0077 183.127 14.6104 183.914 13.4709C184.728 12.3314 185.745 11.4632 186.966 10.8663C188.214 10.2694 189.503 9.97091 190.832 9.97091C191.782 9.97091 192.704 10.1201 193.6 10.4186C194.522 10.717 195.35 11.1511 196.082 11.7209L200.518 9.48254L201.454 9.60463L201.902 13.6337L198.117 14.0814C198.388 14.5969 198.592 15.1531 198.728 15.75C198.89 16.3469 198.972 16.9845 198.972 17.6628C198.972 19.2907 198.565 20.6472 197.751 21.7325C196.964 22.8178 195.947 23.6317 194.699 24.1744C193.478 24.717 192.189 24.9883 190.832 24.9883C190.642 24.9883 190.452 24.9883 190.262 24.9883C190.1 24.9883 189.937 24.9748 189.774 24.9476L189.042 26.0465L189.123 26.6162L193.274 27.4709C194.712 27.7693 195.906 28.1899 196.855 28.7325C197.805 29.248 198.511 29.872 198.972 30.6046C199.433 31.3643 199.664 32.2461 199.664 33.2499C199.664 34.8778 199.23 36.2751 198.361 37.4418C197.52 38.6084 196.381 39.4902 194.943 40.0871C193.505 40.7112 191.904 41.0232 190.14 41.0232ZM191.239 36.1395C191.999 36.1395 192.718 36.0445 193.396 35.8546C194.074 35.6918 194.631 35.434 195.065 35.0813C195.526 34.7557 195.757 34.3759 195.757 33.9418C195.757 33.5348 195.526 33.2092 195.065 32.965C194.604 32.748 193.993 32.5581 193.233 32.3953C192.501 32.2596 191.7 32.1104 190.832 31.9476C189.964 31.812 189.123 31.6085 188.309 31.3371C187.712 31.6899 187.292 32.0697 187.047 32.4767C186.83 32.9108 186.722 33.3313 186.722 33.7383C186.722 34.091 186.857 34.4437 187.129 34.7964C187.4 35.1763 187.861 35.4883 188.512 35.7325C189.164 36.0038 190.073 36.1395 191.239 36.1395ZM190.832 21.1627C191.918 21.1627 192.704 20.7965 193.193 20.0639C193.681 19.3042 193.925 18.436 193.925 17.4593C193.925 16.5097 193.681 15.6686 193.193 14.936C192.704 14.1763 191.918 13.7965 190.832 13.7965C189.774 13.7965 189.001 14.1763 188.512 14.936C188.024 15.6686 187.78 16.5097 187.78 17.4593C187.78 18.436 188.024 19.3042 188.512 20.0639C189.001 20.7965 189.774 21.1627 190.832 21.1627Z" fill="black"/>
<path d="M70.6246 54.7734V35.6765H75.3939V54.7734H70.6246ZM58.781 54.7734V35.6765H63.5502V54.7734H58.781ZM61.0861 46.4272V43.8836H72.9496V46.4272H61.0861ZM56.913 55.0715L57.0521 53.3227C57.688 53.0445 58.516 52.7862 59.5361 52.5477L58.781 54.5747V51.4548H63.5502V54.5747L62.8547 52.7067L65.4977 53.283L65.3586 55.0715H56.913ZM68.7567 55.0715L68.8958 53.3227C69.5317 53.0445 70.3597 52.7862 71.3798 52.5477L70.6246 54.5747V51.4548H75.3939V54.5747L74.6983 52.7067L77.3413 53.283L77.2022 55.0715H68.7567ZM77.2618 35.3983L77.1227 37.147C76.4868 37.4252 75.6588 37.6836 74.6387 37.922L75.3939 35.8951V39.015H70.6246V35.8951L71.3201 37.7631L68.6772 37.1868L68.8163 35.3983H77.2618ZM65.4182 35.3983L65.2791 37.147C64.6432 37.4252 63.8152 37.6836 62.7951 37.922L63.5502 35.8951V39.015H58.781V35.8951L59.4765 37.7631L56.8335 37.1868L56.9726 35.3983H65.4182Z" fill="black"/>
<path d="M88.6683 55.4093C86.1909 55.4093 84.217 54.8595 82.7465 53.7599C81.2892 52.6603 80.5606 51.1832 80.5606 49.3285L85.4093 48.7125C85.4093 49.8518 85.7471 50.7328 86.4228 51.3554C87.0984 51.9648 88.0655 52.2695 89.3241 52.2695C90.5826 52.2695 91.5563 51.9648 92.2452 51.3554C92.9341 50.7328 93.2785 49.8518 93.2785 48.7125L96.776 49.3285C96.776 51.1832 96.0407 52.6603 94.5702 53.7599C93.113 54.8595 91.1456 55.4093 88.6683 55.4093ZM80.5606 49.3285V35.6765H85.4093V48.7125L80.5606 49.3285ZM80.5606 39.015V35.8951L81.2561 37.7829L78.8118 37.1868L78.9509 35.3983H87.5555L87.4164 37.147C87.1646 37.2398 86.8003 37.3524 86.3234 37.4849C85.8465 37.6041 85.2901 37.7366 84.6542 37.8823L85.4093 35.8951V39.015H80.5606ZM96.776 49.3285L93.2785 48.7125V35.6765H96.776V49.3285ZM93.2785 39.015V35.8951L93.9741 37.7432L91.0529 37.1868L91.192 35.3983H98.4452L98.3061 37.147C97.816 37.3988 97.0542 37.6637 96.0209 37.9419L96.776 35.8951V39.015H93.2785Z" fill="black"/>
<path d="M104.109 55.0715L104.307 52.5676H108.818C111.229 52.5676 112.435 51.5475 112.435 49.5073C112.435 47.2949 111.018 46.1887 108.182 46.1887H104.307V44.1221H108.461C114.581 44.1221 117.641 45.7781 117.641 49.09C117.641 50.9182 116.8 52.3755 115.118 53.4618C113.448 54.5349 111.19 55.0715 108.341 55.0715H104.109ZM101.863 54.7734V35.6765H106.632V54.7734H101.863ZM103.731 45.3343L104.109 43.9233H108.659C110.488 43.9233 111.402 42.9099 111.402 40.883C111.402 38.8958 110.521 37.9022 108.759 37.9022H104.009V35.3983H108.997C111.422 35.3983 113.283 35.8156 114.581 36.6502C115.879 37.4849 116.529 38.6838 116.529 40.2471C116.529 41.8898 115.813 43.1483 114.382 44.0227C112.952 44.8971 110.905 45.3343 108.242 45.3343H103.731ZM99.9952 55.0715L100.134 53.3227C100.77 53.0445 101.598 52.7862 102.618 52.5477L101.863 54.5747V51.4548H106.632V54.5747L105.937 52.7067L108.58 53.283L108.441 55.0715H99.9952ZM108.5 35.3983L108.361 37.147C107.725 37.4252 106.897 37.6836 105.877 37.922L106.632 35.8951V39.015H101.863V35.8951L102.559 37.7631L99.9158 37.1868L100.055 35.3983H108.5Z" fill="black"/>
</svg>
