<svg width="188" height="188" viewBox="0 0 188 188" fill="none" xmlns="http://www.w3.org/2000/svg">
<g clip-path="url(#clip0_225_696)">
<path d="M76.5195 183.425C78.4668 182.629 81.3732 181.366 84.5252 179.752L86.0223 178.986L87.4375 179.892C90.3614 181.764 93.0222 183.156 94.4959 183.887C95.835 183.226 98.1566 182.015 100.759 180.389L102.145 179.53L103.607 180.255C106.367 181.629 108.876 182.711 110.613 183.425C112.215 179.811 114.993 172.296 114.993 163.741C114.993 160.729 114.297 157.782 112.923 154.969H74.2213C72.847 157.782 72.1511 160.723 72.1511 163.741C72.1453 172.337 74.9172 179.822 76.5195 183.425Z" fill="#E0A838"/>
<path d="M82.2855 154.969C82.0282 155.904 81.8703 156.875 81.8703 157.893C81.8703 164.355 93.5661 175.436 93.5661 175.436C93.5661 175.436 105.262 164.355 105.262 157.893C105.262 156.875 105.104 155.904 104.847 154.969H82.2855Z" fill="#D1712A"/>
<path d="M133.799 100.203C136.203 89.6188 137.425 79.5195 137.425 70.1746C137.425 31.5084 101.157 7.88883 93.5661 3.37427C85.9872 7.90053 49.707 31.5727 49.707 70.1746C49.707 80.6306 50.6894 90.9229 52.6309 100.759L53.0052 102.677L38.0112 112.677V138.086C38.0112 139.039 38.4557 139.905 39.2276 140.46C39.9936 141.022 40.9468 141.162 41.8591 140.864L63.7068 133.577L64.8939 135.665C65.9875 137.583 66.7009 138.642 66.736 138.7L67.5605 139.899L63.8179 151.127C63.5197 152.027 63.6659 152.986 64.2214 153.764C64.777 154.536 65.6424 154.981 66.5956 154.981H120.542C121.496 154.981 122.361 154.536 122.917 153.764C123.472 152.992 123.618 152.033 123.32 151.133L119.648 140.115L120.215 139.016C120.232 138.981 120.823 137.84 121.776 135.782L122.876 133.408L145.279 140.875C146.179 141.174 147.133 141.039 147.91 140.472C148.682 139.916 149.127 139.051 149.127 138.098V112.689L133.361 102.18L133.799 100.203Z" fill="#CC4121"/>
<path d="M93.5661 90.6421C108.1 90.6421 119.882 78.8603 119.882 64.3267C119.882 49.7931 108.1 38.0112 93.5661 38.0112C79.0324 38.0112 67.2506 49.7931 67.2506 64.3267C67.2506 78.8603 79.0324 90.6421 93.5661 90.6421Z" fill="#FFFAEE"/>
<path d="M93.5661 78.9464C101.64 78.9464 108.186 72.401 108.186 64.3267C108.186 56.2525 101.64 49.707 93.5661 49.707C85.4918 49.707 78.9464 56.2525 78.9464 64.3267C78.9464 72.401 85.4918 78.9464 93.5661 78.9464Z" fill="#A3AEB5"/>
<path d="M93.5661 93.5661C109.689 93.5661 122.805 80.4493 122.805 64.3267C122.805 48.2041 109.689 35.0873 93.5661 35.0873C77.4435 35.0873 64.3267 48.2041 64.3267 64.3267C64.3267 80.4493 77.4435 93.5661 93.5661 93.5661ZM93.5661 40.9352C106.484 40.9352 116.958 51.4087 116.958 64.3267C116.958 77.2446 106.484 87.7182 93.5661 87.7182C80.6481 87.7182 70.1745 77.2446 70.1745 64.3267C70.1745 51.4087 80.6481 40.9352 93.5661 40.9352ZM93.5661 81.8703C103.256 81.8703 111.11 74.0166 111.11 64.3267C111.11 54.6367 103.256 46.783 93.5661 46.783C83.8761 46.783 76.0224 54.6367 76.0224 64.3267C76.0224 74.0166 83.8761 81.8703 93.5661 81.8703ZM93.5661 52.6309C100.016 52.6309 105.262 57.8765 105.262 64.3267C105.262 70.7769 100.016 76.0224 93.5661 76.0224C87.1159 76.0224 81.8703 70.7769 81.8703 64.3267C81.8703 57.8765 87.1159 52.6309 93.5661 52.6309ZM136.653 100.847C138.805 91.3731 140.349 80.8996 140.349 70.1745C140.349 24.9587 93.5661 0 93.5661 0C93.5661 0 46.783 24.9587 46.783 70.1745C46.783 81.9814 47.9935 92.3672 49.7596 101.326L35.0873 111.11V138.086C35.0873 141.419 37.8182 143.94 40.9235 143.94C41.5316 143.94 42.1574 143.84 42.7831 143.636L62.3501 137.115C63.5489 139.215 64.3267 140.349 64.3267 140.349L61.046 150.197C59.7829 153.98 62.6015 157.893 66.5898 157.893H70.0693C69.5722 159.77 69.2155 161.706 69.2155 163.741C69.2155 176.659 75.0634 187.132 75.0634 187.132C75.0634 187.132 80.0282 185.337 85.8527 182.354C90.5193 185.337 94.49 187.132 94.49 187.132C94.49 187.132 98.0046 185.547 102.303 182.875C107.671 185.547 112.069 187.132 112.069 187.132C112.069 187.132 117.917 176.659 117.917 163.741C117.917 161.706 117.56 159.77 117.063 157.893H120.542C124.536 157.893 127.349 153.98 126.092 150.197L122.805 140.349C122.805 140.349 123.419 139.162 124.425 136.992L144.349 143.636C144.969 143.84 145.595 143.94 146.209 143.94C149.314 143.94 152.045 141.425 152.045 138.086V111.11L136.653 100.847ZM93.5719 6.79524C103.174 12.801 134.501 35.0814 134.501 70.1745C134.501 98.4373 123.256 125.513 119.121 134.501H67.6015C63.5255 127.349 52.6309 104.969 52.6309 70.1745C52.6309 35.1984 83.9814 12.8244 93.5719 6.79524ZM40.9352 138.086V114.244L51.1046 107.466C53.6952 118.151 56.97 126.326 59.6308 131.858L40.9352 138.086ZM112.063 163.741C112.063 170.05 110.437 175.776 109.022 179.571C107.782 179.021 106.379 178.372 104.905 177.641L101.981 176.185L99.2093 177.91C97.4081 179.027 95.7532 179.945 94.49 180.606C93.0515 179.852 91.1041 178.77 89.0106 177.43L86.1802 175.618L83.1861 177.15C81.3615 178.085 79.6189 178.898 78.1101 179.565C76.6949 175.764 75.0634 170.027 75.0634 163.741C75.0634 161.676 75.4786 159.723 76.1569 157.893H110.964C111.648 159.723 112.063 161.676 112.063 163.741ZM120.542 152.045H66.5956L70.4845 140.349H116.642L120.542 152.045ZM146.197 138.086L126.782 131.612C129.267 125.665 132.49 117.039 135.174 106.893L146.197 114.238V138.086Z" fill="#231F20"/>
</g>
<defs>
<clipPath id="clip0_225_696">
<rect width="187.132" height="187.132" fill="white"/>
</clipPath>
</defs>
</svg>
